<?xml version="1.0" encoding="UTF-8"?>
<!DOCTYPE svg  PUBLIC '-//W3C//DTD SVG 1.1//EN'  'http://www.w3.org/Graphics/SVG/1.1/DTD/svg11.dtd'>
<svg version="1.1" xmlns="http://www.w3.org/2000/svg">
<defs>
<font id="PTAstraSerif-Bold" horiz-adv-x="1024">
<font-face font-family="PT Astra Serif" font-weight="700" ascent="1638" bbox="-161 -529 2223 1752.27" cap-height="1356" descent="-410" panose-1="2 10 7 3 4 5 5 2 2 4" underline-position="-319" underline-thickness="195" unicode-range="U+0020-F6D4" units-per-em="2048" x-height="935"/>
<missing-glyph/>
<glyph glyph-name="space" horiz-adv-x="512" unicode=" "/>
<glyph glyph-name="space" horiz-adv-x="512" unicode=" "/>
<glyph d="M297 422l-97 376v538q20 12 58.5 17t80.5 5t80.5 -6t59.5 -16v-538l-97 -376h-85zM176 137q0 35 12 63.5t34 49t52.5 31.5t66.5 11q37 0 67.5 -11t52.5 -31.5t34 -49t12 -63.5t-12 -63t-34 -47.5t-52.5 -30.5t-67.5 -11q-36 0 -66.5 11t-52.5 30.5t-34 47.5t-12 63z" glyph-name="exclam" horiz-adv-x="682" unicode="!"/>
<glyph d="M613 1381q13 33 59.5 54t105.5 21q53 0 103 -19.5t61 -55.5l-116 -467h-97zM195 1381q13 33 59.5 54t105.5 21q53 0 103 -19.5t61 -55.5l-116 -467h-97z" glyph-name="quotedbl" horiz-adv-x="1137" unicode='"'/>
<glyph d="M575 426h-241l-73 -313h-137l73 313h-157l37 124h149l60 256h-149l37 124h143l76 313h135l-73 -313h240l75 313h136l-76 -313h153l-42 -124h-141l-61 -256h148l-43 -124h-134l-73 -313h-136zM364 550h240l60 256h-241z" glyph-name="numbersign" unicode="#"/>
<glyph d="M448 -24q-58 0 -116.5 9t-108.5 23t-88.5 30t-57.5 34q3 76 19.5 150t32.5 117h81l98 -188q20 -16 51.5 -30t88.5 -18v490q-4 2 -9 3t-9 4l-44 19q-60 26 -116 62t-100.5 83t-72 111t-27.5 145q0 80 28.5 142.5t78.5 107.5t120 72t151 33v96h135v-94q93 -4 168 -21.5 t143 -46.5q0 -29 -5 -61t-13 -62t-17.5 -55.5t-16.5 -38.5h-80l-99 150q-15 3 -33.5 6t-46.5 3v-465l74 -30q58 -28 116 -62t104 -80.5t74 -108.5t28 -147q0 -153 -101 -251.5t-295 -123.5v-118h-135v111zM727 322q0 83 -46.5 132t-115.5 86v-427q77 20 119.5 72.5 t42.5 136.5zM310 1057q0 -81 45 -130t112 -86v406q-74 -9 -115.5 -58.5t-41.5 -131.5z" glyph-name="dollar" unicode="$"/>
<glyph d="M1176 306q0 67 22.5 126.5t65.5 104.5t105.5 71.5t143.5 26.5q82 0 145.5 -23t106 -66t64.5 -104t22 -136q0 -68 -21.5 -128t-64.5 -104.5t-106 -70.5t-145 -26q-75 0 -137 20t-106.5 61t-69.5 103t-25 145zM1394 306q0 -55 6.5 -99t21 -74.5t37 -47t54.5 -16.5 q63 0 91.5 57.5t28.5 179.5q0 121 -29 178t-91 57q-64 0 -91.5 -57t-27.5 -178zM197 1050q0 67 22.5 126.5t65.5 104.5t105.5 71.5t143.5 26.5q82 0 145.5 -23t106 -66t64.5 -104t22 -136q0 -68 -21.5 -128t-64.5 -104.5t-106 -70.5t-145 -26q-75 0 -137 20t-106.5 61 t-69.5 103t-25 145zM415 1050q0 -55 6.5 -99t21 -74.5t37 -47t54.5 -16.5q63 0 91.5 57.5t28.5 179.5q0 121 -29 178t-91 57q-64 0 -91.5 -57t-27.5 -178zM1543 1384l93 -81l-1133 -1329l-91 84z" glyph-name="percent" horiz-adv-x="2048" unicode="%"/>
<glyph d="M963 225q-62 52 -125.5 119.5t-121 137.5t-104 136t-73.5 112q-57 -70 -82 -133t-25 -148q0 -72 23 -132t65 -103.5t98 -67.5t122 -24q58 0 119 24t104 79zM566 1127q0 -29 11.5 -64t30 -69.5t40.5 -67.5t44 -58q65 50 96.5 121.5t27.5 152.5q-4 55 -34 93t-92 38 q-64 0 -94 -45t-30 -101zM1247 0q-39 24 -91 55.5t-102 81.5q-60 -61 -168.5 -111t-248.5 -50q-129 0 -223 36t-154 93.5t-89 129t-29 144.5q0 90 34 164t82 132.5t103.5 100t96.5 65.5q-49 52 -84 125.5t-35 145.5q0 48 20.5 96.5t62 86t102.5 61t143 23.5q140 0 227 -62 t87 -178q0 -56 -19.5 -106.5t-51.5 -95t-74 -84.5t-88 -73q133 -183 366 -390q16 20 35 71t32.5 114.5t17.5 135t-11 135.5q-32 6 -55 18t-48 29v75h441v-75q-52 -33 -127 -47q-10 -83 -29.5 -164.5t-45.5 -153t-55 -127.5t-58 -87q67 -61 137 -107t138 -85l99 -46v-76h-338 z" glyph-name="ampersand" horiz-adv-x="1706" unicode="&amp;"/>
<glyph d="M120 1381q13 33 59.5 54t105.5 21q53 0 103 -19.5t61 -55.5l-116 -467h-97z" glyph-name="quotesingle" horiz-adv-x="569" unicode="'"/>
<glyph d="M593 -407q-61 37 -124.5 82.5t-122 102t-109.5 125.5t-89.5 154t-60 187.5t-21.5 226.5q1 169 45.5 303.5t118.5 241.5t169.5 191.5t199.5 152.5l57 -61q-75 -83 -134 -167.5t-100.5 -182.5t-63 -215t-21.5 -263q0 -142 23.5 -260.5t65.5 -218t100.5 -182t129.5 -152.5z " glyph-name="parenleft" horiz-adv-x="682" unicode="("/>
<glyph d="M26 -342q71 70 129.5 152.5t100.5 182t65.5 218t23.5 260.5q0 146 -21.5 263t-63 215t-100.5 182.5t-134 167.5l57 61q69 -45 135 -97.5t125 -114t109 -132.5t86 -155t56.5 -181t21.5 -209q0 -123 -21.5 -226t-60 -188t-89.5 -154t-109.5 -125.5t-122 -102t-124.5 -82.5z " glyph-name="parenright" horiz-adv-x="682" unicode=")"/>
<glyph d="M176 1156q-12 16 -5 48t24.5 63.5t42.5 55.5t49 26l176 -205q0 -28 -26 -42zM293 831q-22 0 -46 24t-43.5 56t-29.5 65t1 50l261 51q27 -16 27 -41zM628 765q-8 -15 -40 -24t-69 -10t-69.5 6.5t-43.5 23.5l84 254q27 16 52 0zM848 1026q12 -21 5 -54t-23 -63.5t-40.5 -53 t-47.5 -22.5l-170 200q0 24 22 40zM746 1347q22 2 45 -18t38 -50t22 -64t2 -57l-260 -58q-23 18 -23 42zM406 1416q9 18 39.5 27t67.5 9t69 -8.5t42 -27.5l-83 -254q-26 -16 -51 0z" glyph-name="asterisk" unicode="*"/>
<glyph d="M148 743h359v380h154v-380h358v-154h-358v-391h-154v391h-359v154z" glyph-name="plus" horiz-adv-x="1167" unicode="+"/>
<glyph d="M64 -253q39 11 69.5 34t53 52.5t34.5 62t10 63.5q-28 35 -65.5 56.5t-80.5 34.5q-9 41 -2.5 81.5t26 75.5t45.5 59t55 30q41 -2 79.5 -18.5t70 -46.5t49.5 -76t18 -109q0 -59 -24.5 -121t-66 -115.5t-99.5 -93t-127 -55.5z" glyph-name="comma" horiz-adv-x="512" unicode=","/>
<glyph d="M67 634h547v-175h-547v175z" glyph-name="hyphen" horiz-adv-x="682" unicode="-"/>
<glyph d="M67 634h547v-175h-547v175z" glyph-name="hyphen" horiz-adv-x="682" unicode="­"/>
<glyph d="M92 137q0 70 44 112.5t118 42.5t120.5 -42.5t46.5 -112.5q0 -69 -46.5 -110.5t-120.5 -41.5t-118 41.5t-44 110.5z" glyph-name="period" horiz-adv-x="512" unicode="."/>
<glyph d="M561 1386l117 -42l-672 -1605l-116 43z" glyph-name="slash" horiz-adv-x="569" unicode="/"/>
<glyph d="M65 678q0 347 114.5 524t332.5 177q94 0 164 -27.5t120 -76t81.5 -115t49.5 -144.5t25 -164t7 -174q0 -347 -112 -524.5t-347 -177.5q-118 0 -200.5 47.5t-134.5 138t-76 221t-24 295.5zM355 678q0 -139 3.5 -249.5t18.5 -187t44 -117.5t80 -41q52 0 85 33t51.5 104.5 t25 184.5t6.5 273q0 139 -3 249.5t-18.5 187t-47 117.5t-88.5 41q-51 0 -81.5 -33t-47.5 -105t-22.5 -185t-5.5 -272z" glyph-name="zero" unicode="0"/>
<glyph d="M864 0h-670v83q48 22 97.5 38t100.5 28v889l7 115q-54 -18 -111.5 -24t-120.5 -4l-10 72q104 27 224 73q61 23 116.5 50.5t107.5 58.5h66v-1230q48 -12 96.5 -28t96.5 -38v-83z" glyph-name="one" unicode="1"/>
<glyph d="M240 926h-66q-12 28 -27 67.5t-30 81.5t-28.5 84t-21.5 77q66 57 173 100q105 43 257 43q107 0 184.5 -27.5t128 -75.5t75 -112.5t24.5 -137.5q0 -117 -54 -223q-26 -54 -59.5 -103t-73.5 -95q-80 -92 -171 -171q-46 -39 -87 -74.5t-78 -67.5l-100 -67v-8l118 12h333 l95 216h66q6 -46 13 -108t12.5 -125t9.5 -120t4 -92h-887v124q50 44 113.5 103.5t130 130t130.5 149.5t113.5 162t80 167.5t30.5 166.5q0 107 -57 173q-57 67 -162 67q-32 0 -58.5 -3.5t-58.5 -14.5z" glyph-name="two" unicode="2"/>
<glyph d="M454 103q45 0 88 20.5t76 57t53.5 86.5t20.5 108q0 66 -22 114t-58 78.5t-82 45.5t-93 15h-113v76l283 381l64 68v7l-105 -12h-282l-76 -197h-65q-10 42 -20.5 97t-19 111.5t-14 108.5t-5.5 88h835v-96l-325 -408l-83 -85v-4l65 13q92 -3 164 -33t122 -81t76 -120 t26 -149q0 -97 -41.5 -174t-112 -131t-163 -83t-195.5 -29q-59 0 -116.5 9t-108.5 25t-93.5 37.5t-70.5 45.5l71 201h57q12 -13 32 -35.5t42 -48t44 -50t37 -42.5q19 -4 42.5 -9.5t65.5 -5.5z" glyph-name="three" unicode="3"/>
<glyph d="M970 0h-598v83q48 17 92 28.5t86 18.5v219h-533v87l701 943h105v-904h178v-126h-178v-219q38 -8 75 -19.5t72 -27.5v-83zM550 857l20 135h-6l-74 -135l-241 -332l-77 -64l137 14h241v382z" glyph-name="four" unicode="4"/>
<glyph d="M848 1462h65q1 -29 -2 -75.5t-8 -95t-12.5 -92t-15.5 -66.5h-521l-35 -277h161q105 0 187 -28t138.5 -81.5t86 -130.5t29.5 -174q0 -110 -38.5 -196.5t-106.5 -146.5t-162 -91.5t-205 -31.5q-113 0 -206 36q-94 36 -149 81l82 192h55q14 -14 31.5 -35t36 -44.5 t36.5 -46.5t32 -41q19 -7 37.5 -11t42.5 -4q58 0 105 20.5t79.5 57t50 87.5t17.5 113q0 69 -23 119.5t-64 84t-97 50t-123 16.5l-168 -2l77 707h496z" glyph-name="five" unicode="5"/>
<glyph d="M974 421q0 -101 -34.5 -183.5t-95.5 -140.5t-144 -89.5t-180 -31.5q-120 0 -208.5 38t-146.5 106t-86.5 161t-28.5 203q0 181 60.5 333t165.5 268t247 193.5t304 111.5l28 -83q-104 -32 -190.5 -89t-151 -136.5t-105 -181.5t-52.5 -224q13 22 34 47t52.5 45t75 33.5 t101.5 13.5q79 0 144.5 -24.5t112 -73.5t72.5 -123t26 -173zM684 393q0 143 -37.5 215t-133.5 72q-29 0 -54 -11t-45.5 -27.5t-36 -36.5t-25.5 -38q-6 -27 -8.5 -62.5t-2.5 -68.5q0 -65 8 -126.5t29 -109t57 -76.5t92 -29q46 0 76 24t48 65t25.5 95t7.5 114z" glyph-name="six" unicode="6"/>
<glyph d="M194 931h-67q-9 42 -19 100t-18.5 118.5t-14 116t-5.5 90.5h906v-92q-53 -81 -96.5 -156.5t-80 -149t-66.5 -145.5t-54 -145q-49 -146 -81 -308q-16 -81 -29.5 -170.5t-25.5 -189.5h-275q35 141 80 274t101 261t121 255t140 256l72 93l-97 -10h-417z" glyph-name="seven" unicode="7"/>
<glyph d="M50 304q0 67 23.5 124t64 103t95 80.5t117.5 57.5q-117 65 -183.5 155t-66.5 209q0 74 28.5 137.5t82.5 110t133 72.5t180 26q93 0 167.5 -23t126.5 -64.5t80 -99t28 -127.5q0 -117 -78 -202q-38 -43 -81.5 -73t-103.5 -49q82 -44 141 -88t97 -92.5t55.5 -103 t17.5 -118.5q0 -75 -29 -141.5t-87.5 -115.5t-146.5 -77.5t-205 -28.5q-110 0 -194.5 25t-143 69.5t-88.5 104.5t-30 129zM700 283q-1 65 -22.5 112t-58.5 84.5t-87.5 69.5t-109.5 67q-54 -53 -78 -121t-24 -142q0 -47 9 -93t32 -83t62 -59.5t99 -22.5q47 0 81 15.5 t55.5 41.5t31.5 60t10 71zM363 1073q0 -47 16.5 -90.5t47.5 -76.5q32 -35 72.5 -65t85.5 -55q27 25 44.5 53t27.5 59t13.5 66t3.5 74q0 114 -39.5 168t-114.5 54q-77 0 -117 -54q-40 -52 -40 -133z" glyph-name="eight" unicode="8"/>
<glyph d="M50 923q0 99 34 182.5t94.5 144t145.5 95t187 34.5q112 0 198.5 -37.5t145.5 -106t89 -165.5t30 -216q0 -179 -52 -331.5t-148 -268t-231.5 -188t-302.5 -90.5l-45 84q223 59 342 209q61 76 91 168.5t46 203.5q-13 -19 -35.5 -39t-53.5 -36t-70.5 -26t-87.5 -10 q-83 0 -152 25t-119 74t-78 122.5t-28 171.5zM341 945q0 -56 10 -106.5t32 -88.5t56.5 -60.5t84.5 -22.5q46 0 83.5 22t71.5 61q4 24 6 61t2 72q0 76 -8 144.5t-28 120t-54.5 82t-88.5 30.5q-47 0 -79 -19.5t-51.5 -58.5t-28 -98.5t-8.5 -138.5z" glyph-name="nine" unicode="9"/>
<glyph d="M177 830q0 70 44 112.5t118 42.5t120.5 -42.5t46.5 -112.5q0 -69 -46.5 -110.5t-120.5 -41.5t-118 41.5t-44 110.5zM177 137q0 70 44 112.5t118 42.5t120.5 -42.5t46.5 -112.5q0 -69 -46.5 -110.5t-120.5 -41.5t-118 41.5t-44 110.5z" glyph-name="colon" horiz-adv-x="682" unicode=":"/>
<glyph d="M140 628v59l747 455l69 -125l-413 -248l-159 -66l157 -60l451 -266l-107 -177z" glyph-name="less" horiz-adv-x="1167" unicode="&lt;"/>
<glyph d="M148 909h871v-155h-871v155zM148 579h871v-154h-871v154z" glyph-name="equal" horiz-adv-x="1167" unicode="="/>
<glyph d="M1027 715v-61l-747 -454l-69 125l413 248l159 66l-157 60l-451 264l107 179z" glyph-name="greater" horiz-adv-x="1167" unicode="&gt;"/>
<glyph d="M274 970h-65q-11 27 -24.5 64t-26 79t-22.5 85.5t-14 81.5q73 45 167 72t240 27q86 0 155.5 -24t118 -66t75 -100t26.5 -126q0 -66 -19.5 -116.5t-50 -91.5t-70 -74t-80.5 -64q-57 -39 -106 -85q-24 -23 -45.5 -47.5t-37 -53.5t-24.5 -63t-9 -75h-63q-20 66 -21 119 t11 97t34.5 80.5t48.5 70t53 65.5t49.5 67.5t36.5 75.5t14 89q0 38 -9 73.5t-29 62.5t-52 43.5t-78 16.5q-42 0 -72.5 -7.5t-45.5 -20.5zM288 137q0 70 44 112.5t119 42.5q37 0 67.5 -11t52.5 -31.5t34 -49t12 -63.5t-12 -63t-34 -47.5t-52.5 -30.5t-67.5 -11 q-75 0 -119 41.5t-44 110.5z" glyph-name="question" unicode="?"/>
<glyph d="M1164 869q45 22 107.5 31t126.5 7l-91 -520q-23 -119 -20.5 -178t56.5 -59q42 0 97.5 28t104 85t82 144.5t33.5 203.5q0 141 -51.5 253.5t-142.5 189t-215 116.5t-269 40q-162 0 -298 -57t-233 -157.5t-151.5 -240.5t-54.5 -302q0 -167 55.5 -291t152.5 -208t231 -126.5 t291 -42.5q55 0 124 13t126 40l29 -108q-65 -37 -144 -52t-174 -15q-166 0 -317 48.5t-265.5 146.5t-181.5 243t-67 340q0 205 70 369.5t191.5 280.5t282 178.5t344.5 62.5q177 0 325.5 -49t255.5 -142t166.5 -226.5t59.5 -303.5q0 -133 -47.5 -240t-124.5 -184.5 t-174 -119.5t-196 -42q-57 0 -98 13.5t-67 47.5t-34.5 88t2.5 135h-7q-17 -50 -49.5 -101.5t-74.5 -92t-93 -65.5t-103 -25q-127 0 -192 82t-65 209q0 111 36.5 219.5t101.5 193.5t155 138.5t196 53.5q65 0 109 -12.5t89 -39.5zM1127 777q-20 14 -43 22t-54 8 q-64 0 -118 -49t-94 -124t-62 -162t-22 -161q0 -65 22 -101t77 -36q31 0 64 26.5t64.5 68.5t60 95t53.5 105z" glyph-name="at" horiz-adv-x="1905" unicode="@"/>
<glyph d="M904 438h-458l-116 -308q88 -12 168 -56v-74h-474v74q32 19 65 33.5t67 22.5l515 1249h143l501 -1249q38 -8 74.5 -22.5t65.5 -33.5v-74h-601v74q37 17 79.5 32.5t81.5 23.5zM494 564h365l-132 369l-43 157h-4l-47 -160z" glyph-name="A" horiz-adv-x="1479" unicode="A"/>
<glyph d="M76 0v74q37 21 78.5 36.5t80.5 19.5v1095q-39 9 -81.5 23t-77.5 34v74h312q37 0 72 1.5t67 3.5q33 3 78 4.5t93 1.5q93 0 183.5 -10.5t162.5 -46.5q36 -18 66.5 -43t52.5 -58t34.5 -73.5t12.5 -89.5q0 -62 -22.5 -116t-61.5 -95.5t-92.5 -69.5t-115.5 -39v-8 q62 -7 124.5 -28.5t113 -61t82.5 -99t32 -143.5q0 -103 -48.5 -181.5t-128.5 -126.5q-42 -26 -92 -43t-103.5 -27t-110 -14.5t-111.5 -4.5q-44 0 -95.5 1.5t-102 4t-95.5 4t-76 1.5h-231zM683 114q30 0 61 4.5t59.5 13.5t52.5 22.5t42 31.5q72 75 72 195q0 73 -28.5 120.5 t-76.5 75.5t-109.5 38.5t-127.5 10.5h-114v-498q26 -6 68.5 -10t100.5 -4zM575 752q21 0 45.5 0.5t48.5 2t45.5 3.5t37.5 6q30 9 60 30.5t54 52.5t39 71t15 85q0 61 -18.5 104.5t-49.5 74.5q-16 16 -40 27.5t-51 18.5t-55 10.5t-53 3.5q-42 0 -78.5 -2t-60.5 -6v-482h61z " glyph-name="B" horiz-adv-x="1366" unicode="B"/>
<glyph d="M1215 407h79q7 -31 13.5 -75t11 -92.5t7.5 -97t3 -88.5q-50 -26 -102 -41t-105 -23.5t-106.5 -11t-105.5 -2.5q-161 0 -303 40.5t-248 126t-167.5 218.5t-61.5 319q0 123 30.5 222.5t84 177t125.5 134t155.5 93.5t174.5 54.5t182 17.5q63 0 128 -5.5t124 -15t108 -22 t82 -25.5q0 -27 -4 -75t-10.5 -102t-14.5 -106.5t-16 -88.5h-82l-106 293q-9 4 -30 7.5t-47 6.5t-52.5 5t-47.5 2q-52 0 -106.5 -14t-106 -44t-97 -76t-79.5 -110t-54 -147t-20 -185q0 -140 37.5 -248.5t99.5 -180.5q31 -36 71 -63t86 -45t94.5 -27.5t96.5 -9.5 q27 0 55.5 3.5t54 8t45.5 10t29 10.5z" glyph-name="C" horiz-adv-x="1479" unicode="C"/>
<glyph d="M65 0v74q33 19 73 33.5t85 22.5v1095q-45 11 -86 25t-72 32v74h225q32 0 87 2.5t114.5 5t115.5 5t91 2.5q168 0 301 -44t225.5 -129.5t141 -212t48.5 -290.5q0 -161 -46 -292.5t-139.5 -224.5t-235.5 -144t-333 -51q-17 0 -45.5 1.5t-62.5 3t-72 4t-74.5 4t-70 3 t-58.5 1.5h-212zM659 1245q-18 0 -40 -0.5l-44 -1t-41.5 -2t-31.5 -3.5v-1122q9 -1 31 -2.5t46.5 -2.5t47 -1.5t32.5 -0.5q121 0 204.5 46t135 125.5t74 186t22.5 226.5q0 71 -9.5 139.5t-30.5 130t-54.5 113t-82 89.5t-113 59t-146.5 21z" glyph-name="D" horiz-adv-x="1479" unicode="D"/>
<glyph d="M1215 1356q-4 -88 -13.5 -180.5t-25.5 -174.5h-80l-88 228h-459v-473h328l85 148h62q5 -48 7.5 -100.5t2.5 -110.5t-2.5 -111.5t-7.5 -104.5h-62l-85 153h-328v-504h474l103 246h79q8 -38 15 -84t12.5 -95.5t8.5 -99t3 -93.5h-1144v74q33 17 73.5 32.5t85.5 23.5v1095 q-39 9 -82.5 23t-76.5 34v74h1115z" glyph-name="E" horiz-adv-x="1366" unicode="E"/>
<glyph d="M525 130q87 -12 168 -56v-74h-598v74q31 17 65.5 31.5t73.5 24.5v1095q-45 11 -78.5 26t-60.5 31v74h1086q0 -39 -3 -85t-8.5 -93.5t-12.5 -93t-15 -83.5h-80l-89 228h-448v-508h349l76 133h60q14 -98 12 -203q-2 -104 -12 -192h-60l-76 136h-349v-465z" glyph-name="F" horiz-adv-x="1251" unicode="F"/>
<glyph d="M1387 85q-34 -21 -91 -40.5t-121 -35t-128.5 -24.5t-113.5 -9q-211 0 -369.5 50.5t-264.5 164.5q-81 88 -125 211.5t-44 275.5q0 80 17 155.5t47 142t70.5 122.5t87.5 98q55 49 117 84t128.5 56.5t136 32t138.5 10.5q32 0 70.5 -2t78 -5t76.5 -7.5t65 -8.5q56 -8 109 -20 t85 -25q-1 -29 -4.5 -74.5t-9.5 -97.5t-14.5 -105t-17.5 -95h-80l-108 291q-40 11 -89.5 17t-113.5 6q-46 0 -95 -10t-96 -31t-89 -53.5t-75 -78.5q-49 -69 -81 -170.5t-32 -236.5q0 -115 28.5 -214.5t78.5 -169.5q40 -56 85 -92t94 -57t99.5 -29t100.5 -8q60 0 117 13 t103 39v364q-51 4 -95.5 19.5t-83.5 36.5v74h529v-74q-18 -17 -46.5 -31.5t-73.5 -24.5v-434z" glyph-name="G" horiz-adv-x="1593" unicode="G"/>
<glyph d="M657 0h-587v74q33 17 76.5 32.5t82.5 23.5v1095q-46 9 -88.5 24t-70.5 33v74h587v-74q-29 -20 -65 -35t-73 -22v-468h555v468q-43 9 -77 24t-61 33v74h587v-74q-33 -22 -75.5 -35t-83.5 -22v-1095q45 -8 86.5 -23.5t72.5 -32.5v-74h-587v74q29 17 64 32.5t74 23.5v502 h-555v-502q39 -8 72 -21.5t66 -34.5v-74z" glyph-name="H" horiz-adv-x="1593" unicode="H"/>
<glyph d="M700 0h-604v74q77 42 157 56v1095q-39 7 -81.5 22t-75.5 35v74h604v-74q-34 -22 -76 -36t-80 -21v-1095q38 -8 80 -21.5t76 -34.5v-74z" glyph-name="I" horiz-adv-x="797" unicode="I"/>
<glyph d="M193 1356h636v-74q-15 -10 -36 -18.5t-43.5 -16t-45.5 -13.5t-42 -9v-990q0 -80 -9.5 -145t-33.5 -116q-23 -51 -54 -91.5t-63 -69.5q-16 -15 -35.5 -27.5t-40 -23.5t-40 -19.5t-36.5 -15.5q-34 -14 -61.5 -23t-49.5 -14l-36 51q39 35 70.5 72t53 90t33 129.5t11.5 190.5 v1002q-20 3 -44 9.5t-48.5 14t-47 16t-38.5 17.5v74z" glyph-name="J" unicode="J"/>
<glyph d="M940 1356h519v-74q-33 -22 -75.5 -36t-77.5 -21l-431 -472q24 -31 65.5 -79t92.5 -106t108 -121t113 -122.5t106.5 -112.5t89.5 -90l93 -56v-66h-336l-78 54q-36 39 -86.5 95.5t-110.5 129.5t-126.5 162t-135.5 194h-151v-505q43 -8 78 -23.5t60 -32.5v-74h-587v74 q39 19 79.5 33.5t79.5 22.5v1095q-45 7 -86.5 22t-72.5 35v74h587v-74q-25 -16 -60.5 -31t-77.5 -26v-491l183 27l380 464q-39 9 -77 25t-65 32v74z" glyph-name="K" horiz-adv-x="1593" unicode="K"/>
<glyph d="M95 1356h636v-74q-42 -22 -90.5 -36t-96.5 -21v-1099h481l130 347h80q7 -44 13 -105t10.5 -126.5t6.5 -129t0 -112.5h-1170v74q45 22 84.5 36t74.5 20v1095q-95 16 -159 57v74z" glyph-name="L" horiz-adv-x="1366" unicode="L"/>
<glyph d="M1851 0h-580v74q39 19 76 32.5t79 23.5v809l10 227h-15l-66 -207l-397 -959h-89l-396 951l-70 226h-17l2 -246v-794q37 -7 81.5 -24.5t83.5 -38.5v-74h-473v74l76 36q48 22 87 29v1086q-39 9 -82.5 22t-76.5 35v74h525l320 -789l56 -186h2l59 190l326 785h481v-74 q-33 -20 -71 -34t-77 -23v-1097q42 -8 79.5 -23.5t66.5 -30.5v-74z" glyph-name="M" horiz-adv-x="1933" unicode="M"/>
<glyph d="M954 1356h480v-74q-36 -29 -81 -51.5t-84 -33.5v-1221h-164l-684 989l-77 149h-6l18 -155v-808q39 -9 86 -32t80 -45v-74h-478v74q35 22 76.5 42.5t85.5 34.5v1057q-38 16 -77 35t-70 41v72h419l555 -806l90 -166h7l-9 166v647q-47 15 -90.5 37.5t-76.5 47.5v74z" glyph-name="N" horiz-adv-x="1479" unicode="N"/>
<glyph d="M88 678q0 151 49.5 279.5t141.5 222.5t223.5 146.5t295.5 52.5t295 -52.5t222.5 -146.5t140.5 -222.5t49 -279.5q0 -152 -49 -280.5t-140.5 -222.5t-222.5 -146.5t-295 -52.5t-295 52.5t-223.5 146.5t-142 222.5t-49.5 280.5zM417 678q0 -125 26.5 -230t77 -182t125 -120 t170.5 -43q88 0 155 43t112.5 120t69 182t23.5 230q0 124 -24.5 229.5t-74 182t-123 120t-171.5 43.5q-95 0 -164 -43.5t-114 -120t-66.5 -182t-21.5 -229.5z" glyph-name="O" horiz-adv-x="1593" unicode="O"/>
<glyph d="M515 130q52 -8 103.5 -22.5t91.5 -33.5v-74h-645v74q37 21 78.5 34.5t80.5 21.5v1095q-45 9 -85.5 23t-73.5 34v74h244q39 0 83 1.5t94 5.5q51 4 96.5 6t87.5 2q103 0 198.5 -20.5t169.5 -68.5t118.5 -128.5t44.5 -200.5q0 -114 -43.5 -197.5t-116.5 -137.5t-169.5 -80 t-201.5 -26h-31t-46.5 0.5t-46.5 1.5t-31 3v-387zM620 1245q-39 0 -61.5 -3t-43.5 -8v-589q26 -7 54 -7.5t54 -0.5q51 0 98 17t83 54t57.5 95t21.5 140q0 78 -15.5 139.5t-54.5 99.5q-38 38 -84.5 50.5t-108.5 12.5z" glyph-name="P" horiz-adv-x="1251" unicode="P"/>
<glyph d="M1521 -217q-35 -36 -74.5 -70.5t-83 -61t-91.5 -42.5t-101 -16q-45 0 -89.5 9t-89.5 23.5t-92 34t-96 40.5t-100 41t-105 38t-112.5 32t-121.5 23l49 85q94 17 183.5 8t177.5 -29.5t176 -45.5t177.5 -40t182.5 -14t192 34zM88 678q0 151 49.5 279.5t141.5 222.5 t223.5 146.5t295.5 52.5t295 -52.5t222.5 -146.5t140.5 -222.5t49 -279.5q0 -152 -49 -280.5t-140.5 -222.5t-222.5 -146.5t-295 -52.5t-295 52.5t-223.5 146.5t-142 222.5t-49.5 280.5zM417 678q0 -125 26.5 -230t77 -182t125 -120t170.5 -43q88 0 155 43t112.5 120t69 182 t23.5 230q0 124 -24.5 229.5t-74 182t-123 120t-171.5 43.5q-95 0 -164 -43.5t-114 -120t-66.5 -182t-21.5 -229.5z" glyph-name="Q" horiz-adv-x="1593" unicode="Q"/>
<glyph d="M530 130q45 -10 79.5 -25.5t67.5 -30.5v-74h-597v74q43 22 81.5 35t77.5 21v1095q-98 22 -159 57v74h206q38 0 91 2.5t112 5t119 5t112 2.5q107 0 199.5 -24t160 -72.5t106 -121.5t38.5 -170q0 -69 -20.5 -126t-57 -101.5t-86.5 -78t-110 -56.5q39 -61 87.5 -127.5 t100.5 -131.5t103 -125t95 -109l93 -62v-66h-323l-84 64q-43 54 -86.5 114t-82.5 130q-19 34 -39.5 69t-40 70.5t-37 71t-30.5 68.5h-176v-457zM650 1245q-15 0 -32.5 -0.5t-34 -2t-30.5 -3.5t-23 -5v-541h114q24 0 51.5 4.5t54 13.5t50 22.5t41.5 31.5q35 35 58 87t23 122 q0 72 -22.5 123t-60 84t-86.5 48.5t-103 15.5z" glyph-name="R" horiz-adv-x="1479" unicode="R"/>
<glyph d="M330 161q10 -9 28 -19t41.5 -19t50 -14.5t54.5 -5.5q54 0 96 13.5t77 41.5t51 66t16 88q0 73 -46 120q-46 48 -115 89t-150 80q-78 40 -149 94q-68 55 -115 129q-45 73 -45 185q0 94 35.5 164t97.5 115.5t145.5 68t180.5 22.5q120 0 221 -16.5t182 -51.5q-2 -39 -7 -89 t-12.5 -99.5t-16 -93.5t-17.5 -72h-79l-89 265q-12 6 -29.5 11.5t-39 10t-46 7t-48.5 2.5q-41 0 -77 -10.5t-64 -32.5q-56 -42 -56 -124q0 -74 46 -124q48 -51 117 -94t151 -85t153 -96q35 -27 64.5 -58t51.5 -68t34 -81.5t12 -98.5q0 -96 -33.5 -171.5t-99.5 -127.5 t-163 -79t-223 -27q-61 0 -124.5 9.5t-120 23.5t-100 30t-64.5 29q3 45 10 96.5t16 102.5t19 97t20 81h79z" glyph-name="S" horiz-adv-x="1139" unicode="S"/>
<glyph d="M145 948q-8 26 -18.5 63t-21.5 87t-21.5 114t-18.5 144h1236q-17 -152 -40 -253.5t-40 -154.5h-82q-17 44 -33 93t-30 91q-16 49 -30 97h-218v-1099q51 -10 100 -23.5t88 -32.5v-74h-666v74q39 15 87.5 31.5t99.5 24.5v1099h-217q-14 -48 -30 -97q-14 -42 -30 -91 t-33 -93h-82v0z" glyph-name="T" horiz-adv-x="1366" unicode="T"/>
<glyph d="M55 1356h597v-74q-65 -41 -148 -57v-745q0 -95 23 -159t64.5 -103.5t100 -56.5t129.5 -17q64 0 118 18t94 58.5t62.5 106.5t22.5 163v726q-45 9 -92 26.5t-78 39.5v74h481v-74q-35 -25 -78 -41t-83 -25v-728q0 -124 -34 -218.5t-99 -158t-158.5 -96t-213.5 -32.5 q-131 0 -234 29t-174 87q-141 115 -141 372v754q-39 7 -81.5 21t-77.5 36v74z" glyph-name="U" horiz-adv-x="1479" unicode="U"/>
<glyph d="M1121 1225q-47 11 -88.5 26t-74.5 31v74h492v-74q-23 -16 -60.5 -31t-78.5 -26l-445 -1225l-192 -24l-500 1249q-38 11 -77 25t-68 32v74h645v-74q-34 -16 -74.5 -31t-84.5 -26l271 -763l45 -181h3l43 186z" glyph-name="V" horiz-adv-x="1479" unicode="V"/>
<glyph d="M1699 1225q-77 13 -163 57v74h489v-74q-33 -22 -70 -35t-72 -22l-342 -1225l-202 -24l-301 938l-292 -914l-203 -24l-377 1249q-42 9 -76.5 23t-65.5 34v74h628v-74q-33 -18 -75 -32t-86 -25l180 -683l40 -252h4l68 262l257 804h115l275 -794l65 -252h5l44 255z" glyph-name="W" horiz-adv-x="2048" unicode="W"/>
<glyph d="M880 1356h480v-74q-29 -16 -61 -31t-70 -26l-360 -494l419 -601q44 -10 80 -24.5t69 -31.5v-74h-628v74q31 17 65 31.5t72 24.5l-279 416l-273 -418q40 -6 75 -19.5t68 -34.5v-74h-495v74q63 39 131 56l406 542l-378 553q-36 11 -69 26t-64 31v74h613v-74 q-22 -14 -57 -28t-82 -29l238 -378l247 378q-38 9 -77 25t-70 32v74z" glyph-name="X" horiz-adv-x="1479" unicode="X"/>
<glyph d="M970 1356h475v-74q-29 -18 -65 -34t-73 -23l-406 -658v-437q39 -4 77 -20.5t70 -35.5v-74h-596v74q32 17 73 32.5t86 23.5v435l-421 660q-45 9 -84.5 24t-72.5 33v74h635v-74q-27 -16 -62 -31t-82 -26l307 -518l294 518q-45 11 -85.5 26t-69.5 31v74z" glyph-name="Y" horiz-adv-x="1479" unicode="Y"/>
<glyph d="M1129 408h82q7 -40 13.5 -91t13 -106.5t9 -110t2.5 -100.5h-1119v126l755 1103h-507l-114 -276h-81q-11 43 -18.5 97t-13 109t-7.5 106.5t-2 90.5h1061v-127l-751 -1103h557z" glyph-name="Z" horiz-adv-x="1366" unicode="Z"/>
<glyph d="M158 1356h453v-107h-201v-1588h201v-106h-453v1801z" glyph-name="bracketleft" horiz-adv-x="682" unicode="["/>
<glyph d="M726 -207l-111 -54l-776 1594l113 54z" glyph-name="backslash" horiz-adv-x="569" unicode="\"/>
<glyph d="M524 -445h-453v106h202v1588h-202v107h453v-1801z" glyph-name="bracketright" horiz-adv-x="682" unicode="]"/>
<glyph d="M566 1377h89l339 -536h-232l-154 261l-44 95l-56 -97l-177 -259h-135z" glyph-name="asciicircum" horiz-adv-x="1190" unicode="^"/>
<glyph d="M-19 -225h1061v-154h-1061v154z" glyph-name="underscore" unicode="_"/>
<glyph d="M546 1140l-87 -42l-361 281v56q12 12 50.5 22.5t82 16.5t82.5 7t53 -3z" glyph-name="grave" horiz-adv-x="682" unicode="`"/>
<glyph d="M866 271q0 -41 1 -71t4 -63l129 -19v-66q-24 -11 -61.5 -22.5t-79.5 -21t-83.5 -16.5t-72.5 -10h-64q-10 22 -15.5 43t-7.5 42q-2 22 -3 48t-2 57h-9q-9 -36 -31.5 -71t-57.5 -62.5t-82 -44.5t-104 -17q-61 0 -112.5 18.5t-89.5 52.5t-59.5 82t-21.5 108q0 83 36 138.5 t107 90t175.5 51.5t242.5 23q15 161 -13 235q-27 75 -122 75q-58 0 -105 -19l-89 -223h-82q-15 22 -29.5 51t-26 61t-20 66t-12.5 66q69 47 183 76t238 29q106 0 173.5 -23.5t106.5 -63.5t53.5 -94.5t14.5 -115.5q0 -57 -1.5 -107t-3 -97t-3 -92.5t-1.5 -93.5zM445 127 q39 0 67 14.5t47 36t30 45.5t16 43v187q-149 0 -214.5 -41t-65.5 -135q0 -72 31 -111t89 -39z" glyph-name="a" unicode="a"/>
<glyph d="M151 1222l-141 15v73q27 12 72.5 23t95.5 20t98 15t80 9h64v-618h4q38 94 111 146.5t179 52.5q165 0 251.5 -114t86.5 -347q11 -513 -518 -513q-47 0 -104.5 6t-112 15.5t-99.5 22t-67 26.5v1168zM593 809q-31 0 -57.5 -14t-48.5 -38.5t-38.5 -58t-28.5 -71.5v-497 q26 -14 56.5 -27t77.5 -13q45 0 85.5 18.5t68.5 64.5q30 50 42 129t12 182q0 75 -9.5 139t-31.5 106q-20 38 -49.5 59t-78.5 21z" glyph-name="b" horiz-adv-x="1139" unicode="b"/>
<glyph d="M860 152q-21 -36 -54 -68t-75 -55.5t-92.5 -37.5t-108.5 -14q-116 0 -202.5 35t-144 99.5t-86 155t-28.5 201.5t34 201.5t99 154.5t159 99t214 35q93 0 161.5 -19.5t119.5 -45.5q-3 -32 -9 -71t-14 -78t-18 -74t-22 -59h-91l-78 221q-15 8 -30 13.5t-44 5.5 q-38 0 -72.5 -18t-60.5 -61t-41.5 -113.5t-15.5 -176.5q0 -75 16.5 -140t50 -113t85 -75t122.5 -27q66 0 114.5 19.5t81.5 44.5z" glyph-name="c" horiz-adv-x="909" unicode="c"/>
<glyph d="M705 185q-10 -41 -33.5 -78.5t-58 -66t-78 -46t-91.5 -17.5q-186 0 -277 122.5t-91 363.5q0 123 32.5 215t92 152.5t143.5 91t188 30.5q55 0 95 -8t84 -21v299l-143 15v73q27 11 72.5 21t96 18.5t99 15.5t80.5 12h64v-1245l123 -14v-66q-26 -13 -67 -24t-86 -20t-87 -16 t-70 -10h-64l-16 203h-8zM534 127q57 0 103 43t74 139v503q-24 13 -60.5 23.5t-84.5 10.5q-109 0 -154 -93.5t-45 -280.5q0 -38 2 -75.5t6.5 -71t11.5 -61.5t16 -46q22 -45 54 -68t77 -23z" glyph-name="d" horiz-adv-x="1139" unicode="d"/>
<glyph d="M859 157q-20 -32 -52 -64t-77 -57.5t-104.5 -42t-133.5 -16.5q-113 0 -196.5 35t-139.5 99t-83.5 154.5t-27.5 201.5q0 105 31.5 199.5t88.5 158.5q118 133 324 133q95 0 171.5 -29t127.5 -91q40 -48 61.5 -114.5t21.5 -153.5q0 -62 -16 -119h-524q-1 -36 4 -70t14 -64 t21.5 -54.5t26.5 -42.5q75 -93 213 -93q60 0 115.5 17t100.5 50zM483 851q-38 0 -66 -21t-46 -60.5t-26.5 -95.5t-7.5 -126h263q10 63 9 118q-1 40 -7.5 74t-21 58.5t-38.5 38.5t-59 14z" glyph-name="e" horiz-adv-x="909" unicode="e"/>
<glyph d="M569 1377q78 0 130.5 -14t84.5 -26q-3 -23 -11.5 -55t-19 -65.5t-22 -64.5t-20.5 -51h-64l-69 178q-28 -7 -50.5 -18.5t-38 -40t-23.5 -80.5t-8 -140v-65h178v-118h-178v-699q49 -5 88 -16.5t81 -28.5v-73h-557v73q29 17 57.5 28.5t61.5 16.5v699h-137v74 q32 20 65.5 35.5t71.5 25.5v27q0 117 30.5 194t82.5 122t121 63.5t146 18.5z" glyph-name="f" horiz-adv-x="682" unicode="f"/>
<glyph d="M451 958q60 0 106.5 -7t81.5 -19t61 -28t46 -35q19 18 46 38t56.5 38.5t59.5 34t55 23.5q8 -11 16 -29t14.5 -38.5t11.5 -40t7 -32.5l-25 -46h-190q9 -13 20 -31t20 -40t15 -46.5t6 -50.5q0 -62 -21.5 -117t-68.5 -96t-123 -65.5t-184 -24.5q-30 0 -52 2t-35 4 q-6 -10 -15 -26.5t-9 -31.5q0 -24 19 -40t54 -28.5t83.5 -24t106.5 -26.5q58 -14 116.5 -35t105 -52t76 -74.5t29.5 -101.5q0 -82 -35 -140.5t-98 -95.5t-150 -54.5t-192 -17.5q-124 0 -208 20.5t-135.5 55t-73.5 78.5t-22 91q0 51 21 89t56.5 65t82.5 45t100 30 q-27 7 -53.5 19t-47 28t-33.5 37.5t-13 48.5q0 24 13.5 47.5t36 43.5t52 36t61.5 26q-119 27 -187.5 100t-68.5 191q0 35 10 67t26.5 60t37.5 51.5t43 40.5q27 21 61 37t71.5 26.5t77 15.5t78.5 5zM676 -143q0 51 -25 81.5t-67 51t-97.5 34.5t-116.5 32q-40 -32 -65 -73 t-25 -95q0 -85 54 -131.5t156 -46.5q48 0 82 11.5t53 26.5q26 21 38.5 50.5t12.5 58.5zM313 651q0 -49 8.5 -83.5t25.5 -60.5q16 -25 41 -39.5t65 -14.5q36 0 60.5 11.5t39.5 31.5q37 51 37 155q0 124 -48 169q-16 14 -36 22.5t-55 8.5q-33 0 -60 -14t-44 -39t-25.5 -60.5 t-8.5 -86.5z" glyph-name="g" unicode="g"/>
<glyph d="M1119 0h-486v73q23 13 47 24.5t56 20.5v378q0 81 -2.5 139.5t-16.5 97.5q-11 31 -34 53.5t-67 22.5q-36 0 -65 -16t-51.5 -41t-39 -55.5t-29.5 -58.5v-520q30 -8 53.5 -17t49.5 -28v-73h-490v73q29 15 56.5 26t60.5 19v1104l-136 15v73q28 12 71 23t90.5 19.5t95 15 t85.5 9.5h64v-630h2q15 41 39.5 79t58.5 67.5t78.5 47t100.5 17.5q68 0 123 -18t93.5 -63t59 -121t20.5 -192v-446q32 -7 58 -16.5t55 -28.5v-73z" glyph-name="h" horiz-adv-x="1139" unicode="h"/>
<glyph d="M541 0h-502v73q28 15 54 25.5t61 19.5v685l-116 14v74q28 11 69 21.5t86 19.5t89.5 15.5t77.5 10.5h64v-840q38 -9 64 -19.5t53 -25.5v-73zM120 1286q0 68 46.5 106.5t119.5 38.5q74 0 120.5 -38.5t46.5 -106.5q0 -66 -46.5 -105t-120.5 -39q-73 0 -119.5 39t-46.5 105z " glyph-name="i" horiz-adv-x="569" unicode="i"/>
<glyph d="M223 803l-123 14v74q27 13 69 24t88.5 19t92 14t79.5 10h64v-878q0 -88 -21 -156t-55 -119t-78 -87t-86.5 -59.5t-78.5 -36t-55 -18.5l-37 55q14 9 31 22.5t33.5 34t31 49.5t24.5 68q10 41 15.5 93t5.5 118v759zM187 1286q0 68 46.5 106.5t119.5 38.5q74 0 120.5 -38.5 t46.5 -106.5q0 -66 -46.5 -105t-120.5 -39q-73 0 -119.5 39t-46.5 105z" glyph-name="j" horiz-adv-x="682" unicode="j"/>
<glyph d="M631 935h438v-72q-35 -15 -66.5 -26.5t-68.5 -19.5q-26 -32 -59.5 -70t-68 -75.5t-66 -70.5t-53.5 -56q28 -38 65 -89t80 -108t90.5 -116.5t96.5 -113.5l95 -45v-73h-316l-51 44q-43 58 -76.5 109t-61.5 97.5t-52.5 90t-48.5 87.5l-66 18v-328q32 -6 58 -17t56 -28v-73 h-507v73q61 30 123 45v1104l-142 15v73q26 12 71 23t95.5 19.5t99.5 15t82 9.5h64v-848h52q27 31 57.5 68.5t61 76t57.5 75.5t46 68q-25 8 -45 19.5t-40 26.5v72z" glyph-name="k" horiz-adv-x="1139" unicode="k"/>
<glyph d="M546 0h-507v73q57 30 118 45v1104l-137 15v73q25 12 67 23t90.5 20t97.5 15t88 9h64v-1259q62 -15 119 -45v-73z" glyph-name="l" horiz-adv-x="569" unicode="l"/>
<glyph d="M1104 0h-468v73q19 11 42 23.5t51 21.5v373q0 85 -5.5 145t-20 98.5t-40.5 56.5t-66 18q-25 0 -49 -12t-45 -34.5t-38 -53.5t-27 -68v-523q24 -7 47.5 -18.5t46.5 -26.5v-73h-482v73q27 13 55.5 24.5t62.5 20.5v685l-118 14v74q36 15 79 26t86.5 19t85 13.5t74.5 8.5h63 v-211h2q30 88 100 149q71 62 178 62q45 0 88 -9.5t79 -35t62.5 -70t37.5 -115.5q17 51 44.5 93.5t64.5 73t84 47t103 16.5q69 0 122.5 -18t90 -63t55.5 -121.5t19 -194.5v-443q62 -10 118 -45v-73h-482v73q43 28 95 45v406q0 146 -28 215q-27 70 -117 70q-61 0 -99 -51 t-56 -135v-505q31 -9 56.5 -20.5t48.5 -24.5v-73z" glyph-name="m" horiz-adv-x="1706" unicode="m"/>
<glyph d="M1119 0h-485v73q24 13 47 23.5t55 21.5v449q0 59 -5.5 104t-20 76t-39.5 46.5t-64 15.5q-34 0 -61 -14t-48 -37t-37 -54.5t-27 -65.5v-520q30 -8 53 -18t50 -27v-73h-487v73q24 12 50 23t64 22v685l-114 14v74q25 11 63 21.5t82 19.5t89.5 15.5t86.5 10.5h63v-193h1 q17 38 36.5 64.5t44.5 51.5q31 31 80 54t106 23q73 0 129.5 -18t95.5 -63t59 -121t20 -192v-446q37 -7 62.5 -18t50.5 -27v-73z" glyph-name="n" horiz-adv-x="1139" unicode="n"/>
<glyph d="M48 468q0 111 31 201t90.5 154.5t146 99.5t196.5 35q127 0 215 -39.5t143.5 -106.5t80.5 -156t25 -188q0 -107 -32 -197t-92 -155.5t-146 -102t-194 -36.5q-119 0 -206.5 38t-144.5 104t-85 155.5t-28 193.5zM339 468q0 -78 6 -146.5t26.5 -119.5t59.5 -80.5t104 -29.5 q70 0 110.5 90t40.5 286q0 78 -7.5 146.5t-28 119.5t-57.5 80.5t-96 29.5q-84 0 -121 -90.5t-37 -285.5z" glyph-name="o" unicode="o"/>
<glyph d="M566 -367h-516v74q67 31 123 44v1052l-123 14v74q30 13 74 24t91 19t90.5 14t73.5 10h64v-210h1q31 89 100 150q69 60 191 60q82 0 145.5 -29.5t107 -89.5t66.5 -150.5t23 -213.5q0 -119 -30.5 -211.5t-89 -156.5t-143 -97t-193.5 -33q-64 0 -101 9q-18 4 -37.5 11 t-39.5 17v-263q29 -3 59 -13t64 -31v-74zM623 809q-57 0 -104 -44t-76 -140v-498q29 -22 63 -32.5t88 -10.5t90.5 25.5t59 76.5t32.5 126.5t10 174.5q0 76 -10.5 134t-30.5 100q-19 42 -46.5 65t-75.5 23z" glyph-name="p" horiz-adv-x="1139" unicode="p"/>
<glyph d="M699 166q-14 -37 -37 -71t-56 -60.5t-76.5 -42t-97.5 -15.5q-171 0 -264.5 116.5t-93.5 349.5q0 256 135.5 382.5t387.5 126.5q53 0 111 -6t110.5 -14.5t94 -18.5t62.5 -18v-1144q62 -11 124 -44v-74h-516v74q59 31 124 44v415h-8zM526 127q35 0 63.5 13.5t51 37.5t39 57 t27.5 72v512q-16 5 -29.5 10t-27.5 8.5t-30 6t-37 2.5q-54 0 -97 -25.5t-66 -69.5q-23 -43 -39 -112t-16 -173q0 -82 9.5 -142t26.5 -105t49.5 -68.5t75.5 -23.5z" glyph-name="q" horiz-adv-x="1139" unicode="q"/>
<glyph d="M599 720q-39 -11 -73 -45t-54 -79v-478q38 -4 75.5 -14.5t74.5 -30.5v-73h-542v73q34 19 64 28t59 17v685l-123 14v74q30 13 74 24t91 19t91 14t73 10h63v-249h8q17 39 45.5 81.5t67.5 80.5q38 37 86.5 59.5t97.5 27.5q9 -12 19 -31t20 -36q11 -23 21 -49t18 -49v-73 h-256z" glyph-name="r" horiz-adv-x="909" unicode="r"/>
<glyph d="M516 204q0 36 -18.5 64.5t-49.5 53.5t-72 47t-85 44t-82.5 47.5t-66.5 59.5t-44.5 78t-16.5 103q0 56 22.5 103.5t64 81.5t101 53t133.5 19q100 0 178.5 -14t144.5 -42q-8 -60 -30 -129q-11 -34 -19 -64.5t-19 -58.5h-63l-85 190q-11 3 -18.5 5t-15 3.5t-17 2t-24.5 0.5 q-28 0 -47.5 -9t-32 -24t-18 -34t-5.5 -39q0 -35 18.5 -62.5t48.5 -51t68.5 -45t79.5 -43.5q42 -23 81.5 -49t70.5 -59t50 -77t19 -103q0 -65 -29 -119.5t-80 -92.5q-28 -21 -63 -34t-72 -20t-74.5 -9.5t-70.5 -2.5q-45 0 -91 2.5t-94 12.5q-47 9 -81.5 21t-69.5 29 q2 34 11 68t22 69t26 66t29 58h63l92 -204q20 -8 43.5 -11.5t45.5 -3.5q23 0 50 4t49 20q23 16 33 42t10 54z" glyph-name="s" horiz-adv-x="797" unicode="s"/>
<glyph d="M14 891q62 42 139 62v152q16 12 75 33q29 11 62 19.5t70 15.5h63v-238h203v-118h-203v-484q0 -58 4.5 -98t18.5 -63t39.5 -34t53.5 -11q25 0 58 5.5t61 19.5l12 -62q-15 -15 -39 -34.5t-57 -37t-75 -29.5t-94 -12q-119 0 -185.5 64t-66.5 205v571h-139v74z" glyph-name="t" horiz-adv-x="682" unicode="t"/>
<glyph d="M150 351q0 60 2 124t4 115q3 51 4 103.5t1 109.5l-124 14v74q30 11 73.5 21.5t90 19.5t91 16t75.5 10h64q-2 -142 -7 -276.5t-5 -266.5q0 -31 1 -64t3.5 -63.5t7 -56.5t12.5 -43q16 -34 40 -47.5t56 -13.5q56 0 103.5 46.5t82.5 138.5v491l-121 14v74q28 12 70 22 t87.5 19t90.5 15.5t79 10.5h64v-826l122 -14v-66q-26 -11 -65 -22.5t-82 -21t-85.5 -16.5t-75.5 -10h-63l-12 222h-7q-15 -43 -38 -83.5t-58 -72.5t-83 -51.5t-112 -19.5q-68 0 -121 16t-89.5 58t-56 114.5t-19.5 185.5z" glyph-name="u" horiz-adv-x="1139" unicode="u"/>
<glyph d="M453 -23l-351 840q-26 10 -50.5 21t-47.5 25v72h492v-70q-25 -14 -50.5 -26t-57.5 -22l157 -457l28 -125h4l25 124l159 458q-59 16 -102 46v72h350v-72q-18 -14 -40.5 -25t-55.5 -21l-322 -817z" glyph-name="v" unicode="v"/>
<glyph d="M384 -23l-282 840q-27 10 -52 20.5t-46 25.5v72h472v-70q-26 -16 -52 -28t-54 -20l120 -423l24 -125h3l34 130l190 525l91 11l184 -537l40 -129h4l28 127l120 421q-19 4 -46.5 15.5t-55.5 30.5v72h351v-72q-20 -14 -41.5 -25t-55.5 -21l-247 -817l-177 -23l-144 433 l-36 145h-6l-45 -145l-147 -410z" glyph-name="w" horiz-adv-x="1479" unicode="w"/>
<glyph d="M614 529l305 -411q47 -15 91 -45v-73h-476v71q41 30 85 47l-164 249l-172 -249q27 -9 46.5 -20.5t38.5 -24.5v-73h-355v73q23 14 46.5 25.5t51.5 19.5l274 338l-275 361q-27 10 -47.5 20.5t-36.5 25.5v72h469v-70q-14 -14 -36.5 -27t-47.5 -21l141 -204l153 204 q-32 10 -50.5 21t-33.5 25v72h346v-72q-19 -14 -41.5 -25t-56.5 -21z" glyph-name="x" unicode="x"/>
<glyph d="M114 817q-28 8 -51 19.5t-48 26.5v72h493v-70q-41 -27 -108 -48l162 -429l33 -110h3l27 112l137 427q-55 12 -101 46v72h355v-72q-20 -14 -44 -25t-58 -21l-293 -817q-46 -120 -90.5 -196t-88 -120t-88 -62.5t-90.5 -23.5q-13 13 -28 37.5t-27.5 54.5t-21.5 61.5 t-11 57.5l26 45h224q8 13 15 27t13 29q7 15 16 39t17 54z" glyph-name="y" unicode="y"/>
<glyph d="M819 346q19 -76 34.5 -170t11.5 -176h-821v73l512 756h-294l-82 -220h-62q-22 80 -35 169t-13 157h782v-72l-508 -756h309l101 239h65z" glyph-name="z" horiz-adv-x="909" unicode="z"/>
<glyph d="M297 198q0 98 -40.5 154t-114.5 56v93q74 0 114.5 59t40.5 144v447q0 92 46.5 148.5t139.5 56.5h234v-107h-67q-53 0 -77 -27t-24 -89v-426q0 -64 -20.5 -108.5t-52 -73t-68.5 -42.5t-72 -18v-12q33 -4 71 -19.5t69.5 -46.5t52 -76t20.5 -108v-426q0 -60 23 -88t80 -28 h65v-106h-234q-88 0 -137 51.5t-49 151.5v440z" glyph-name="braceleft" horiz-adv-x="807" unicode="{"/>
<glyph d="M158 1356h135v-1608h-135v1608z" glyph-name="bar" horiz-adv-x="451" unicode="|"/>
<glyph d="M512 715q0 -99 40.5 -155.5t114.5 -56.5v-93q-74 0 -114.5 -59t-40.5 -144v-447q0 -93 -47 -149t-140 -56h-234v106h68q52 0 76 27t24 89v428q0 64 17.5 108.5t46 72.5t62 42.5t68.5 18.5v12q-33 3 -67.5 19t-63 47t-46 76.5t-17.5 107.5v424q0 60 -23 88t-79 28h-66v107 h236q87 0 136 -51.5t49 -151.5v-438z" glyph-name="braceright" horiz-adv-x="807" unicode="}"/>
<glyph d="M111 604q53 113 130 172q79 59 149 59q49 0 95 -20.5t91 -45.5t90.5 -45.5t93.5 -20.5q35 0 73 14.5t77 51.5l44 -58q-45 -94 -108.5 -139t-129.5 -45q-50 0 -97.5 20.5t-94.5 45t-93 45t-93 20.5q-42 0 -85.5 -23t-88.5 -83z" glyph-name="asciitilde" horiz-adv-x="1065" unicode="~"/>
<glyph d="M387.036 553.052l96.9883 -375.954v-537.935q-19.998 -11.999 -58.4932 -16.998t-80.4902 -4.99902q-41.9941 0 -80.4902 5.99902q-38.4951 5.99902 -59.4922 15.998v537.935l96.9883 375.954h84.9893zM508.021 838.017q0 -34.9961 -11.999 -63.4922 q-11.998 -28.4961 -33.9951 -48.9941q-21.998 -20.4971 -52.4941 -31.4961t-66.4912 -10.999q-36.9961 0 -67.4922 10.999t-52.4932 31.4961q-21.998 20.498 -33.9961 48.9941q-11.999 28.4961 -11.999 63.4922t11.999 62.9922q11.998 27.9971 33.9961 47.4941 q21.9971 19.498 52.4932 30.4971q30.4961 10.998 67.4922 10.998q35.9951 0 66.4912 -10.998q30.4961 -10.999 52.4941 -30.4971q21.9971 -19.4971 33.9951 -47.4941q11.999 -27.9961 11.999 -62.9922z" glyph-name="exclamdown" horiz-adv-x="682" unicode="¡"/>
<glyph d="M944 152q-25 -66 -97.5 -113t-174.5 -55v-302h-145v302q-225 24 -339.5 152t-114.5 332q0 209 117 332t337 150v285h145v-279q84 -4 153.5 -21.5t118.5 -41.5q-4 -32 -10.5 -71t-15 -77t-19.5 -74.5t-23 -59.5h-64l-67 221q-9 4 -19.5 9t-36.5 7l-29 1v-719q14 -3 28 -3 h29q66 0 114 18.5t82 45.5zM363 482q0 -109 42 -194.5t137 -128.5v675q-77 -27 -128 -110t-51 -242z" glyph-name="cent" unicode="¢"/>
<glyph d="M44 726h150q-46 70 -74 144.5t-28 163.5q0 81 33 145.5t91.5 108.5t139.5 67.5t176 23.5q59 0 120.5 -6t117 -16.5t101.5 -24t73 -27.5q-1 -31 -7.5 -77t-16 -95.5t-20.5 -96t-21 -79.5h-66l-78 265q-35 14 -77 22.5t-93 8.5q-41 0 -74.5 -12.5t-58 -36.5t-38 -58 t-13.5 -77q0 -45 10.5 -88t27 -85.5t36.5 -84.5t38 -85h242v-118h-209q1 -50 -5 -95t-21 -87t-40 -80.5t-61 -74.5l-65 -46v-8l100 12h342l95 216h66q4 -29 8.5 -67t9 -80t8 -85t6.5 -82.5t5 -73.5t2 -57h-926v105q69 32 116 66.5t76 77.5t41.5 97t12.5 125q0 39 -10.5 75.5 t-22.5 61.5h-219v118z" glyph-name="sterling" unicode="£"/>
<glyph d="M36 345l144 143l78 27q-25 33 -35.5 68.5t-10.5 86.5q0 89 46 153l-78 29l-142 144l151 150l141 -143l31 -77q31 21 65.5 32.5t85.5 11.5q100 -2 154 -42l32 75l139 139l151 -148l-143 -142l-74 -27q19 -33 29 -69.5t12 -86.5q0 -88 -41 -154l74 -27l141 -143l-150 -151 l-142 141l-28 75q-28 -17 -67.5 -28.5t-84.5 -11.5q-51 2 -89 12.5t-68 27.5l-27 -73l-144 -143zM512 512q69 0 117 44t48 114q0 69 -48 115t-117 46q-70 2 -117.5 -45t-47.5 -116q0 -70 47.5 -114t117.5 -44z" glyph-name="currency" unicode="¤"/>
<glyph d="M716 1356h426v-74q-15 -8 -33 -16.5t-36.5 -16t-35.5 -14t-29 -10.5l-284 -563h216v-126h-264v-110h264v-126h-264v-170q37 -4 75 -20.5t71 -35.5v-74h-596v74q33 17 73 32.5t85 23.5v170h-266v126h266v110h-266v126h213l-296 563q-15 4 -35 11.5t-40.5 15.5t-39 16 t-30.5 14v74h597v-74q-30 -16 -69 -31t-74 -26l259 -525l249 525q-19 6 -38.5 13.5t-38 15t-34 15t-25.5 13.5v74z" glyph-name="yen" unicode="¥"/>
<glyph d="M158 368h135v-620h-135v620zM293 736h-135v620h135v-620z" glyph-name="brokenbar" horiz-adv-x="451" unicode="¦"/>
<glyph d="M617 76q0 52 -40.5 87t-101.5 61t-132.5 53t-132.5 64.5t-101.5 93t-40.5 142.5q0 97 74 164.5t187 112.5q-41 22 -76 47t-61 57t-41.5 72.5t-15.5 92.5q0 117 99.5 186.5t262.5 69.5q105 0 189 -16t154 -36q-7 -63 -21 -114t-36 -109h-65l-101 149q-23 9 -43 12t-52 3 q-66 0 -96.5 -33.5t-30.5 -76.5q0 -53 41.5 -88.5t103.5 -65.5t134.5 -60t134.5 -69.5t104 -95t42 -134.5q0 -50 -23 -92.5t-57.5 -78.5t-79 -64.5t-87.5 -49.5q70 -38 119.5 -90.5t49.5 -138.5q0 -135 -107 -212.5t-301 -77.5q-94 0 -187.5 19.5t-165.5 54.5q4 70 23 117 t53 103h65l114 -162q22 -16 43 -18.5t44 -2.5q63 0 111 32.5t48 91.5zM695 582q0 44 -22.5 76.5t-58.5 57.5t-83 45.5t-97 42.5q-43 -31 -75 -75.5t-32 -93.5q0 -42 23 -74t61 -57.5t86 -45.5t99 -42q39 33 69 78.5t30 87.5z" glyph-name="section" unicode="§"/>
<glyph d="M0 1287q0 61 38.5 98t102.5 37q62 0 102 -37t40 -98q0 -59 -40 -96t-102 -37q-64 0 -102.5 37t-38.5 96zM399 1287q0 61 39 98t101 37q64 0 103.5 -37t39.5 -98q0 -59 -39.5 -96t-103.5 -37q-62 0 -101 37t-39 96z" glyph-name="dieresis" horiz-adv-x="682" unicode="¨"/>
<glyph d="M79 562q0 160 56.5 287t152.5 214.5t219 133.5t257 46t257 -46t219 -133.5t153 -214.5t57 -287q0 -161 -57 -287.5t-153 -214t-219 -134t-257 -46.5q-140 0 -264.5 46.5t-218.5 134t-148 214t-54 287.5zM208 562q0 -130 44.5 -234.5t120.5 -177t176.5 -112.5t214.5 -40 q119 0 220.5 40t175.5 112.5t117 177t43 234.5q0 133 -46.5 237.5t-123 177.5t-177.5 110.5t-209 37.5q-122 0 -223.5 -39.5t-175 -112.5t-115.5 -177.5t-42 -233.5zM970 426h65q4 -16 9 -40t8 -53t4 -58t-1 -52q-33 -27 -101.5 -45.5t-148.5 -18.5q-95 0 -173.5 26 t-135.5 77.5t-89 127t-32 174.5q0 100 36 175.5t93 126t129.5 76.5t146.5 26q92 0 160 -16.5t109 -40.5q2 -18 0 -47t-6 -61t-9 -63t-10 -51h-67l-57 161q-14 10 -37 10.5t-47 0.5q-87 0 -133.5 -73t-46.5 -224q0 -65 11 -119.5t34 -94.5t60 -62t89 -22q31 0 54 4.5t31 12.5 z" glyph-name="copyright" horiz-adv-x="1530" unicode="©"/>
<glyph d="M95 1160q-8 11 -16 29.5t-15.5 39.5t-13 41.5t-7.5 35.5q58 33 129 49t148 16q75 0 118.5 -14.5t66 -41.5t28.5 -65t6 -85q0 -37 -1 -71t-3 -76q-3 -83 -3 -144l77 -20v-68q-17 -10 -38.5 -19t-43.5 -16t-43 -12t-38 -7h-50q-21 57 -25 122h-7q-11 -18 -26.5 -39.5 t-37.5 -41t-51.5 -32.5t-67.5 -13q-80 0 -128 48.5t-48 136.5q0 103 76.5 148.5t216.5 45.5q13 0 29 -1t23 -1q1 13 1.5 33t0.5 30q0 22 -3.5 41t-12.5 33.5t-23.5 22.5t-36.5 8q-21 0 -38.5 -2t-28.5 -7l-45 -104h-69zM257 845q20 0 35 8.5t26.5 21t19 28t12.5 30.5v100 q-10 1 -30 2t-37 1q-47 0 -69 -24.5t-22 -71.5q0 -45 15.5 -70t49.5 -25z" glyph-name="ordfeminine" horiz-adv-x="614" unicode="ª"/>
<glyph d="M472 501l345 430l83 -70l-205 -346l217 -366l-82 -70zM54 501l464 432l76 -70l-279 -350l291 -365l-75 -72z" glyph-name="guillemotleft" unicode="«"/>
<glyph d="M163 776h841v-418h-155v244h-686v174z" glyph-name="logicalnot" horiz-adv-x="1167" unicode="¬"/>
<glyph d="M219 874q0 127 45 228t120 170.5t174 106.5t207 37q111 0 211 -37t174 -106.5t117.5 -170.5t43.5 -228q0 -129 -44.5 -229.5t-120 -170t-174 -106.5t-207.5 -37q-110 0 -210 37t-174.5 106.5t-118 170t-43.5 229.5zM339 874q0 -101 34 -181.5t92 -138t135.5 -87 t164.5 -29.5q91 0 169.5 29.5t136 86t89 137t31.5 183.5q0 100 -33.5 180.5t-91.5 136.5t-136 87t-165 31q-92 0 -169.5 -31t-135 -87t-89.5 -136.5t-32 -180.5zM705 680q25 -2 39 -6.5t27 -11.5v-63h-267v63q33 12 68 18v416q-21 2 -36.5 6.5t-31.5 15.5v59h101q35 0 83 4 t79 4q104 0 170.5 -37.5t66.5 -125.5q0 -59 -37 -97t-91 -55q17 -29 31.5 -52.5t30.5 -45.5t36 -45t47 -47l44 -24v-57h-124l-54 20q-48 59 -72.5 117t-45.5 114h-64v-170zM758 1105q-22 0 -31.5 -0.5t-21.5 -4.5v-176h57q46 0 71 23t23 75q-2 45 -28 64t-70 19z" glyph-name="registered" horiz-adv-x="1530" unicode="®"/>
<glyph d="M228 1199v135h569v-135h-569z" glyph-name="macron" unicode="¯"/>
<glyph d="M130 1105q0 61 22.5 111t60 86t89 56.5t107.5 20.5q57 0 108 -17.5t89 -51t60 -85.5t22 -120q0 -63 -22 -113.5t-60 -86t-89 -54t-108 -18.5q-56 0 -107.5 18.5t-89 54t-60 86t-22.5 113.5zM264 1105q0 -72 44.5 -113t100.5 -41q62 0 104 37.5t42 116.5q0 76 -42 115.5 t-104 39.5q-63 0 -104 -40.5t-41 -114.5z" glyph-name="degree" horiz-adv-x="819" unicode="°"/>
<glyph d="M127 976h358v380h154v-380h358v-155h-358v-256h-154v256h-358v155zM127 473h870v-155h-870v155z" glyph-name="plusminus" horiz-adv-x="1124" unicode="±"/>
<glyph d="M126 1209h-52q-10 27 -21.5 66.5t-21.5 80.5t-17.5 76.5t-8.5 55.5q31 18 64 33.5t70.5 27t81 18.5t97.5 7q52 0 100 -11.5t85.5 -38t60 -69.5t22.5 -106q0 -65 -28 -126t-78.5 -118t-121 -108t-154.5 -95v-11l59 13h167l85 130h61q4 -32 7 -74t5.5 -83t3 -76t0.5 -53 h-577v98q77 48 140.5 103.5t109.5 115t71 121t25 121.5q0 58 -26 90t-75 32q-25 0 -44 -4.5t-33 -12.5z" glyph-name="twosuperior" horiz-adv-x="614" unicode="²"/>
<glyph d="M261 845q24 0 46 9.5t38 27.5t25.5 43t9.5 57q0 30 -7 54t-23.5 40.5t-44 25.5t-69.5 9h-46v67l142 167l82 81v4l-120 -8h-88l-67 -161h-60q-8 31 -15 73t-13.5 85t-11 80t-5.5 57h547v-88l-171 -194l-67 -61v-2h19q46 0 89 -13t76.5 -40t54 -68t20.5 -97 q0 -44 -14.5 -91t-51.5 -85.5t-100 -63t-160 -24.5q-40 0 -80 7.5t-75.5 19t-63.5 25.5t-44 27l47 205h52q8 -11 19 -30t22.5 -41.5t22.5 -45.5t20 -42q12 -4 26.5 -6.5t38.5 -2.5z" glyph-name="threesuperior" horiz-adv-x="614" unicode="³"/>
<glyph d="M307 1478q15 4 51 3t75 -7t71 -16.5t42 -22.5v-47l-360 -290l-88 43z" glyph-name="acute" horiz-adv-x="682" unicode="´"/>
<glyph d="M291 25l91 -326v-74q-132 -28 -239 0v1178l-112 14v74q30 12 74 22t90.5 19t90.5 15.5t74 10.5h64q-1 -142 -6.5 -276.5t-5.5 -266.5q0 -77 6.5 -131.5t22 -89t41 -51t62.5 -16.5q58 0 104 49.5t78 135.5v491l-123 14v74q28 12 70 22t88.5 19t91.5 15.5t78 10.5h64v-826 l124 -14v-66q-27 -11 -66.5 -22.5t-83 -21t-86 -16.5t-74.5 -10h-65l-13 212h-6q-19 -49 -42 -80.5t-53 -62.5q-35 -35 -80 -54.5t-90 -19.5q-54 0 -95 13.5t-66 34.5h-8z" glyph-name="mu" horiz-adv-x="1180" unicode="µ"/>
<glyph d="M820 183q0 -131 -19.5 -215t-57.5 -135t-93 -77.5t-127 -42.5q-39 -55 -96 -83.5t-117 -39.5l-31 63q42 18 80 44t65.5 69.5t43.5 111.5t16 168v554q-62 0 -123 19.5t-110.5 63t-80 114.5t-30.5 171q0 82 24 152.5t71 122.5t121 82.5t173 30.5h437v-83q-32 -16 -67 -27.5 t-79 -20.5v-1042zM561 -215q80 25 107.5 124.5t27.5 273.5v1053h-85v-1190q0 -77 -11 -144t-39 -117z" glyph-name="paragraph" horiz-adv-x="1106" unicode="¶"/>
<glyph d="M177 621q0 70 44 112.5t118 42.5t120.5 -42.5t46.5 -112.5q0 -69 -46.5 -110.5t-120.5 -41.5t-118 41.5t-44 110.5z" glyph-name="periodcentered" horiz-adv-x="683" unicode="·"/>
<glyph d="M273 -131q117 -6 178 -42t62 -106q0 -56 -32.5 -96.5t-87 -68t-122 -40.5t-135.5 -13v75q135 21 135 110q-2 44 -37 63.5t-104 28.5l80 222h114z" glyph-name="cedilla" horiz-adv-x="682" unicode="¸"/>
<glyph d="M549 747h-481v58q6 4 23 13.5t37 20t39.5 19.5t31.5 12v426l7 87q-30 -7 -59 -11t-62 -4q-10 0 -16.5 0.5t-13.5 1.5v77q72 12 143.5 46t140.5 80h77v-703q33 -10 64.5 -26t68.5 -39v-58z" glyph-name="onesuperior" horiz-adv-x="614" unicode="¹"/>
<glyph d="M32 1048q0 70 20.5 129.5t59.5 102t96 66.5t130 24q145 0 225.5 -81.5t80.5 -240.5q0 -68 -20.5 -126.5t-59.5 -101.5t-96 -67.5t-130 -24.5t-130 21.5t-96 63t-59.5 101t-20.5 134.5zM244 1048q0 -110 21.5 -169t72.5 -59q49 0 72 53t23 175q0 120 -23 174t-72 54 q-52 0 -73 -54t-21 -174z" glyph-name="ordmasculine" horiz-adv-x="676" unicode="º"/>
<glyph d="M200 79l-82 70l211 352l-211 360l82 70l352 -425zM500 78l-75 71l284 352l-284 362l75 70l470 -427z" glyph-name="guillemotright" unicode="»"/>
<glyph d="M1334 1384l93 -81l-1133 -1329l-91 84zM525 545h-481v58q6 4 23 13.5t37 20t39.5 19.5t31.5 12v426l7 87q-30 -7 -59 -11t-62 -4q-10 0 -16.5 0.5t-13.5 1.5v77q72 12 143.5 46t140.5 80h77v-703q33 -10 64.5 -26t68.5 -39v-58zM1495 0h-472v59q12 7 29.5 15.5t37 16.5 t38.5 14.5t36 9.5v105h-407v70l490 538h135v-492h134v-116h-134v-105q19 -6 49.5 -19.5t63.5 -36.5v-59zM1164 524l16 95h-6l-57 -85l-139 -157l-70 -55l104 14h152v188z" glyph-name="onequarter" horiz-adv-x="1536" unicode="¼"/>
<glyph d="M1263 1384l93 -81l-1133 -1329l-91 84zM505 545h-481v58q6 4 23 13.5t37 20t39.5 19.5t31.5 12v426l7 87q-30 -7 -59 -11t-62 -4q-10 0 -16.5 0.5t-13.5 1.5v77q72 12 143.5 46t140.5 80h77v-703q33 -10 64.5 -26t68.5 -39v-58zM1055 460h-52q-10 27 -21.5 66.5 t-21.5 80.5t-17.5 76.5t-8.5 55.5q31 18 64 33.5t70.5 27t81 18.5t97.5 7q52 0 100 -11.5t85.5 -38t60 -69.5t22.5 -106q0 -65 -28 -126t-78.5 -118t-121 -108t-154.5 -95v-11l59 13h167l85 130h61q4 -32 7 -74t5.5 -83t3 -76t0.5 -53h-577v98q77 48 140.5 103.5t109.5 115 t71 121t25 121.5q0 58 -26 90t-75 32q-25 0 -44 -4.5t-33 -12.5z" glyph-name="onehalf" horiz-adv-x="1536" unicode="½"/>
<glyph d="M1345 1384l93 -81l-1133 -1329l-91 84zM268 643q24 0 46 9.5t38 27.5t25.5 43t9.5 57q0 30 -7 54t-23.5 40.5t-44 25.5t-69.5 9h-46v67l142 167l82 81v4l-120 -8h-88l-67 -161h-60q-8 31 -15 73t-13.5 85t-11 80t-5.5 57h547v-88l-171 -194l-67 -61v-2h19q46 0 89 -13 t76.5 -40t54 -68t20.5 -97q0 -44 -14.5 -91t-51.5 -85.5t-100 -63t-160 -24.5q-40 0 -80 7.5t-75.5 19t-63.5 25.5t-44 27l47 205h52q8 -11 19 -30t22.5 -41.5t22.5 -45.5t20 -42q12 -4 26.5 -6.5t38.5 -2.5zM1485 0h-472v59q12 7 29.5 15.5t37 16.5t38.5 14.5t36 9.5v105 h-407v70l490 538h135v-492h134v-116h-134v-105q19 -6 49.5 -19.5t63.5 -36.5v-59zM1154 524l16 95h-6l-57 -85l-139 -157l-70 -55l104 14h152v188z" glyph-name="threequarters" horiz-adv-x="1536" unicode="¾"/>
<glyph d="M751.033 5.11816h64.9922q10.999 -26.9961 24.4971 -63.9922q13.498 -36.9951 25.9971 -78.9902q12.498 -41.9951 22.4971 -85.4893q9.99902 -43.4951 13.998 -81.4902q-72.9912 -44.9941 -166.979 -71.9912t-239.971 -26.9971q-85.9893 0 -155.48 23.9971 q-69.4922 23.9971 -117.986 65.9922t-74.9902 99.9883q-26.4971 57.9922 -26.4971 125.984q0 65.9922 19.4971 116.485q19.498 50.4941 49.9941 91.4893t69.9922 73.9912q39.4951 32.9951 80.4893 63.9922q56.9932 38.9951 105.987 84.9893q23.9971 22.9971 45.4951 47.4941 q21.4971 24.4971 36.9951 53.4932q15.498 28.9971 24.4971 62.9922q8.99902 33.9961 8.99902 74.9912h62.9922q19.9971 -65.9922 20.9971 -118.985t-10.998 -96.9883q-11.999 -43.9941 -34.4961 -80.4902q-22.4971 -36.4951 -48.4941 -69.9912t-52.9932 -65.4922 q-26.9971 -31.9961 -49.4941 -67.4922q-22.4971 -35.4951 -36.4961 -75.4902q-13.998 -39.9951 -13.998 -88.9893q0 -37.9951 8.99902 -73.4912q8.99902 -35.4951 28.9961 -62.4922q19.998 -26.9971 51.9941 -43.4951q31.9961 -16.4971 77.9902 -16.4971 q41.9951 0 72.4912 7.49902t45.4941 20.4971zM737.035 838.017q0 -69.9912 -43.9951 -112.486q-43.9941 -42.4951 -118.985 -42.4951q-36.9951 0 -67.4912 10.999t-52.4941 31.4961q-21.9971 20.498 -33.9951 48.9941q-11.999 28.4961 -11.999 63.4922t11.999 62.9922 q11.998 27.9971 33.9951 47.4941q21.998 19.498 52.4941 30.4971q30.4961 10.998 67.4912 10.998q74.9912 0 118.985 -41.4951q43.9951 -41.4951 43.9951 -110.486z" glyph-name="questiondown" unicode="¿"/>
<glyph d="M904 438h-458l-116 -308q88 -12 168 -56v-74h-474v74q32 19 65 33.5t67 22.5l515 1249h143l501 -1249q38 -8 74.5 -22.5t65.5 -33.5v-74h-601v74q37 17 79.5 32.5t81.5 23.5zM494 564h365l-132 369l-43 157h-4l-47 -160zM869 1490l-66 -37l-457 185v39q6 18 42 32 t81.5 25t89 16t64.5 -1z" glyph-name="Agrave" horiz-adv-x="1479" unicode="À"/>
<glyph d="M904 438h-458l-116 -308q88 -12 168 -56v-74h-474v74q32 19 65 33.5t67 22.5l515 1249h143l501 -1249q38 -8 74.5 -22.5t65.5 -33.5v-74h-601v74q37 17 79.5 32.5t81.5 23.5zM494 564h365l-132 369l-43 157h-4l-47 -160zM879 1749q31 2 70.5 -3.5t77.5 -16.5t68 -24.5 t42 -27.5v-39l-479 -185l-54 46z" glyph-name="Aacute" horiz-adv-x="1479" unicode="Á"/>
<glyph d="M904 438h-458l-116 -308q88 -12 168 -56v-74h-474v74q32 19 65 33.5t67 22.5l515 1249h143l501 -1249q38 -8 74.5 -22.5t65.5 -33.5v-74h-601v74q37 17 79.5 32.5t81.5 23.5zM494 564h365l-132 369l-43 157h-4l-47 -160zM489 1449l-54 54l246 227q19 10 59.5 10t60.5 -10 l242 -221l-54 -58l-256 108z" glyph-name="Acircumflex" horiz-adv-x="1479" unicode="Â"/>
<glyph d="M904 438h-458l-116 -308q88 -12 168 -56v-74h-474v74q32 19 65 33.5t67 22.5l515 1249h143l501 -1249q38 -8 74.5 -22.5t65.5 -33.5v-74h-601v74q37 17 79.5 32.5t81.5 23.5zM494 564h365l-132 369l-43 157h-4l-47 -160zM1073 1592q-62 -61 -116 -93.5t-124 -32.5 q-36 0 -68.5 11t-63.5 22.5t-60 22t-60 10.5q-26 0 -58.5 -10.5t-63.5 -37.5l-54 91q148 131 261 131q35 0 67.5 -9.5t61 -21t58 -21t59.5 -9.5q26 0 57 8.5t61 29.5z" glyph-name="Atilde" horiz-adv-x="1479" unicode="Ã"/>
<glyph d="M904 438h-458l-116 -308q88 -12 168 -56v-74h-474v74q32 19 65 33.5t67 22.5l515 1249h143l501 -1249q38 -8 74.5 -22.5t65.5 -33.5v-74h-601v74q37 17 79.5 32.5t81.5 23.5zM494 564h365l-132 369l-43 157h-4l-47 -160zM344 1596q0 62 44.5 93t112.5 31q67 0 112 -31 t45 -93q0 -54 -45 -84.5t-112 -30.5q-68 0 -112.5 30.5t-44.5 84.5zM819 1596q0 62 45.5 93t113.5 31q67 0 111.5 -31t44.5 -93q0 -54 -44.5 -84.5t-111.5 -30.5q-68 0 -113.5 30.5t-45.5 84.5z" glyph-name="Adieresis" horiz-adv-x="1479" unicode="Ä"/>
<glyph d="M495 1526q0 81 70 127q71 47 188 47q50 0 94.5 -10.5t78.5 -31.5t53.5 -52.5t19.5 -73.5q0 -76 -70 -122q-45 -31 -110 -43l496 -1237q38 -8 74.5 -22.5t65.5 -33.5v-74h-601v74q37 17 79.5 32.5t81.5 23.5l-111 308h-458l-116 -308q88 -12 168 -56v-74h-474v74 q32 19 65 33.5t67 22.5l511 1239q-65 10 -106 39q-66 43 -66 118zM494 564h365l-132 369l-43 157h-4l-47 -160zM656 1526q0 -33 29 -50q28 -16 59 -16q45 0 69.5 16.5t24.5 47.5q0 45 -26 62.5t-63 17.5q-40 0 -66.5 -17.5t-26.5 -60.5z" glyph-name="Aring" horiz-adv-x="1479" unicode="Å"/>
<glyph d="M790 74q31 15 69 30.5t80 25.5v343h-379l-216 -343q40 -8 77 -22t72 -34v-74h-469v74q31 19 66 33.5t70 22.5l715 1106q-29 9 -58 19.5t-54 26.5v74h1135q-3 -88 -12.5 -180.5t-25.5 -174.5h-82l-89 228h-460v-473h336l86 148h60q5 -48 7.5 -100.5t2.5 -110.5 t-2.5 -111.5t-7.5 -104.5h-60l-86 153h-336v-504h475l104 246h81q7 -38 14 -84t12.5 -95.5t9 -99t3.5 -93.5h-1138v74zM639 599h300v366l9 163h-3l-70 -155z" glyph-name="AE" horiz-adv-x="2048" unicode="Æ"/>
<glyph d="M1215 407h79q7 -31 13.5 -75t11 -92.5t7.5 -97t3 -88.5q-50 -26 -102 -41t-105 -23.5t-106.5 -11t-105.5 -2.5q-12 0 -24 0.5t-24 0.5l-38 -90q115 -3 189 -45q73 -42 73 -127q0 -32 -11.5 -59.5t-32 -51t-48 -42t-59.5 -33.5t-66 -26t-68.5 -18t-66.5 -10.5t-59 -3.5v89 q33 5 61.5 14.5t49 24.5t31.5 35.5t11 47.5q-2 45 -34 70t-113 30l62 206q-131 18 -243 68.5t-194.5 135t-129 206t-46.5 282.5q0 123 30.5 222.5t84 177t125.5 134t155.5 93.5t174.5 54.5t182 17.5q63 0 128 -5.5t124 -15t108 -22t82 -25.5q0 -27 -4 -75t-10.5 -102 t-14.5 -106.5t-16 -88.5h-82l-106 293q-9 4 -30 7.5t-47 6.5t-52.5 5t-47.5 2q-52 0 -106.5 -14t-106 -44t-97 -76t-79.5 -110t-54 -147t-20 -185q0 -140 37.5 -248.5t99.5 -180.5q31 -36 71 -63t86 -45t94.5 -27.5t96.5 -9.5q27 0 55.5 3.5t54 8t45.5 10t29 10.5z" glyph-name="Ccedilla" horiz-adv-x="1479" unicode="Ç"/>
<glyph d="M1215 1356q-4 -88 -13.5 -180.5t-25.5 -174.5h-80l-88 228h-459v-473h328l85 148h62q5 -48 7.5 -100.5t2.5 -110.5t-2.5 -111.5t-7.5 -104.5h-62l-85 153h-328v-504h474l103 246h79q8 -38 15 -84t12.5 -95.5t8.5 -99t3 -93.5h-1144v74q33 17 73.5 32.5t85.5 23.5v1095 q-39 9 -82.5 23t-76.5 34v74h1115zM927 1490l-66 -37l-457 185v39q6 18 42 32t81.5 25t89 16t64.5 -1z" glyph-name="Egrave" horiz-adv-x="1366" unicode="È"/>
<glyph d="M1215 1356q-4 -88 -13.5 -180.5t-25.5 -174.5h-80l-88 228h-459v-473h328l85 148h62q5 -48 7.5 -100.5t2.5 -110.5t-2.5 -111.5t-7.5 -104.5h-62l-85 153h-328v-504h474l103 246h79q8 -38 15 -84t12.5 -95.5t8.5 -99t3 -93.5h-1144v74q33 17 73.5 32.5t85.5 23.5v1095 q-39 9 -82.5 23t-76.5 34v74h1115zM812 1749q31 2 70.5 -3.5t77.5 -16.5t68 -24.5t42 -27.5v-39l-479 -185l-54 46z" glyph-name="Eacute" horiz-adv-x="1366" unicode="É"/>
<glyph d="M1215 1356q-4 -88 -13.5 -180.5t-25.5 -174.5h-80l-88 228h-459v-473h328l85 148h62q5 -48 7.5 -100.5t2.5 -110.5t-2.5 -111.5t-7.5 -104.5h-62l-85 153h-328v-504h474l103 246h79q8 -38 15 -84t12.5 -95.5t8.5 -99t3 -93.5h-1144v74q33 17 73.5 32.5t85.5 23.5v1095 q-39 9 -82.5 23t-76.5 34v74h1115zM458 1449l-54 54l246 227q19 10 59.5 10t60.5 -10l242 -221l-54 -58l-256 108z" glyph-name="Ecircumflex" horiz-adv-x="1366" unicode="Ê"/>
<glyph d="M1215 1356q-4 -88 -13.5 -180.5t-25.5 -174.5h-80l-88 228h-459v-473h328l85 148h62q5 -48 7.5 -100.5t2.5 -110.5t-2.5 -111.5t-7.5 -104.5h-62l-85 153h-328v-504h474l103 246h79q8 -38 15 -84t12.5 -95.5t8.5 -99t3 -93.5h-1144v74q33 17 73.5 32.5t85.5 23.5v1095 q-39 9 -82.5 23t-76.5 34v74h1115zM311 1596q0 62 44.5 93t112.5 31q67 0 112 -31t45 -93q0 -54 -45 -84.5t-112 -30.5q-68 0 -112.5 30.5t-44.5 84.5zM786 1596q0 62 45.5 93t113.5 31q67 0 111.5 -31t44.5 -93q0 -54 -44.5 -84.5t-111.5 -30.5q-68 0 -113.5 30.5 t-45.5 84.5z" glyph-name="Edieresis" horiz-adv-x="1366" unicode="Ë"/>
<glyph d="M700 0h-604v74q77 42 157 56v1095q-39 7 -81.5 22t-75.5 35v74h604v-74q-34 -22 -76 -36t-80 -21v-1095q38 -8 80 -21.5t76 -34.5v-74zM620 1490l-66 -37l-457 185v39q6 18 42 32t81.5 25t89 16t64.5 -1z" glyph-name="Igrave" horiz-adv-x="797" unicode="Ì"/>
<glyph d="M700 0h-604v74q77 42 157 56v1095q-39 7 -81.5 22t-75.5 35v74h604v-74q-34 -22 -76 -36t-80 -21v-1095q38 -8 80 -21.5t76 -34.5v-74zM440 1749q31 2 70.5 -3.5t77.5 -16.5t68 -24.5t42 -27.5v-39l-479 -185l-54 46z" glyph-name="Iacute" horiz-adv-x="797" unicode="Í"/>
<glyph d="M700 0h-604v74q77 42 157 56v1095q-39 7 -81.5 22t-75.5 35v74h604v-74q-34 -22 -76 -36t-80 -21v-1095q38 -8 80 -21.5t76 -34.5v-74zM174 1449l-54 54l246 227q19 10 59.5 10t60.5 -10l242 -221l-54 -58l-256 108z" glyph-name="Icircumflex" horiz-adv-x="797" unicode="Î"/>
<glyph d="M700 0h-604v74q77 42 157 56v1095q-39 7 -81.5 22t-75.5 35v74h604v-74q-34 -22 -76 -36t-80 -21v-1095q38 -8 80 -21.5t76 -34.5v-74zM4 1596q0 62 44.5 93t112.5 31q67 0 112 -31t45 -93q0 -54 -45 -84.5t-112 -30.5q-68 0 -112.5 30.5t-44.5 84.5zM479 1596 q0 62 45.5 93t113.5 31q67 0 111.5 -31t44.5 -93q0 -54 -44.5 -84.5t-111.5 -30.5q-68 0 -113.5 30.5t-45.5 84.5z" glyph-name="Idieresis" horiz-adv-x="797" unicode="Ï"/>
<glyph d="M65 0v74q33 19 73 33.5t85 22.5v507h-164v117h164v471q-45 11 -86 25t-72 32v74h225q32 0 87 2.5t114.5 5t115.5 5t91 2.5q168 0 301 -44t225.5 -129.5t141 -212t48.5 -290.5q0 -161 -46 -292.5t-139.5 -224.5t-235.5 -144t-333 -51q-17 0 -45.5 1.5t-62.5 3t-72 4 t-74.5 4t-70 3t-58.5 1.5h-212zM659 1245q-18 0 -40 -0.5l-44 -1t-41.5 -2t-31.5 -3.5v-484h296v-117h-296v-521q9 -1 31 -2.5t46.5 -2.5t47 -1.5t32.5 -0.5q121 0 204.5 46t135 125.5t74 186t22.5 226.5q0 71 -9.5 139.5t-30.5 130t-54.5 113t-82 89.5t-113 59t-146.5 21z " glyph-name="Eth" horiz-adv-x="1479" unicode="Ð"/>
<glyph d="M954 1356h480v-74q-36 -29 -81 -51.5t-84 -33.5v-1221h-164l-684 989l-77 149h-6l18 -155v-808q39 -9 86 -32t80 -45v-74h-478v74q35 22 76.5 42.5t85.5 34.5v1057q-38 16 -77 35t-70 41v72h419l555 -806l90 -166h7l-9 166v647q-47 15 -90.5 37.5t-76.5 47.5v74z M1087 1592q-62 -61 -116 -93.5t-124 -32.5q-36 0 -68.5 11t-63.5 22.5t-60 22t-60 10.5q-26 0 -58.5 -10.5t-63.5 -37.5l-54 91q148 131 261 131q35 0 67.5 -9.5t61 -21t58 -21t59.5 -9.5q26 0 57 8.5t61 29.5z" glyph-name="Ntilde" horiz-adv-x="1479" unicode="Ñ"/>
<glyph d="M88 678q0 151 49.5 279.5t141.5 222.5t223.5 146.5t295.5 52.5t295 -52.5t222.5 -146.5t140.5 -222.5t49 -279.5q0 -152 -49 -280.5t-140.5 -222.5t-222.5 -146.5t-295 -52.5t-295 52.5t-223.5 146.5t-142 222.5t-49.5 280.5zM417 678q0 -125 26.5 -230t77 -182t125 -120 t170.5 -43q88 0 155 43t112.5 120t69 182t23.5 230q0 124 -24.5 229.5t-74 182t-123 120t-171.5 43.5q-95 0 -164 -43.5t-114 -120t-66.5 -182t-21.5 -229.5zM971 1490l-66 -37l-457 185v39q6 18 42 32t81.5 25t89 16t64.5 -1z" glyph-name="Ograve" horiz-adv-x="1593" unicode="Ò"/>
<glyph d="M88 678q0 151 49.5 279.5t141.5 222.5t223.5 146.5t295.5 52.5t295 -52.5t222.5 -146.5t140.5 -222.5t49 -279.5q0 -152 -49 -280.5t-140.5 -222.5t-222.5 -146.5t-295 -52.5t-295 52.5t-223.5 146.5t-142 222.5t-49.5 280.5zM417 678q0 -125 26.5 -230t77 -182t125 -120 t170.5 -43q88 0 155 43t112.5 120t69 182t23.5 230q0 124 -24.5 229.5t-74 182t-123 120t-171.5 43.5q-95 0 -164 -43.5t-114 -120t-66.5 -182t-21.5 -229.5zM898 1749q31 2 70.5 -3.5t77.5 -16.5t68 -24.5t42 -27.5v-39l-479 -185l-54 46z" glyph-name="Oacute" horiz-adv-x="1593" unicode="Ó"/>
<glyph d="M88 678q0 151 49.5 279.5t141.5 222.5t223.5 146.5t295.5 52.5t295 -52.5t222.5 -146.5t140.5 -222.5t49 -279.5q0 -152 -49 -280.5t-140.5 -222.5t-222.5 -146.5t-295 -52.5t-295 52.5t-223.5 146.5t-142 222.5t-49.5 280.5zM417 678q0 -125 26.5 -230t77 -182t125 -120 t170.5 -43q88 0 155 43t112.5 120t69 182t23.5 230q0 124 -24.5 229.5t-74 182t-123 120t-171.5 43.5q-95 0 -164 -43.5t-114 -120t-66.5 -182t-21.5 -229.5zM546 1449l-54 54l246 227q19 10 59.5 10t60.5 -10l242 -221l-54 -58l-256 108z" glyph-name="Ocircumflex" horiz-adv-x="1593" unicode="Ô"/>
<glyph d="M88 678q0 151 49.5 279.5t141.5 222.5t223.5 146.5t295.5 52.5t295 -52.5t222.5 -146.5t140.5 -222.5t49 -279.5q0 -152 -49 -280.5t-140.5 -222.5t-222.5 -146.5t-295 -52.5t-295 52.5t-223.5 146.5t-142 222.5t-49.5 280.5zM417 678q0 -125 26.5 -230t77 -182t125 -120 t170.5 -43q88 0 155 43t112.5 120t69 182t23.5 230q0 124 -24.5 229.5t-74 182t-123 120t-171.5 43.5q-95 0 -164 -43.5t-114 -120t-66.5 -182t-21.5 -229.5zM1130 1592q-62 -61 -116 -93.5t-124 -32.5q-36 0 -68.5 11t-63.5 22.5t-60 22t-60 10.5q-26 0 -58.5 -10.5 t-63.5 -37.5l-54 91q148 131 261 131q35 0 67.5 -9.5t61 -21t58 -21t59.5 -9.5q26 0 57 8.5t61 29.5z" glyph-name="Otilde" horiz-adv-x="1593" unicode="Õ"/>
<glyph d="M88 678q0 151 49.5 279.5t141.5 222.5t223.5 146.5t295.5 52.5t295 -52.5t222.5 -146.5t140.5 -222.5t49 -279.5q0 -152 -49 -280.5t-140.5 -222.5t-222.5 -146.5t-295 -52.5t-295 52.5t-223.5 146.5t-142 222.5t-49.5 280.5zM417 678q0 -125 26.5 -230t77 -182t125 -120 t170.5 -43q88 0 155 43t112.5 120t69 182t23.5 230q0 124 -24.5 229.5t-74 182t-123 120t-171.5 43.5q-95 0 -164 -43.5t-114 -120t-66.5 -182t-21.5 -229.5zM401 1596q0 62 44.5 93t112.5 31q67 0 112 -31t45 -93q0 -54 -45 -84.5t-112 -30.5q-68 0 -112.5 30.5t-44.5 84.5 zM876 1596q0 62 45.5 93t113.5 31q67 0 111.5 -31t44.5 -93q0 -54 -44.5 -84.5t-111.5 -30.5q-68 0 -113.5 30.5t-45.5 84.5z" glyph-name="Odieresis" horiz-adv-x="1593" unicode="Ö"/>
<glyph d="M218 412l252 255l-248 249l108 108l249 -248l255 252l108 -108l-252 -253l258 -259l-110 -110l-259 258l-253 -252z" glyph-name="multiply" horiz-adv-x="1167" unicode="×"/>
<glyph d="M326 132q-115 95 -176.5 235t-61.5 311q0 151 49.5 279.5t141.5 222.5t223.5 146.5t295.5 52.5q80 0 151.5 -13t135.5 -37l62 100l122 -75l-55 -90v-1q69 -46 123.5 -107.5t91.5 -136t56.5 -161t19.5 -180.5q0 -152 -49 -280.5t-140.5 -222.5t-222.5 -146.5t-295 -52.5 q-102 0 -190.5 20.5t-164.5 58.5l-66 -104l-118 76zM1176 678q0 117 -21.5 216t-65.5 175l-538 -844q50 -58 116 -90t149 -32q88 0 155 43t112.5 120t69 182t23.5 230zM417 678q0 -91 13.5 -170.5t40.5 -146.5l522 822q-43 34 -95 52t-115 18q-95 0 -164 -43.5t-114 -120 t-66.5 -182t-21.5 -229.5z" glyph-name="Oslash" horiz-adv-x="1593" unicode="Ø"/>
<glyph d="M55 1356h597v-74q-65 -41 -148 -57v-745q0 -95 23 -159t64.5 -103.5t100 -56.5t129.5 -17q64 0 118 18t94 58.5t62.5 106.5t22.5 163v726q-45 9 -92 26.5t-78 39.5v74h481v-74q-35 -25 -78 -41t-83 -25v-728q0 -124 -34 -218.5t-99 -158t-158.5 -96t-213.5 -32.5 q-131 0 -234 29t-174 87q-141 115 -141 372v754q-39 7 -81.5 21t-77.5 36v74zM922 1490l-66 -37l-457 185v39q6 18 42 32t81.5 25t89 16t64.5 -1z" glyph-name="Ugrave" horiz-adv-x="1479" unicode="Ù"/>
<glyph d="M55 1356h597v-74q-65 -41 -148 -57v-745q0 -95 23 -159t64.5 -103.5t100 -56.5t129.5 -17q64 0 118 18t94 58.5t62.5 106.5t22.5 163v726q-45 9 -92 26.5t-78 39.5v74h481v-74q-35 -25 -78 -41t-83 -25v-728q0 -124 -34 -218.5t-99 -158t-158.5 -96t-213.5 -32.5 q-131 0 -234 29t-174 87q-141 115 -141 372v754q-39 7 -81.5 21t-77.5 36v74zM973 1749q31 2 70.5 -3.5t77.5 -16.5t68 -24.5t42 -27.5v-39l-479 -185l-54 46z" glyph-name="Uacute" horiz-adv-x="1479" unicode="Ú"/>
<glyph d="M55 1356h597v-74q-65 -41 -148 -57v-745q0 -95 23 -159t64.5 -103.5t100 -56.5t129.5 -17q64 0 118 18t94 58.5t62.5 106.5t22.5 163v726q-45 9 -92 26.5t-78 39.5v74h481v-74q-35 -25 -78 -41t-83 -25v-728q0 -124 -34 -218.5t-99 -158t-158.5 -96t-213.5 -32.5 q-131 0 -234 29t-174 87q-141 115 -141 372v754q-39 7 -81.5 21t-77.5 36v74zM554 1449l-54 54l246 227q19 10 59.5 10t60.5 -10l242 -221l-54 -58l-256 108z" glyph-name="Ucircumflex" horiz-adv-x="1479" unicode="Û"/>
<glyph d="M55 1356h597v-74q-65 -41 -148 -57v-745q0 -95 23 -159t64.5 -103.5t100 -56.5t129.5 -17q64 0 118 18t94 58.5t62.5 106.5t22.5 163v726q-45 9 -92 26.5t-78 39.5v74h481v-74q-35 -25 -78 -41t-83 -25v-728q0 -124 -34 -218.5t-99 -158t-158.5 -96t-213.5 -32.5 q-131 0 -234 29t-174 87q-141 115 -141 372v754q-39 7 -81.5 21t-77.5 36v74zM397 1596q0 62 44.5 93t112.5 31q67 0 112 -31t45 -93q0 -54 -45 -84.5t-112 -30.5q-68 0 -112.5 30.5t-44.5 84.5zM872 1596q0 62 45.5 93t113.5 31q67 0 111.5 -31t44.5 -93q0 -54 -44.5 -84.5 t-111.5 -30.5q-68 0 -113.5 30.5t-45.5 84.5z" glyph-name="Udieresis" horiz-adv-x="1479" unicode="Ü"/>
<glyph d="M970 1356h475v-74q-29 -18 -65 -34t-73 -23l-406 -658v-437q39 -4 77 -20.5t70 -35.5v-74h-596v74q32 17 73 32.5t86 23.5v435l-421 660q-45 9 -84.5 24t-72.5 33v74h635v-74q-27 -16 -62 -31t-82 -26l307 -518l294 518q-45 11 -85.5 26t-69.5 31v74zM979 1749 q31 2 70.5 -3.5t77.5 -16.5t68 -24.5t42 -27.5v-39l-479 -185l-54 46z" glyph-name="Yacute" horiz-adv-x="1479" unicode="Ý"/>
<glyph d="M514 122q52 -6 103 -22.5t93 -35.5v-64h-645v64q37 21 78.5 35t80.5 21v1116q-39 6 -81.5 21.5t-75.5 34.5v64h604v-64q-35 -22 -76.5 -36t-80.5 -20v-88q39 5 82 7.5t80 2.5q97 0 186.5 -13.5t161.5 -55.5q39 -23 72 -55t57.5 -73.5t38.5 -92.5t14 -111 q0 -107 -44.5 -187t-118.5 -132.5t-171.5 -78.5t-202.5 -26q-9 0 -30.5 0.5t-46 1t-46.5 1.5t-32 3v-217zM612 1033q-32 0 -55 -3.5t-43 -9.5v-553q26 -4 54.5 -6t54.5 -2q51 0 98.5 16.5t84 51.5t58.5 89.5t22 131.5q0 72 -19.5 126t-55.5 89t-86.5 52.5t-112.5 17.5z" glyph-name="Thorn" horiz-adv-x="1251" unicode="Þ"/>
<glyph d="M799 1105q0 46 -14.5 82t-38.5 61t-57 38.5t-70 13.5q-40 0 -76 -9.5t-63 -39.5t-43 -86t-16 -150v-1015h-382v73q29 17 57.5 28.5t60.5 16.5v699h-133v74q33 20 65 35.5t70 25.5q0 79 7.5 135t23 97t39.5 71.5t56 58.5q31 27 69.5 45t80.5 28.5t85 14.5t85 4 q79 0 153 -13t132.5 -47.5t98 -96t50.5 -157.5q-50 -9 -99 -24.5t-88 -42t-63 -65t-24 -93.5q0 -42 12 -74t34.5 -60.5t56 -58t75.5 -67.5q38 -34 70 -69.5t54.5 -76t35 -87.5t12.5 -105q0 -51 -16.5 -103t-55.5 -94t-103 -68.5t-158 -26.5q-91 0 -159 14t-122 45 q2 19 7 43.5t12 49.5t16 47.5t19 36.5h64l98 -117q15 -7 26 -9.5t28 -2.5q23 0 41.5 10t32 28t21 42.5t7.5 52.5q0 41 -11 76.5t-32 69t-51 66t-67 68.5q-38 36 -70 70.5t-55 72.5t-35.5 84t-12.5 105q0 64 27 111.5t66.5 80.5t84.5 53t82 31z" glyph-name="germandbls" horiz-adv-x="1139" unicode="ß"/>
<glyph d="M866 271q0 -41 1 -71t4 -63l129 -19v-66q-24 -11 -61.5 -22.5t-79.5 -21t-83.5 -16.5t-72.5 -10h-64q-10 22 -15.5 43t-7.5 42q-2 22 -3 48t-2 57h-9q-9 -36 -31.5 -71t-57.5 -62.5t-82 -44.5t-104 -17q-61 0 -112.5 18.5t-89.5 52.5t-59.5 82t-21.5 108q0 83 36 138.5 t107 90t175.5 51.5t242.5 23q15 161 -13 235q-27 75 -122 75q-58 0 -105 -19l-89 -223h-82q-15 22 -29.5 51t-26 61t-20 66t-12.5 66q69 47 183 76t238 29q106 0 173.5 -23.5t106.5 -63.5t53.5 -94.5t14.5 -115.5q0 -57 -1.5 -107t-3 -97t-3 -92.5t-1.5 -93.5zM445 127 q39 0 67 14.5t47 36t30 45.5t16 43v187q-149 0 -214.5 -41t-65.5 -135q0 -72 31 -111t89 -39zM667 1140l-87 -42l-361 281v56q12 12 50.5 22.5t82 16.5t82.5 7t53 -3z" glyph-name="agrave" unicode="à"/>
<glyph d="M866 271q0 -41 1 -71t4 -63l129 -19v-66q-24 -11 -61.5 -22.5t-79.5 -21t-83.5 -16.5t-72.5 -10h-64q-10 22 -15.5 43t-7.5 42q-2 22 -3 48t-2 57h-9q-9 -36 -31.5 -71t-57.5 -62.5t-82 -44.5t-104 -17q-61 0 -112.5 18.5t-89.5 52.5t-59.5 82t-21.5 108q0 83 36 138.5 t107 90t175.5 51.5t242.5 23q15 161 -13 235q-27 75 -122 75q-58 0 -105 -19l-89 -223h-82q-15 22 -29.5 51t-26 61t-20 66t-12.5 66q69 47 183 76t238 29q106 0 173.5 -23.5t106.5 -63.5t53.5 -94.5t14.5 -115.5q0 -57 -1.5 -107t-3 -97t-3 -92.5t-1.5 -93.5zM445 127 q39 0 67 14.5t47 36t30 45.5t16 43v187q-149 0 -214.5 -41t-65.5 -135q0 -72 31 -111t89 -39zM548 1478q15 4 51 3t75 -7t71 -16.5t42 -22.5v-47l-360 -290l-88 43z" glyph-name="aacute" unicode="á"/>
<glyph d="M866 271q0 -41 1 -71t4 -63l129 -19v-66q-24 -11 -61.5 -22.5t-79.5 -21t-83.5 -16.5t-72.5 -10h-64q-10 22 -15.5 43t-7.5 42q-2 22 -3 48t-2 57h-9q-9 -36 -31.5 -71t-57.5 -62.5t-82 -44.5t-104 -17q-61 0 -112.5 18.5t-89.5 52.5t-59.5 82t-21.5 108q0 83 36 138.5 t107 90t175.5 51.5t242.5 23q15 161 -13 235q-27 75 -122 75q-58 0 -105 -19l-89 -223h-82q-15 22 -29.5 51t-26 61t-20 66t-12.5 66q69 47 183 76t238 29q106 0 173.5 -23.5t106.5 -63.5t53.5 -94.5t14.5 -115.5q0 -57 -1.5 -107t-3 -97t-3 -92.5t-1.5 -93.5zM445 127 q39 0 67 14.5t47 36t30 45.5t16 43v187q-149 0 -214.5 -41t-65.5 -135q0 -72 31 -111t89 -39zM285 1118q-19 0 -48 18.5t-33 29.5l248 311q15 10 48.5 10t52.5 -10l244 -309q-2 -5 -14 -13.5t-26 -16.5t-29 -14t-24 -6l-216 150z" glyph-name="acircumflex" unicode="â"/>
<glyph d="M866 271q0 -41 1 -71t4 -63l129 -19v-66q-24 -11 -61.5 -22.5t-79.5 -21t-83.5 -16.5t-72.5 -10h-64q-10 22 -15.5 43t-7.5 42q-2 22 -3 48t-2 57h-9q-9 -36 -31.5 -71t-57.5 -62.5t-82 -44.5t-104 -17q-61 0 -112.5 18.5t-89.5 52.5t-59.5 82t-21.5 108q0 83 36 138.5 t107 90t175.5 51.5t242.5 23q15 161 -13 235q-27 75 -122 75q-58 0 -105 -19l-89 -223h-82q-15 22 -29.5 51t-26 61t-20 66t-12.5 66q69 47 183 76t238 29q106 0 173.5 -23.5t106.5 -63.5t53.5 -94.5t14.5 -115.5q0 -57 -1.5 -107t-3 -97t-3 -92.5t-1.5 -93.5zM445 127 q39 0 67 14.5t47 36t30 45.5t16 43v187q-149 0 -214.5 -41t-65.5 -135q0 -72 31 -111t89 -39zM808 1292q-57 -67 -119 -96.5t-107 -29.5q-35 0 -66 10.5t-60 22t-56.5 22.5t-57.5 11q-25 0 -51 -9t-58 -30l-53 82q71 72 136 101.5t109 29.5q35 0 65 -10t57.5 -21t55.5 -21 t57 -10q25 0 50.5 5t55.5 24z" glyph-name="atilde" unicode="ã"/>
<glyph d="M866 271q0 -41 1 -71t4 -63l129 -19v-66q-24 -11 -61.5 -22.5t-79.5 -21t-83.5 -16.5t-72.5 -10h-64q-10 22 -15.5 43t-7.5 42q-2 22 -3 48t-2 57h-9q-9 -36 -31.5 -71t-57.5 -62.5t-82 -44.5t-104 -17q-61 0 -112.5 18.5t-89.5 52.5t-59.5 82t-21.5 108q0 83 36 138.5 t107 90t175.5 51.5t242.5 23q15 161 -13 235q-27 75 -122 75q-58 0 -105 -19l-89 -223h-82q-15 22 -29.5 51t-26 61t-20 66t-12.5 66q69 47 183 76t238 29q106 0 173.5 -23.5t106.5 -63.5t53.5 -94.5t14.5 -115.5q0 -57 -1.5 -107t-3 -97t-3 -92.5t-1.5 -93.5zM445 127 q39 0 67 14.5t47 36t30 45.5t16 43v187q-149 0 -214.5 -41t-65.5 -135q0 -72 31 -111t89 -39zM143 1287q0 61 38.5 98t102.5 37q62 0 102 -37t40 -98q0 -59 -40 -96t-102 -37q-64 0 -102.5 37t-38.5 96zM542 1287q0 61 39 98t101 37q64 0 103.5 -37t39.5 -98 q0 -59 -39.5 -96t-103.5 -37q-62 0 -101 37t-39 96z" glyph-name="adieresis" unicode="ä"/>
<glyph d="M866 271q0 -41 1 -71t4 -63l129 -19v-66q-24 -11 -61.5 -22.5t-79.5 -21t-83.5 -16.5t-72.5 -10h-64q-10 22 -15.5 43t-7.5 42q-2 22 -3 48t-2 57h-9q-9 -36 -31.5 -71t-57.5 -62.5t-82 -44.5t-104 -17q-61 0 -112.5 18.5t-89.5 52.5t-59.5 82t-21.5 108q0 83 36 138.5 t107 90t175.5 51.5t242.5 23q15 161 -13 235q-27 75 -122 75q-58 0 -105 -19l-89 -223h-82q-15 22 -29.5 51t-26 61t-20 66t-12.5 66q69 47 183 76t238 29q106 0 173.5 -23.5t106.5 -63.5t53.5 -94.5t14.5 -115.5q0 -57 -1.5 -107t-3 -97t-3 -92.5t-1.5 -93.5zM445 127 q39 0 67 14.5t47 36t30 45.5t16 43v187q-149 0 -214.5 -41t-65.5 -135q0 -72 31 -111t89 -39zM257 1285q0 80 59 137.5t170 57.5q102 0 159.5 -52t57.5 -137q0 -81 -60 -135.5t-160 -54.5q-111 0 -168.5 51.5t-57.5 132.5zM402 1289q0 -44 21.5 -68t54.5 -24q79 0 79 86 q0 52 -22 76.5t-55 24.5q-78 0 -78 -95z" glyph-name="aring" unicode="å"/>
<glyph d="M781 869q52 52 121.5 70.5t144.5 18.5q48 0 87 -5t72.5 -16.5t63.5 -29t59 -42.5q25 -22 45.5 -52.5t35.5 -67.5t22.5 -78.5t7.5 -85.5q0 -60 -12 -130h-556q1 -147 77 -236q37 -44 82.5 -66t116.5 -22q64 0 129 18q67 20 103 49l36 -37q-16 -32 -47 -64.5t-77 -58 t-106.5 -41.5t-134.5 -16q-124 0 -226 46.5t-168 153.5q-18 -45 -49 -82t-73 -63t-93 -40.5t-109 -14.5q-62 0 -114.5 18.5t-91.5 52.5t-61 82t-22 108q0 83 33 138.5t101.5 90t175 51.5t253.5 23q2 28 3.5 53t1.5 48q0 16 -0.5 38.5t-4 45.5t-10 44.5t-18.5 37.5 q-31 43 -102 43q-29 0 -55.5 -5.5t-50.5 -13.5l-89 -223h-82q-13 21 -26.5 50t-25.5 61.5t-21.5 66.5t-13.5 66q29 20 77.5 41t105.5 35t114.5 21.5t120.5 7.5q32 0 67 -2.5t68.5 -11.5t63.5 -26.5t51 -48.5zM449 127q40 0 68.5 15.5t47.5 37t29 44.5t13 38v191 q-78 -1 -131.5 -11t-87.5 -31t-49 -54t-15 -80q0 -72 34 -111t91 -39zM1040 851q-33 0 -62.5 -16t-51.5 -52t-35 -94t-13 -141h283q3 21 4 45.5t1 44.5q1 105 -31 159t-95 54z" glyph-name="ae" horiz-adv-x="1479" unicode="æ"/>
<glyph d="M860 152q-21 -36 -54 -67.5t-75 -55.5t-92.5 -38t-107.5 -14l-40 -104q112 -5 170.5 -39.5t60.5 -103.5q0 -54 -32 -93.5t-83.5 -65.5t-117 -38.5t-131.5 -12.5v72q130 21 130 107q-2 42 -36 61t-100 27l71 199q-89 15 -155.5 55.5t-110.5 103t-66 144t-22 179.5 q0 111 34 201.5t99 154.5t159 99t214 35q93 0 161.5 -19.5t119.5 -45.5q-3 -32 -9 -71t-14 -78t-18 -74t-22 -59h-91l-78 221q-15 8 -30 13.5t-44 5.5q-38 0 -72.5 -18t-60.5 -61t-41.5 -113.5t-15.5 -176.5q0 -75 16.5 -140t50 -113t85 -75t122.5 -27q66 0 114.5 19.5 t81.5 44.5z" glyph-name="ccedilla" horiz-adv-x="909" unicode="ç"/>
<glyph d="M859 157q-20 -32 -52 -64t-77 -57.5t-104.5 -42t-133.5 -16.5q-113 0 -196.5 35t-139.5 99t-83.5 154.5t-27.5 201.5q0 105 31.5 199.5t88.5 158.5q118 133 324 133q95 0 171.5 -29t127.5 -91q40 -48 61.5 -114.5t21.5 -153.5q0 -62 -16 -119h-524q-1 -36 4 -70t14 -64 t21.5 -54.5t26.5 -42.5q75 -93 213 -93q60 0 115.5 17t100.5 50zM483 851q-38 0 -66 -21t-46 -60.5t-26.5 -95.5t-7.5 -126h263q10 63 9 118q-1 40 -7.5 74t-21 58.5t-38.5 38.5t-59 14zM667 1140l-87 -42l-361 281v56q12 12 50.5 22.5t82 16.5t82.5 7t53 -3z" glyph-name="egrave" horiz-adv-x="909" unicode="è"/>
<glyph d="M859 157q-20 -32 -52 -64t-77 -57.5t-104.5 -42t-133.5 -16.5q-113 0 -196.5 35t-139.5 99t-83.5 154.5t-27.5 201.5q0 105 31.5 199.5t88.5 158.5q118 133 324 133q95 0 171.5 -29t127.5 -91q40 -48 61.5 -114.5t21.5 -153.5q0 -62 -16 -119h-524q-1 -36 4 -70t14 -64 t21.5 -54.5t26.5 -42.5q75 -93 213 -93q60 0 115.5 17t100.5 50zM483 851q-38 0 -66 -21t-46 -60.5t-26.5 -95.5t-7.5 -126h263q10 63 9 118q-1 40 -7.5 74t-21 58.5t-38.5 38.5t-59 14zM569 1478q15 4 51 3t75 -7t71 -16.5t42 -22.5v-47l-360 -290l-88 43z" glyph-name="eacute" horiz-adv-x="909" unicode="é"/>
<glyph d="M859 157q-20 -32 -52 -64t-77 -57.5t-104.5 -42t-133.5 -16.5q-113 0 -196.5 35t-139.5 99t-83.5 154.5t-27.5 201.5q0 105 31.5 199.5t88.5 158.5q118 133 324 133q95 0 171.5 -29t127.5 -91q40 -48 61.5 -114.5t21.5 -153.5q0 -62 -16 -119h-524q-1 -36 4 -70t14 -64 t21.5 -54.5t26.5 -42.5q75 -93 213 -93q60 0 115.5 17t100.5 50zM483 851q-38 0 -66 -21t-46 -60.5t-26.5 -95.5t-7.5 -126h263q10 63 9 118q-1 40 -7.5 74t-21 58.5t-38.5 38.5t-59 14zM287 1118q-19 0 -48 18.5t-33 29.5l248 311q15 10 48.5 10t52.5 -10l244 -309 q-2 -5 -14 -13.5t-26 -16.5t-29 -14t-24 -6l-216 150z" glyph-name="ecircumflex" horiz-adv-x="909" unicode="ê"/>
<glyph d="M859 157q-20 -32 -52 -64t-77 -57.5t-104.5 -42t-133.5 -16.5q-113 0 -196.5 35t-139.5 99t-83.5 154.5t-27.5 201.5q0 105 31.5 199.5t88.5 158.5q118 133 324 133q95 0 171.5 -29t127.5 -91q40 -48 61.5 -114.5t21.5 -153.5q0 -62 -16 -119h-524q-1 -36 4 -70t14 -64 t21.5 -54.5t26.5 -42.5q75 -93 213 -93q60 0 115.5 17t100.5 50zM483 851q-38 0 -66 -21t-46 -60.5t-26.5 -95.5t-7.5 -126h263q10 63 9 118q-1 40 -7.5 74t-21 58.5t-38.5 38.5t-59 14zM156 1287q0 61 38.5 98t102.5 37q62 0 102 -37t40 -98q0 -59 -40 -96t-102 -37 q-64 0 -102.5 37t-38.5 96zM555 1287q0 61 39 98t101 37q64 0 103.5 -37t39.5 -98q0 -59 -39.5 -96t-103.5 -37q-62 0 -101 37t-39 96z" glyph-name="edieresis" horiz-adv-x="909" unicode="ë"/>
<glyph d="M541 0h-502v73q28 15 54 25.5t61 19.5v685l-116 14v74q28 11 69 21.5t86 19.5t89.5 15.5t77.5 10.5h64v-840q38 -9 64 -19.5t53 -25.5v-73zM423 1140l-87 -42l-361 281v56q12 12 50.5 22.5t82 16.5t82.5 7t53 -3z" glyph-name="igrave" horiz-adv-x="569" unicode="ì"/>
<glyph d="M541 0h-502v73q28 15 54 25.5t61 19.5v685l-116 14v74q28 11 69 21.5t86 19.5t89.5 15.5t77.5 10.5h64v-840q38 -9 64 -19.5t53 -25.5v-73zM313 1478q15 4 51 3t75 -7t71 -16.5t42 -22.5v-47l-360 -290l-88 43z" glyph-name="iacute" horiz-adv-x="569" unicode="í"/>
<glyph d="M541 0h-502v73q28 15 54 25.5t61 19.5v685l-116 14v74q28 11 69 21.5t86 19.5t89.5 15.5t77.5 10.5h64v-840q38 -9 64 -19.5t53 -25.5v-73zM66 1118q-19 0 -48 18.5t-33 29.5l248 311q15 10 48.5 10t52.5 -10l244 -309q-2 -5 -14 -13.5t-26 -16.5t-29 -14t-24 -6 l-216 150z" glyph-name="icircumflex" horiz-adv-x="569" unicode="î"/>
<glyph d="M541 0h-502v73q28 15 54 25.5t61 19.5v685l-116 14v74q28 11 69 21.5t86 19.5t89.5 15.5t77.5 10.5h64v-840q38 -9 64 -19.5t53 -25.5v-73zM-58 1287q0 61 38.5 98t102.5 37q62 0 102 -37t40 -98q0 -59 -40 -96t-102 -37q-64 0 -102.5 37t-38.5 96zM341 1287q0 61 39 98 t101 37q64 0 103.5 -37t39.5 -98q0 -59 -39.5 -96t-103.5 -37q-62 0 -101 37t-39 96z" glyph-name="idieresis" horiz-adv-x="569" unicode="ï"/>
<glyph d="M261 1141l180 73q-48 45 -102 81.5t-114 58.5v49h182q102 -31 208 -116l183 75l50 -105l-138 -57q54 -59 99.5 -130.5t78.5 -154.5t51.5 -177t18.5 -197q0 -123 -31.5 -226.5t-92 -178.5t-149 -117t-203.5 -42q-111 0 -193.5 38t-136.5 102.5t-81 151t-27 184.5 q0 126 32 221t86 158t126 94.5t153 31.5q68 0 123 -29t89 -80q-4 33 -15.5 70.5t-29 74t-39.5 69.5t-48 59l-207 -85zM334 453q0 -77 7 -142.5t25 -114.5t49 -76.5t79 -27.5t81.5 27t54.5 80.5t30.5 132t9.5 180.5q0 100 -8.5 158t-13.5 78q-9 9 -22.5 21t-31.5 22.5t-41 18 t-50 7.5q-42 0 -74 -18.5t-53 -61t-31.5 -112.5t-10.5 -172z" glyph-name="eth" unicode="ð"/>
<glyph d="M1119 0h-485v73q24 13 47 23.5t55 21.5v449q0 59 -5.5 104t-20 76t-39.5 46.5t-64 15.5q-34 0 -61 -14t-48 -37t-37 -54.5t-27 -65.5v-520q30 -8 53 -18t50 -27v-73h-487v73q24 12 50 23t64 22v685l-114 14v74q25 11 63 21.5t82 19.5t89.5 15.5t86.5 10.5h63v-193h1 q17 38 36.5 64.5t44.5 51.5q31 31 80 54t106 23q73 0 129.5 -18t95.5 -63t59 -121t20 -192v-446q37 -7 62.5 -18t50.5 -27v-73zM888 1292q-57 -67 -119 -96.5t-107 -29.5q-35 0 -66 10.5t-60 22t-56.5 22.5t-57.5 11q-25 0 -51 -9t-58 -30l-53 82q71 72 136 101.5t109 29.5 q35 0 65 -10t57.5 -21t55.5 -21t57 -10q25 0 50.5 5t55.5 24z" glyph-name="ntilde" horiz-adv-x="1139" unicode="ñ"/>
<glyph d="M48 468q0 111 31 201t90.5 154.5t146 99.5t196.5 35q127 0 215 -39.5t143.5 -106.5t80.5 -156t25 -188q0 -107 -32 -197t-92 -155.5t-146 -102t-194 -36.5q-119 0 -206.5 38t-144.5 104t-85 155.5t-28 193.5zM339 468q0 -78 6 -146.5t26.5 -119.5t59.5 -80.5t104 -29.5 q70 0 110.5 90t40.5 286q0 78 -7.5 146.5t-28 119.5t-57.5 80.5t-96 29.5q-84 0 -121 -90.5t-37 -285.5zM632 1140l-87 -42l-361 281v56q12 12 50.5 22.5t82 16.5t82.5 7t53 -3z" glyph-name="ograve" unicode="ò"/>
<glyph d="M48 468q0 111 31 201t90.5 154.5t146 99.5t196.5 35q127 0 215 -39.5t143.5 -106.5t80.5 -156t25 -188q0 -107 -32 -197t-92 -155.5t-146 -102t-194 -36.5q-119 0 -206.5 38t-144.5 104t-85 155.5t-28 193.5zM339 468q0 -78 6 -146.5t26.5 -119.5t59.5 -80.5t104 -29.5 q70 0 110.5 90t40.5 286q0 78 -7.5 146.5t-28 119.5t-57.5 80.5t-96 29.5q-84 0 -121 -90.5t-37 -285.5zM631 1478q15 4 51 3t75 -7t71 -16.5t42 -22.5v-47l-360 -290l-88 43z" glyph-name="oacute" unicode="ó"/>
<glyph d="M48 468q0 111 31 201t90.5 154.5t146 99.5t196.5 35q127 0 215 -39.5t143.5 -106.5t80.5 -156t25 -188q0 -107 -32 -197t-92 -155.5t-146 -102t-194 -36.5q-119 0 -206.5 38t-144.5 104t-85 155.5t-28 193.5zM339 468q0 -78 6 -146.5t26.5 -119.5t59.5 -80.5t104 -29.5 q70 0 110.5 90t40.5 286q0 78 -7.5 146.5t-28 119.5t-57.5 80.5t-96 29.5q-84 0 -121 -90.5t-37 -285.5zM303 1118q-19 0 -48 18.5t-33 29.5l248 311q15 10 48.5 10t52.5 -10l244 -309q-2 -5 -14 -13.5t-26 -16.5t-29 -14t-24 -6l-216 150z" glyph-name="ocircumflex" unicode="ô"/>
<glyph d="M48 468q0 111 31 201t90.5 154.5t146 99.5t196.5 35q127 0 215 -39.5t143.5 -106.5t80.5 -156t25 -188q0 -107 -32 -197t-92 -155.5t-146 -102t-194 -36.5q-119 0 -206.5 38t-144.5 104t-85 155.5t-28 193.5zM339 468q0 -78 6 -146.5t26.5 -119.5t59.5 -80.5t104 -29.5 q70 0 110.5 90t40.5 286q0 78 -7.5 146.5t-28 119.5t-57.5 80.5t-96 29.5q-84 0 -121 -90.5t-37 -285.5zM826 1292q-57 -67 -119 -96.5t-107 -29.5q-35 0 -66 10.5t-60 22t-56.5 22.5t-57.5 11q-25 0 -51 -9t-58 -30l-53 82q71 72 136 101.5t109 29.5q35 0 65 -10t57.5 -21 t55.5 -21t57 -10q25 0 50.5 5t55.5 24z" glyph-name="otilde" unicode="õ"/>
<glyph d="M48 468q0 111 31 201t90.5 154.5t146 99.5t196.5 35q127 0 215 -39.5t143.5 -106.5t80.5 -156t25 -188q0 -107 -32 -197t-92 -155.5t-146 -102t-194 -36.5q-119 0 -206.5 38t-144.5 104t-85 155.5t-28 193.5zM339 468q0 -78 6 -146.5t26.5 -119.5t59.5 -80.5t104 -29.5 q70 0 110.5 90t40.5 286q0 78 -7.5 146.5t-28 119.5t-57.5 80.5t-96 29.5q-84 0 -121 -90.5t-37 -285.5zM171 1287q0 61 38.5 98t102.5 37q62 0 102 -37t40 -98q0 -59 -40 -96t-102 -37q-64 0 -102.5 37t-38.5 96zM570 1287q0 61 39 98t101 37q64 0 103.5 -37t39.5 -98 q0 -59 -39.5 -96t-103.5 -37q-62 0 -101 37t-39 96z" glyph-name="odieresis" unicode="ö"/>
<glyph d="M127 748h870v-155h-870v155zM397 1038q0 69 45 112t118 43t120 -43t47 -112q0 -70 -47 -111.5t-120 -41.5t-118 41.5t-45 111.5zM397 300q0 70 45 112.5t118 42.5t120 -42.5t47 -112.5q0 -69 -47 -110.5t-120 -41.5t-118 41.5t-45 110.5z" glyph-name="divide" horiz-adv-x="1124" unicode="÷"/>
<glyph d="M44 468q0 111 32 201t92 154.5t147 99.5t197 35q78 0 140 -15t113 -43l90 129l100 -71l-95 -132q63 -68 91.5 -160.5t28.5 -197.5q0 -107 -32.5 -197t-93.5 -155.5t-147.5 -102t-194.5 -36.5q-65 0 -119.5 11.5t-101.5 32.5l-89 -130l-100 73l87 124q-74 67 -109.5 165 t-35.5 215zM331 468q0 -92 14 -171l305 443q-22 48 -59 76t-94 28q-84 0 -125 -90.5t-41 -285.5zM694 468q0 31 -2 63.5t-7 55.5l-293 -426q23 -32 57.5 -50.5t85.5 -18.5q35 0 64 22t50 68t33 117t12 169z" glyph-name="oslash" unicode="ø"/>
<glyph d="M150 351q0 60 2 124t4 115q3 51 4 103.5t1 109.5l-124 14v74q30 11 73.5 21.5t90 19.5t91 16t75.5 10h64q-2 -142 -7 -276.5t-5 -266.5q0 -31 1 -64t3.5 -63.5t7 -56.5t12.5 -43q16 -34 40 -47.5t56 -13.5q56 0 103.5 46.5t82.5 138.5v491l-121 14v74q28 12 70 22 t87.5 19t90.5 15.5t79 10.5h64v-826l122 -14v-66q-26 -11 -65 -22.5t-82 -21t-85.5 -16.5t-75.5 -10h-63l-12 222h-7q-15 -43 -38 -83.5t-58 -72.5t-83 -51.5t-112 -19.5q-68 0 -121 16t-89.5 58t-56 114.5t-19.5 185.5zM703 1140l-87 -42l-361 281v56q12 12 50.5 22.5 t82 16.5t82.5 7t53 -3z" glyph-name="ugrave" horiz-adv-x="1139" unicode="ù"/>
<glyph d="M150 351q0 60 2 124t4 115q3 51 4 103.5t1 109.5l-124 14v74q30 11 73.5 21.5t90 19.5t91 16t75.5 10h64q-2 -142 -7 -276.5t-5 -266.5q0 -31 1 -64t3.5 -63.5t7 -56.5t12.5 -43q16 -34 40 -47.5t56 -13.5q56 0 103.5 46.5t82.5 138.5v491l-121 14v74q28 12 70 22 t87.5 19t90.5 15.5t79 10.5h64v-826l122 -14v-66q-26 -11 -65 -22.5t-82 -21t-85.5 -16.5t-75.5 -10h-63l-12 222h-7q-15 -43 -38 -83.5t-58 -72.5t-83 -51.5t-112 -19.5q-68 0 -121 16t-89.5 58t-56 114.5t-19.5 185.5zM665 1478q15 4 51 3t75 -7t71 -16.5t42 -22.5v-47 l-360 -290l-88 43z" glyph-name="uacute" horiz-adv-x="1139" unicode="ú"/>
<glyph d="M150 351q0 60 2 124t4 115q3 51 4 103.5t1 109.5l-124 14v74q30 11 73.5 21.5t90 19.5t91 16t75.5 10h64q-2 -142 -7 -276.5t-5 -266.5q0 -31 1 -64t3.5 -63.5t7 -56.5t12.5 -43q16 -34 40 -47.5t56 -13.5q56 0 103.5 46.5t82.5 138.5v491l-121 14v74q28 12 70 22 t87.5 19t90.5 15.5t79 10.5h64v-826l122 -14v-66q-26 -11 -65 -22.5t-82 -21t-85.5 -16.5t-75.5 -10h-63l-12 222h-7q-15 -43 -38 -83.5t-58 -72.5t-83 -51.5t-112 -19.5q-68 0 -121 16t-89.5 58t-56 114.5t-19.5 185.5zM374 1118q-19 0 -48 18.5t-33 29.5l248 311 q15 10 48.5 10t52.5 -10l244 -309q-2 -5 -14 -13.5t-26 -16.5t-29 -14t-24 -6l-216 150z" glyph-name="ucircumflex" horiz-adv-x="1139" unicode="û"/>
<glyph d="M150 351q0 60 2 124t4 115q3 51 4 103.5t1 109.5l-124 14v74q30 11 73.5 21.5t90 19.5t91 16t75.5 10h64q-2 -142 -7 -276.5t-5 -266.5q0 -31 1 -64t3.5 -63.5t7 -56.5t12.5 -43q16 -34 40 -47.5t56 -13.5q56 0 103.5 46.5t82.5 138.5v491l-121 14v74q28 12 70 22 t87.5 19t90.5 15.5t79 10.5h64v-826l122 -14v-66q-26 -11 -65 -22.5t-82 -21t-85.5 -16.5t-75.5 -10h-63l-12 222h-7q-15 -43 -38 -83.5t-58 -72.5t-83 -51.5t-112 -19.5q-68 0 -121 16t-89.5 58t-56 114.5t-19.5 185.5zM218 1287q0 61 38.5 98t102.5 37q62 0 102 -37 t40 -98q0 -59 -40 -96t-102 -37q-64 0 -102.5 37t-38.5 96zM617 1287q0 61 39 98t101 37q64 0 103.5 -37t39.5 -98q0 -59 -39.5 -96t-103.5 -37q-62 0 -101 37t-39 96z" glyph-name="udieresis" horiz-adv-x="1139" unicode="ü"/>
<glyph d="M114 817q-28 8 -51 19.5t-48 26.5v72h493v-70q-41 -27 -108 -48l162 -429l33 -110h3l27 112l137 427q-55 12 -101 46v72h355v-72q-20 -14 -44 -25t-58 -21l-293 -817q-46 -120 -90.5 -196t-88 -120t-88 -62.5t-90.5 -23.5q-13 13 -28 37.5t-27.5 54.5t-21.5 61.5 t-11 57.5l26 45h224q8 13 15 27t13 29q7 15 16 39t17 54zM656 1478q15 4 51 3t75 -7t71 -16.5t42 -22.5v-47l-360 -290l-88 43z" glyph-name="yacute" unicode="ý"/>
<glyph d="M173 1222l-142 15v73q24 12 67 23t92.5 19.5t99.5 15t89 9.5h64v-629h2q38 105 107.5 157.5t178.5 52.5q82 0 146.5 -28.5t108.5 -87.5t67.5 -149t23.5 -213q0 -119 -30 -212.5t-87.5 -158t-142.5 -98.5t-196 -34q-50 0 -93.5 8.5t-84.5 28.5v-263q31 -3 60 -13t63 -31 v-74h-516v74q67 31 123 44v1471zM626 809q-64 0 -108 -45t-75 -139v-498q28 -17 62.5 -30t88.5 -13t90.5 26t59 77t32.5 127t10 175q0 29 -2 64t-8.5 70.5t-17.5 69t-29 59.5t-43 41.5t-60 15.5z" glyph-name="thorn" horiz-adv-x="1139" unicode="þ"/>
<glyph d="M541 0h-502v73q28 15 54 25.5t61 19.5v685l-116 14v74q28 11 69 21.5t86 19.5t89.5 15.5t77.5 10.5h64v-840q38 -9 64 -19.5t53 -25.5v-73z" glyph-name="dotlessi" horiz-adv-x="569" unicode="ı"/>
<glyph d="M133 1118q-19 0 -48 18.5t-33 29.5l248 311q15 10 48.5 10t52.5 -10l244 -309q-2 -5 -14 -13.5t-26 -16.5t-29 -14t-24 -6l-216 150z" glyph-name="circumflex" horiz-adv-x="682" unicode="ˆ"/>
<glyph d="M118 1285q0 80 59 137.5t170 57.5q102 0 159.5 -52t57.5 -137q0 -81 -60 -135.5t-160 -54.5q-111 0 -168.5 51.5t-57.5 132.5zM263 1289q0 -44 21.5 -68t54.5 -24q79 0 79 86q0 52 -22 76.5t-55 24.5q-78 0 -78 -95z" glyph-name="ring" horiz-adv-x="682" unicode="˚"/>
<glyph d="M655 1292q-57 -67 -119 -96.5t-107 -29.5q-35 0 -66 10.5t-60 22t-56.5 22.5t-57.5 11q-25 0 -51 -9t-58 -30l-53 82q71 72 136 101.5t109 29.5q35 0 65 -10t57.5 -21t55.5 -21t57 -10q25 0 50.5 5t55.5 24z" glyph-name="tilde" horiz-adv-x="682" unicode="˜"/>
<glyph d="M109 1477q11 4 44 2t69 -7.5t66 -14.5t35 -20v-47l-266 -292l-80 39zM489 1477q13 4 44 2t66 -10t65 -19t42 -26v-44l-403 -282l-72 42z" glyph-name="hungarumlaut" horiz-adv-x="682" unicode="˝"/>
<glyph d="M1215 1356q-4 -88 -13.5 -180.5t-25.5 -174.5h-80l-88 228h-459v-473h328l85 148h62q5 -48 7.5 -100.5t2.5 -110.5t-2.5 -111.5t-7.5 -104.5h-62l-85 153h-328v-504h474l103 246h79q8 -38 15 -84t12.5 -95.5t8.5 -99t3 -93.5h-1144v74q33 17 73.5 32.5t85.5 23.5v1095 q-39 9 -82.5 23t-76.5 34v74h1115zM315 1596q0 62 44.5 93t112.5 31q67 0 112 -31t45 -93q0 -54 -45 -84.5t-112 -30.5q-68 0 -112.5 30.5t-44.5 84.5zM790 1596q0 62 45.5 93t113.5 31q67 0 111.5 -31t44.5 -93q0 -54 -44.5 -84.5t-111.5 -30.5q-68 0 -113.5 30.5 t-45.5 84.5z" glyph-name="afii10023" horiz-adv-x="1366" unicode="Ё"/>
<glyph d="M1568 447q0 -136 -34.5 -225t-99 -140.5t-156.5 -71t-206 -16.5l-12 87q53 12 94 32t68.5 56t41.5 92.5t14 141.5q0 148 -54.5 222t-181.5 74q-64 0 -125 -18.5t-112 -46.5v-504q33 -10 67.5 -25.5t59.5 -30.5v-74h-605v74q39 15 88 31.5t100 24.5v1099h-214l-124 -281 h-79q-7 40 -14 91.5t-13.5 106.5t-11 109.5t-5.5 100.5h1214q-1 -47 -5 -100t-10 -106t-13 -103t-14 -90h-82l-124 272h-215v-479q78 42 161 63.5t175 21.5q51 0 102.5 -6.5t99 -23.5t88.5 -45t71.5 -71t48 -103t17.5 -139z" glyph-name="afii10051" horiz-adv-x="1638" unicode="Ђ"/>
<glyph d="M549 130q48 -8 95.5 -23.5t90.5 -32.5v-74h-635v74q43 21 82 35t76 21v1095q-38 9 -80 22t-78 35v74h1123q0 -43 -2.5 -94t-7 -104.5t-11 -107t-14.5 -101.5h-80l-130 280h-429v-1099zM829 1749q31 2 70.5 -3.5t77.5 -16.5t68 -24.5t42 -27.5v-39l-479 -185l-54 46z" glyph-name="afii10052" horiz-adv-x="1303" unicode="Ѓ"/>
<glyph d="M1165 407h79q7 -32 13.5 -76t11 -92.5t7.5 -96.5t3 -88q-29 -19 -80 -33.5t-111 -24.5t-122.5 -15t-114.5 -5q-161 0 -300.5 39t-242 123t-161.5 215.5t-59 317.5q0 123 28.5 223t79.5 178.5t120 136.5t150 95.5t170 56t180 18.5q128 0 248 -16.5t210 -51.5 q-1 -27 -6 -75t-11.5 -102.5t-14 -107t-13.5 -87.5h-82l-106 293q-38 10 -79.5 15.5t-83.5 5.5q-79 0 -158 -23.5t-144.5 -82t-110 -158t-54.5 -251.5l588 31q17 -47 18 -103q1 -58 -8 -99q-60 7 -133.5 14t-145.5 12q-35 2 -77.5 4t-85.5 3.5t-83.5 3t-72.5 2.5 q7 -121 44 -216t95 -157q30 -32 69.5 -56t84 -40.5t91.5 -25t92 -8.5q27 0 54 2.5t51.5 6.5t44.5 10t33 13z" glyph-name="afii10053" horiz-adv-x="1389" unicode="Є"/>
<glyph d="M330 161q10 -9 28 -19t41.5 -19t50 -14.5t54.5 -5.5q54 0 96 13.5t77 41.5t51 66t16 88q0 73 -46 120q-46 48 -115 89t-150 80q-78 40 -149 94q-68 55 -115 129q-45 73 -45 185q0 94 35.5 164t97.5 115.5t145.5 68t180.5 22.5q120 0 221 -16.5t182 -51.5q-2 -39 -7 -89 t-12.5 -99.5t-16 -93.5t-17.5 -72h-79l-89 265q-12 6 -29.5 11.5t-39 10t-46 7t-48.5 2.5q-41 0 -77 -10.5t-64 -32.5q-56 -42 -56 -124q0 -74 46 -124q48 -51 117 -94t151 -85t153 -96q35 -27 64.5 -58t51.5 -68t34 -81.5t12 -98.5q0 -96 -33.5 -171.5t-99.5 -127.5 t-163 -79t-223 -27q-61 0 -124.5 9.5t-120 23.5t-100 30t-64.5 29q3 45 10 96.5t16 102.5t19 97t20 81h79z" glyph-name="afii10054" horiz-adv-x="1139" unicode="Ѕ"/>
<glyph d="M700 0h-604v74q77 42 157 56v1095q-39 7 -81.5 22t-75.5 35v74h604v-74q-34 -22 -76 -36t-80 -21v-1095q38 -8 80 -21.5t76 -34.5v-74z" glyph-name="afii10055" horiz-adv-x="797" unicode="І"/>
<glyph d="M700 0h-604v74q77 42 157 56v1095q-39 7 -81.5 22t-75.5 35v74h604v-74q-34 -22 -76 -36t-80 -21v-1095q38 -8 80 -21.5t76 -34.5v-74zM4 1596q0 62 44.5 93t112.5 31q67 0 112 -31t45 -93q0 -54 -45 -84.5t-112 -30.5q-68 0 -112.5 30.5t-44.5 84.5zM479 1596 q0 62 45.5 93t113.5 31q67 0 111.5 -31t44.5 -93q0 -54 -44.5 -84.5t-111.5 -30.5q-68 0 -113.5 30.5t-45.5 84.5z" glyph-name="afii10056" horiz-adv-x="797" unicode="Ї"/>
<glyph d="M193 1356h636v-74q-15 -10 -36 -18.5t-43.5 -16t-45.5 -13.5t-42 -9v-990q0 -80 -9.5 -145t-33.5 -116q-23 -51 -54 -91.5t-63 -69.5q-16 -15 -35.5 -27.5t-40 -23.5t-40 -19.5t-36.5 -15.5q-34 -14 -61.5 -23t-49.5 -14l-36 51q39 35 70.5 72t53 90t33 129.5t11.5 190.5 v1002q-20 3 -44 9.5t-48.5 14t-47 16t-38.5 17.5v74z" glyph-name="afii10057" unicode="Ј"/>
<glyph d="M805 0v74q35 19 71.5 33.5t75.5 22.5v1099h-336q-5 -295 -27 -491q-11 -99 -23.5 -179.5t-28.5 -144.5q-31 -127 -69 -202q-19 -38 -39 -70t-40 -59q-18 -25 -42 -45t-51 -33.5t-54.5 -21t-53.5 -7.5q-25 10 -49 40t-43 69t-31 81.5t-14 79.5l52 74l231 -56q24 54 48 131 t43.5 188.5t31.5 264t12 359.5q-60 9 -113.5 30.5t-91.5 44.5v74h1149v-74q-37 -20 -80 -34t-91 -23v-414q44 6 93.5 10t111.5 4q69 0 136.5 -7.5t129 -25t113.5 -47t90.5 -74t60 -105t21.5 -140.5q0 -110 -40 -191.5t-114 -135t-179 -79.5t-234 -26q-6 0 -24.5 0.5t-44.5 1 t-57 1.5t-63 1q-37 1 -74 1.5t-64 0.5h-299zM1388 699q-35 0 -72.5 -3t-73.5 -9v-559q22 -2 40.5 -3t36 -2.5t35.5 -2t40 -0.5q78 0 132 21.5t88 61.5t49.5 96.5t15.5 126.5q0 72 -21 123.5t-59.5 84.5t-92 49t-118.5 16z" glyph-name="afii10058" horiz-adv-x="2054" unicode="Љ"/>
<glyph d="M844 0v74q33 21 65.5 34.5t72.5 21.5v526h-473v-526q39 -8 72 -21.5t66 -34.5v-74h-587v74q33 17 76.5 32.5t82.5 23.5v1095q-48 9 -90 24t-69 33v74h587v-74q-29 -20 -65 -35t-73 -22v-443h473v443q-38 9 -68.5 21.5t-69.5 35.5v74h599v-74q-37 -20 -80.5 -34t-89.5 -23 v-445q47 5 96 9.5t104 4.5q101 0 196.5 -18.5t169.5 -63.5t118.5 -120t44.5 -187q0 -108 -48 -185.5t-128 -127.5t-184.5 -74t-216.5 -24q-70 0 -141 2.5t-148 3.5h-292zM1404 669q-41 0 -76.5 -4t-54.5 -9v-528q29 -4 57.5 -6t63.5 -2q146 0 218 72.5t72 214.5 q0 67 -21 116.5t-58 82t-88.5 48t-112.5 15.5z" glyph-name="afii10059" horiz-adv-x="2052" unicode="Њ"/>
<glyph d="M756 745q27 16 62.5 32t78 28.5t91.5 20t103 7.5q78 0 145 -16t116.5 -57.5t78 -112t28.5 -178.5v-339q37 -6 74 -21.5t65 -34.5v-74h-429v401q0 67 -7 121.5t-28 93.5t-59.5 60t-101.5 21q-64 0 -116 -18.5t-101 -48.5v-500q33 -10 64 -25.5t56 -30.5v-74h-599v74 q39 15 88 31.5t100 24.5v1099h-198l-124 -281h-79q-7 40 -14 91.5t-13.5 106.5t-11 109.5t-5.5 100.5h1190q-1 -47 -5 -100t-10 -106t-13 -103t-14 -90h-82l-124 272h-206v-484z" glyph-name="afii10060" horiz-adv-x="1638" unicode="Ћ"/>
<glyph d="M862 1356h519v-74q-33 -22 -75.5 -36t-77.5 -21l-384 -472q24 -31 62 -79t84 -106t96.5 -121t101.5 -122.5t98 -112.5t86 -90l93 -56v-66h-336l-78 54q-72 78 -173 224t-239 357h-120v-505q43 -8 78 -23.5t60 -32.5v-74h-587v74q39 19 79.5 33.5t79.5 22.5v1095 q-45 7 -86.5 22t-72.5 35v74h587v-74q-25 -16 -60.5 -31t-77.5 -26v-491l152 27l333 464q-39 9 -77 25t-65 32v74zM880 1749q31 2 70.5 -3.5t77.5 -16.5t68 -24.5t42 -27.5v-39l-479 -185l-54 46z" glyph-name="afii10061" horiz-adv-x="1485" unicode="Ќ"/>
<glyph d="M1165 1225q-46 11 -81 25t-68 32v74h469v-74q-22 -16 -57.5 -30t-80.5 -27l-463 -835q-13 -24 -29 -53t-34.5 -60t-38.5 -62t-41 -58q-27 -35 -58 -64.5t-68 -52t-80.5 -35.5t-94.5 -14q-14 16 -31.5 47.5t-32.5 67.5t-26 70.5t-13 56.5l54 77l225 -81q36 15 58.5 44 t36.5 64l-519 888q-37 11 -70.5 25t-63.5 32v74h604v-74q-57 -35 -147 -57l275 -516l49 -108h4l51 107zM834 1445q-90 0 -162.5 16.5t-125 48.5t-80.5 80t-28 111q35 25 92.5 32.5t105.5 9.5l65 -35v-151q28 -13 63.5 -18t70.5 -5q27 0 66.5 4t67.5 13v157l66 35 q35 4 91 -6.5t98 -35.5q0 -124 -104.5 -190t-285.5 -66z" glyph-name="afii10062" horiz-adv-x="1503" unicode="Ў"/>
<glyph d="M661 1282q-30 -20 -61 -34t-70 -23v-1099h532v1099q-51 11 -81.5 26t-50.5 31v74h581v-74q-43 -25 -81.5 -39t-77.5 -18v-1095q42 -8 82.5 -21t76.5 -35v-74h-572q-7 -47 -18 -95.5t-26 -99.5q-14 -52 -28.5 -100t-28.5 -93h-85q-33 99 -59 196.5t-41 191.5h-572v74 q37 21 78.5 34.5t80.5 21.5v1095q-52 9 -91 24t-68 33v74h580v-74z" glyph-name="afii10145" horiz-adv-x="1593" unicode="Џ"/>
<glyph d="M904 438h-458l-116 -308q88 -12 168 -56v-74h-474v74q32 19 65 33.5t67 22.5l515 1249h143l501 -1249q38 -8 74.5 -22.5t65.5 -33.5v-74h-601v74q37 17 79.5 32.5t81.5 23.5zM494 564h365l-132 369l-43 157h-4l-47 -160z" glyph-name="afii10017" horiz-adv-x="1479" unicode="А"/>
<glyph d="M235 1225q-92 16 -159 57v74h1060q0 -45 -4 -99t-10 -108t-13.5 -105t-15.5 -91h-79l-120 276h-369v-440q37 5 83.5 9t87.5 4q68 0 136 -7.5t131 -25.5t117 -47.5t94 -73.5t63 -103.5t23 -137.5q0 -103 -45.5 -180.5t-122.5 -129t-180.5 -77.5t-218.5 -26q-7 0 -29.5 0.5 t-53.5 1t-68 1.5t-72 1.5t-66 1t-51 0.5h-277v74q37 21 76.5 35.5t82.5 20.5v1095zM661 676q-16 0 -35.5 -1t-38.5 -2.5t-35.5 -4t-26.5 -4.5v-536q17 -3 57.5 -5.5t89.5 -2.5q57 0 106 19t85 55t56.5 88.5t20.5 118.5q0 67 -20.5 118t-57 86t-88 53t-113.5 18z" glyph-name="afii10018" horiz-adv-x="1354" unicode="Б"/>
<glyph d="M76 0v74q37 21 78.5 36.5t80.5 19.5v1095q-39 9 -81.5 23t-77.5 34v74h312q37 0 72 1.5t67 3.5q33 3 78 4.5t93 1.5q93 0 183.5 -10.5t162.5 -46.5q36 -18 66.5 -43t52.5 -58t34.5 -73.5t12.5 -89.5q0 -62 -22.5 -116t-61.5 -95.5t-92.5 -69.5t-115.5 -39v-8 q62 -7 124.5 -28.5t113 -61t82.5 -99t32 -143.5q0 -103 -48.5 -181.5t-128.5 -126.5q-42 -26 -92 -43t-103.5 -27t-110 -14.5t-111.5 -4.5q-44 0 -95.5 1.5t-102 4t-95.5 4t-76 1.5h-231zM683 114q30 0 61 4.5t59.5 13.5t52.5 22.5t42 31.5q72 75 72 195q0 73 -28.5 120.5 t-76.5 75.5t-109.5 38.5t-127.5 10.5h-114v-498q26 -6 68.5 -10t100.5 -4zM575 752q21 0 45.5 0.5t48.5 2t45.5 3.5t37.5 6q30 9 60 30.5t54 52.5t39 71t15 85q0 61 -18.5 104.5t-49.5 74.5q-16 16 -40 27.5t-51 18.5t-55 10.5t-53 3.5q-42 0 -78.5 -2t-60.5 -6v-482h61z " glyph-name="afii10019" horiz-adv-x="1366" unicode="В"/>
<glyph d="M549 130q48 -8 95.5 -23.5t90.5 -32.5v-74h-635v74q43 21 82 35t76 21v1095q-38 9 -80 22t-78 35v74h1123q0 -43 -2.5 -94t-7 -104.5t-11 -107t-14.5 -101.5h-80l-130 280h-429v-1099z" glyph-name="afii10020" horiz-adv-x="1303" unicode="Г"/>
<glyph d="M1393 126q0 -45 -3.5 -102t-10 -117t-15.5 -118t-21 -105h-75l-104 316h-926l-105 -316h-76q-11 48 -21 108t-16.5 121t-9.5 117.5t-3 95.5h168q55 81 100.5 201t77 262.5t48.5 300.5t17 317q-51 9 -105 28.5t-101 46.5v74h1114v-74q-68 -37 -159 -57v-1099h226zM877 126 v1103h-312q-9 -224 -33 -402t-55.5 -314t-68.5 -231.5t-72 -155.5h541z" glyph-name="afii10021" horiz-adv-x="1409" unicode="Д"/>
<glyph d="M1215 1356q-4 -88 -13.5 -180.5t-25.5 -174.5h-80l-88 228h-459v-473h328l85 148h62q5 -48 7.5 -100.5t2.5 -110.5t-2.5 -111.5t-7.5 -104.5h-62l-85 153h-328v-504h474l103 246h79q8 -38 15 -84t12.5 -95.5t8.5 -99t3 -93.5h-1144v74q33 17 73.5 32.5t85.5 23.5v1095 q-39 9 -82.5 23t-76.5 34v74h1115z" glyph-name="afii10022" horiz-adv-x="1366" unicode="Е"/>
<glyph d="M876 1225q-39 11 -70.5 26t-55.5 31v74h504v-74q-39 -28 -114 -57v-493l131 29l285 464q-39 11 -75 26t-67 31v74h514v-74q-30 -16 -65.5 -31t-73.5 -26l-355 -473q50 -66 106 -145.5t117 -163.5t127 -168.5t136 -161.5l79 -47v-66h-323l-83 66q-60 65 -106.5 134.5 t-86 142t-77 147t-79.5 149.5h-104v-509q33 -10 63.5 -24.5t59.5 -31.5v-74h-522v74q26 17 59.5 31.5t75.5 24.5v526l-111 -28q-41 -79 -79.5 -152.5t-76.5 -142.5q-37 -69 -80 -135t-97 -132l-83 -66h-323v66l79 47q70 77 135.5 160t124.5 164.5t111 157t96 137.5l-353 493 q-39 11 -72 26t-57 31v74h510v-74q-24 -16 -59 -31t-74 -26l285 -475h124v475z" glyph-name="afii10024" horiz-adv-x="2025" unicode="Ж"/>
<glyph d="M466 -24q-54 0 -113.5 6t-115 16.5t-104 24.5t-81.5 29q2 31 8.5 75.5t16 92.5t21 95.5t24.5 85.5h81l77 -275q34 -15 74.5 -19t82.5 -4q64 0 110.5 18t84.5 55q77 74 77 199q0 138 -68 195q-67 58 -181 58l-150 -26q-9 35 -11 79.5t9 81.5h63q16 -1 36 -0.5t40.5 1.5 t40 3t34.5 4q75 31 114 90t39 150q0 115 -57 178.5t-166 63.5q-46 0 -84 -12.5t-51 -24.5l-95 -246h-82q-7 28 -14.5 66.5t-13.5 82t-10.5 89t-5.5 87.5q36 25 85 41t101 25.5t102.5 13.5t90.5 4q94 0 184 -14t160 -51t113 -101.5t43 -166.5q0 -98 -65 -189 q-65 -90 -197 -131v-7q61 -10 116.5 -35t97.5 -66.5t67 -99t25 -132.5q0 -104 -38.5 -181t-110.5 -128t-174.5 -76t-229.5 -25z" glyph-name="afii10025" horiz-adv-x="1081" unicode="З"/>
<glyph d="M663 0h-582v74q37 19 77.5 34.5t81.5 21.5v1095q-39 11 -81.5 23t-77.5 34v74h582v-74q-28 -18 -65 -33t-79 -24v-735l-20 -151l95 158l488 682v46q-91 22 -153 57v74h583v-74q-33 -22 -74.5 -34t-84.5 -23v-1095q45 -8 84.5 -22.5t74.5 -33.5v-74h-583v74q27 13 65 29.5 t81 26.5v733l19 154l-87 -154l-496 -691v-42q45 -10 83.5 -25.5t68.5 -30.5v-74z" glyph-name="afii10026" horiz-adv-x="1593" unicode="И"/>
<glyph d="M663 0h-582v74q37 19 77.5 34.5t81.5 21.5v1095q-39 11 -81.5 23t-77.5 34v74h582v-74q-28 -18 -65 -33t-79 -24v-735l-20 -151l95 158l488 682v46q-91 22 -153 57v74h583v-74q-33 -22 -74.5 -34t-84.5 -23v-1095q45 -8 84.5 -22.5t74.5 -33.5v-74h-583v74q27 13 65 29.5 t81 26.5v733l19 154l-87 -154l-496 -691v-42q45 -10 83.5 -25.5t68.5 -30.5v-74zM799 1445q-90 0 -162.5 16.5t-125 48.5t-80.5 80t-28 111q35 25 92.5 32.5t105.5 9.5l65 -35v-151q28 -13 63.5 -18t70.5 -5q27 0 66.5 4t67.5 13v157l66 35q35 4 91 -6.5t98 -35.5 q0 -124 -104.5 -190t-285.5 -66z" glyph-name="afii10027" horiz-adv-x="1593" unicode="Й"/>
<glyph d="M862 1356h519v-74q-33 -22 -75.5 -36t-77.5 -21l-384 -472q24 -31 62 -79t84 -106t96.5 -121t101.5 -122.5t98 -112.5t86 -90l93 -56v-66h-336l-78 54q-72 78 -173 224t-239 357h-120v-505q43 -8 78 -23.5t60 -32.5v-74h-587v74q39 19 79.5 33.5t79.5 22.5v1095 q-45 7 -86.5 22t-72.5 35v74h587v-74q-25 -16 -60.5 -31t-77.5 -26v-491l152 27l333 464q-39 9 -77 25t-65 32v74z" glyph-name="afii10028" horiz-adv-x="1485" unicode="К"/>
<glyph d="M492 1207q-59 9 -112.5 30.5t-92.5 44.5v74h1169v-74q-30 -18 -71.5 -33t-87.5 -24v-1095q44 -8 84 -23.5t75 -32.5v-74h-597v74q33 17 71 31.5t77 24.5v1099h-367q-6 -294 -27.5 -490.5t-52.5 -324t-69 -202.5t-78 -129q-37 -50 -93.5 -78.5t-108.5 -28.5 q-25 11 -48.5 40.5t-42.5 68.5t-31.5 81.5t-14.5 79.5l52 74l231 -56q25 54 49.5 130.5t43.5 188.5t30.5 265t11.5 359z" glyph-name="afii10029" horiz-adv-x="1526" unicode="Л"/>
<glyph d="M1851 0h-580v74q39 19 76 32.5t79 23.5v809l10 227h-15l-66 -207l-397 -959h-89l-396 951l-70 226h-17l2 -246v-794q37 -7 81.5 -24.5t83.5 -38.5v-74h-473v74l76 36q48 22 87 29v1086q-39 9 -82.5 22t-76.5 35v74h525l320 -789l56 -186h2l59 190l326 785h481v-74 q-33 -20 -71 -34t-77 -23v-1097q42 -8 79.5 -23.5t66.5 -30.5v-74z" glyph-name="afii10030" horiz-adv-x="1933" unicode="М"/>
<glyph d="M657 0h-587v74q33 17 76.5 32.5t82.5 23.5v1095q-46 9 -88.5 24t-70.5 33v74h587v-74q-29 -20 -65 -35t-73 -22v-468h555v468q-43 9 -77 24t-61 33v74h587v-74q-33 -22 -75.5 -35t-83.5 -22v-1095q45 -8 86.5 -23.5t72.5 -32.5v-74h-587v74q29 17 64 32.5t74 23.5v502 h-555v-502q39 -8 72 -21.5t66 -34.5v-74z" glyph-name="afii10031" horiz-adv-x="1593" unicode="Н"/>
<glyph d="M88 678q0 151 49.5 279.5t141.5 222.5t223.5 146.5t295.5 52.5t295 -52.5t222.5 -146.5t140.5 -222.5t49 -279.5q0 -152 -49 -280.5t-140.5 -222.5t-222.5 -146.5t-295 -52.5t-295 52.5t-223.5 146.5t-142 222.5t-49.5 280.5zM417 678q0 -125 26.5 -230t77 -182t125 -120 t170.5 -43q88 0 155 43t112.5 120t69 182t23.5 230q0 124 -24.5 229.5t-74 182t-123 120t-171.5 43.5q-95 0 -164 -43.5t-114 -120t-66.5 -182t-21.5 -229.5z" glyph-name="afii10032" horiz-adv-x="1593" unicode="О"/>
<glyph d="M655 0h-580v74q29 15 68 31.5t91 24.5v1095q-39 9 -80.5 22t-78.5 35v74h1443v-74q-36 -23 -77 -35.5t-82 -21.5v-1095q72 -8 159 -56v-74h-581v74q20 15 50.5 29.5t81.5 26.5v1099h-545v-1099q39 -10 70 -23.5t61 -32.5v-74z" glyph-name="afii10033" horiz-adv-x="1593" unicode="П"/>
<glyph d="M515 130q52 -8 103.5 -22.5t91.5 -33.5v-74h-645v74q37 21 78.5 34.5t80.5 21.5v1095q-45 9 -85.5 23t-73.5 34v74h244q39 0 83 1.5t94 5.5q51 4 96.5 6t87.5 2q103 0 198.5 -20.5t169.5 -68.5t118.5 -128.5t44.5 -200.5q0 -114 -43.5 -197.5t-116.5 -137.5t-169.5 -80 t-201.5 -26h-31t-46.5 0.5t-46.5 1.5t-31 3v-387zM620 1245q-39 0 -61.5 -3t-43.5 -8v-589q26 -7 54 -7.5t54 -0.5q51 0 98 17t83 54t57.5 95t21.5 140q0 78 -15.5 139.5t-54.5 99.5q-38 38 -84.5 50.5t-108.5 12.5z" glyph-name="afii10034" horiz-adv-x="1251" unicode="Р"/>
<glyph d="M1215 407h79q7 -31 13.5 -75t11 -92.5t7.5 -97t3 -88.5q-50 -26 -102 -41t-105 -23.5t-106.5 -11t-105.5 -2.5q-161 0 -303 40.5t-248 126t-167.5 218.5t-61.5 319q0 123 30.5 222.5t84 177t125.5 134t155.5 93.5t174.5 54.5t182 17.5q63 0 128 -5.5t124 -15t108 -22 t82 -25.5q0 -27 -4 -75t-10.5 -102t-14.5 -106.5t-16 -88.5h-82l-106 293q-9 4 -30 7.5t-47 6.5t-52.5 5t-47.5 2q-52 0 -106.5 -14t-106 -44t-97 -76t-79.5 -110t-54 -147t-20 -185q0 -140 37.5 -248.5t99.5 -180.5q31 -36 71 -63t86 -45t94.5 -27.5t96.5 -9.5 q27 0 55.5 3.5t54 8t45.5 10t29 10.5z" glyph-name="afii10035" horiz-adv-x="1479" unicode="С"/>
<glyph d="M145 948q-8 26 -18.5 63t-21.5 87t-21.5 114t-18.5 144h1236q-17 -152 -40 -253.5t-40 -154.5h-82q-17 44 -33 93t-30 91q-16 49 -30 97h-218v-1099q51 -10 100 -23.5t88 -32.5v-74h-666v74q39 15 87.5 31.5t99.5 24.5v1099h-217q-14 -48 -30 -97q-14 -42 -30 -91 t-33 -93h-82v0z" glyph-name="afii10036" horiz-adv-x="1366" unicode="Т"/>
<glyph d="M1165 1225q-46 11 -81 25t-68 32v74h469v-74q-22 -16 -57.5 -30t-80.5 -27l-463 -835q-13 -24 -29 -53t-34.5 -60t-38.5 -62t-41 -58q-27 -35 -58 -64.5t-68 -52t-80.5 -35.5t-94.5 -14q-14 16 -31.5 47.5t-32.5 67.5t-26 70.5t-13 56.5l54 77l225 -81q36 15 58.5 44 t36.5 64l-519 888q-37 11 -70.5 25t-63.5 32v74h604v-74q-57 -35 -147 -57l275 -516l49 -108h4l51 107z" glyph-name="afii10037" horiz-adv-x="1503" unicode="У"/>
<glyph d="M611 1356h530v-72q-22 -14 -52 -29t-75 -28v-83q17 2 35 4.5t40 4t48 2.5t60 1q107 0 197 -30t155.5 -88t102 -144t36.5 -197q0 -121 -44 -211t-115 -149.5t-161.5 -89t-183.5 -29.5q-20 0 -44.5 1t-48 3t-44 4t-33.5 5v-103q38 -10 70 -25.5t57 -30.5v-72h-530v72 q26 15 62 30.5t75 23.5v101q-43 -4 -93 -6.5t-112 -2.5q-85 0 -169 25.5t-151 80.5t-109 142.5t-42 211.5q0 112 39.5 200.5t110.5 150t170.5 94.5t218.5 33q31 0 51 -0.5t34.5 -1t26 -1.5t25.5 -2v76q-45 11 -81 26t-56 31v72zM1122 1038q-25 1 -56.5 -2t-53.5 -8v-686 q19 -3 43.5 -4t55.5 -1q50 0 99.5 19.5t89 62.5t64 111.5t24.5 166.5q0 63 -13 123.5t-43.5 108t-82 77.5t-127.5 32zM650 337q22 0 50.5 2.5t49.5 7.5v687q-17 2 -39 3t-46 1q-75 0 -130 -28t-91 -77t-53.5 -114.5t-17.5 -140.5q0 -85 21.5 -149t59 -106.5t88 -64 t108.5 -21.5z" glyph-name="afii10038" horiz-adv-x="1759" unicode="Ф"/>
<glyph d="M880 1356h480v-74q-29 -16 -61 -31t-70 -26l-360 -494l419 -601q44 -10 80 -24.5t69 -31.5v-74h-628v74q31 17 65 31.5t72 24.5l-279 416l-273 -418q40 -6 75 -19.5t68 -34.5v-74h-495v74q63 39 131 56l406 542l-378 553q-36 11 -69 26t-64 31v74h613v-74 q-22 -14 -57 -28t-82 -29l238 -378l247 378q-38 9 -77 25t-70 32v74z" glyph-name="afii10039" horiz-adv-x="1479" unicode="Х"/>
<glyph d="M70 0v74q27 15 68 30.5t91 25.5v1095q-39 7 -80.5 21t-78.5 36v74h577v-74q-23 -16 -54 -30t-74 -27v-1099h517v1099q-35 9 -68.5 24t-60.5 33v74h578v-74q-38 -23 -78 -35.5t-81 -21.5v-1099h227q-1 -50 -5 -109.5t-11 -119.5t-15.5 -115t-18.5 -98h-75l-105 316h-1253z " glyph-name="afii10040" horiz-adv-x="1593" unicode="Ц"/>
<glyph d="M1413 0h-597v74q45 21 89.5 36.5t89.5 19.5v457q-27 -15 -66.5 -31t-87 -28.5t-101 -20.5t-107.5 -8q-78 0 -155.5 18t-139 60.5t-100 114t-38.5 179.5v354q-37 7 -74 22t-66 35v74h548v-74q-22 -16 -51.5 -31t-66.5 -26v-304q0 -66 15 -119t47.5 -90t84.5 -57t126 -20 q28 0 58.5 6t61 15.5t59.5 21.5t53 25v522q-33 11 -64 25t-56 32v74h538v-74q-25 -18 -58 -32t-70 -25v-1095q39 -8 71.5 -24.5t56.5 -31.5v-74z" glyph-name="afii10041" horiz-adv-x="1503" unicode="Ч"/>
<glyph d="M875 1356h501v-74q-20 -16 -46 -31t-58 -26v-1099h442v1099q-57 15 -111 57v74h536v-74q-60 -39 -135 -57v-1095q39 -10 73 -24.5t62 -31.5v-74h-2029v74q31 17 68 32.5t71 23.5v1095q-78 17 -139 57v74h534v-74q-15 -12 -43.5 -28t-60.5 -29v-1099h442v1099 q-66 22 -107 57v74z" glyph-name="afii10042" horiz-adv-x="2249" unicode="Ш"/>
<glyph d="M88 0v74q29 15 63.5 31.5t75.5 24.5v1095q-36 7 -74 22t-65 35v74h534v-74q-17 -16 -45.5 -31t-58.5 -26v-1099h442v1099q-66 24 -107 57v74h502v-74q-18 -16 -44.5 -31t-60.5 -26v-1099h442v1099q-65 20 -111 57v74h536v-74q-26 -20 -60 -34t-75 -23v-1099h227 q0 -45 -4.5 -103t-11 -118t-15 -117t-20.5 -104h-76l-104 316h-1890z" glyph-name="afii10043" horiz-adv-x="2249" unicode="Щ"/>
<glyph d="M927 1356v-74q-33 -20 -81 -33t-97 -24v-414q22 4 48 6.5t52.5 4t52 2.5t47.5 1q65 0 131.5 -7t128.5 -24.5t116 -46.5t94 -73.5t63 -105.5t23 -142q0 -122 -47 -204.5t-128 -133t-190.5 -72.5t-234.5 -22q-9 0 -46.5 1t-85 2t-95.5 2t-78 1h-301v74q35 19 74.5 33.5 t84.5 22.5v1099h-202l-102 -281h-82q-8 48 -15.5 103.5t-13.5 110t-9.5 105t-3.5 89.5h897zM881 699q-37 0 -74 -4t-58 -8v-559q26 -3 60.5 -5.5t61.5 -2.5q77 0 136 16.5t99 53t60.5 95.5t20.5 143q0 73 -23 124.5t-63.5 84t-97 47.5t-122.5 15z" glyph-name="afii10044" horiz-adv-x="1567" unicode="Ъ"/>
<glyph d="M1931 0h-588v74q32 17 68 31.5t74 24.5v1095q-37 9 -76.5 22t-74.5 35v74h597v-74q-66 -42 -155 -57v-1095q48 -8 86.5 -24.5t68.5 -31.5v-74zM80 0v74q35 19 76.5 34.5t81.5 21.5v1095q-38 9 -80.5 22t-77.5 35v74h628v-74q-34 -20 -82.5 -34t-96.5 -23v-414 q45 6 90.5 10t107.5 4q69 0 137.5 -7.5t130.5 -25t116 -47t93 -74t61.5 -105t22.5 -140.5q0 -110 -40.5 -191.5t-114.5 -135t-179.5 -79.5t-234.5 -26q-7 0 -29.5 0.5t-53.5 1t-67.5 1.5t-72.5 1.5t-67.5 1t-51.5 0.5h-297zM668 699q-35 0 -68.5 -3t-70.5 -9v-559 q22 -2 41 -3t36.5 -2.5t35.5 -2t40 -0.5q78 0 132.5 21.5t89 61.5t50 96.5t15.5 126.5q0 72 -22.5 123.5t-63 84.5t-95.5 49t-120 16z" glyph-name="afii10045" horiz-adv-x="2011" unicode="Ы"/>
<glyph d="M70 0v74q35 19 76.5 34.5t81.5 21.5v1095q-38 9 -80.5 22t-77.5 35v74h628v-74q-34 -20 -82.5 -34t-96.5 -23v-414q45 6 94.5 10t111.5 4q69 0 137.5 -7.5t130.5 -25t116 -47t93 -74t61.5 -105t22.5 -140.5q0 -110 -41.5 -191.5t-117.5 -135t-182.5 -79.5t-235.5 -26 q-7 0 -29.5 0.5t-53.5 1t-67.5 1.5t-72.5 1.5t-67.5 1t-51.5 0.5h-297zM666 699q-35 0 -72.5 -3t-74.5 -9v-559q22 -2 41 -3t36.5 -2.5t35.5 -2t40 -0.5q78 0 133.5 21.5t91.5 61.5t53 96.5t17 126.5q0 72 -22.5 123.5t-63 84.5t-95.5 49t-120 16z" glyph-name="afii10046" horiz-adv-x="1354" unicode="Ь"/>
<glyph d="M397 587q-5 20 -8.5 43.5t-4.5 51.5q-2 59 13 104l571 -8q-5 117 -45 206t-104.5 149t-147.5 90t-173 30q-26 0 -52.5 -4t-50.5 -9.5t-43 -12t-29 -11.5l-101 -251h-79q-5 21 -11 61t-11 87.5t-7 95.5t0 86q34 19 85.5 34.5t107.5 26.5t111.5 17t97.5 6q167 0 309 -43 t245.5 -129.5t162 -215t58.5 -299.5q0 -131 -32 -235t-88 -183.5t-131 -136t-161.5 -92.5t-179.5 -52.5t-185 -16.5q-60 0 -120 6t-115.5 16t-103 24t-81.5 30q0 32 3.5 79t9.5 98.5t13.5 103t14.5 92.5h81l105 -303q15 -4 35.5 -7.5t43 -6t45.5 -4t43 -1.5q53 0 109 13 t109 41t100.5 71.5t83 104t56.5 138.5t22 176z" glyph-name="afii10047" horiz-adv-x="1389" unicode="Э"/>
<glyph d="M685 0h-597v74q35 19 74.5 33.5t84.5 22.5v1095q-39 7 -80.5 21t-78.5 36v74h597v-74q-24 -16 -59 -31t-89 -26v-468h251q13 136 67.5 250.5t145.5 197t216 128.5t278 46q164 0 295 -52.5t222.5 -146.5t140.5 -222.5t49 -279.5q0 -152 -49 -280.5t-140.5 -222.5 t-222.5 -146.5t-295 -52.5q-158 0 -285.5 49t-219 136t-144.5 207.5t-60 263.5h-249v-502q49 -10 85 -25.5t63 -30.5v-74zM1102 678q0 -125 26.5 -230t78 -182t126 -120t170.5 -43q88 0 156.5 43t116 120t72.5 182t25 230q0 124 -24.5 229.5t-74 182t-123 120t-171.5 43.5 q-95 0 -165.5 -43.5t-118 -120t-71 -182t-23.5 -229.5z" glyph-name="afii10048" horiz-adv-x="2306" unicode="Ю"/>
<glyph d="M1409 1356v-74q-25 -16 -68 -31t-91 -26v-1095q51 -10 89 -25.5t70 -30.5v-74h-601v74q33 17 71 31.5t80 24.5v426h-202q-29 -67 -65 -137.5t-75 -136.5t-78 -123t-74 -97l-80 -62h-335v66l85 47q25 20 57.5 53.5t64.5 69.5t58.5 69t40.5 53l150 220q-27 8 -61 22.5 t-68.5 36.5t-67.5 52t-58.5 68.5t-41 86t-15.5 104.5q0 112 48.5 191.5t127.5 129.5q79 49 186.5 71t258.5 22q19 0 55.5 -1t78.5 -2t83 -2t71 -1h306zM844 670q13 0 28.5 0.5t31.5 2t30 3t25 4.5v545q-8 2 -24.5 4t-36 3.5t-38.5 2.5t-31 1q-67 0 -126 -14.5t-103.5 -48 t-70 -88.5t-25.5 -135q0 -72 23 -125t67 -87.5t107 -51t143 -16.5z" glyph-name="afii10049" horiz-adv-x="1479" unicode="Я"/>
<glyph d="M866 271q0 -41 1 -71t4 -63l129 -19v-66q-24 -11 -61.5 -22.5t-79.5 -21t-83.5 -16.5t-72.5 -10h-64q-10 22 -15.5 43t-7.5 42q-2 22 -3 48t-2 57h-9q-9 -36 -31.5 -71t-57.5 -62.5t-82 -44.5t-104 -17q-61 0 -112.5 18.5t-89.5 52.5t-59.5 82t-21.5 108q0 83 36 138.5 t107 90t175.5 51.5t242.5 23q15 161 -13 235q-27 75 -122 75q-58 0 -105 -19l-89 -223h-82q-15 22 -29.5 51t-26 61t-20 66t-12.5 66q69 47 183 76t238 29q106 0 173.5 -23.5t106.5 -63.5t53.5 -94.5t14.5 -115.5q0 -57 -1.5 -107t-3 -97t-3 -92.5t-1.5 -93.5zM445 127 q39 0 67 14.5t47 36t30 45.5t16 43v187q-149 0 -214.5 -41t-65.5 -135q0 -72 31 -111t89 -39z" glyph-name="afii10065" unicode="а"/>
<glyph d="M51 507q0 234 40.5 390t123 250.5t207.5 136.5t294 48l122 94h73q0 -36 -5.5 -82t-13.5 -91t-17 -82t-16 -55q-99 0 -172.5 -2t-131.5 -8.5t-104 -20t-90 -36.5q-41 -21 -75 -59.5t-59.5 -87t-41 -105t-18.5 -114.5h10q20 46 54.5 89.5t81 77t103 53.5t120.5 20 q98 0 177 -27.5t134.5 -84.5t85 -144t29.5 -205q0 -101 -28.5 -189.5t-86.5 -154t-146 -103.5t-208 -38q-212 0 -327 135t-115 395zM342 491q0 -114 9.5 -191.5t30.5 -125.5t53.5 -69t79.5 -21q89 0 123 91t34 274q0 95 -14 171.5t-45 113.5q-29 34 -62 45.5t-67 11.5 q-15 0 -32.5 -5t-34 -13t-32 -17.5t-26.5 -18.5q-3 -22 -6.5 -51t-5.5 -61t-3.5 -66.5t-1.5 -67.5z" glyph-name="afii10066" unicode="б"/>
<glyph d="M1042 273q0 -74 -32.5 -127.5t-88.5 -87.5t-131.5 -50t-162.5 -16q-59 0 -105.5 1t-82.5 2.5t-63 3t-48 1.5h-264v73q59 30 124 45v699q-36 7 -67 18.5t-57 27.5v72h253q90 0 170.5 4t150.5 4q89 0 156.5 -11.5t112.5 -38.5q47 -28 70 -69t23 -104q0 -44 -20 -79.5 t-52 -62t-71.5 -43.5t-78.5 -24q52 -4 99.5 -21t84 -47t58.5 -72.5t22 -97.5zM456 107q13 -3 32 -4.5t38 -2.5t36 -1h28q170 0 170 169q0 80 -49.5 120t-129.5 40h-125v-321zM456 509l190 19q15 9 30.5 24t27.5 36t20 47t8 58q0 143 -166 143h-25t-29.5 -1t-30 -2t-25.5 -4 v-320z" glyph-name="afii10067" horiz-adv-x="1106" unicode="в"/>
<glyph d="M886 935q-2 -35 -7 -82t-12 -97t-15.5 -98.5t-17.5 -86.5h-76l-84 258h-227v-711q109 -21 169 -45v-73h-562v73q32 19 62 28t62 17v701q-67 12 -124 44v72h832z" glyph-name="afii10068" horiz-adv-x="930" unicode="г"/>
<glyph d="M209 0l-99 -277h-74q-11 106 -18.5 202.5t-7.5 192.5h109q23 30 51.5 84t53 136.5t42 196t19.5 263.5q-40 11 -71.5 27.5t-57.5 37.5v72h832v-72q-25 -17 -52.5 -28.5t-64.5 -17.5v-699h146q2 -101 -5 -199.5t-21 -195.5h-73l-103 277h-606zM420 817q-3 -152 -20 -268 t-40.5 -201t-48.5 -141.5t-44 -88.5h335v699h-182z" glyph-name="afii10069" horiz-adv-x="1036" unicode="д"/>
<glyph d="M859 157q-20 -32 -52 -64t-77 -57.5t-104.5 -42t-133.5 -16.5q-113 0 -196.5 35t-139.5 99t-83.5 154.5t-27.5 201.5q0 105 31.5 199.5t88.5 158.5q118 133 324 133q95 0 171.5 -29t127.5 -91q40 -48 61.5 -114.5t21.5 -153.5q0 -62 -16 -119h-524q-1 -36 4 -70t14 -64 t21.5 -54.5t26.5 -42.5q75 -93 213 -93q60 0 115.5 17t100.5 50zM483 851q-38 0 -66 -21t-46 -60.5t-26.5 -95.5t-7.5 -126h263q10 63 9 118q-1 40 -7.5 74t-21 58.5t-38.5 38.5t-59 14z" glyph-name="afii10070" horiz-adv-x="909" unicode="е"/>
<glyph d="M1043 935h391v-72q-33 -24 -106 -46q-30 -39 -58 -74.5t-55.5 -69.5l-55 -68t-57.5 -70q23 -35 55.5 -83t70.5 -103.5t81 -115t87 -115.5l68 -45v-73h-260l-53 43q-30 40 -62 93.5t-61 107.5t-53 102.5t-38 80.5h-73v-309q59 -15 113 -45v-73h-461v73q26 13 51.5 24.5 t53.5 20.5v320l-83 -19q-12 -24 -32 -69t-46 -98t-58.5 -108.5t-69.5 -100.5l-55 -43h-256v73l79 45q44 52 83 109t73 111t64 102t57 84q-33 36 -62.5 70.5t-57.5 70t-55.5 73t-57.5 79.5q-52 13 -94 46v72h390v-72q-33 -26 -92 -46q24 -45 45.5 -80.5t44 -69t47.5 -69 t58 -78.5h78v297q-31 8 -53 19.5t-42 26.5v72h431v-72q-20 -15 -39.5 -26.5t-53.5 -19.5v-308l86 19q33 44 56.5 78t43.5 66t40.5 66.5t46.5 78.5q-26 10 -48.5 19.5t-45.5 26.5v72z" glyph-name="afii10072" horiz-adv-x="1485" unicode="ж"/>
<glyph d="M334 99q37 0 68.5 17t53.5 43q20 24 28.5 55.5t8.5 63.5q0 65 -35 103.5t-86 45.5l-152 -29q-10 24 -11 63q-2 42 11 67h171q14 11 25 21.5t20 21.5q6 7 12 21t10.5 31.5t7.5 36.5t3 37q0 72 -30.5 113t-98.5 41q-25 0 -45 -2.5t-40 -8.5l-65 -201h-63q-31 62 -50 126 q-8 29 -14.5 61t-10.5 66q21 10 50 21.5t69.5 21.5t93 16.5t120.5 6.5q185 0 270.5 -60t85.5 -169q0 -49 -16.5 -86.5t-45.5 -65.5t-68 -47.5t-84 -32.5q29 0 72 -12t83 -38.5t68.5 -68t28.5 -100.5q0 -147 -97.5 -224t-307.5 -77q-126 0 -213.5 27t-144.5 65l51 176h55 q13 -11 31 -27.5t37 -37.5q15 -17 29.5 -34.5t29.5 -35.5q20 -7 36.5 -9t48.5 -2z" glyph-name="afii10073" horiz-adv-x="823" unicode="з"/>
<glyph d="M44 935h493v-72q-20 -12 -48 -23.5t-64 -22.5v-392l-21 -173h10l72 139l302 544h349v-72q-29 -17 -59.5 -28.5t-59.5 -17.5v-699q35 -8 64.5 -19t54.5 -26v-73h-494v73q26 15 55 27t58 18v411l19 148h-10l-70 -140l-297 -537h-354v73q32 15 59.5 25.5t60.5 19.5v699 q-74 12 -120 46v72z" glyph-name="afii10074" horiz-adv-x="1180" unicode="и"/>
<glyph d="M44 935h493v-72q-20 -12 -48 -23.5t-64 -22.5v-392l-21 -173h10l72 139l302 544h349v-72q-29 -17 -59.5 -28.5t-59.5 -17.5v-699q35 -8 64.5 -19t54.5 -26v-73h-494v73q26 15 55 27t58 18v411l19 148h-10l-70 -140l-297 -537h-354v73q32 15 59.5 25.5t60.5 19.5v699 q-74 12 -120 46v72zM592 1137q-192 0 -279 69.5t-87 185.5q28 24 80 36.5t108 15.5l66 -24v-173q48 -21 114 -21q19 0 53 3.5t62 11.5v179l65 24q53 -3 103 -14.5t77 -37.5q0 -116 -87.5 -185.5t-274.5 -69.5z" glyph-name="afii10075" horiz-adv-x="1180" unicode="й"/>
<glyph d="M670 935h428v-72q-17 -15 -44 -25.5t-74 -25.5q-63 -78 -130.5 -147.5t-130.5 -129.5q42 -44 84 -96.5t85 -107.5t86.5 -110t88.5 -103l79 -45v-73h-294l-60 43q-80 97 -132 195q-26 49 -52 96.5t-52 95.5h-104v-312q61 -17 105 -45v-73h-497v73q51 30 123 45v699 q-32 7 -63 18.5t-60 27.5v72h477v-72q-18 -14 -36 -25t-49 -21v-305l116 19q54 63 108.5 133t99.5 148q-32 13 -55 24.5t-47 26.5v72z" glyph-name="afii10076" horiz-adv-x="1180" unicode="к"/>
<glyph d="M235 211q23 43 43.5 106t32.5 142t18 163t7 176q-38 12 -72.5 29t-60.5 36v72h886v-72q-59 -34 -124 -46v-699q40 -9 70 -20.5t54 -24.5v-73h-496v73q23 15 46.5 26t57.5 19v711h-226q-2 -99 -13 -207t-32 -210.5t-53.5 -193t-77.5 -154.5q-38 -54 -82.5 -76t-79.5 -14 q-25 13 -46 41t-36 61t-24 65t-11 53l43 65z" glyph-name="afii10077" horiz-adv-x="1149" unicode="л"/>
<glyph d="M390 0h-368v73q31 15 59.5 26t59.5 19l38 680q-40 16 -67.5 33t-52.5 32v72h432l158 -443l36 -128h5l39 130l168 441h437v-72q-23 -15 -51.5 -26.5t-68.5 -19.5l38 -699q32 -5 60.5 -16.5t59.5 -28.5v-73h-494v73q19 9 45 21t68 24l-15 633h-15l-277 -751h-95l-278 761 h-16l-17 -643q66 -21 112 -45v-73z" glyph-name="afii10078" horiz-adv-x="1395" unicode="м"/>
<glyph d="M535 0h-491v73q26 15 55.5 25.5t63.5 19.5v699q-34 10 -63.5 20.5t-55.5 25.5v72h491v-72q-43 -27 -104 -46v-291h318v291q-55 12 -102 46v72h489v-72q-25 -16 -53 -27.5t-65 -18.5v-699q34 -8 63.5 -17t54.5 -28v-73h-489v73q48 36 102 45v301h-318v-301q64 -16 104 -45 v-73z" glyph-name="afii10079" horiz-adv-x="1180" unicode="н"/>
<glyph d="M48 468q0 111 31 201t90.5 154.5t146 99.5t196.5 35q127 0 215 -39.5t143.5 -106.5t80.5 -156t25 -188q0 -107 -32 -197t-92 -155.5t-146 -102t-194 -36.5q-119 0 -206.5 38t-144.5 104t-85 155.5t-28 193.5zM339 468q0 -78 6 -146.5t26.5 -119.5t59.5 -80.5t104 -29.5 q70 0 110.5 90t40.5 286q0 78 -7.5 146.5t-28 119.5t-57.5 80.5t-96 29.5q-84 0 -121 -90.5t-37 -285.5z" glyph-name="afii10080" unicode="о"/>
<glyph d="M534 0h-490v73q36 20 63.5 28.5t55.5 16.5v699q-39 10 -68.5 22t-50.5 24v72h1092v-72q-23 -15 -51.5 -27t-66.5 -19v-699q32 -6 63.5 -17t54.5 -28v-73h-490v73q18 13 39.5 24.5t62.5 20.5v711h-317v-711q38 -11 60.5 -21t42.5 -24v-73z" glyph-name="afii10081" horiz-adv-x="1180" unicode="п"/>
<glyph d="M566 -367h-516v74q67 31 123 44v1052l-123 14v74q30 13 74 24t91 19t90.5 14t73.5 10h64v-210h1q31 89 100 150q69 60 191 60q82 0 145.5 -29.5t107 -89.5t66.5 -150.5t23 -213.5q0 -119 -30.5 -211.5t-89 -156.5t-143 -97t-193.5 -33q-64 0 -101 9q-18 4 -37.5 11 t-39.5 17v-263q29 -3 59 -13t64 -31v-74zM623 809q-57 0 -104 -44t-76 -140v-498q29 -22 63 -32.5t88 -10.5t90.5 25.5t59 76.5t32.5 126.5t10 174.5q0 76 -10.5 134t-30.5 100q-19 42 -46.5 65t-75.5 23z" glyph-name="afii10082" horiz-adv-x="1139" unicode="р"/>
<glyph d="M860 152q-21 -36 -54 -68t-75 -55.5t-92.5 -37.5t-108.5 -14q-116 0 -202.5 35t-144 99.5t-86 155t-28.5 201.5t34 201.5t99 154.5t159 99t214 35q93 0 161.5 -19.5t119.5 -45.5q-3 -32 -9 -71t-14 -78t-18 -74t-22 -59h-91l-78 221q-15 8 -30 13.5t-44 5.5 q-38 0 -72.5 -18t-60.5 -61t-41.5 -113.5t-15.5 -176.5q0 -75 16.5 -140t50 -113t85 -75t122.5 -27q66 0 114.5 19.5t81.5 44.5z" glyph-name="afii10083" horiz-adv-x="909" unicode="с"/>
<glyph d="M768 0h-532v73q29 15 65 26t68 19v711h-134l-82 -258h-79q-9 39 -17.5 87.5t-14.5 98t-10 96t-4 82.5h949q0 -34 -4 -80t-10.5 -95.5t-15 -99t-16.5 -89.5h-79l-83 258h-132v-711q44 -11 73 -20.5t58 -24.5v-73z" glyph-name="afii10084" horiz-adv-x="1006" unicode="т"/>
<glyph d="M114 817q-28 8 -51 19.5t-48 26.5v72h493v-70q-41 -27 -108 -48l162 -429l33 -110h3l27 112l137 427q-55 12 -101 46v72h355v-72q-20 -14 -44 -25t-58 -21l-293 -817q-46 -120 -90.5 -196t-88 -120t-88 -62.5t-90.5 -23.5q-13 13 -28 37.5t-27.5 54.5t-21.5 61.5 t-11 57.5l26 45h224q8 13 15 27t13 29q7 15 16 39t17 54z" glyph-name="afii10085" unicode="у"/>
<glyph d="M962 -375h-508v74q53 30 124 44v297q-32 -33 -78 -48t-91 -15q-93 0 -161.5 37.5t-113.5 101t-67.5 146.5t-22.5 175q0 127 26 224t73.5 163t114.5 100t148 34q26 0 51.5 -4.5t48.5 -11.5t41.5 -16.5t30.5 -18.5v344l-142 15v73q27 12 71 23.5t93.5 20.5t96.5 15.5 t80 7.5h63v-510q31 24 75.5 43t98.5 19q84 0 150.5 -31t113 -93.5t71 -156t24.5 -218.5q0 -108 -26.5 -196.5t-76 -152t-119.5 -98.5t-157 -35q-49 0 -89.5 15t-64.5 34v-283q69 -10 122 -44v-74zM497 95q32 0 53 12t38 32v670q-17 11 -39 21t-60 10q-78 0 -120 -95.5 t-42 -286.5q0 -84 8 -144t21.5 -100t31 -64t36 -36t37.5 -15.5t36 -3.5zM927 840q-32 0 -57 -14t-40 -25v-673q15 -11 37.5 -22t50.5 -11q34 0 65.5 17t55.5 58.5t38 111.5t14 177q0 115 -12 189t-34 116.5t-52 59t-66 16.5z" glyph-name="afii10086" horiz-adv-x="1417" unicode="ф"/>
<glyph d="M614 529l305 -411q47 -15 91 -45v-73h-476v71q41 30 85 47l-164 249l-172 -249q27 -9 46.5 -20.5t38.5 -24.5v-73h-355v73q23 14 46.5 25.5t51.5 19.5l274 338l-275 361q-27 10 -47.5 20.5t-36.5 25.5v72h469v-70q-14 -14 -36.5 -27t-47.5 -21l141 -204l153 204 q-32 10 -50.5 21t-33.5 25v72h346v-72q-19 -14 -41.5 -25t-56.5 -21z" glyph-name="afii10087" unicode="х"/>
<glyph d="M44 0v73q51 30 120 45v699q-69 12 -120 46v72h492v-72q-20 -14 -44 -25t-60 -21v-710h301v710q-26 6 -49 17.5t-53 28.5v72h490v-72q-25 -14 -52 -25t-66 -21v-710h162q-3 -91 -15 -193l-22 -191h-73l-101 277h-910z" glyph-name="afii10088" horiz-adv-x="1180" unicode="ц"/>
<glyph d="M37 935h491v-72q-38 -31 -98 -46v-206q0 -80 27 -125.5t94 -45.5q49 0 90 14.5t74 36.5v326q-31 6 -53 17.5t-47 28.5v72h492v-72q-51 -32 -123 -46v-699q37 -9 67 -19.5t56 -25.5v-73h-542v73q77 32 150 45v293q-46 -50 -118.5 -81t-157.5 -31q-130 0 -204 71t-74 192 v255q-72 14 -124 46v72z" glyph-name="afii10089" horiz-adv-x="1155" unicode="ч"/>
<glyph d="M1281 107v710q-45 13 -84 46v72h477v-72q-26 -15 -56 -26.5t-67 -19.5v-699q69 -15 123 -45v-73h-1619v73q52 30 125 45v699q-32 4 -62.5 14.5t-62.5 31.5v72h478v-72q-35 -31 -85 -46v-710h282v710q-25 10 -50 20.5t-45 25.5v72h449v-72q-13 -14 -34 -25t-51 -21v-710 h282z" glyph-name="afii10090" horiz-adv-x="1729" unicode="ш"/>
<glyph d="M50 0v73q52 30 124 45v699q-72 16 -124 46v72h478v-72q-16 -14 -37.5 -25t-47.5 -21v-710h282v710q-25 8 -50.5 19.5t-44.5 26.5v72h448v-72q-34 -31 -84 -46v-710h282v710q-49 15 -84 46v72h477v-72q-26 -15 -56 -25.5t-68 -20.5v-710h168q0 -45 -3.5 -94.5t-8.5 -99 t-11.5 -98t-13.5 -92.5h-72l-102 277h-1452z" glyph-name="afii10091" horiz-adv-x="1729" unicode="щ"/>
<glyph d="M596 107q37 -8 78 -8q40 0 76.5 9.5t59.5 32.5q22 22 36.5 61t14.5 97q0 54 -17.5 87.5t-44 52t-58 25.5t-59.5 7q-25 0 -45 -2.5t-41 -6.5v-355zM709 935v-72q-23 -15 -51.5 -25.5t-61.5 -20.5v-255q23 4 70 10.5t122 6.5q38 0 76 -4t73 -12.5t65.5 -22t53.5 -31.5 q46 -37 72 -89t26 -122q0 -75 -31.5 -132t-86 -95.5t-128 -58.5t-157.5 -20q-25 0 -70.5 1t-96.5 2.5t-101.5 3t-86.5 1.5h-193v73q52 30 123 45v711h-103l-91 -258h-72q-8 35 -15 83t-12.5 99t-9 99t-3.5 83h689z" glyph-name="afii10092" horiz-adv-x="1194" unicode="ъ"/>
<glyph d="M442 562q32 5 83 11t126 6q73 0 144 -17t117 -52t74.5 -88.5t28.5 -123.5q0 -75 -33 -132t-89.5 -95.5t-132.5 -58.5t-162 -20q-25 0 -73 1t-103 2.5t-108.5 3t-89.5 1.5h-174v73q30 17 60.5 26.5t62.5 18.5v699q-35 6 -65 18.5t-58 27.5v72h504v-72q-22 -14 -50 -25 t-62 -21v-255zM442 107q19 -4 41.5 -6t51.5 -2q37 0 71 11t60 34.5t41 61.5t15 92q0 51 -16 85.5t-38 51.5q-11 9 -26.5 15.5t-33 11t-35 7t-32.5 2.5q-22 0 -49 -1.5t-50 -7.5v-355zM1549 0h-496v73q23 13 47.5 24.5t55.5 20.5v699q-70 13 -112 46v72h505v-72 q-22 -15 -54 -25.5t-70 -20.5v-699q32 -9 62 -19.5t62 -25.5v-73z" glyph-name="afii10093" horiz-adv-x="1599" unicode="ы"/>
<glyph d="M463 562q8 1 28 4t47 6t59.5 5t66.5 2q67 0 133.5 -12.5t117.5 -44.5q61 -38 93.5 -98t32.5 -126q0 -75 -29.5 -132t-82 -95.5t-124.5 -58.5t-156 -20q-26 0 -79 1t-113.5 2.5t-118 3t-93.5 1.5h-175v73q29 15 61 25.5t64 19.5v699q-36 8 -66 19.5t-59 26.5v72h505v-72 q-22 -14 -50 -25t-62 -21v-255zM463 107q19 -4 44.5 -6t46.5 -2q39 0 74.5 9.5t61.5 32.5t41.5 61.5t15.5 96.5q0 50 -17 83.5t-44 53t-60.5 27.5t-67.5 8q-23 0 -47.5 -2.5t-47.5 -6.5v-355z" glyph-name="afii10094" horiz-adv-x="1083" unicode="ь"/>
<glyph d="M362 -23q-54 0 -102 9t-90 23.5t-77.5 33.5t-62.5 39l51 176h54q14 -13 32 -32t35 -42q9 -11 15 -18.5t11.5 -15t11.5 -16.5t15 -22q12 -5 35.5 -9t50.5 -4q54 0 91.5 22.5t66.5 60.5q32 42 45 106t14 139l-324 -38q-6 12 -9.5 32t-3.5 41.5t3 42t10 32.5h322 q-1 160 -50 237t-147 77q-26 0 -45.5 -2.5t-35.5 -6.5l-91 -219h-63q-11 24 -22.5 56.5t-21 68t-16 70t-9.5 63.5q21 11 54.5 24.5t76.5 25t92 19.5t102 8q91 0 176 -24t148 -80t100 -146.5t37 -221.5q0 -101 -23 -184t-67 -142q-38 -51 -83 -85.5t-95 -56.5t-103.5 -31.5 t-107.5 -9.5z" glyph-name="afii10095" horiz-adv-x="885" unicode="э"/>
<glyph d="M535 0h-487v73q28 15 54.5 25.5t60.5 19.5v699q-32 10 -57 20.5t-58 25.5v72h487v-72q-20 -14 -43 -25t-60 -21v-291h161q6 101 42 181t96.5 136t141.5 85.5t177 29.5q109 0 195.5 -31.5t147 -94t92.5 -155t32 -215.5q0 -113 -34 -202.5t-95.5 -152.5t-147.5 -96.5 t-190 -33.5q-96 0 -178 28.5t-142 84.5t-96 138.5t-41 190.5h-161v-301q37 -8 60 -19t43 -26v-73zM870 468q0 -101 10.5 -173.5t33 -119.5t58 -69t86.5 -22q92 0 131 95t39 289q0 204 -46 293q-23 45 -61.5 67.5t-76.5 22.5q-174 0 -174 -383z" glyph-name="afii10096" horiz-adv-x="1565" unicode="ю"/>
<glyph d="M130 651q0 63 22.5 117t69.5 94t120.5 62.5t174.5 22.5q22 0 64 -2t89 -4t90.5 -4t67.5 -2h236v-72q-9 -7 -19 -13.5t-24.5 -12t-34.5 -10.5t-47 -10v-699q35 -11 66 -22t59 -23v-73h-497v73q45 30 104 45v267l-125 -19q-15 -32 -33 -70t-40.5 -79.5t-50.5 -86t-62 -87.5 l-58 -43h-278v73l88 45q63 63 121 141l97 130q-35 10 -70.5 30.5t-64.5 52.5t-47 76.5t-18 102.5zM671 829q-20 3 -45 7t-48 4q-82 1 -126.5 -44.5t-44.5 -138.5q0 -42 12.5 -77t39 -59.5t66.5 -38.5t94 -14h52v361z" glyph-name="afii10097" horiz-adv-x="1108" unicode="я"/>
<glyph d="M859 157q-20 -32 -52 -64t-77 -57.5t-104.5 -42t-133.5 -16.5q-113 0 -196.5 35t-139.5 99t-83.5 154.5t-27.5 201.5q0 105 31.5 199.5t88.5 158.5q118 133 324 133q95 0 171.5 -29t127.5 -91q40 -48 61.5 -114.5t21.5 -153.5q0 -62 -16 -119h-524q-1 -36 4 -70t14 -64 t21.5 -54.5t26.5 -42.5q75 -93 213 -93q60 0 115.5 17t100.5 50zM483 851q-38 0 -66 -21t-46 -60.5t-26.5 -95.5t-7.5 -126h263q10 63 9 118q-1 40 -7.5 74t-21 58.5t-38.5 38.5t-59 14zM142 1287q0 61 38.5 98t102.5 37q62 0 102 -37t40 -98q0 -59 -40 -96t-102 -37 q-64 0 -102.5 37t-38.5 96zM541 1287q0 61 39 98t101 37q64 0 103.5 -37t39.5 -98q0 -59 -39.5 -96t-103.5 -37q-62 0 -101 37t-39 96z" glyph-name="afii10071" horiz-adv-x="909" unicode="ё"/>
<glyph d="M36 1107h122v115l-138 15v73q28 12 71.5 23t91.5 19.5t95.5 15t85.5 9.5h64v-270h305v-114h-305v-300h2q14 36 38.5 72t59 65t78 47t95.5 18q72 0 128 -18t94 -63t57.5 -121t19.5 -192v-499q0 -116 -26.5 -193t-80.5 -122.5t-136 -64t-193 -18.5l-9 85q51 12 84.5 33.5 t54 57.5t28.5 89.5t8 130.5v500q0 41 -0.5 70.5t-3 52.5t-8 41t-15.5 36q-11 20 -33 32.5t-59 12.5q-53 0 -102 -42t-81 -128v-457q30 -8 53.5 -17t49.5 -28v-73h-491v73q29 15 57.5 26t60.5 19v875h-122v114z" glyph-name="afii10099" horiz-adv-x="1100" unicode="ђ"/>
<glyph d="M886 935q-2 -35 -7 -82t-12 -97t-15.5 -98.5t-17.5 -86.5h-76l-84 258h-227v-711q109 -21 169 -45v-73h-562v73q32 19 62 28t62 17v701q-67 12 -124 44v72h832zM588 1478q15 4 51 3t75 -7t71 -16.5t42 -22.5v-47l-360 -290l-88 43z" glyph-name="afii10100" horiz-adv-x="930" unicode="ѓ"/>
<glyph d="M840 152q-19 -37 -50 -69t-72 -55.5t-91.5 -37t-108.5 -13.5q-127 0 -216 39.5t-145 106.5t-81.5 156t-25.5 189q0 118 36 209t100.5 153.5t155 95t200.5 32.5q39 0 80.5 -6t80.5 -16.5t73.5 -24.5t60.5 -29q-4 -32 -12 -68.5t-18 -72.5t-21.5 -68t-22.5 -56h-64l-83 217 q-13 6 -32.5 11.5t-45.5 5.5q-39 0 -75 -19t-63 -59.5t-43.5 -104.5t-16.5 -154l295 25q13 -25 13 -69q0 -43 -13 -68l-290 4q1 -25 7 -52.5t15.5 -54.5t22.5 -51.5t29 -42.5q37 -42 83.5 -60t110.5 -18q67 0 115 19t82 45z" glyph-name="afii10101" horiz-adv-x="885" unicode="є"/>
<glyph d="M516 204q0 36 -18.5 64.5t-49.5 53.5t-72 47t-85 44t-82.5 47.5t-66.5 59.5t-44.5 78t-16.5 103q0 56 22.5 103.5t64 81.5t101 53t133.5 19q100 0 178.5 -14t144.5 -42q-8 -60 -30 -129q-11 -34 -19 -64.5t-19 -58.5h-63l-85 190q-11 3 -18.5 5t-15 3.5t-17 2t-24.5 0.5 q-28 0 -47.5 -9t-32 -24t-18 -34t-5.5 -39q0 -35 18.5 -62.5t48.5 -51t68.5 -45t79.5 -43.5q42 -23 81.5 -49t70.5 -59t50 -77t19 -103q0 -65 -29 -119.5t-80 -92.5q-28 -21 -63 -34t-72 -20t-74.5 -9.5t-70.5 -2.5q-45 0 -91 2.5t-94 12.5q-47 9 -81.5 21t-69.5 29 q2 34 11 68t22 69t26 66t29 58h63l92 -204q20 -8 43.5 -11.5t45.5 -3.5q23 0 50 4t49 20q23 16 33 42t10 54z" glyph-name="afii10102" horiz-adv-x="797" unicode="ѕ"/>
<glyph d="M541 0h-502v73q28 15 54 25.5t61 19.5v685l-116 14v74q28 11 69 21.5t86 19.5t89.5 15.5t77.5 10.5h64v-840q38 -9 64 -19.5t53 -25.5v-73zM120 1286q0 68 46.5 106.5t119.5 38.5q74 0 120.5 -38.5t46.5 -106.5q0 -66 -46.5 -105t-120.5 -39q-73 0 -119.5 39t-46.5 105z " glyph-name="afii10103" horiz-adv-x="569" unicode="і"/>
<glyph d="M541 0h-502v73q28 15 54 25.5t61 19.5v685l-116 14v74q28 11 69 21.5t86 19.5t89.5 15.5t77.5 10.5h64v-840q38 -9 64 -19.5t53 -25.5v-73zM-58 1287q0 61 38.5 98t102.5 37q62 0 102 -37t40 -98q0 -59 -40 -96t-102 -37q-64 0 -102.5 37t-38.5 96zM341 1287q0 61 39 98 t101 37q64 0 103.5 -37t39.5 -98q0 -59 -39.5 -96t-103.5 -37q-62 0 -101 37t-39 96z" glyph-name="afii10104" horiz-adv-x="569" unicode="ї"/>
<glyph d="M223 803l-123 14v74q27 13 69 24t88.5 19t92 14t79.5 10h64v-878q0 -88 -21 -156t-55 -119t-78 -87t-86.5 -59.5t-78.5 -36t-55 -18.5l-37 55q14 9 31 22.5t33.5 34t31 49.5t24.5 68q10 41 15.5 93t5.5 118v759zM187 1286q0 68 46.5 106.5t119.5 38.5q74 0 120.5 -38.5 t46.5 -106.5q0 -66 -46.5 -105t-120.5 -39q-73 0 -119.5 39t-46.5 105z" glyph-name="afii10105" horiz-adv-x="682" unicode="ј"/>
<glyph d="M1092 863q-23 -14 -56.5 -25t-67.5 -21v-255q32 5 78 11t114 6q77 0 147.5 -15t124.5 -53q51 -35 82 -92.5t31 -137.5q0 -78 -36.5 -133t-97 -89.5t-138 -50.5t-159.5 -16q-26 0 -72.5 1t-99 2.5t-104.5 3t-89 1.5h-154v73q23 15 46.5 26t57.5 19v711h-226 q-2 -99 -11.5 -207t-29 -210.5t-51 -193t-77.5 -154.5q-37 -54 -82 -76t-81 -14q-24 13 -44.5 41.5t-35.5 61t-24 64.5t-11 53l42 65l177 -48q23 45 40 106t28 140t17.5 164t7.5 177q-37 12 -72 29t-61 36v72h887v-72zM968 107q18 -4 40 -6t43 -2q38 0 74 9t64.5 31t45.5 58 t17 90q0 42 -10.5 76t-33.5 58t-59.5 37t-88.5 13q-20 0 -45 -2t-47 -7v-355z" glyph-name="afii10106" horiz-adv-x="1597" unicode="љ"/>
<glyph d="M647 0v73q48 36 103 45v301h-318v-301q32 -8 57.5 -19t45.5 -26v-73h-491v73q27 15 56 25.5t63 19.5v699q-34 10 -63 20.5t-56 25.5v72h491v-72q-42 -26 -103 -46v-291h318v291q-56 12 -103 46v72h496v-72q-22 -14 -56 -25t-68 -21v-255q30 5 74 11t118 6q36 0 73.5 -3 t73.5 -11t69 -21t60 -34q46 -35 71.5 -88.5t25.5 -123.5q0 -75 -30 -132t-82 -95.5t-123.5 -58.5t-153.5 -20q-17 0 -46 0.5t-65 1.5t-75.5 2t-77.5 2t-72 1.5t-58 0.5h-154zM1019 107q19 -4 43 -6t44 -2q38 0 71.5 10.5t59 33.5t40 60.5t14.5 91.5q0 92 -49 134t-135 42 q-20 0 -42.5 -1.5t-45.5 -7.5v-355z" glyph-name="afii10107" horiz-adv-x="1632" unicode="њ"/>
<glyph d="M35 1107h121v115l-136 15v73q29 12 71.5 23t90 19.5t94.5 15t85 9.5h64v-270h357v-114h-357v-303h2q17 38 44 74.5t63 65t79.5 46t94.5 17.5q76 0 130 -17.5t88 -61t49.5 -117.5t15.5 -188v-375l118 -16v-66q-27 -11 -68 -22.5t-86.5 -21t-90 -16.5t-76.5 -10h-64l-2 470 q0 82 -3.5 147t-20.5 96q-12 22 -36 35t-61 13q-49 0 -97 -43.5t-79 -126.5v-455q30 -8 53.5 -17t50.5 -28v-73h-490v73q29 15 56.5 26t60.5 19v875h-121v114z" glyph-name="afii10108" horiz-adv-x="1139" unicode="ћ"/>
<glyph d="M670 935h428v-72q-17 -15 -44 -25.5t-74 -25.5q-63 -78 -130.5 -147.5t-130.5 -129.5q42 -44 84 -96.5t85 -107.5t86.5 -110t88.5 -103l79 -45v-73h-294l-60 43q-80 97 -132 195q-26 49 -52 96.5t-52 95.5h-104v-312q61 -17 105 -45v-73h-497v73q51 30 123 45v699 q-32 7 -63 18.5t-60 27.5v72h477v-72q-18 -14 -36 -25t-49 -21v-305l116 19q54 63 108.5 133t99.5 148q-32 13 -55 24.5t-47 26.5v72zM712 1478q15 4 51 3t75 -7t71 -16.5t42 -22.5v-47l-360 -290l-88 43z" glyph-name="afii10109" horiz-adv-x="1180" unicode="ќ"/>
<glyph d="M114 817q-28 8 -51 19.5t-48 26.5v72h493v-70q-41 -27 -108 -48l162 -429l33 -110h3l27 112l137 427q-55 12 -101 46v72h355v-72q-20 -14 -44 -25t-58 -21l-293 -817q-46 -120 -90.5 -196t-88 -120t-88 -62.5t-90.5 -23.5q-13 13 -28 37.5t-27.5 54.5t-21.5 61.5 t-11 57.5l26 45h224q8 13 15 27t13 29q7 15 16 39t17 54zM552 1137q-192 0 -279 69.5t-87 185.5q28 24 80 36.5t108 15.5l66 -24v-173q48 -21 114 -21q19 0 53 3.5t62 11.5v179l65 24q53 -3 103 -14.5t77 -37.5q0 -116 -87.5 -185.5t-274.5 -69.5z" glyph-name="afii10110" unicode="ў"/>
<glyph d="M535 863q-20 -12 -42.5 -23t-60.5 -23v-710h316v710q-40 10 -62 21t-41 25v72h491v-72q-30 -17 -58 -28.5t-60 -17.5v-699q35 -5 64 -17.5t54 -27.5v-73h-414q-10 -91 -36.5 -180.5t-54.5 -174.5h-83q-29 90 -52.5 177t-38.5 178h-413v73q23 13 51.5 24.5t67.5 20.5v699 q-29 4 -62 16.5t-57 29.5v72h491v-72z" glyph-name="afii10193" horiz-adv-x="1180" unicode="џ"/>
<glyph d="M736 1081v-303q56 8 111.5 10.5t109.5 2.5q109 0 207 -20t172 -65t117 -119t43 -182q0 -111 -45 -189.5t-124.5 -127.5t-189 -71.5t-239.5 -22.5q-7 0 -27 0.5t-48.5 1t-61.5 1.5t-65.5 1.5t-61.5 1t-48 0.5h-299v74q35 19 76 34.5t83 21.5v951h-179l-124 -290h-79 q-9 40 -16.5 91.5t-13.5 107t-9.5 110t-4.5 99.5h426v81q-39 8 -81.5 21.5t-77.5 34.5v66h628v-66q-33 -19 -82 -33.5t-97 -22.5v-81h480q-1 -44 -5 -89.5t-11 -93.5t-13 -89t-13 -75h-82l-112 229h-244zM885 664q-18 0 -39.5 -0.5t-42.5 -1.5t-38.5 -3t-28.5 -5v-526 q38 -4 76.5 -6t75.5 -2q53 0 104.5 13t92.5 45t66 87.5t25 139.5q0 139 -76 200q-37 30 -95.5 44.5t-119.5 14.5z" glyph-name="afii10146" horiz-adv-x="1564" unicode="Ѣ"/>
<glyph d="M627 829v-275q32 5 78.5 10t106.5 5q78 0 151 -15t127 -54q46 -34 71.5 -86t25.5 -122q0 -75 -31.5 -131t-86.5 -93.5t-129 -56.5t-159 -19q-25 0 -73 1t-103 2.5t-108.5 3t-89.5 1.5h-173v73q28 15 59.5 25.5t63.5 19.5v711h-127l-82 -258h-79q-10 39 -18 87.5t-14 98 t-10 96t-5 82.5h335v287l-143 15v73q25 12 68 23t92.5 19.5t99.5 15t88 9.5h65v-442h372q0 -69 -8 -135.5t-20 -144.5h-81l-129 174h-134zM627 107q38 -8 82 -8q39 0 73 9t58.5 31t39 59.5t14.5 93.5q0 49 -15 82t-39 52.5t-55 27.5t-64 8q-22 0 -47.5 -2t-46.5 -7v-346z " glyph-name="afii10194" horiz-adv-x="1229" unicode="ѣ"/>
<glyph d="M88 678q0 151 49.5 279.5t141.5 222.5t223.5 146.5t295.5 52.5t295 -52.5t222.5 -146.5t140.5 -222.5t49 -279.5q0 -152 -49 -280.5t-140.5 -222.5t-222.5 -146.5t-295 -52.5t-295 52.5t-223.5 146.5t-142 222.5t-49.5 280.5zM1007 715q26 0 68 7t97 41q-8 107 -36.5 197 t-77.5 155t-117.5 101.5t-157.5 36.5q-92 0 -160 -41.5t-113 -115.5t-68 -175.5t-25 -220.5q22 24 51 48t61 44t66.5 32.5t67.5 12.5q53 0 100 -21.5t95 -48.5q35 -20 73 -36t76 -16zM612 647q-31 0 -80.5 -15.5t-109.5 -60.5q11 -103 42 -189t81 -148t118 -96.5t153 -34.5 q83 0 148 39.5t110.5 110t70.5 168t30 212.5q-21 -22 -48.5 -42.5t-56.5 -36.5t-58 -25.5t-51 -9.5q-46 0 -85 16.5t-77 38.5q-47 27 -94.5 50t-92.5 23z" glyph-name="afii10147" horiz-adv-x="1593" unicode="Ѳ"/>
<glyph d="M44 468q0 111 32 201t92 154.5t147 99.5t197 35q127 0 216 -39.5t145 -106.5t81.5 -156t25.5 -188q0 -107 -32.5 -197t-93.5 -155.5t-147.5 -102t-194.5 -36.5q-119 0 -207 38t-146 104t-86.5 155.5t-28.5 193.5zM399 430q-20 0 -41.5 -12t-38.5 -31q5 -62 17 -116 t36 -93.5t62 -62.5t94 -23q34 0 66 20t56.5 61.5t40 105.5t18.5 152q-26 -29 -57.5 -52t-68.5 -23q-30 0 -52.5 11.5t-43.5 25.5t-42 25.5t-46 11.5zM631 511q14 0 34.5 7t41.5 23q-5 64 -18 119t-37.5 96t-61 64.5t-87.5 23.5q-40 0 -73 -20.5t-58 -62.5t-39.5 -107 t-16.5 -153q33 39 64 61.5t65 22.5q30 0 52.5 -11.5t43.5 -25.5t42 -25.5t48 -11.5z" glyph-name="afii10195" unicode="ѳ"/>
<glyph d="M1466 1379q29 -10 56 -41.5t49 -72.5t37 -85t20 -78l-59 -68l-207 54q-19 -18 -38 -41.5t-37 -50t-34.5 -55t-30.5 -56.5q-47 -90 -88.5 -191.5t-78.5 -205.5q-21 -59 -41.5 -123t-39.5 -130t-35.5 -131.5t-28.5 -127.5h-163l-551 1249q-39 11 -78 25t-68 32v74h645v-74 q-33 -16 -73.5 -31t-85.5 -26l298 -724l44 -181h4l35 183q18 54 35 105.5t35.5 104t40.5 107.5t51 116q32 67 66.5 126.5t68 107.5t64 84t56.5 57q34 28 69 44t63 24z" glyph-name="afii10148" horiz-adv-x="1670" unicode="Ѵ"/>
<glyph d="M687 0l-161 -23l-384 840q-55 20 -100 46v72h492v-70q-23 -14 -49 -26t-57 -22l189 -478l28 -106h4l21 115q18 72 45.5 147t61 144t71 128t76.5 98q14 15 35 30t43.5 27.5t44 20.5t35.5 10q21 -14 41.5 -41t37.5 -59t30 -64.5t18 -55.5l-53 -72l-158 46q-37 -29 -72 -82 t-65 -115.5t-54 -127.5t-38 -116z" glyph-name="afii10196" horiz-adv-x="1239" unicode="ѵ"/>
<glyph d="M652 0h-582v74q37 19 77.5 34.5t81.5 21.5v1095q-39 11 -81.5 23t-77.5 34v74h582v-74q-28 -18 -65 -33t-80 -24v-735l-19 -151l95 158l488 682v46q-91 22 -153 57v74h582v-74q-32 -22 -73.5 -34t-84.5 -23v-1099h212l19 -26q-8 -36 -30 -87.5t-54 -106.5t-70.5 -107 t-77.5 -89h-105l66 290h-384v74q27 13 65 29.5t80 26.5v733l19 154l-87 -154l-495 -691v-42q44 -10 83 -25.5t69 -30.5v-74zM786 1435q-88 0 -161 16.5t-125.5 48.5t-80.5 80t-28 111q35 25 93 32.5t105 9.5l65 -35v-151q27 -13 63 -18t71 -5q27 0 66.5 4t67.5 13v157l66 35 q37 4 91.5 -6.5t97.5 -35.5q0 -124 -104.5 -190t-286.5 -66z" glyph-name="uni048A" horiz-adv-x="1593" unicode="Ҋ"/>
<glyph d="M44 935h494v-72q-20 -12 -47.5 -23t-65.5 -23v-387l-20 -173h10l73 139l286 539h349v-72q-30 -17 -58.5 -28.5t-60.5 -17.5v-710h160l11 -19q-8 -30 -24 -65t-37 -71t-45 -71t-47.5 -65.5t-44.5 -54.5t-36 -38h-92l58 277h-278v73q52 30 113 45v397l19 148h-9l-72 -140 l-282 -523h-354v73q32 15 60.5 25.5t60.5 19.5v699q-37 6 -66 17.5t-55 28.5v72zM594 1031q-187 0 -270 67q-84 67 -84 180q15 10 38.5 18t49 14.5t50.5 11t43 6.5l64 -25v-166q48 -20 111 -20q18 0 51 3.5t60 11.5v171l62 25q19 -2 44.5 -7t51 -11.5t46.5 -15t32 -16.5 q0 -56 -21 -101.5t-64 -78t-108.5 -50t-155.5 -17.5z" glyph-name="uni048B" horiz-adv-x="1180" unicode="ҋ"/>
<glyph d="M20 1094h239v131q-39 9 -81.5 22t-77.5 35v74h628v-74q-33 -20 -81.5 -34t-97.5 -23v-131h376v-124h-376v-159q42 8 86 11t95 3q106 0 202 -16.5t172 -59.5q85 -48 134.5 -128t49.5 -195q0 -114 -47.5 -196t-130 -134.5t-195.5 -77t-243 -24.5q-9 0 -42 1t-74.5 2 t-84.5 2t-73 1h-298v74q35 19 76 34.5t83 21.5v840h-239v124zM658 699q-69 0 -109 -12v-559q26 -5 54 -6.5t59 -1.5q63 0 119 14.5t98 49t66.5 91.5t24.5 141q0 70 -21 127.5t-59 93.5q-23 21 -50.5 33.5t-57.5 18.5t-62 8t-62 2z" glyph-name="uni048C" horiz-adv-x="1354" unicode="Ҍ"/>
<glyph d="M20 926h174v296l-142 15v73q26 12 71 23t95 19.5t99 15t83 9.5h63v-451h271v-114h-271v-250q32 5 80 11t123 6q36 0 74 -4t73 -12.5t65.5 -21.5t53.5 -31q46 -35 77.5 -88.5t31.5 -123.5q0 -79 -31.5 -138t-92.5 -98q-27 -17 -56 -30t-64.5 -22t-81 -13.5t-105.5 -4.5 q-25 0 -72 1t-100 2.5t-105.5 3t-88.5 1.5h-173v73q30 17 60.5 26.5t62.5 18.5v694h-174v114zM463 107q40 -8 83 -8q97 0 149 46t52 154q0 51 -17.5 83t-43.5 53q-11 9 -26 15.5t-32.5 11t-34.5 7t-32 2.5q-22 0 -48.5 -1.5t-49.5 -7.5v-355z" glyph-name="uni048D" horiz-adv-x="1083" unicode="ҍ"/>
<glyph d="M515 130q52 -8 103.5 -22.5t91.5 -33.5v-74h-645v74q37 21 78.5 34.5t80.5 21.5v1095q-44 9 -85 23t-74 34v74h204q37 0 85 2t102.5 4.5t109.5 5.5t104 3q102 0 200 -20.5t174.5 -68.5t122.5 -128.5t46 -200.5q0 -79 -22 -142t-61 -112.5t-92 -85.5t-115 -59l72 -122 l-155 -83l-97 172q-29 -6 -59.5 -7.5t-63.5 -1.5q-20 0 -56 0.5t-49 4.5v-387zM620 1245q-39 0 -61.5 -2.5t-43.5 -8.5v-589q18 -6 52.5 -7t55.5 -1q43 0 87 12l-105 180l94 50l100 -178q43 37 69.5 96t26.5 146q0 155 -76 228.5t-199 73.5z" glyph-name="uni048E" horiz-adv-x="1251" unicode="Ҏ"/>
<glyph d="M560 -375h-516v74q67 31 123 44v1060l-123 14v74q30 12 75 24t93.5 21.5t94 15.5t77.5 6h53v-210q15 42 35 77t47.5 61t64 43t71.5 22t58 5t45 -3q72 -4 131 -34t100.5 -87t64.5 -142.5t23 -200.5q0 -176 -68.5 -295t-192.5 -176l92 -144l-139 -72l-115 184 q-14 -2 -26.5 -3.5t-26.5 -1.5q-42 0 -82 7t-82 26v-271q29 -3 59 -13t64 -31v-74zM612 809q-33 0 -60 -14.5t-52 -43.5q-21 -25 -39.5 -67.5t-23.5 -88.5v-468q20 -13 53.5 -28t87.5 -15q21 0 42 6l-102 162l94 59l97 -155q37 48 57 133t20 200q0 152 -39 236 q-38 84 -135 84z" glyph-name="uni048F" horiz-adv-x="1139" unicode="ҏ"/>
<glyph d="M519 130q48 -8 96 -23.5t90 -32.5v-74h-635v74q87 43 159 56v1095q-39 9 -80.5 22t-78.5 35v74h719l117 290h81q6 -46 11.5 -104t9 -116.5t5.5 -110.5t2 -86h-496v-1099z" glyph-name="afii10050" horiz-adv-x="1065" unicode="Ґ"/>
<glyph d="M431 829v-711q106 -21 159 -45v-73h-546v73q18 9 33 16t29 12t27.5 9t28.5 8v701q-67 12 -118 44v72h521q6 18 12.5 37t17 47.5t25.5 70t39 104.5h77q5 -41 9 -94.5t6.5 -105.5t4 -96.5t1.5 -68.5h-326z" glyph-name="afii10098" horiz-adv-x="797" unicode="ґ"/>
<glyph d="M100 743h159v482q-39 9 -80.5 22t-78.5 35v74h1122q1 -95 -7.5 -201.5t-25.5 -204.5h-80l-130 279h-429v-486h261v-135h-261v-478q48 -8 95.5 -23.5t89.5 -32.5v-74h-635v74q87 43 159 56v478h-159v135z" glyph-name="uni0492" horiz-adv-x="1303" unicode="Ғ"/>
<glyph d="M884 935q-2 -35 -7 -82t-12 -97t-15.5 -98.5t-17.5 -86.5h-76l-84 258h-226v-345h176v-130h-176v-236q109 -21 169 -45v-73h-562v73q32 19 62 28t62 17v236h-129v130h129v335q-67 12 -124 44v72h831z" glyph-name="uni0493" horiz-adv-x="930" unicode="ғ"/>
<glyph d="M539 130q39 -10 76 -25.5t68 -30.5v-74h-593v74q87 43 159 56v1095q-39 9 -80.5 22t-78.5 35v74h1102q0 -47 -2 -98t-6.5 -103.5t-11 -104.5t-15.5 -101h-80l-130 280h-408v-536q27 16 65.5 32t85 28t99 19.5t107.5 7.5q47 0 96.5 -5.5t98.5 -19t94 -36.5t83 -58 q62 -58 91 -148t29 -196q0 -260 -137.5 -390.5t-402.5 -129.5l-12 87q78 23 129 58.5t81 86t41.5 117.5t9.5 152q-2 78 -19.5 144.5t-50.5 111.5q-18 24 -43.5 41.5t-56.5 28.5t-64.5 16t-66.5 5q-32 0 -67.5 -6.5t-70 -16.5t-65.5 -22t-54 -23v-447z" glyph-name="uni0494" horiz-adv-x="1478" unicode="Ҕ"/>
<glyph d="M895 935q-1 -35 -4 -74.5t-7 -80.5t-10 -82.5t-13 -80.5h-77l-101 212h-235v-414q26 21 62 40.5t77 35t85 24.5t86 9q65 0 127 -18t101 -53q40 -35 68.5 -96.5t28.5 -136.5v-220q0 -117 -31.5 -193.5t-91 -121.5t-146.5 -63t-198 -18l-10 85q51 13 90 34t65 57t39.5 89.5 t13.5 132.5v181q0 44 -11 87t-40 72t-63.5 37.5t-67.5 8.5q-24 0 -51 -6t-51.5 -14.5t-46 -19t-35.5 -19.5v-211q45 -9 77 -19.5t64 -25.5v-73h-533v73q32 19 62 28t61 17v701q-66 12 -123 44v72h839z" glyph-name="uni0495" horiz-adv-x="1181" unicode="ҕ"/>
<glyph d="M854 1225q-39 11 -70.5 26t-55.5 31v74h504v-74q-39 -28 -114 -57v-493l127 29l279 464q-39 11 -75 26t-67 31v74h514v-74q-30 -16 -65.5 -31t-73.5 -26l-349 -473q48 -65 100 -142.5t109 -160t119 -165.5t130 -158h139q-2 -50 -6 -109.5t-10.5 -119.5t-15.5 -115.5 t-21 -97.5h-75l-105 316h-140l-83 66q-45 59 -86.5 127.5t-82 142t-80.5 150.5t-82 153h-100v-509q33 -10 63.5 -24.5t59.5 -31.5v-74h-522v74q26 17 59.5 31.5t75.5 24.5v526l-107 -28q-41 -79 -76.5 -152.5t-73.5 -142.5q-37 -69 -76.5 -133.5t-90.5 -133.5l-83 -66h-327 v66l79 47q70 77 133.5 160t120.5 164.5t107 157t94 137.5l-347 493q-39 11 -72 26t-57 31v74h510v-74q-24 -16 -59 -31t-74 -26l279 -475h120v475z" glyph-name="uni0496" horiz-adv-x="2025" unicode="Җ"/>
<glyph d="M1100 43q-26 36 -53 88.5t-52 108t-47 105.5t-37 82h-63v-309q59 -15 113 -45v-73h-461v73q26 13 51 24.5t54 20.5v320l-74 -19q-14 -26 -34.5 -71t-46 -98t-55.5 -107.5t-63 -99.5l-55 -43h-262v73l79 45q46 54 85 112t73 112t63 101.5t55 80.5q-34 36 -64.5 70.5 t-59.5 70t-57 73t-58 79.5q-50 12 -94 46v72h390v-72q-33 -26 -92 -46q25 -45 47 -80.5t45.5 -69t49.5 -68.5t59 -79h69v297q-31 8 -53 19.5t-42 26.5v72h431v-72q-20 -15 -39.5 -26.5t-53.5 -19.5v-308l77 19q32 44 57 78t46.5 66.5t43.5 66.5t48 78q-26 10 -49 19.5 t-45 26.5v72h390v-72q-16 -11 -42 -23t-63 -23q-61 -78 -118.5 -144t-115.5 -138q24 -34 55.5 -84.5t68.5 -109t79 -119.5t88 -115h102q-3 -91 -15 -193l-21 -191h-73l-101 277h-107z" glyph-name="uni0497" horiz-adv-x="1485" unicode="җ"/>
<glyph d="M535 -388h-85q-31 92 -52.5 185t-37.5 184q-92 8 -174 27.5t-134 43.5q0 31 6 75.5t16 92.5t22.5 95.5t25.5 85.5h81l77 -275q38 -14 73.5 -18.5t73.5 -4.5q129 0 205 73q77 74 77 199q0 138 -68 195q-67 58 -181 58l-150 -26q-9 35 -11 79.5t9 81.5h63q16 -1 36 -0.5 t40.5 1.5t40 3t34.5 4q75 31 114 90t39 150q0 115 -57 178.5t-166 63.5q-46 0 -84 -10.5t-51 -26.5l-95 -246h-82q-7 28 -14.5 66.5t-14 82t-11 89t-4.5 87.5q36 25 85 41.5t101 26t102.5 13t90.5 3.5q94 0 184 -14t160 -51t113 -101.5t43 -166.5q0 -98 -65 -189 q-65 -90 -197 -131v-7q61 -10 116.5 -35t97.5 -66.5t67 -99t25 -132.5q0 -86 -27.5 -153t-79 -116.5t-124.5 -81.5t-164 -46q-13 -92 -38 -190.5t-51 -186.5z" glyph-name="uni0498" horiz-adv-x="1081" unicode="Ҙ"/>
<glyph d="M334 99q37 0 68.5 17t53.5 43q20 24 28.5 55.5t8.5 63.5q0 65 -35 103.5t-86 45.5l-152 -29q-10 24 -11 63q-2 42 11 67h171q14 11 25 21.5t20 21.5q6 7 12 21t10.5 31.5t7.5 36.5t3 37q0 72 -30.5 113t-98.5 41q-25 0 -45 -2.5t-40 -8.5l-65 -201h-63q-31 62 -50 126 q-8 29 -14.5 61t-10.5 66q21 10 50 21.5t69.5 21.5t93 16.5t120.5 6.5q185 0 270.5 -60t85.5 -169q0 -49 -16.5 -86.5t-45.5 -65.5t-68 -47.5t-84 -32.5q29 0 72 -12t83 -38.5t68.5 -68t28.5 -100.5q0 -123 -67 -196.5t-210 -95.5q-12 -85 -28 -165t-43 -158h-83 q-24 84 -40.5 159.5t-30.5 159.5q-88 9 -152 32.5t-109 54.5l51 176h55q13 -11 31 -27.5t37 -37.5q15 -17 29.5 -34.5t29.5 -35.5q20 -7 36.5 -9t48.5 -2z" glyph-name="uni0499" horiz-adv-x="823" unicode="ҙ"/>
<glyph d="M823 1356h519v-74q-33 -22 -76 -36t-77 -21l-387 -466q44 -62 104 -140t128 -162t139.5 -169.5t139.5 -161.5h156q-2 -50 -6.5 -109.5t-11 -119.5t-15 -115.5t-18.5 -97.5h-75l-105 316h-165l-77 54q-46 59 -97 130t-102.5 147t-101.5 153.5t-93 150.5h-83v-505 q42 -8 77 -23.5t61 -32.5v-74h-587v74q39 19 79.5 33.5t79.5 22.5v1095q-45 7 -86.5 22t-72.5 35v74h587v-74q-26 -16 -61 -31t-77 -26v-491l114 27l331 464q-38 9 -76 25t-65 32v74z" glyph-name="uni049A" horiz-adv-x="1485" unicode="Қ"/>
<glyph d="M756 43q-40 49 -71.5 97.5t-58.5 97.5t-52.5 96.5t-51.5 95.5h-76v-312q61 -16 106 -45v-73h-498v73q51 30 124 45v699q-33 7 -64 18.5t-60 27.5v72h477v-72q-19 -14 -36.5 -25t-48.5 -21v-305l87 19q54 63 108.5 133t99.5 148q-32 13 -54.5 24.5t-46.5 26.5v72h428v-72 q-19 -15 -45.5 -25.5t-72.5 -25.5q-63 -78 -130.5 -147.5t-130.5 -129.5q41 -44 85 -98.5t89.5 -112t91 -113.5t90.5 -104h107q-2 -45 -6.5 -94.5t-9.5 -99t-11 -98t-11 -92.5h-73l-101 277h-124z" glyph-name="uni049B" horiz-adv-x="1180" unicode="қ"/>
<glyph d="M884 1356h500v-74q-33 -22 -75.5 -36t-77.5 -21l-303 -453q42 -64 92.5 -144.5t107 -167t119 -174t130.5 -164.5l93 -56v-66h-329l-77 54q-47 62 -93.5 140t-90 158t-81.5 155t-67 130h-25v-281h-124v281h-82v-507q42 -8 77 -23.5t60 -32.5v-74h-573v74q39 19 75 33.5 t74 22.5v1095q-45 7 -81 22t-68 35v74h573v-74q-25 -16 -61 -31t-76 -26v-493l82 9v287h124v-276l56 7l263 466q-39 9 -77 25t-65 32v74z" glyph-name="uni049C" horiz-adv-x="1485" unicode="Ҝ"/>
<glyph d="M709 935h423v-72q-19 -15 -47.5 -26.5t-70.5 -24.5q-14 -17 -37.5 -54t-50.5 -79.5t-55 -84.5t-50 -69q12 -15 29.5 -43.5t39 -65t46 -78t49.5 -81.5t49.5 -76.5t47.5 -62.5l78 -45v-73h-288l-61 43q-20 36 -41.5 84.5t-42.5 101.5t-40 105.5t-32 95.5h-28v-220h-110v220 h-94v-312q30 -8 58 -19.5t51 -25.5v-73h-488v73q26 15 52 26t63 19v699q-33 7 -59.5 18.5t-55.5 27.5v72h468v-72q-19 -14 -39 -25t-50 -21v-321l94 13v250h110v-235l45 7q7 11 18 32t24 47t27 55t27 56.5t24 51t18 39.5q-32 13 -54 24.5t-47 26.5v72z" glyph-name="uni049D" horiz-adv-x="1180" unicode="ҝ"/>
<glyph d="M20 1112h217v113q-45 7 -86 22t-72 35v74h586v-74q-25 -16 -61 -31t-76 -26v-113h176v-122h-176v-260l177 27l303 468q-39 9 -76.5 25t-65.5 32v74h500v-74q-33 -22 -75.5 -36t-77.5 -21l-341 -449q42 -63 98.5 -144t121 -168.5t133.5 -175.5t137 -166l93 -56v-66h-337 l-77 54q-46 58 -95 129t-96.5 147.5t-92 154.5t-80.5 150h-149v-505q42 -8 77 -23.5t60 -32.5v-74h-586v74q38 19 79 33.5t79 22.5v860h-217v122z" glyph-name="uni049E" horiz-adv-x="1485" unicode="Ҟ"/>
<glyph d="M441 512l100 19q10 9 29 30.5t42 49t48 58.5t47 59t39 50.5t25 33.5q-32 13 -54 24.5t-48 26.5v72h429v-72q-24 -15 -57.5 -30t-60.5 -21q-35 -39 -74 -79.5t-77.5 -77.5t-72.5 -68.5t-59 -51.5q40 -45 85 -97.5t91.5 -107.5t93.5 -109.5t92 -102.5l86 -45v-73h-294 l-68 43q-15 18 -33 42t-36 50t-36 52.5t-33 50.5q-15 22 -31 48.5t-32 52t-31 49.5t-26 42h-84v-312q57 -17 105 -45v-73h-498v73q49 30 124 45v928h-146v114h146v91l-143 15v73q27 12 72 23t95.5 19.5t99 15t81.5 9.5h64v-246h252v-114h-252v-534z" glyph-name="uni049F" horiz-adv-x="1180" unicode="ҟ"/>
<glyph d="M1085 1356h500v-74q-33 -22 -75.5 -36t-77.5 -21l-351 -449q42 -64 101 -145t125.5 -168t138 -175t139.5 -166l92 -56v-66h-334l-80 54q-45 58 -96 129.5t-101.5 148t-97 154.5t-83.5 149h-136v-505q42 -8 77 -23.5t61 -32.5v-74h-587v74q39 19 79.5 33.5t79.5 22.5v1099 h-202l-102 -279h-81q-12 49 -20 103.5t-13 108.5t-7.5 104.5t-3.5 89.5h857v-74q-26 -16 -61 -31t-77 -26v-491l165 27l312 464q-38 9 -76 25t-65 32v74z" glyph-name="uni04A0" horiz-adv-x="1697" unicode="Ҡ"/>
<glyph d="M684 935v-72q-19 -14 -37 -25t-48 -21v-305l87 19q54 57 104.5 130t92.5 151q-32 13 -54 24.5t-47 26.5v72h429v-72q-19 -15 -46 -25.5t-72 -25.5q-63 -78 -125.5 -147.5t-126.5 -129.5q42 -45 82.5 -97.5t81.5 -107.5t83 -109.5t87 -102.5l78 -45v-73h-293l-60 43 q-39 49 -67 97.5t-55 97.5t-52.5 96.5t-51.5 95.5h-75v-312q58 -16 106 -45v-73h-499v73q51 30 124 45v711h-111l-93 -240h-63q-8 35 -16.5 80.5t-15 92.5t-11 92.5t-4.5 80.5h668z" glyph-name="uni04A1" horiz-adv-x="1291" unicode="ҡ"/>
<glyph d="M658 0h-588v74q33 17 76.5 32.5t82.5 23.5v1095q-46 9 -88.5 24t-70.5 33v74h588v-74q-30 -20 -66 -35t-73 -22v-468h541v468q-43 9 -77 24t-61 33v74h587v-74q-33 -22 -75.5 -35t-83.5 -22v-1099h213q-2 -50 -6.5 -109.5t-10.5 -119.5t-15 -115t-20 -98h-76l-104 316 h-409v74q29 17 64 32.5t74 23.5v502h-541v-502q39 -8 72 -21.5t67 -34.5v-74z" glyph-name="uni04A2" horiz-adv-x="1593" unicode="Ң"/>
<glyph d="M531 0h-487v73q27 15 56 25.5t63 19.5v699q-34 10 -63 20.5t-56 25.5v72h487v-72q-22 -14 -46 -25t-53 -21v-291h301v291q-27 6 -50.5 17.5t-47.5 28.5v72h487v-72q-25 -16 -53.5 -27.5t-65.5 -18.5v-710h167q-1 -23 -3.5 -63.5t-7.5 -92.5t-11.5 -110.5t-15.5 -117.5 h-73l-102 277h-322v73q24 18 47.5 29t50.5 16v301h-301v-301q60 -16 99 -45v-73z" glyph-name="uni04A3" horiz-adv-x="1180" unicode="ң"/>
<glyph d="M1313 130q48 -8 95.5 -23.5t90.5 -32.5v-74h-615v74q37 21 68.5 31.5t69.5 24.5v502h-503v-502q39 -8 72 -21.5t66 -34.5v-74h-587v74q33 17 76.5 32.5t82.5 23.5v1095q-48 9 -90 24t-69 33v74h587v-74q-29 -20 -65 -35t-73 -22v-468h503v468q-18 2 -37.5 7t-39.5 13 q-41 16 -61 37v74h981q0 -95 -9 -202.5t-25 -205.5h-80l-127 281h-311v-1099z" glyph-name="uni04A4" horiz-adv-x="1887" unicode="Ҥ"/>
<glyph d="M626 0v73q24 18 47.5 29t50.5 16v301h-296v-301q31 -8 55 -19t43 -26v-73h-482v73q26 15 53.5 25.5t61.5 19.5v699q-34 10 -61.5 20.5t-53.5 25.5v72h482v-72q-22 -14 -45.5 -25t-52.5 -21v-291h296v291q-27 6 -50.5 17.5t-47.5 28.5v72h710q-1 -35 -5 -82t-10.5 -97 t-15 -99t-18.5 -86h-77l-76 258h-144v-711q54 -11 90.5 -22t68.5 -23v-73h-523z" glyph-name="uni04A5" horiz-adv-x="1366" unicode="ҥ"/>
<glyph d="M660 0h-580v74q29 15 67.5 31.5t90.5 24.5v1095q-38 9 -80 22t-78 35v74h1436v-74q-36 -23 -77.5 -35.5t-81.5 -21.5v-532q28 12 65 27t83.5 28.5t101 22.5t117.5 9q47 0 92.5 -4t89 -14.5t84.5 -29.5t79 -49q31 -25 59 -63t49 -84.5t33.5 -100t12.5 -108.5 q0 -142 -31.5 -240t-100.5 -163q-66 -62 -165.5 -93.5t-239.5 -33.5l-11 87q80 23 132 58.5t81 89.5q28 51 37.5 117t7.5 149q-2 72 -19.5 133t-49.5 106q-40 55 -101.5 81.5t-134.5 26.5q-39 0 -76 -6.5t-71 -16.5t-65 -22t-59 -23v-447q37 -10 68 -24.5t62 -31.5v-74h-552 v74q20 15 50 29.5t81 26.5v1099h-537v-1099q38 -10 69.5 -23.5t61.5 -32.5v-74z" glyph-name="uni04A6" horiz-adv-x="2283" unicode="Ҧ"/>
<glyph d="M1391 196q0 161 -36 228t-122 67q-68 0 -113.5 -36t-68.5 -98v-239q64 -11 123 -45v-73h-494v73q18 13 39 24.5t63 20.5v711h-339v-711q38 -11 60.5 -22.5t42.5 -22.5v-73h-496v73q35 20 65 30.5t59 14.5v699q-39 10 -71 21t-53 25v72h1124v-72q-23 -15 -53.5 -28.5 t-69.5 -17.5v-355q37 77 114 127t171 50q82 0 142 -20.5t101 -69t61.5 -127t20.5 -194.5v-162q-2 -234 -108 -348t-331 -114l-8 85q101 27 139 124t38 253v130z" glyph-name="uni04A7" horiz-adv-x="1728" unicode="ҧ"/>
<glyph d="M1478 137q-20 -68 -93 -114q-37 -23 -74 -35t-95 -12q-45 0 -80.5 6.5t-73.5 19.5q-38 14 -60.5 24t-39.5 26q-26 -21 -60 -35.5t-70 -23.5t-71.5 -13t-64.5 -4q-163 0 -282.5 55.5t-198 151.5t-117 225.5t-38.5 277.5q0 145 38.5 271t106.5 220t161.5 148t204.5 54 q83 0 131.5 -23t73.5 -72l-17 -44q-25 9 -47 11t-37 2q-75 0 -132 -44t-96 -122t-58.5 -185t-19.5 -233q0 -125 23 -229t67.5 -179t110.5 -116.5t152 -41.5q35 0 71 2.5t63 12.5q-54 32 -103.5 84t-87 124.5t-60 165t-22.5 205.5q0 129 32 235t90 181.5t137 117.5t174 42 q90 0 165.5 -35.5t130.5 -107t85.5 -178t30.5 -248.5q0 -95 -27.5 -185.5t-69.5 -166t-93 -132t-99 -83.5q21 -14 52.5 -24t62.5 -10q58 0 101.5 18t87.5 59zM869 682q0 -175 37 -295t99 -184q29 27 54 75.5t43.5 114t29 145.5t10.5 171q0 86 -4 165t-17 139.5t-38 96.5 t-67 36q-45 0 -74 -35t-45 -97.5t-22 -147.5t-6 -184z" glyph-name="uni04A8" horiz-adv-x="1494" unicode="Ҩ"/>
<glyph d="M1086 102q-11 -32 -31 -55.5t-44 -39t-50 -23t-49 -7.5q-45 0 -84 12.5t-80 40.5q-46 -26 -105.5 -39.5t-126.5 -13.5q-109 0 -190 34t-143 97q-64 64 -98.5 154.5t-34.5 205.5q0 103 28.5 193t79.5 156q48 63 115 102t139 39q39 0 63.5 -8.5t40 -23t25 -32.5t17.5 -36 l-9 -13q-11 3 -18.5 4t-14.5 1.5t-14 0.5h-17q-47 0 -80 -27t-54 -76t-30.5 -117.5t-9.5 -152.5q0 -81 16 -152.5t48.5 -125.5t81.5 -85t115 -31q26 0 47 5.5t29 10.5q-43 20 -78 55.5t-60 83.5t-39 106.5t-14 123.5q0 100 25 170t65 113.5t88.5 63.5t96.5 20 q60 0 112.5 -18t91.5 -59t61.5 -107t22.5 -162q0 -30 -3.5 -61.5t-10 -63t-16 -61.5t-21.5 -55q-15 -32 -33 -58t-35 -46t-31 -33t-22 -19q22 -7 39.5 -10t47.5 -3q32 0 68.5 13.5t61.5 33.5zM645 467q0 -44 5.5 -89.5t17.5 -88.5t31 -81t46 -66q19 27 35.5 57t27.5 70 t17.5 91t6.5 120q0 51 -3.5 96.5t-14 79t-29 53.5t-48.5 20q-32 0 -50 -29.5t-27.5 -71.5t-12 -86.5t-2.5 -74.5z" glyph-name="uni04A9" horiz-adv-x="1093" unicode="ҩ"/>
<glyph d="M1215 407h79q7 -31 13.5 -75t11 -92.5t7.5 -97t3 -88.5q-78 -40 -160 -55.5t-166 -20.5q-17 -102 -38.5 -191t-47.5 -175h-86q-32 94 -53.5 189.5t-37.5 186.5q-131 19 -242.5 69t-193 135t-128 206t-46.5 282q0 123 30.5 222.5t84 177t125.5 134t155.5 93.5t174.5 54.5 t182 17.5q63 0 128 -5.5t124 -15t108 -22t82 -25.5q0 -27 -4 -75t-10.5 -102t-14.5 -106.5t-16 -88.5h-82l-106 293q-9 4 -30 7.5t-47 6.5t-52.5 5t-47.5 2q-52 0 -106.5 -14t-106 -44t-97 -76t-79.5 -110t-54 -147t-20 -185q0 -140 37.5 -248.5t99.5 -180.5q31 -36 71 -63 t86 -45t94.5 -27.5t96.5 -9.5q27 0 55.5 3.5t54 8t45.5 10t29 10.5z" glyph-name="uni04AA" horiz-adv-x="1479" unicode="Ҫ"/>
<glyph d="M860 152q-35 -60 -99.5 -106t-151.5 -62q-11 -85 -28 -164.5t-42 -156.5h-82q-24 87 -41 166t-32 165q-79 20 -138 62t-98.5 103t-59 139t-19.5 170q0 111 34 201.5t99 154.5t159 99t214 35q93 0 161.5 -19.5t119.5 -45.5q-3 -32 -9 -71t-14 -78t-18 -74t-22 -59h-91 l-78 221q-15 8 -30 13.5t-44 5.5q-38 0 -72.5 -18t-60.5 -61t-41.5 -113.5t-15.5 -176.5q0 -75 16.5 -140t50 -113t85 -75t122.5 -27q66 0 114.5 19.5t81.5 44.5z" glyph-name="uni04AB" horiz-adv-x="909" unicode="ҫ"/>
<glyph d="M349 74q39 15 87.5 31.5t99.5 24.5v1099h-217q-18 -59 -35 -113q-15 -46 -31 -93t-27 -75h-82q-13 39 -26 91t-23.5 107t-18.5 110t-11 100h1236q-5 -48 -13 -101.5t-18.5 -107t-23 -104.5t-26.5 -95h-82q-3 6 -8.5 21t-12.5 35.5t-15 45.5l-16 50q-18 58 -41 129h-218 v-1099q16 -2 32.5 -2h31.5h159q-2 -51 -6.5 -110.5t-11.5 -119t-15 -115t-17 -99.5h-76l-105 316h-470v74z" glyph-name="uni04AC" horiz-adv-x="1366" unicode="Ҭ"/>
<glyph d="M235 73q30 15 66 26t68 19v711h-134l-82 -258h-79q-9 40 -17.5 88t-14 98t-10 96t-4.5 82h949q0 -34 -3.5 -80t-10 -96t-15.5 -99t-17 -89h-80l-82 258h-132v-722h190q-3 -91 -15 -193.5t-21 -190.5h-73l-101 277h-382v73z" glyph-name="uni04AD" horiz-adv-x="1006" unicode="ҭ"/>
<glyph d="M970 1356h475v-74q-29 -18 -65 -34t-73 -23l-406 -658v-437q39 -4 77 -20.5t70 -35.5v-74h-596v74q32 17 73 32.5t86 23.5v435l-421 660q-45 9 -84.5 24t-72.5 33v74h635v-74q-27 -16 -62 -31t-82 -26l307 -518l294 518q-45 11 -85.5 26t-69.5 31v74z" glyph-name="uni04AE" horiz-adv-x="1479" unicode="Ү"/>
<glyph d="M782 -375h-516v74q27 15 57.5 25t65.5 19v330l-281 744q-26 10 -50.5 21t-47.5 25v72h492v-70q-25 -14 -50.5 -26t-57.5 -22l148 -449l40 -142h4l38 144l142 447q-59 16 -102 46v72h350v-72q-18 -14 -40.5 -25t-55.5 -21l-260 -745v-329q38 -9 68 -19t56 -25v-74z" glyph-name="uni04AF" unicode="ү"/>
<glyph d="M970 1356h475v-74q-29 -18 -65 -34t-73 -23l-406 -657h274v-129h-274v-309q39 -4 77 -20.5t70 -35.5v-74h-596v74q32 17 73 32.5t86 23.5v309h-273v129h271l-419 657q-45 9 -84.5 24t-72.5 33v74h635v-74q-27 -16 -61.5 -31t-82.5 -26l307 -518l294 518q-45 11 -85.5 26 t-69.5 31v74z" glyph-name="uni04B0" horiz-adv-x="1479" unicode="Ұ"/>
<glyph d="M782 -375h-516v74q27 15 57.5 25t65.5 19v257h-200v114h184l-265 703q-26 10 -50.5 21t-47.5 25v72h492v-70q-25 -14 -50.5 -26t-57.5 -22l148 -449l40 -142h4l38 144l142 447q-59 16 -102 46v72h350v-72q-18 -14 -40.5 -25t-55.5 -21l-246 -703h186v-114h-200v-257 q38 -9 68 -19t56 -25v-74z" glyph-name="uni04B1" unicode="ұ"/>
<glyph d="M784 74q32 17 65.5 31.5t72.5 24.5l-275 426l-256 -428q41 -6 76 -19.5t68 -34.5v-74h-497v74q65 39 133 56l388 552l-364 543q-37 11 -69.5 26t-63.5 31v74h614v-74q-23 -14 -58 -28t-81 -29l236 -388l232 388q-39 9 -77.5 25t-69.5 32v74h481v-74q-30 -16 -62 -31 t-71 -26l-344 -504l407 -595h195q-2 -50 -7 -109.5t-11 -119.5t-14.5 -115t-19.5 -98h-76l-105 316h-447v74z" glyph-name="uni04B2" horiz-adv-x="1479" unicode="Ҳ"/>
<glyph d="M887 107h123q-2 -46 -6 -94t-11 -99l-21 -191h-73l-101 277h-305v71q41 30 85 47l-137 240l-157 -240q27 -9 46.5 -20.5t38.5 -24.5v-73h-355v73q27 15 48.5 26t49.5 19l261 329l-262 370q-27 10 -47.5 20.5t-36.5 25.5v72h469v-70q-23 -16 -41 -28t-43 -20l121 -206 l145 206q-32 10 -50.5 21t-33.5 25v72h346v-72q-19 -14 -41.5 -25t-56.5 -21l-247 -290z" glyph-name="uni04B3" unicode="ҳ"/>
<glyph d="M242 0v74q38 15 87.5 31.5t100.5 24.5v1110h-160l-116 -292h-81q-7 40 -14.5 91.5t-13.5 106.5t-10.5 109.5t-4.5 100.5h1048q0 -47 -4 -101.5t-10 -108.5t-13.5 -105.5t-14.5 -92.5h-81l-109 292h-132v-1114h538v1099q-64 18 -104 57v74h548v-74q-37 -23 -77 -35.5 t-82 -21.5v-1099h209q-2 -50 -6 -109.5t-11 -119.5t-15.5 -115.5t-19.5 -97.5h-76l-105 316h-1271z" glyph-name="uni04B4" horiz-adv-x="1776" unicode="Ҵ"/>
<glyph d="M487 107h337v710q-26 10 -44 19.5t-40 26.5v72h456v-72q-25 -14 -49.5 -25t-64.5 -21v-710h153q-5 -100 -15.5 -194.5t-22.5 -189.5h-71l-102 277h-917v73q49 30 122 45v711h-41l-77 -248h-70q-6 39 -10.5 86t-8.5 94.5t-6 92.5t-2 81h688q0 -33 -2 -77.5t-5.5 -92.5 t-8 -96t-10.5 -88h-70l-78 248h-41v-722z" glyph-name="uni04B5" horiz-adv-x="1247" unicode="ҵ"/>
<glyph d="M792 74q45 21 89 36.5t89 19.5v457q-33 -20 -74.5 -36t-87.5 -27.5t-95 -18t-97 -6.5q-77 0 -154 17t-138.5 59t-99.5 112.5t-38 178.5v359q-37 7 -74 22t-66 35v74h548v-74q-21 -16 -51 -31t-67 -26v-312q0 -145 63 -211.5t191 -66.5q32 0 65 6t64.5 15.5t59.5 22 t51 24.5v522q-33 11 -64 25t-56 32v74h538v-74q-25 -18 -57.5 -32t-69.5 -25v-1099h222q-2 -50 -6 -109.5t-11 -119.5t-15.5 -115.5t-19.5 -97.5h-76l-104 316h-459v74z" glyph-name="uni04B6" horiz-adv-x="1503" unicode="Ҷ"/>
<glyph d="M553 73q77 32 150 45v293q-46 -50 -118.5 -81t-157.5 -31q-130 0 -204 71t-74 192v255q-72 14 -119 46v72h486v-72q-38 -31 -98 -46v-206q0 -80 27 -125.5t94 -45.5q49 0 90 14.5t74 36.5v326q-31 6 -53 17.5t-47 28.5v72h492v-72q-51 -32 -123 -46v-710h168 q-4 -91 -16 -193.5t-22 -190.5h-73l-100 277h-376v73z" glyph-name="uni04B7" horiz-adv-x="1155" unicode="ҷ"/>
<glyph d="M697 506q-56 -7 -115 -7q-77 0 -146.5 16.5t-122 57.5t-83.5 112t-31 178v362q-37 7 -74 22t-66 35v74h558v-74q-21 -16 -56 -31t-72 -26v-294q0 -66 9.5 -120t34.5 -91.5t64.5 -60t99.5 -24.5v285h123v-275q54 9 104 24t81 34v522q-31 11 -62.5 25t-57.5 32v74h538v-74 q-26 -18 -58.5 -32t-69.5 -25v-1095q39 -8 71.5 -24.5t56.5 -31.5v-74h-597v74q45 21 89.5 36.5t89.5 19.5v457q-30 -16 -78 -32.5t-107 -29.5v-268h-123v249z" glyph-name="uni04B8" horiz-adv-x="1503" unicode="Ҹ"/>
<glyph d="M509 306q-8 -2 -13.5 -3l-11 -2t-12.5 -1.5t-18 -0.5q-76 0 -123 10t-84 32q-60 36 -87 97t-27 134v245q-35 7 -58.5 18.5t-49.5 27.5v72h472v-72q-37 -31 -97 -46v-226q0 -33 4 -60t15.5 -46.5t33 -30t56.5 -10.5v287h110v-281q29 5 53 14.5t50 26.5v326 q-30 6 -52.5 17.5t-46.5 28.5v72h488v-72q-25 -16 -54 -27.5t-66 -18.5v-699q38 -9 66.5 -19.5t53.5 -25.5v-73h-539v73q76 31 150 45v293q-6 -8 -18 -19.5t-26.5 -23t-30 -21.5t-28.5 -15v-150h-110v124z" glyph-name="uni04B9" horiz-adv-x="1155" unicode="ҹ"/>
<glyph d="M90 1356h597v-74q-45 -21 -89.5 -36.5t-89.5 -19.5v-457q29 15 68.5 31t87 28.5t100 20.5t106.5 8q78 0 155.5 -16t139 -57t100 -111t38.5 -178v-364q37 -7 74 -22t66 -35v-74h-548v74q22 16 51.5 31t66.5 26v314q0 66 -15 117.5t-47.5 87t-84.5 53.5t-126 18 q-28 0 -59.5 -5.5t-62.5 -14.5t-59.5 -21.5t-50.5 -26.5v-522q33 -11 64 -25t56 -32v-74h-538v74q25 18 58 32t70 25v1095q-39 8 -71.5 24.5t-56.5 31.5v74z" glyph-name="uni04BA" horiz-adv-x="1503" unicode="Һ"/>
<glyph d="M1119 0h-486v73q23 13 47 24.5t56 20.5v378q0 81 -2.5 139.5t-16.5 97.5q-11 31 -34 53.5t-67 22.5q-36 0 -65 -16t-51.5 -41t-39 -55.5t-29.5 -58.5v-520q30 -8 53.5 -17t49.5 -28v-73h-490v73q29 15 56.5 26t60.5 19v1104l-136 15v73q28 12 71 23t90.5 19.5t95 15 t85.5 9.5h64v-630h2q15 41 39.5 79t58.5 67.5t78.5 47t100.5 17.5q68 0 123 -18t93.5 -63t59 -121t20.5 -192v-446q32 -7 58 -16.5t55 -28.5v-73z" glyph-name="uni04BB" horiz-adv-x="1139" unicode="һ"/>
<glyph d="M1083 1379q126 0 240 -37t200.5 -109t138 -179.5t51.5 -248.5q0 -50 -3 -92t-10 -72h-1002q5 -129 43 -222.5t103 -154t154.5 -90t196.5 -29.5q101 0 192.5 28.5t184.5 93.5l34 -63q-44 -64 -104 -107.5t-127.5 -70.5t-137.5 -38.5t-133 -11.5q-95 0 -184.5 19.5 t-168.5 58t-145 95t-114.5 130.5t-77.5 164.5t-34 197.5q-88 2 -158 26t-118.5 64t-74 93t-25.5 113q0 25 5 55t15 60t26 58.5t39 49.5q44 -5 104 -30q61 -26 105 -63l15 -56l-163 -137q11 -26 35.5 -46t57 -34t69 -21t70.5 -6q21 163 86.5 279.5t161 190t212.5 108 t241 34.5zM1072 1253q-77 0 -143 -27.5t-116 -86t-80 -150.5t-35 -222h695q2 22 3 40.5t1 38.5q0 98 -27 174t-72 127.5t-104 78.5t-122 27z" glyph-name="uni04BC" horiz-adv-x="1803" unicode="Ҽ"/>
<glyph d="M1099 157q-18 -33 -50.5 -65t-79 -57.5t-106.5 -41.5t-133 -16q-114 0 -197 36t-137.5 99t-81.5 150t-28 189q-77 2 -130 22.5t-86.5 54.5t-48.5 77.5t-15 91.5q0 55 21 110.5t61 93.5q22 2 47.5 -8t49.5 -27t43.5 -38.5t30.5 -42.5q2 -8 3 -15.5t3 -16.5l-137 -115 q7 -24 23.5 -40t38 -26.5t48 -16t53.5 -7.5q4 44 17.5 92t36.5 93.5t57 86.5t80 71.5t105 48.5t132 18q81 0 151 -20t123 -63.5t84.5 -112.5t34.5 -167q1 -34 -3 -70t-12 -74h-526q1 -57 14 -115t45.5 -104.5t86 -75.5t135.5 -29q58 0 111 15t104 52zM723 851 q-73 0 -108 -73.5t-37 -229.5h263q5 29 6.5 56.5t1.5 52.5q0 94 -29 144t-97 50z" glyph-name="uni04BD" horiz-adv-x="1155" unicode="ҽ"/>
<glyph d="M1083 1379q126 0 240 -37t200.5 -109t138 -179.5t51.5 -248.5q0 -50 -3 -92t-10 -72h-1002q5 -129 43 -222.5t103 -154t154.5 -90t196.5 -29.5q101 0 192.5 28.5t184.5 93.5l34 -63q-36 -52 -82.5 -90t-99 -65t-108.5 -43t-111 -23q-6 -44 -15 -91t-20.5 -95t-24.5 -95 t-27 -90h-85q-33 94 -54.5 191.5t-36.5 187.5q-115 22 -215 75t-175 135t-120.5 192.5t-51.5 247.5q-88 2 -158 26t-118.5 64t-74 93t-25.5 113q0 25 5 55t15 60t26 58.5t39 49.5q44 -5 104 -30q61 -26 105 -63l15 -56l-163 -137q11 -26 35.5 -46t57 -34t69 -21t70.5 -6 q21 163 86.5 279.5t161 190t212.5 108t241 34.5zM1072 1253q-77 0 -143 -27.5t-116 -86t-80 -150.5t-35 -222h695q2 22 3 40.5t1 38.5q0 98 -27 174t-72 127.5t-104 78.5t-122 27z" glyph-name="uni04BE" horiz-adv-x="1803" unicode="Ҿ"/>
<glyph d="M1099 157q-15 -26 -38.5 -52t-56 -48.5t-73.5 -40.5t-91 -28q-10 -85 -26.5 -166.5t-42.5 -158.5h-82q-23 86 -39.5 164t-31.5 160q-84 16 -146 57.5t-103 102.5t-61.5 138t-21.5 166q-77 2 -130 22.5t-86.5 54.5t-48.5 77.5t-15 91.5q0 55 21 110.5t61 93.5 q22 2 47.5 -8t49.5 -27t43.5 -38.5t30.5 -42.5q2 -8 3 -15.5t3 -16.5l-137 -115q7 -24 23.5 -40t38 -26.5t48 -16t53.5 -7.5q4 44 17.5 92t36.5 93.5t57 86.5t80 71.5t105 48.5t132 18q81 0 151 -20t123 -63.5t84.5 -112.5t34.5 -167q1 -34 -3 -70t-12 -74h-526 q1 -57 14 -115t45.5 -104.5t86 -75.5t135.5 -29q58 0 111 15t104 52zM723 851q-73 0 -108 -73.5t-37 -229.5h263q5 29 6.5 56.5t1.5 52.5q0 94 -29 144t-97 50z" glyph-name="uni04BF" horiz-adv-x="1155" unicode="ҿ"/>
<glyph d="M700 0h-604v74q77 42 157 56v1095q-39 7 -81.5 22t-75.5 35v74h604v-74q-34 -22 -76 -36t-80 -21v-1095q38 -8 80 -21.5t76 -34.5v-74z" glyph-name="uni04C0" horiz-adv-x="797" unicode="Ӏ"/>
<glyph d="M1123 13q0 94 -44 186.5t-117 181.5q-41 50 -83 93t-79 76t-64 55t-38 30h-169v-505q43 -8 78 -23.5t60 -32.5v-74h-587v74q39 19 79.5 33.5t79.5 22.5v1095q-45 7 -86.5 22t-72.5 35v74h587v-74q-25 -16 -60.5 -31t-77.5 -26v-491l175 27l341 464q-39 9 -71.5 25 t-59.5 32v74h500v-74q-33 -22 -75.5 -36t-77.5 -21l-383 -458q35 -17 82.5 -50.5t97 -74.5t96.5 -85.5t81 -83.5q43 -51 78 -100t60 -99t38 -103t13 -112q0 -113 -42 -200t-117 -146t-177.5 -89.5t-223.5 -31.5l-11 86q28 6 57 16t55 23t49 29.5t39 36.5q33 39 51.5 96.5 t18.5 133.5z" glyph-name="uni04C3" horiz-adv-x="1510" unicode="Ӄ"/>
<glyph d="M865 -40q0 73 -32 144.5t-77.5 133.5t-94.5 111.5t-83 80.5h-126v-312q61 -16 106 -45v-73h-498v73q51 30 124 45v699q-33 7 -64 18.5t-60 27.5v72h477v-72q-18 -14 -36 -25t-49 -21v-305l137 19q54 63 111 133t102 148q-32 13 -54 24.5t-47 26.5v72h427v-72 q-17 -15 -44 -25.5t-73 -25.5q-63 -78 -133 -147.5t-133 -129.5q30 -18 71 -48.5t85 -71t87.5 -89.5t78 -105t55.5 -117.5t21 -126.5q0 -182 -114.5 -277.5t-340.5 -95.5l-9 85q186 49 186 271z" glyph-name="uni04C4" horiz-adv-x="1215" unicode="ӄ"/>
<glyph d="M480 1207q-60 9 -113.5 30.5t-92.5 44.5v74h1149v-74q-29 -18 -70 -33t-89 -24v-1097h204l18 -28q-7 -36 -29.5 -87.5t-54.5 -106.5t-70.5 -107t-76.5 -89h-105l66 290h-390v74q34 17 71.5 31.5t76.5 24.5v1099h-347q-6 -295 -27 -491q-11 -99 -24 -179.5t-29 -144.5 q-31 -127 -69 -202t-78 -129q-18 -25 -42 -45t-51 -33.5t-54.5 -21t-53.5 -7.5q-25 10 -49 40t-43 69t-31 81.5t-14 79.5l52 74l230 -56q25 54 49.5 130.5t43.5 188.5t31 265t12 359z" glyph-name="uni04C5" horiz-adv-x="1526" unicode="Ӆ"/>
<glyph d="M235 211q24 45 41.5 108t28.5 139t16.5 162t7.5 178q-37 12 -71.5 29t-61.5 36v72h866v-72q-59 -34 -124 -46v-710h175l11 -19q-11 -42 -39 -95t-62 -104.5t-70 -96t-63 -69.5h-91l58 277h-291v73q23 15 46 26t57 19v711h-206q-2 -99 -11 -207t-29 -211t-51 -193 t-76 -154q-38 -54 -83 -76t-81 -14q-24 14 -44 42t-35 60.5t-24.5 64.5t-12.5 53l44 65z" glyph-name="uni04C6" horiz-adv-x="1149" unicode="ӆ"/>
<glyph d="M657 0h-587v74q33 17 76.5 32.5t82.5 23.5v1095q-46 9 -88.5 24t-70.5 33v74h587v-74q-29 -20 -65 -35t-73 -22v-468h555v468q-43 9 -77 24t-61 33v74h587v-74q-33 -22 -75.5 -35t-83.5 -22v-1225q0 -131 -31 -211.5t-89.5 -124t-149 -58t-210.5 -14.5l-12 86 q52 12 91 31.5t63 55t36 92t12 143.5v632h-555v-502q39 -8 72 -21.5t66 -34.5v-74z" glyph-name="uni04C7" horiz-adv-x="1593" unicode="Ӈ"/>
<glyph d="M535 0h-491v73q26 15 55.5 25.5t63.5 19.5v699q-34 10 -63.5 20.5t-55.5 25.5v72h491v-72q-43 -27 -104 -46v-291h327v291q-55 12 -102 46v72h489v-72q-25 -16 -53 -27.5t-65 -18.5v-817q0 -117 -26.5 -193.5t-80.5 -121.5t-136 -63t-193 -18l-9 85q50 13 84 34.5 t54.5 57t29 89t8.5 130.5v419h-327v-301q64 -16 104 -45v-73z" glyph-name="uni04C8" horiz-adv-x="1180" unicode="ӈ"/>
<glyph d="M657 0h-587v74q33 17 76.5 32.5t82.5 23.5v1095q-47 9 -89.5 24t-69.5 33v74h587v-74q-29 -20 -65 -35t-73 -22v-468h531v468q-43 9 -77 24t-61 33v74h587v-74q-33 -22 -75.5 -35t-83.5 -22v-1097h213l20 -28q-8 -36 -30.5 -87.5t-54.5 -106.5t-70.5 -107t-77.5 -89h-105 l66 290h-389v74q29 17 64 32.5t74 23.5v502h-531v-502q39 -8 72 -21.5t66 -34.5v-74z" glyph-name="uni04C9" horiz-adv-x="1593" unicode="Ӊ"/>
<glyph d="M533 0h-491v73q26 15 55.5 25.5t63.5 19.5v699q-34 10 -63.5 20.5t-55.5 25.5v72h491v-72q-40 -26 -104 -46v-291h305v291q-54 12 -102 46v72h489v-72q-26 -16 -54.5 -27.5t-64.5 -18.5v-710h158l12 -19q-9 -46 -37 -99.5t-63 -104t-71.5 -93.5t-62.5 -68h-92l58 277 h-272v73q48 36 102 45v301h-305v-301q32 -8 58 -19t46 -26v-73z" glyph-name="uni04CA" horiz-adv-x="1180" unicode="ӊ"/>
<glyph d="M995 126v461q-27 -15 -66.5 -31t-87 -28.5t-101 -20.5t-107.5 -8q-78 0 -155.5 18t-139 60.5t-100 114t-38.5 179.5v354q-37 7 -74 22t-66 35v74h548v-74q-22 -16 -51.5 -31t-66.5 -26v-304q0 -66 15 -119t47.5 -90t84.5 -57t126 -20q28 0 58.5 6t61 15.5t59.5 21.5 t53 25v522q-33 11 -64 25t-56 32v74h538v-74q-25 -18 -58 -32t-70 -25v-1095q39 -8 71.5 -24.5t56.5 -31.5v-74h-410l-105 -316h-76q-9 42 -17.5 97.5t-15.5 115.5t-11.5 119.5t-5.5 109.5h223z" glyph-name="uni04CB" horiz-adv-x="1503" unicode="Ӌ"/>
<glyph d="M37 935h491v-72q-38 -31 -98 -46v-206q0 -80 27 -125.5t94 -45.5q49 0 90 14.5t74 36.5v326q-31 6 -53 17.5t-47 28.5v72h492v-72q-51 -32 -123 -46v-699q37 -9 67 -19.5t56 -25.5v-73h-399l-100 -277h-73q-9 88 -21.5 190.5t-16.5 193.5h218v304q-46 -50 -118.5 -81 t-157.5 -31q-130 0 -204 71t-74 192v255q-72 14 -124 46v72z" glyph-name="uni04CC" horiz-adv-x="1155" unicode="ӌ"/>
<glyph d="M1670 126h207l20 -26q-8 -36 -30.5 -87.5t-54.5 -106.5t-70 -107t-77 -89h-105l66 290h-390v74q39 19 76 32.5t79 23.5v799l10 227h-15l-67 -207l-385 -949h-89l-380 951l-72 226h-17l2 -246v-794q37 -7 81.5 -24.5t83.5 -38.5v-74h-473v74l76 36q48 22 87 29v1086 q-39 9 -82.5 22t-76.5 35v74h525l306 -779l56 -186h2l60 190l315 775h480v-74q-33 -20 -71 -34t-77 -23v-1099z" glyph-name="uni04CD" horiz-adv-x="1933" unicode="Ӎ"/>
<glyph d="M385 0h-363v73q31 15 56.5 26t56.5 19l24 680q-39 16 -64 33t-49 32v72h452l128 -440l32 -123h6l37 125l143 438h472v-72q-24 -15 -54 -26.5t-70 -19.5l27 -710h154l10 -19q-10 -46 -37.5 -99.5t-61.5 -104t-70.5 -93.5t-64.5 -68h-92l58 277h-272v73q18 9 44 20.5 t68 24.5l-25 653h-15l-251 -771h-110l-252 771h-16l-14 -653q65 -20 113 -45v-73z" glyph-name="uni04CE" horiz-adv-x="1395" unicode="ӎ"/>
<glyph d="M537 0h-505v73q23 13 56.5 24.5t64.5 20.5v1120q-35 8 -67.5 18.5t-53.5 25.5v74h505v-74q-24 -15 -50 -25t-64 -19v-1120q31 -9 56.5 -19.5t57.5 -25.5v-73z" glyph-name="uni04CF" horiz-adv-x="569" unicode="ӏ"/>
<glyph d="M904 438h-458l-116 -308q88 -12 168 -56v-74h-474v74q32 19 65 33.5t67 22.5l515 1249h143l501 -1249q38 -8 74.5 -22.5t65.5 -33.5v-74h-601v74q37 17 79.5 32.5t81.5 23.5zM494 564h365l-132 369l-43 157h-4l-47 -160zM742 1445q-90 0 -162.5 16.5t-125 48.5t-80.5 80 t-28 111q35 25 92.5 32.5t105.5 9.5l65 -35v-151q28 -13 63.5 -18t70.5 -5q27 0 66.5 4t67.5 13v157l66 35q35 4 91 -6.5t98 -35.5q0 -124 -104.5 -190t-285.5 -66z" glyph-name="uni04D0" horiz-adv-x="1479" unicode="Ӑ"/>
<glyph d="M866 271q0 -41 1 -71t4 -63l129 -19v-66q-24 -11 -61.5 -22.5t-79.5 -21t-83.5 -16.5t-72.5 -10h-64q-10 22 -15.5 43t-7.5 42q-2 22 -3 48t-2 57h-9q-9 -36 -31.5 -71t-57.5 -62.5t-82 -44.5t-104 -17q-61 0 -112.5 18.5t-89.5 52.5t-59.5 82t-21.5 108q0 83 36 138.5 t107 90t175.5 51.5t242.5 23q15 161 -13 235q-27 75 -122 75q-58 0 -105 -19l-89 -223h-82q-15 22 -29.5 51t-26 61t-20 66t-12.5 66q69 47 183 76t238 29q106 0 173.5 -23.5t106.5 -63.5t53.5 -94.5t14.5 -115.5q0 -57 -1.5 -107t-3 -97t-3 -92.5t-1.5 -93.5zM445 127 q39 0 67 14.5t47 36t30 45.5t16 43v187q-149 0 -214.5 -41t-65.5 -135q0 -72 31 -111t89 -39zM514 1137q-192 0 -279 69.5t-87 185.5q28 24 80 36.5t108 15.5l66 -24v-173q48 -21 114 -21q19 0 53 3.5t62 11.5v179l65 24q53 -3 103 -14.5t77 -37.5q0 -116 -87.5 -185.5 t-274.5 -69.5z" glyph-name="uni04D1" unicode="ӑ"/>
<glyph d="M904 438h-458l-116 -308q88 -12 168 -56v-74h-474v74q32 19 65 33.5t67 22.5l515 1249h143l501 -1249q38 -8 74.5 -22.5t65.5 -33.5v-74h-601v74q37 17 79.5 32.5t81.5 23.5zM494 564h365l-132 369l-43 157h-4l-47 -160zM344 1596q0 62 44.5 93t112.5 31q67 0 112 -31 t45 -93q0 -54 -45 -84.5t-112 -30.5q-68 0 -112.5 30.5t-44.5 84.5zM819 1596q0 62 45.5 93t113.5 31q67 0 111.5 -31t44.5 -93q0 -54 -44.5 -84.5t-111.5 -30.5q-68 0 -113.5 30.5t-45.5 84.5z" glyph-name="uni04D2" horiz-adv-x="1479" unicode="Ӓ"/>
<glyph d="M866 271q0 -41 1 -71t4 -63l129 -19v-66q-24 -11 -61.5 -22.5t-79.5 -21t-83.5 -16.5t-72.5 -10h-64q-10 22 -15.5 43t-7.5 42q-2 22 -3 48t-2 57h-9q-9 -36 -31.5 -71t-57.5 -62.5t-82 -44.5t-104 -17q-61 0 -112.5 18.5t-89.5 52.5t-59.5 82t-21.5 108q0 83 36 138.5 t107 90t175.5 51.5t242.5 23q15 161 -13 235q-27 75 -122 75q-58 0 -105 -19l-89 -223h-82q-15 22 -29.5 51t-26 61t-20 66t-12.5 66q69 47 183 76t238 29q106 0 173.5 -23.5t106.5 -63.5t53.5 -94.5t14.5 -115.5q0 -57 -1.5 -107t-3 -97t-3 -92.5t-1.5 -93.5zM445 127 q39 0 67 14.5t47 36t30 45.5t16 43v187q-149 0 -214.5 -41t-65.5 -135q0 -72 31 -111t89 -39zM156 1287q0 61 38.5 98t102.5 37q62 0 102 -37t40 -98q0 -59 -40 -96t-102 -37q-64 0 -102.5 37t-38.5 96zM555 1287q0 61 39 98t101 37q64 0 103.5 -37t39.5 -98 q0 -59 -39.5 -96t-103.5 -37q-62 0 -101 37t-39 96z" glyph-name="uni04D3" unicode="ӓ"/>
<glyph d="M790 74q31 15 69 30.5t80 25.5v343h-379l-216 -343q40 -8 77 -22t72 -34v-74h-469v74q31 19 66 33.5t70 22.5l715 1106q-29 9 -58 19.5t-54 26.5v74h1135q-3 -88 -12.5 -180.5t-25.5 -174.5h-82l-89 228h-460v-473h336l86 148h60q5 -48 7.5 -100.5t2.5 -110.5 t-2.5 -111.5t-7.5 -104.5h-60l-86 153h-336v-504h475l104 246h81q7 -38 14 -84t12.5 -95.5t9 -99t3.5 -93.5h-1138v74zM639 599h300v366l9 163h-3l-70 -155z" glyph-name="uni04D4" horiz-adv-x="2048" unicode="Ӕ"/>
<glyph d="M781 869q52 52 121.5 70.5t144.5 18.5q48 0 87 -5t72.5 -16.5t63.5 -29t59 -42.5q25 -22 45.5 -52.5t35.5 -67.5t22.5 -78.5t7.5 -85.5q0 -60 -12 -130h-556q1 -147 77 -236q37 -44 82.5 -66t116.5 -22q64 0 129 18q67 20 103 49l36 -37q-16 -32 -47 -64.5t-77 -58 t-106.5 -41.5t-134.5 -16q-124 0 -226 46.5t-168 153.5q-18 -45 -49 -82t-73 -63t-93 -40.5t-109 -14.5q-62 0 -114.5 18.5t-91.5 52.5t-61 82t-22 108q0 83 33 138.5t101.5 90t175 51.5t253.5 23q2 28 3.5 53t1.5 48q0 16 -0.5 38.5t-4 45.5t-10 44.5t-18.5 37.5 q-31 43 -102 43q-29 0 -55.5 -5.5t-50.5 -13.5l-89 -223h-82q-13 21 -26.5 50t-25.5 61.5t-21.5 66.5t-13.5 66q29 20 77.5 41t105.5 35t114.5 21.5t120.5 7.5q32 0 67 -2.5t68.5 -11.5t63.5 -26.5t51 -48.5zM449 127q40 0 68.5 15.5t47.5 37t29 44.5t13 38v191 q-78 -1 -131.5 -11t-87.5 -31t-49 -54t-15 -80q0 -72 34 -111t91 -39zM1040 851q-33 0 -62.5 -16t-51.5 -52t-35 -94t-13 -141h283q3 21 4 45.5t1 44.5q1 105 -31 159t-95 54z" glyph-name="uni04D5" horiz-adv-x="1479" unicode="ӕ"/>
<glyph d="M1215 1356q-4 -88 -13.5 -180.5t-25.5 -174.5h-80l-88 228h-459v-473h328l85 148h62q5 -48 7.5 -100.5t2.5 -110.5t-2.5 -111.5t-7.5 -104.5h-62l-85 153h-328v-504h474l103 246h79q8 -38 15 -84t12.5 -95.5t8.5 -99t3 -93.5h-1144v74q33 17 73.5 32.5t85.5 23.5v1095 q-39 9 -82.5 23t-76.5 34v74h1115zM716 1445q-90 0 -162.5 16.5t-125 48.5t-80.5 80t-28 111q35 25 92.5 32.5t105.5 9.5l65 -35v-151q28 -13 63.5 -18t70.5 -5q27 0 66.5 4t67.5 13v157l66 35q35 4 91 -6.5t98 -35.5q0 -124 -104.5 -190t-285.5 -66z" glyph-name="uni04D6" horiz-adv-x="1366" unicode="Ӗ"/>
<glyph d="M859 157q-20 -32 -52 -64t-77 -57.5t-104.5 -42t-133.5 -16.5q-113 0 -196.5 35t-139.5 99t-83.5 154.5t-27.5 201.5q0 105 31.5 199.5t88.5 158.5q118 133 324 133q95 0 171.5 -29t127.5 -91q40 -48 61.5 -114.5t21.5 -153.5q0 -62 -16 -119h-524q-1 -36 4 -70t14 -64 t21.5 -54.5t26.5 -42.5q75 -93 213 -93q60 0 115.5 17t100.5 50zM483 851q-38 0 -66 -21t-46 -60.5t-26.5 -95.5t-7.5 -126h263q10 63 9 118q-1 40 -7.5 74t-21 58.5t-38.5 38.5t-59 14zM499 1137q-192 0 -279 69.5t-87 185.5q28 24 80 36.5t108 15.5l66 -24v-173 q48 -21 114 -21q19 0 53 3.5t62 11.5v179l65 24q53 -3 103 -14.5t77 -37.5q0 -116 -87.5 -185.5t-274.5 -69.5z" glyph-name="uni04D7" horiz-adv-x="909" unicode="ӗ"/>
<glyph d="M727 -24q-138 1 -255 41t-202.5 119t-133.5 196.5t-48 274.5q0 26 2.5 59t6.5 66h1001q-8 145 -47 245t-103 161t-148.5 88t-183.5 27q-20 0 -46.5 -2t-53.5 -6t-52 -9t-44 -12l-108 -298h-82q-9 44 -17 95.5t-13.5 101.5t-8 94t-1.5 73q49 22 111.5 39t128.5 28 t131 16.5t121 5.5q165 0 300 -46t230.5 -133.5t148 -213.5t52.5 -286q0 -174 -48.5 -309.5t-138 -228.5t-216.5 -140.5t-283 -45.5zM732 103q91 0 159 38t113.5 105t68.5 159.5t25 200.5h-685q-2 -19 -3 -48t-1 -48q0 -83 17.5 -157t55.5 -129.5t99.5 -88t150.5 -32.5z" glyph-name="uni04D8" horiz-adv-x="1513" unicode="Ә"/>
<glyph d="M407 844q-32 0 -54 -7t-42 -14l-99 -206h-73q-19 58 -31 123t-15 123q68 43 155 69t184 26q85 0 152 -18.5t126 -64.5q82 -64 118 -169.5t36 -235.5q0 -111 -28 -202t-83.5 -155.5t-138 -100t-190.5 -35.5q-83 0 -153 29.5t-120 82.5t-78 125.5t-28 159.5q0 32 1.5 66.5 t8.5 68.5h523q0 69 -8 129.5t-27.5 106.5t-52.5 72.5t-83 26.5zM443 84q48 0 75 30t40 77.5t15 106t1 114.5h-255q-1 -6 -2 -16.5t-1.5 -23t-0.5 -26v-24.5q0 -113 31.5 -175.5t96.5 -62.5z" glyph-name="afii10846" horiz-adv-x="909" unicode="ә"/>
<glyph d="M727 -24q-138 1 -255 41t-202.5 119t-133.5 196.5t-48 274.5q0 26 2.5 59t6.5 66h1001q-8 145 -47 245t-103 161t-148.5 88t-183.5 27q-20 0 -46.5 -2t-53.5 -6t-52 -9t-44 -12l-108 -298h-82q-9 44 -17 95.5t-13.5 101.5t-8 94t-1.5 73q49 22 111.5 39t128.5 28 t131 16.5t121 5.5q165 0 300 -46t230.5 -133.5t148 -213.5t52.5 -286q0 -174 -48.5 -309.5t-138 -228.5t-216.5 -140.5t-283 -45.5zM732 103q91 0 159 38t113.5 105t68.5 159.5t25 200.5h-685q-2 -19 -3 -48t-1 -48q0 -83 17.5 -157t55.5 -129.5t99.5 -88t150.5 -32.5z M281 1596q0 62 44.5 93t112.5 31q67 0 112 -31t45 -93q0 -54 -45 -84.5t-112 -30.5q-68 0 -112.5 30.5t-44.5 84.5zM756 1596q0 62 45.5 93t113.5 31q67 0 111.5 -31t44.5 -93q0 -54 -44.5 -84.5t-111.5 -30.5q-68 0 -113.5 30.5t-45.5 84.5z" glyph-name="uni04DA" horiz-adv-x="1513" unicode="Ӛ"/>
<glyph d="M407 844q-32 0 -54 -7t-42 -14l-99 -206h-73q-19 58 -31 123t-15 123q68 43 155 69t184 26q85 0 152 -18.5t126 -64.5q82 -64 118 -169.5t36 -235.5q0 -111 -28 -202t-83.5 -155.5t-138 -100t-190.5 -35.5q-83 0 -153 29.5t-120 82.5t-78 125.5t-28 159.5q0 32 1.5 66.5 t8.5 68.5h523q0 69 -8 129.5t-27.5 106.5t-52.5 72.5t-83 26.5zM443 84q48 0 75 30t40 77.5t15 106t1 114.5h-255q-1 -6 -2 -16.5t-1.5 -23t-0.5 -26v-24.5q0 -113 31.5 -175.5t96.5 -62.5zM111 1287q0 61 38.5 98t102.5 37q62 0 102 -37t40 -98q0 -59 -40 -96t-102 -37 q-64 0 -102.5 37t-38.5 96zM510 1287q0 61 39 98t101 37q64 0 103.5 -37t39.5 -98q0 -59 -39.5 -96t-103.5 -37q-62 0 -101 37t-39 96z" glyph-name="uni04DB" horiz-adv-x="909" unicode="ӛ"/>
<glyph d="M876 1225q-39 11 -70.5 26t-55.5 31v74h504v-74q-39 -28 -114 -57v-493l131 29l285 464q-39 11 -75 26t-67 31v74h514v-74q-30 -16 -65.5 -31t-73.5 -26l-355 -473q50 -66 106 -145.5t117 -163.5t127 -168.5t136 -161.5l79 -47v-66h-323l-83 66q-60 65 -106.5 134.5 t-86 142t-77 147t-79.5 149.5h-104v-509q33 -10 63.5 -24.5t59.5 -31.5v-74h-522v74q26 17 59.5 31.5t75.5 24.5v526l-111 -28q-41 -79 -79.5 -152.5t-76.5 -142.5q-37 -69 -80 -135t-97 -132l-83 -66h-323v66l79 47q70 77 135.5 160t124.5 164.5t111 157t96 137.5l-353 493 q-39 11 -72 26t-57 31v74h510v-74q-24 -16 -59 -31t-74 -26l285 -475h124v475zM617 1596q0 62 44.5 93t112.5 31q67 0 112 -31t45 -93q0 -54 -45 -84.5t-112 -30.5q-68 0 -112.5 30.5t-44.5 84.5zM1092 1596q0 62 45.5 93t113.5 31q67 0 111.5 -31t44.5 -93 q0 -54 -44.5 -84.5t-111.5 -30.5q-68 0 -113.5 30.5t-45.5 84.5z" glyph-name="uni04DC" horiz-adv-x="2025" unicode="Ӝ"/>
<glyph d="M1043 935h391v-72q-33 -24 -106 -46q-30 -39 -58 -74.5t-55.5 -69.5l-55 -68t-57.5 -70q23 -35 55.5 -83t70.5 -103.5t81 -115t87 -115.5l68 -45v-73h-260l-53 43q-30 40 -62 93.5t-61 107.5t-53 102.5t-38 80.5h-73v-309q59 -15 113 -45v-73h-461v73q26 13 51.5 24.5 t53.5 20.5v320l-83 -19q-12 -24 -32 -69t-46 -98t-58.5 -108.5t-69.5 -100.5l-55 -43h-256v73l79 45q44 52 83 109t73 111t64 102t57 84q-33 36 -62.5 70.5t-57.5 70t-55.5 73t-57.5 79.5q-52 13 -94 46v72h390v-72q-33 -26 -92 -46q24 -45 45.5 -80.5t44 -69t47.5 -69 t58 -78.5h78v297q-31 8 -53 19.5t-42 26.5v72h431v-72q-20 -15 -39.5 -26.5t-53.5 -19.5v-308l86 19q33 44 56.5 78t43.5 66t40.5 66.5t46.5 78.5q-26 10 -48.5 19.5t-45.5 26.5v72zM401 1287q0 61 38.5 98t102.5 37q62 0 102 -37t40 -98q0 -59 -40 -96t-102 -37 q-64 0 -102.5 37t-38.5 96zM800 1287q0 61 39 98t101 37q64 0 103.5 -37t39.5 -98q0 -59 -39.5 -96t-103.5 -37q-62 0 -101 37t-39 96z" glyph-name="uni04DD" horiz-adv-x="1485" unicode="ӝ"/>
<glyph d="M466 -24q-54 0 -113.5 6t-115 16.5t-104 24.5t-81.5 29q2 31 8.5 75.5t16 92.5t21 95.5t24.5 85.5h81l77 -275q34 -15 74.5 -19t82.5 -4q64 0 110.5 18t84.5 55q77 74 77 199q0 138 -68 195q-67 58 -181 58l-150 -26q-9 35 -11 79.5t9 81.5h63q16 -1 36 -0.5t40.5 1.5 t40 3t34.5 4q75 31 114 90t39 150q0 115 -57 178.5t-166 63.5q-46 0 -84 -12.5t-51 -24.5l-95 -246h-82q-7 28 -14.5 66.5t-13.5 82t-10.5 89t-5.5 87.5q36 25 85 41t101 25.5t102.5 13.5t90.5 4q94 0 184 -14t160 -51t113 -101.5t43 -166.5q0 -98 -65 -189 q-65 -90 -197 -131v-7q61 -10 116.5 -35t97.5 -66.5t67 -99t25 -132.5q0 -104 -38.5 -181t-110.5 -128t-174.5 -76t-229.5 -25zM123 1596q0 62 44.5 93t112.5 31q67 0 112 -31t45 -93q0 -54 -45 -84.5t-112 -30.5q-68 0 -112.5 30.5t-44.5 84.5zM598 1596q0 62 45.5 93 t113.5 31q67 0 111.5 -31t44.5 -93q0 -54 -44.5 -84.5t-111.5 -30.5q-68 0 -113.5 30.5t-45.5 84.5z" glyph-name="uni04DE" horiz-adv-x="1081" unicode="Ӟ"/>
<glyph d="M334 99q37 0 68.5 17t53.5 43q20 24 28.5 55.5t8.5 63.5q0 65 -35 103.5t-86 45.5l-152 -29q-10 24 -11 63q-2 42 11 67h171q14 11 25 21.5t20 21.5q6 7 12 21t10.5 31.5t7.5 36.5t3 37q0 72 -30.5 113t-98.5 41q-25 0 -45 -2.5t-40 -8.5l-65 -201h-63q-31 62 -50 126 q-8 29 -14.5 61t-10.5 66q21 10 50 21.5t69.5 21.5t93 16.5t120.5 6.5q185 0 270.5 -60t85.5 -169q0 -49 -16.5 -86.5t-45.5 -65.5t-68 -47.5t-84 -32.5q29 0 72 -12t83 -38.5t68.5 -68t28.5 -100.5q0 -147 -97.5 -224t-307.5 -77q-126 0 -213.5 27t-144.5 65l51 176h55 q13 -11 31 -27.5t37 -37.5q15 -17 29.5 -34.5t29.5 -35.5q20 -7 36.5 -9t48.5 -2zM67 1287q0 61 38.5 98t102.5 37q62 0 102 -37t40 -98q0 -59 -40 -96t-102 -37q-64 0 -102.5 37t-38.5 96zM466 1287q0 61 39 98t101 37q64 0 103.5 -37t39.5 -98q0 -59 -39.5 -96t-103.5 -37 q-62 0 -101 37t-39 96z" glyph-name="uni04DF" horiz-adv-x="823" unicode="ӟ"/>
<glyph d="M560 767q206 0 330 -88q124 -89 129 -267q1 -61 -12 -112.5t-37.5 -93.5t-58.5 -75.5t-74 -58.5q-41 -25 -87 -43t-95 -30t-99 -17.5t-98 -5.5q-55 0 -114.5 6t-116 16.5t-105 24.5t-81.5 29q0 30 6.5 75t17 94.5t23.5 97t25 82.5h79l80 -275q20 -12 65 -17.5t95 -5.5 q70 0 122 24.5t86.5 63.5t51.5 88t17 98q0 80 -22.5 131.5t-60.5 81.5t-89.5 41.5t-108.5 11.5l-127 -27q-11 35 -13.5 74t11.5 81l120 2l242 334l67 70v8l-137 -15h-339l-77 -213h-66q-11 43 -21.5 97.5t-18 110t-12 106t-4.5 85.5h902v-96l-308 -399z" glyph-name="uni04E0" horiz-adv-x="1081" unicode="Ӡ"/>
<glyph d="M500 355q91 0 161 -26t117 -72.5t70.5 -110.5t23.5 -138q0 -100 -33.5 -175.5t-95.5 -126t-149 -76.5t-194 -26q-114 0 -208.5 31.5t-147.5 80.5l50 175h54q29 -25 62.5 -70.5t59.5 -80.5q18 -8 40.5 -11.5t53.5 -3.5q57 0 98.5 20.5t69.5 56.5t42 85t14 105 q0 124 -57 191t-145 72l-122 -25q-9 25 -11.5 65t9.5 66h106l182 318l55 71v7l-101 -10h-252l-74 -190h-62q-12 39 -21 90.5t-18 104.5t-13.5 101t-4.5 82h768v-91l-252 -401z" glyph-name="uni04E1" horiz-adv-x="939" unicode="ӡ"/>
<glyph d="M663 0h-582v74q37 19 77.5 34.5t81.5 21.5v1095q-39 11 -81.5 23t-77.5 34v74h582v-74q-28 -18 -65 -33t-79 -24v-735l-20 -151l95 158l488 682v46q-91 22 -153 57v74h583v-74q-33 -22 -74.5 -34t-84.5 -23v-1095q45 -8 84.5 -22.5t74.5 -33.5v-74h-583v74q27 13 65 29.5 t81 26.5v733l19 154l-87 -154l-496 -691v-42q45 -10 83.5 -25.5t68.5 -30.5v-74zM483 1518v136h627v-136h-627z" glyph-name="uni04E2" horiz-adv-x="1593" unicode="Ӣ"/>
<glyph d="M44 935h493v-72q-20 -12 -48 -23.5t-64 -22.5v-392l-21 -173h10l72 139l302 544h349v-72q-29 -17 -59.5 -28.5t-59.5 -17.5v-699q35 -8 64.5 -19t54.5 -26v-73h-494v73q26 15 55 27t58 18v411l19 148h-10l-70 -140l-297 -537h-354v73q32 15 59.5 25.5t60.5 19.5v699 q-74 12 -120 46v72zM334 1199v135h569v-135h-569z" glyph-name="uni04E3" horiz-adv-x="1180" unicode="ӣ"/>
<glyph d="M663 0h-582v74q37 19 77.5 34.5t81.5 21.5v1095q-39 11 -81.5 23t-77.5 34v74h582v-74q-28 -18 -65 -33t-79 -24v-735l-20 -151l95 158l488 682v46q-91 22 -153 57v74h583v-74q-33 -22 -74.5 -34t-84.5 -23v-1095q45 -8 84.5 -22.5t74.5 -33.5v-74h-583v74q27 13 65 29.5 t81 26.5v733l19 154l-87 -154l-496 -691v-42q45 -10 83.5 -25.5t68.5 -30.5v-74zM401 1596q0 62 44.5 93t112.5 31q67 0 112 -31t45 -93q0 -54 -45 -84.5t-112 -30.5q-68 0 -112.5 30.5t-44.5 84.5zM876 1596q0 62 45.5 93t113.5 31q67 0 111.5 -31t44.5 -93 q0 -54 -44.5 -84.5t-111.5 -30.5q-68 0 -113.5 30.5t-45.5 84.5z" glyph-name="uni04E4" horiz-adv-x="1593" unicode="Ӥ"/>
<glyph d="M44 935h493v-72q-20 -12 -48 -23.5t-64 -22.5v-392l-21 -173h10l72 139l302 544h349v-72q-29 -17 -59.5 -28.5t-59.5 -17.5v-699q35 -8 64.5 -19t54.5 -26v-73h-494v73q26 15 55 27t58 18v411l19 148h-10l-70 -140l-297 -537h-354v73q32 15 59.5 25.5t60.5 19.5v699 q-74 12 -120 46v72zM249 1287q0 61 38.5 98t102.5 37q62 0 102 -37t40 -98q0 -59 -40 -96t-102 -37q-64 0 -102.5 37t-38.5 96zM648 1287q0 61 39 98t101 37q64 0 103.5 -37t39.5 -98q0 -59 -39.5 -96t-103.5 -37q-62 0 -101 37t-39 96z" glyph-name="uni04E5" horiz-adv-x="1180" unicode="ӥ"/>
<glyph d="M88 678q0 151 49.5 279.5t141.5 222.5t223.5 146.5t295.5 52.5t295 -52.5t222.5 -146.5t140.5 -222.5t49 -279.5q0 -152 -49 -280.5t-140.5 -222.5t-222.5 -146.5t-295 -52.5t-295 52.5t-223.5 146.5t-142 222.5t-49.5 280.5zM417 678q0 -125 26.5 -230t77 -182t125 -120 t170.5 -43q88 0 155 43t112.5 120t69 182t23.5 230q0 124 -24.5 229.5t-74 182t-123 120t-171.5 43.5q-95 0 -164 -43.5t-114 -120t-66.5 -182t-21.5 -229.5zM413 1596q0 62 44.5 93t112.5 31q67 0 112 -31t45 -93q0 -54 -45 -84.5t-112 -30.5q-68 0 -112.5 30.5t-44.5 84.5 zM888 1596q0 62 45.5 93t113.5 31q67 0 111.5 -31t44.5 -93q0 -54 -44.5 -84.5t-111.5 -30.5q-68 0 -113.5 30.5t-45.5 84.5z" glyph-name="uni04E6" horiz-adv-x="1593" unicode="Ӧ"/>
<glyph d="M48 468q0 111 31 201t90.5 154.5t146 99.5t196.5 35q127 0 215 -39.5t143.5 -106.5t80.5 -156t25 -188q0 -107 -32 -197t-92 -155.5t-146 -102t-194 -36.5q-119 0 -206.5 38t-144.5 104t-85 155.5t-28 193.5zM339 468q0 -78 6 -146.5t26.5 -119.5t59.5 -80.5t104 -29.5 q70 0 110.5 90t40.5 286q0 78 -7.5 146.5t-28 119.5t-57.5 80.5t-96 29.5q-84 0 -121 -90.5t-37 -285.5zM171 1287q0 61 38.5 98t102.5 37q62 0 102 -37t40 -98q0 -59 -40 -96t-102 -37q-64 0 -102.5 37t-38.5 96zM570 1287q0 61 39 98t101 37q64 0 103.5 -37t39.5 -98 q0 -59 -39.5 -96t-103.5 -37q-62 0 -101 37t-39 96z" glyph-name="uni04E7" unicode="ӧ"/>
<glyph d="M88 678q0 151 49.5 279.5t141.5 222.5t223.5 146.5t295.5 52.5t295 -52.5t222.5 -146.5t140.5 -222.5t49 -279.5q0 -152 -49 -280.5t-140.5 -222.5t-222.5 -146.5t-295 -52.5t-295 52.5t-223.5 146.5t-142 222.5t-49.5 280.5zM816 103q82 0 146 38t109 105.5t71 161.5 t32 206h-755q6 -112 35.5 -206t80 -161.5t121 -105.5t160.5 -38zM783 1253q-86 0 -151 -36t-110 -101t-70 -155t-32 -198h753q-8 108 -36.5 198t-77 155t-118 101t-158.5 36z" glyph-name="uni04E8" horiz-adv-x="1593" unicode="Ө"/>
<glyph d="M44 468q0 111 32 201t92 154.5t147 99.5t197 35q127 0 216 -39.5t145 -106.5t81.5 -156t25.5 -188q0 -107 -32.5 -197t-93.5 -155.5t-147.5 -102t-194.5 -36.5q-119 0 -207 38t-146 104t-86.5 155.5t-28.5 193.5zM535 92q64 0 105 75t48 237h-352q2 -66 11.5 -123 t31.5 -99t59.5 -66t96.5 -24zM497 844q-76 0 -115 -74.5t-46 -234.5h352q-3 66 -13.5 122.5t-32.5 98t-57.5 65t-87.5 23.5z" glyph-name="uni04E9" unicode="ө"/>
<glyph d="M88 678q0 151 49.5 279.5t141.5 222.5t223.5 146.5t295.5 52.5t295 -52.5t222.5 -146.5t140.5 -222.5t49 -279.5q0 -152 -49 -280.5t-140.5 -222.5t-222.5 -146.5t-295 -52.5t-295 52.5t-223.5 146.5t-142 222.5t-49.5 280.5zM816 103q82 0 146 38t109 105.5t71 161.5 t32 206h-755q6 -112 35.5 -206t80 -161.5t121 -105.5t160.5 -38zM783 1253q-86 0 -151 -36t-110 -101t-70 -155t-32 -198h753q-8 108 -36.5 198t-77 155t-118 101t-158.5 36zM401 1596q0 62 44.5 93t112.5 31q67 0 112 -31t45 -93q0 -54 -45 -84.5t-112 -30.5 q-68 0 -112.5 30.5t-44.5 84.5zM876 1596q0 62 45.5 93t113.5 31q67 0 111.5 -31t44.5 -93q0 -54 -44.5 -84.5t-111.5 -30.5q-68 0 -113.5 30.5t-45.5 84.5z" glyph-name="uni04EA" horiz-adv-x="1593" unicode="Ӫ"/>
<glyph d="M44 468q0 111 32 201t92 154.5t147 99.5t197 35q127 0 216 -39.5t145 -106.5t81.5 -156t25.5 -188q0 -107 -32.5 -197t-93.5 -155.5t-147.5 -102t-194.5 -36.5q-119 0 -207 38t-146 104t-86.5 155.5t-28.5 193.5zM535 92q64 0 105 75t48 237h-352q2 -66 11.5 -123 t31.5 -99t59.5 -66t96.5 -24zM497 844q-76 0 -115 -74.5t-46 -234.5h352q-3 66 -13.5 122.5t-32.5 98t-57.5 65t-87.5 23.5zM171 1287q0 61 38.5 98t102.5 37q62 0 102 -37t40 -98q0 -59 -40 -96t-102 -37q-64 0 -102.5 37t-38.5 96zM570 1287q0 61 39 98t101 37 q64 0 103.5 -37t39.5 -98q0 -59 -39.5 -96t-103.5 -37q-62 0 -101 37t-39 96z" glyph-name="uni04EB" unicode="ӫ"/>
<glyph d="M397 587q-5 20 -8.5 43.5t-4.5 51.5q-2 59 13 104l571 -8q-5 117 -45 206t-104.5 149t-147.5 90t-173 30q-26 0 -52.5 -4t-50.5 -9.5t-43 -12t-29 -11.5l-101 -251h-79q-5 21 -11 61t-11 87.5t-7 95.5t0 86q34 19 85.5 34.5t107.5 26.5t111.5 17t97.5 6q167 0 309 -43 t245.5 -129.5t162 -215t58.5 -299.5q0 -131 -32 -235t-88 -183.5t-131 -136t-161.5 -92.5t-179.5 -52.5t-185 -16.5q-60 0 -120 6t-115.5 16t-103 24t-81.5 30q0 32 3.5 79t9.5 98.5t13.5 103t14.5 92.5h81l105 -303q15 -4 35.5 -7.5t43 -6t45.5 -4t43 -1.5q53 0 109 13 t109 41t100.5 71.5t83 104t56.5 138.5t22 176zM147 1596q0 62 44.5 93t112.5 31q67 0 112 -31t45 -93q0 -54 -45 -84.5t-112 -30.5q-68 0 -112.5 30.5t-44.5 84.5zM622 1596q0 62 45.5 93t113.5 31q67 0 111.5 -31t44.5 -93q0 -54 -44.5 -84.5t-111.5 -30.5 q-68 0 -113.5 30.5t-45.5 84.5z" glyph-name="uni04EC" horiz-adv-x="1389" unicode="Ӭ"/>
<glyph d="M362 -23q-54 0 -102 9t-90 23.5t-77.5 33.5t-62.5 39l51 176h54q14 -13 32 -32t35 -42q9 -11 15 -18.5t11.5 -15t11.5 -16.5t15 -22q12 -5 35.5 -9t50.5 -4q54 0 91.5 22.5t66.5 60.5q32 42 45 106t14 139l-324 -38q-6 12 -9.5 32t-3.5 41.5t3 42t10 32.5h322 q-1 160 -50 237t-147 77q-26 0 -45.5 -2.5t-35.5 -6.5l-91 -219h-63q-11 24 -22.5 56.5t-21 68t-16 70t-9.5 63.5q21 11 54.5 24.5t76.5 25t92 19.5t102 8q91 0 176 -24t148 -80t100 -146.5t37 -221.5q0 -101 -23 -184t-67 -142q-38 -51 -83 -85.5t-95 -56.5t-103.5 -31.5 t-107.5 -9.5zM50 1287q0 61 38.5 98t102.5 37q62 0 102 -37t40 -98q0 -59 -40 -96t-102 -37q-64 0 -102.5 37t-38.5 96zM449 1287q0 61 39 98t101 37q64 0 103.5 -37t39.5 -98q0 -59 -39.5 -96t-103.5 -37q-62 0 -101 37t-39 96z" glyph-name="uni04ED" horiz-adv-x="885" unicode="ӭ"/>
<glyph d="M1165 1225q-46 11 -81 25t-68 32v74h469v-74q-22 -16 -57.5 -30t-80.5 -27l-463 -835q-13 -24 -29 -53t-34.5 -60t-38.5 -62t-41 -58q-27 -35 -58 -64.5t-68 -52t-80.5 -35.5t-94.5 -14q-14 16 -31.5 47.5t-32.5 67.5t-26 70.5t-13 56.5l54 77l225 -81q36 15 58.5 44 t36.5 64l-519 888q-37 11 -70.5 25t-63.5 32v74h604v-74q-57 -35 -147 -57l275 -516l49 -108h4l51 107zM535 1518v136h627v-136h-627z" glyph-name="uni04EE" horiz-adv-x="1503" unicode="Ӯ"/>
<glyph d="M114 817q-28 8 -51 19.5t-48 26.5v72h493v-70q-41 -27 -108 -48l162 -429l33 -110h3l27 112l137 427q-55 12 -101 46v72h355v-72q-20 -14 -44 -25t-58 -21l-293 -817q-46 -120 -90.5 -196t-88 -120t-88 -62.5t-90.5 -23.5q-13 13 -28 37.5t-27.5 54.5t-21.5 61.5 t-11 57.5l26 45h224q8 13 15 27t13 29q7 15 16 39t17 54zM263 1199v135h569v-135h-569z" glyph-name="uni04EF" unicode="ӯ"/>
<glyph d="M1165 1225q-46 11 -81 25t-68 32v74h469v-74q-22 -16 -57.5 -30t-80.5 -27l-463 -835q-13 -24 -29 -53t-34.5 -60t-38.5 -62t-41 -58q-27 -35 -58 -64.5t-68 -52t-80.5 -35.5t-94.5 -14q-14 16 -31.5 47.5t-32.5 67.5t-26 70.5t-13 56.5l54 77l225 -81q36 15 58.5 44 t36.5 64l-519 888q-37 11 -70.5 25t-63.5 32v74h604v-74q-57 -35 -147 -57l275 -516l49 -108h4l51 107zM439 1596q0 62 44.5 93t112.5 31q67 0 112 -31t45 -93q0 -54 -45 -84.5t-112 -30.5q-68 0 -112.5 30.5t-44.5 84.5zM914 1596q0 62 45.5 93t113.5 31q67 0 111.5 -31 t44.5 -93q0 -54 -44.5 -84.5t-111.5 -30.5q-68 0 -113.5 30.5t-45.5 84.5z" glyph-name="uni04F0" horiz-adv-x="1503" unicode="Ӱ"/>
<glyph d="M114 817q-28 8 -51 19.5t-48 26.5v72h493v-70q-41 -27 -108 -48l162 -429l33 -110h3l27 112l137 427q-55 12 -101 46v72h355v-72q-20 -14 -44 -25t-58 -21l-293 -817q-46 -120 -90.5 -196t-88 -120t-88 -62.5t-90.5 -23.5q-13 13 -28 37.5t-27.5 54.5t-21.5 61.5 t-11 57.5l26 45h224q8 13 15 27t13 29q7 15 16 39t17 54zM220 1287q0 61 38.5 98t102.5 37q62 0 102 -37t40 -98q0 -59 -40 -96t-102 -37q-64 0 -102.5 37t-38.5 96zM619 1287q0 61 39 98t101 37q64 0 103.5 -37t39.5 -98q0 -59 -39.5 -96t-103.5 -37q-62 0 -101 37t-39 96z " glyph-name="uni04F1" unicode="ӱ"/>
<glyph d="M1165 1225q-46 11 -81 25t-68 32v74h469v-74q-22 -16 -57.5 -30t-80.5 -27l-463 -835q-13 -24 -29 -53t-34.5 -60t-38.5 -62t-41 -58q-27 -35 -58 -64.5t-68 -52t-80.5 -35.5t-94.5 -14q-14 16 -31.5 47.5t-32.5 67.5t-26 70.5t-13 56.5l54 77l225 -81q36 15 58.5 44 t36.5 64l-519 888q-37 11 -70.5 25t-63.5 32v74h604v-74q-57 -35 -147 -57l275 -516l49 -108h4l51 107zM696 1730q12 2 41.5 -3t63 -13t60 -18t32.5 -21v-26l-261 -188l-72 44zM1076 1730q13 2 42.5 -3t64 -13.5t62.5 -20.5t38 -23l-2 -19l-353 -194l-76 44z" glyph-name="uni04F2" horiz-adv-x="1503" unicode="Ӳ"/>
<glyph d="M114 817q-28 8 -51 19.5t-48 26.5v72h493v-70q-41 -27 -108 -48l162 -429l33 -110h3l27 112l137 427q-55 12 -101 46v72h355v-72q-20 -14 -44 -25t-58 -21l-293 -817q-46 -120 -90.5 -196t-88 -120t-88 -62.5t-90.5 -23.5q-13 13 -28 37.5t-27.5 54.5t-21.5 61.5 t-11 57.5l26 45h224q8 13 15 27t13 29q7 15 16 39t17 54zM407 1477q11 4 44 2t69 -7.5t66 -14.5t35 -20v-47l-266 -292l-80 39zM787 1477q13 4 44 2t66 -10t65 -19t42 -26v-44l-403 -282l-72 42z" glyph-name="uni04F3" unicode="ӳ"/>
<glyph d="M1413 0h-597v74q45 21 89.5 36.5t89.5 19.5v457q-27 -15 -66.5 -31t-87 -28.5t-101 -20.5t-107.5 -8q-78 0 -155.5 18t-139 60.5t-100 114t-38.5 179.5v354q-37 7 -74 22t-66 35v74h548v-74q-22 -16 -51.5 -31t-66.5 -26v-304q0 -66 15 -119t47.5 -90t84.5 -57t126 -20 q28 0 58.5 6t61 15.5t59.5 21.5t53 25v522q-33 11 -64 25t-56 32v74h538v-74q-25 -18 -58 -32t-70 -25v-1095q39 -8 71.5 -24.5t56.5 -31.5v-74zM370 1596q0 62 44.5 93t112.5 31q67 0 112 -31t45 -93q0 -54 -45 -84.5t-112 -30.5q-68 0 -112.5 30.5t-44.5 84.5zM845 1596 q0 62 45.5 93t113.5 31q67 0 111.5 -31t44.5 -93q0 -54 -44.5 -84.5t-111.5 -30.5q-68 0 -113.5 30.5t-45.5 84.5z" glyph-name="uni04F4" horiz-adv-x="1503" unicode="Ӵ"/>
<glyph d="M37 935h491v-72q-38 -31 -98 -46v-206q0 -80 27 -125.5t94 -45.5q49 0 90 14.5t74 36.5v326q-31 6 -53 17.5t-47 28.5v72h492v-72q-51 -32 -123 -46v-699q37 -9 67 -19.5t56 -25.5v-73h-542v73q77 32 150 45v293q-46 -50 -118.5 -81t-157.5 -31q-130 0 -204 71t-74 192 v255q-72 14 -124 46v72zM252 1287q0 61 38.5 98t102.5 37q62 0 102 -37t40 -98q0 -59 -40 -96t-102 -37q-64 0 -102.5 37t-38.5 96zM651 1287q0 61 39 98t101 37q64 0 103.5 -37t39.5 -98q0 -59 -39.5 -96t-103.5 -37q-62 0 -101 37t-39 96z" glyph-name="uni04F5" horiz-adv-x="1155" unicode="ӵ"/>
<glyph d="M100 74q43 21 82 35t76 21v1095q-38 9 -80 22t-78 35v74h1123q0 -95 -9 -202t-26 -205h-80l-130 280h-429v-1101q13 -2 27.5 -2h30.5h155q-2 -50 -6 -109.5t-11 -119.5t-15.5 -115.5t-19.5 -97.5h-76l-104 316h-430v74z" glyph-name="uni04F6" horiz-adv-x="1303" unicode="Ӷ"/>
<glyph d="M876 935q-2 -35 -7 -82t-12 -97t-15.5 -98.5t-17.5 -86.5h-76l-84 258h-227v-722h208q-2 -46 -6 -94t-11 -99q-6 -52 -11 -99t-9 -92h-74l-101 277h-389v73q32 19 62 28t62 17v701q-67 12 -124 44v72h832z" glyph-name="uni04F7" horiz-adv-x="930" unicode="ӷ"/>
<glyph d="M1931 0h-588v74q32 17 68 31.5t74 24.5v1095q-37 9 -76.5 22t-74.5 35v74h597v-74q-66 -42 -155 -57v-1095q48 -8 86.5 -24.5t68.5 -31.5v-74zM80 0v74q35 19 76.5 34.5t81.5 21.5v1095q-38 9 -80.5 22t-77.5 35v74h628v-74q-34 -20 -82.5 -34t-96.5 -23v-414 q45 6 90.5 10t107.5 4q69 0 137.5 -7.5t130.5 -25t116 -47t93 -74t61.5 -105t22.5 -140.5q0 -110 -40.5 -191.5t-114.5 -135t-179.5 -79.5t-234.5 -26q-7 0 -29.5 0.5t-53.5 1t-67.5 1.5t-72.5 1.5t-67.5 1t-51.5 0.5h-297zM668 699q-35 0 -68.5 -3t-70.5 -9v-559 q22 -2 41 -3t36.5 -2.5t35.5 -2t40 -0.5q78 0 132.5 21.5t89 61.5t50 96.5t15.5 126.5q0 72 -22.5 123.5t-63 84.5t-95.5 49t-120 16zM610 1596q0 62 44.5 93t112.5 31q67 0 112 -31t45 -93q0 -54 -45 -84.5t-112 -30.5q-68 0 -112.5 30.5t-44.5 84.5zM1085 1596 q0 62 45.5 93t113.5 31q67 0 111.5 -31t44.5 -93q0 -54 -44.5 -84.5t-111.5 -30.5q-68 0 -113.5 30.5t-45.5 84.5z" glyph-name="uni04F8" horiz-adv-x="2011" unicode="Ӹ"/>
<glyph d="M442 562q32 5 83 11t126 6q73 0 144 -17t117 -52t74.5 -88.5t28.5 -123.5q0 -75 -33 -132t-89.5 -95.5t-132.5 -58.5t-162 -20q-25 0 -73 1t-103 2.5t-108.5 3t-89.5 1.5h-174v73q30 17 60.5 26.5t62.5 18.5v699q-35 6 -65 18.5t-58 27.5v72h504v-72q-22 -14 -50 -25 t-62 -21v-255zM442 107q19 -4 41.5 -6t51.5 -2q37 0 71 11t60 34.5t41 61.5t15 92q0 51 -16 85.5t-38 51.5q-11 9 -26.5 15.5t-33 11t-35 7t-32.5 2.5q-22 0 -49 -1.5t-50 -7.5v-355zM1549 0h-496v73q23 13 47.5 24.5t55.5 20.5v699q-70 13 -112 46v72h505v-72 q-22 -15 -54 -25.5t-70 -20.5v-699q32 -9 62 -19.5t62 -25.5v-73zM458 1287q0 61 38.5 98t102.5 37q62 0 102 -37t40 -98q0 -59 -40 -96t-102 -37q-64 0 -102.5 37t-38.5 96zM857 1287q0 61 39 98t101 37q64 0 103.5 -37t39.5 -98q0 -59 -39.5 -96t-103.5 -37q-62 0 -101 37 t-39 96z" glyph-name="uni04F9" horiz-adv-x="1599" unicode="ӹ"/>
<glyph d="M867 746q61 -84 110.5 -147.5t89 -114.5t72 -93t60.5 -84q12 -17 39.5 -54.5t56 -85t50.5 -100.5t22 -102q0 -103 -40.5 -174t-108 -115.5t-156 -64t-184.5 -19.5l-13 86q51 14 90.5 33.5t66.5 47.5t40.5 65t13.5 87q0 44 -29 103.5t-90 148.5q-50 73 -119 166t-165 221 l-299 -422q40 -6 80 -19.5t72 -34.5v-74h-484v74q33 21 69 33.5t71 22.5l402 528l-397 567q-36 11 -69 26t-65 31v74h614v-74q-23 -14 -58 -28t-81 -29l250 -374l258 374q-19 4 -40 11t-41.5 14.5t-40 15.5t-34.5 16v74h480v-74q-29 -16 -66 -31t-76 -26z" glyph-name="uni04FC" horiz-adv-x="1479" unicode="Ӽ"/>
<glyph d="M699 -73q0 51 -22.5 106t-54.5 109q-22 36 -45 70t-44.5 64t-40.5 55.5t-32 43.5l-175 -257q27 -9 46.5 -20.5t38.5 -24.5v-73h-355v73q27 15 48.5 26t49.5 19l279 346l-276 353q-22 7 -46 21t-38 25v72h469v-70q-13 -10 -37 -25t-47 -23l159 -232l155 232 q-32 10 -50.5 21t-33.5 25v72h346v-72q-19 -14 -41.5 -25t-56.5 -21l-257 -316q48 -57 97.5 -120t98.5 -131q27 -37 51 -76t43 -79.5t30 -81.5t11 -83q0 -85 -24.5 -146.5t-77 -101.5t-134 -59t-195.5 -19l-9 85q52 14 84 35.5t50 52.5q36 61 36 150z" glyph-name="uni04FD" unicode="ӽ"/>
<glyph d="M618 -24q-127 0 -228.5 25t-172.5 75t-109 124t-38 172q0 76 24.5 136t67 103.5t98.5 70.5t119 37v7q-68 16 -118.5 47t-85 72t-51.5 89t-17 97q0 102 43.5 169.5t114 107t160.5 55.5t183 16q41 0 89.5 -4t98 -14t96 -26t84.5 -40q0 -43 -4.5 -89t-11 -89.5t-14 -82 t-14.5 -66.5h-82l-95 251q-23 14 -55 24t-69 10q-109 0 -163.5 -64.5t-54.5 -179.5q0 -88 41.5 -147.5t116.5 -90.5q16 -2 35.5 -4t40 -3t40 -1.5t36.5 0.5h61q12 -37 10.5 -81.5t-12.5 -79.5l-148 26q-59 0 -106 -15t-80 -47.5t-51 -82.5t-18 -119q0 -127 69.5 -194 t198.5 -67q38 0 77 8.5t76 23.5l78 275h81q11 -38 23 -86t22.5 -96t17.5 -91.5t7 -74.5q-33 -16 -81.5 -31.5t-103.5 -27.5t-113.5 -19.5t-112.5 -7.5z" glyph-name="uni0510" horiz-adv-x="1081" unicode="Ԑ"/>
<glyph d="M508 127q53 0 91.5 5.5t67.5 15t50.5 22t40.5 25.5l30 -39q-45 -84 -135 -131.5t-221 -47.5q-72 0 -143.5 15t-127.5 53q-55 39 -84 95t-29 122q0 49 18 89t48.5 69.5t70 48.5t82.5 27q-32 7 -66 23.5t-62 44t-46 67t-18 92.5q0 35 11 64.5t29.5 53.5t43.5 42.5t52 31.5 q57 27 120.5 35t128.5 8q62 0 110 -7t85.5 -18.5t65.5 -25.5t50 -27q-6 -60 -24 -122t-41 -119h-84l-64 199q-9 4 -23 8.5t-40 4.5q-78 0 -114.5 -41t-36.5 -123q0 -66 20 -110.5t46 -62.5l172 25q13 -27 12 -66q-2 -40 -12 -62l-157 2q-42 -14 -69 -45t-27 -90 q0 -35 14 -63t38.5 -47.5t57 -30t69.5 -10.5z" glyph-name="uni0511" horiz-adv-x="823" unicode="ԑ"/>
<glyph d="M997 1229h-365q-6 -294 -27 -490.5t-52.5 -324t-69 -202.5t-78.5 -129q-37 -50 -93 -78.5t-108 -28.5q-26 11 -49 40.5t-42.5 68.5t-32 81.5t-14.5 79.5l52 74l231 -56q25 54 49.5 130.5t44 188.5t30.5 265t11 359q-59 9 -112.5 30.5t-92.5 44.5v74h1167v-74 q-29 -18 -71 -33t-88 -24v-1223q0 -132 -30 -213t-90.5 -124.5t-150 -58t-209.5 -14.5l-12 86q54 12 92 31.5t62 55t36 92t12 143.5v1229z" glyph-name="uni0512" horiz-adv-x="1526" unicode="Ԓ"/>
<glyph d="M708 829h-240q-2 -99 -11.5 -207t-29 -210.5t-50 -193.5t-77.5 -154q-37 -53 -82 -75.5t-81 -14.5q-24 13 -44.5 41.5t-35.5 61t-24 64t-12 53.5l44 65l175 -48q25 44 41.5 107.5t28 139t17.5 162.5t6 178q-37 12 -71 29t-61 36v72h900v-72q-60 -34 -123 -46v-817 q0 -116 -27 -193t-81 -121.5t-135 -63t-193 -18.5l-10 85q51 13 85.5 33.5t54.5 57t28 90.5t8 130v829z" glyph-name="uni0513" horiz-adv-x="1149" unicode="ԓ"/>
<glyph d="M1699 1225q-77 13 -163 57v74h489v-74q-33 -22 -70 -35t-72 -22l-342 -1225l-202 -24l-301 938l-292 -914l-203 -24l-377 1249q-42 9 -76.5 23t-65.5 34v74h628v-74q-33 -18 -75 -32t-86 -25l180 -683l40 -252h4l68 262l257 804h115l275 -794l65 -252h5l44 255z" glyph-name="uni051C" horiz-adv-x="2048" unicode="Ԝ"/>
<glyph d="M384 -23l-282 840q-27 10 -52 20.5t-46 25.5v72h472v-70q-26 -16 -52 -28t-54 -20l120 -423l24 -125h3l34 130l190 525l91 11l184 -537l40 -129h4l28 127l120 421q-19 4 -46.5 15.5t-55.5 30.5v72h351v-72q-20 -14 -41.5 -25t-55.5 -21l-247 -817l-177 -23l-144 433 l-36 145h-6l-45 -145l-147 -410z" glyph-name="uni051D" horiz-adv-x="1479" unicode="ԝ"/>
<glyph d="M924 74q20 15 51 29.5t81 26.5v1099h-537v-1099q39 -10 70 -23.5t61 -32.5v-74h-580v74q29 15 68 31.5t91 24.5v1095q-39 9 -80.5 22t-78.5 35v74h1435v-74q-36 -23 -77 -35.5t-82 -21.5v-1099h223q-2 -50 -6.5 -109.5t-11 -119.5t-15 -115t-19.5 -98h-76l-105 316h-412 v74z" glyph-name="uni0524" horiz-adv-x="1593" unicode="Ԥ"/>
<glyph d="M634 73q18 13 40 24.5t62 20.5v711h-305v-711q38 -11 60.5 -22.5t43.5 -22.5v-73h-491v73q36 20 63.5 30.5t55.5 14.5v699q-39 10 -68.5 21t-50.5 25v72h1080v-72q-25 -15 -50.5 -27.5t-67.5 -18.5v-710h167q-2 -45 -5.5 -94.5t-8.5 -99t-11 -98t-12 -92.5h-73l-101 277 h-328v73z" glyph-name="uni0525" horiz-adv-x="1180" unicode="ԥ"/>
<glyph d="M832 74q21 15 51 30.5t67 25.5v312q0 66 -12 116t-38 85q-29 38 -74 57t-111 19q-63 0 -122 -19.5t-105 -47.5v-522q31 -10 62 -25.5t58 -30.5v-74h-538v74q25 15 58 30.5t69 25.5v1095q-38 9 -71 25t-56 32v74h596v-74q-45 -22 -89 -37.5t-89 -19.5v-456q84 47 179.5 66 t195.5 19q83 0 154.5 -18t123.5 -66q46 -42 72.5 -109t26.5 -169v-366h223q-3 -50 -7 -109.5t-10 -119.5t-14.5 -115.5t-21.5 -97.5h-74l-105 316h-399v74z" glyph-name="uni0526" horiz-adv-x="1503" unicode="Ԧ"/>
<glyph d="M613 73q24 13 48 24.5t56 20.5v418v71t-1.5 56t-5.5 44.5t-11 37.5q-17 39 -42.5 51.5t-55.5 12.5q-31 0 -58 -17.5t-49 -42t-38 -52.5t-25 -49v-530q30 -8 54 -17t50 -28v-73h-491v73q29 15 57 26t61 19v1104l-137 15v73q28 12 71 23t91 19.5t95.5 15t85.5 9.5h63v-616 h2q9 27 31 61t55 64t77 51t98 21q72 0 127 -18t91.5 -63t55 -121t18.5 -192v-457h143q-2 -46 -6 -94t-10 -99l-21 -191h-73l-101 277h-305v73z" glyph-name="uni0527" horiz-adv-x="1139" unicode="ԧ"/>
<glyph d="M549 -194h-481v58q6 4 23 13.5t37 20t39.5 19.5t31.5 12v426l7 87q-30 -7 -59 -11t-62 -4q-10 0 -16.5 0.5t-13.5 1.5v77q72 12 143.5 46t140.5 80h77v-703q33 -10 64.5 -26t68.5 -39v-58z" glyph-name="uni2081" horiz-adv-x="614" unicode="₁"/>
<glyph d="M126 268h-52q-10 27 -21.5 66.5t-21.5 80.5t-17.5 76.5t-8.5 55.5q31 18 64 33.5t70.5 27t81 18.5t97.5 7q52 0 100 -11.5t85.5 -38t60 -69.5t22.5 -106q0 -65 -28 -126t-78.5 -118t-121 -108t-154.5 -95v-11l59 13h167l85 130h61q4 -32 7 -74t5.5 -83t3 -76t0.5 -53 h-577v98q77 48 140.5 103.5t109.5 115t71 121t25 121.5q0 58 -26 90t-75 32q-25 0 -44 -4.5t-33 -12.5z" glyph-name="uni2082" horiz-adv-x="614" unicode="₂"/>
<glyph d="M261 -96q24 0 46 9.5t38 27.5t25.5 43t9.5 57q0 30 -7 54t-23.5 40.5t-44 25.5t-69.5 9h-46v67l142 167l82 81v4l-120 -8h-88l-67 -161h-60q-8 31 -15 73t-13.5 85t-11 80t-5.5 57h547v-88l-171 -194l-67 -61v-2h19q46 0 89 -13t76.5 -40t54 -68t20.5 -97 q0 -44 -14.5 -91t-51.5 -85.5t-100 -63t-160 -24.5q-40 0 -80 7.5t-75.5 19t-63.5 25.5t-44 27l47 205h52q8 -11 19 -30t22.5 -41.5t22.5 -45.5t20 -42q12 -4 26.5 -6.5t38.5 -2.5z" glyph-name="uni2083" horiz-adv-x="614" unicode="₃"/>
<glyph d="M752 -194h-472v59q12 7 29.5 15.5t37 16.5t38.5 14.5t36 9.5v105h-407v70l490 538h135v-492h134v-116h-134v-105q19 -6 49.5 -19.5t63.5 -36.5v-59zM421 330l16 95h-6l-57 -85l-139 -157l-70 -55l104 14h152v188z" glyph-name="uni2084" horiz-adv-x="800" unicode="₄"/>
<glyph d="M613 73q24 13 48 24.5t56 20.5v418v71t-1.5 56t-5.5 44.5t-11 37.5q-17 39 -42.5 51.5t-55.5 12.5q-31 0 -58 -17.5t-49 -42t-38 -52.5t-25 -49v-530q30 -8 54 -17t50 -28v-73h-491v73q29 15 57 26t61 19v1104l-137 15v73q28 12 71 23t91 19.5t95.5 15t85.5 9.5h63v-616 h2q9 27 31 61t55 64t77 51t98 21q72 0 127 -18t91.5 -63t55 -121t18.5 -192v-457h143q-2 -46 -6 -94t-10 -99l-21 -191h-73l-101 277h-305v73z" glyph-name="uni2C68" horiz-adv-x="1139" unicode="ⱨ"/>
<glyph d="M195 1449l-54 54l246 227q19 10 59.5 10t60.5 -10l242 -221l-54 -58l-256 108z" glyph-name="uniF408" horiz-adv-x="1040" unicode=""/>
<glyph d="M810 1592q-62 -61 -116 -93.5t-124 -32.5q-36 0 -68.5 11t-63.5 22.5t-60 22t-60 10.5q-26 0 -58.5 -10.5t-63.5 -37.5l-54 91q148 131 261 131q35 0 67.5 -9.5t61 -21t58 -21t59.5 -9.5q26 0 57 8.5t61 29.5z" glyph-name="uniF40D" horiz-adv-x="1057" unicode=""/>
<glyph d="M391 1749q31 2 70.5 -3.5t77.5 -16.5t68 -24.5t42 -27.5v-39l-479 -185l-54 46z" glyph-name="uniF6C9" horiz-adv-x="831" unicode=""/>
<glyph d="M146 1596q0 62 44.5 93t112.5 31q67 0 112 -31t45 -93q0 -54 -45 -84.5t-112 -30.5q-68 0 -112.5 30.5t-44.5 84.5zM621 1596q0 62 45.5 93t113.5 31q67 0 111.5 -31t44.5 -93q0 -54 -44.5 -84.5t-111.5 -30.5q-68 0 -113.5 30.5t-45.5 84.5z" glyph-name="uniF6CB" horiz-adv-x="1059" unicode=""/>
<glyph d="M639 1490l-66 -37l-457 185v39q6 18 42 32t81.5 25t89 16t64.5 -1z" glyph-name="uniF6CE" horiz-adv-x="831" unicode=""/>
<glyph d="M272 1730q12 2 41.5 -3t63 -13t60 -18t32.5 -21v-26l-261 -188l-72 44zM652 1730q13 2 42.5 -3t64 -13.5t62.5 -20.5t38 -23l-2 -19l-353 -194l-76 44z" glyph-name="uniF6CF" horiz-adv-x="1128" unicode=""/>
<glyph d="M141 1518v136h627v-136h-627z" glyph-name="uniF6D0" horiz-adv-x="1010" unicode=""/>
<glyph d="M542 1445q-90 0 -162.5 16.5t-125 48.5t-80.5 80t-28 111q35 25 92.5 32.5t105.5 9.5l65 -35v-151q28 -13 63.5 -18t70.5 -5q27 0 66.5 4t67.5 13v157l66 35q35 4 91 -6.5t98 -35.5q0 -124 -104.5 -190t-285.5 -66z" glyph-name="uniF6D1" horiz-adv-x="1100" unicode=""/>
<glyph d="M510 1137q-192 0 -279 69.5t-87 185.5q28 24 80 36.5t108 15.5l66 -24v-173q48 -21 114 -21q19 0 53 3.5t62 11.5v179l65 24q53 -3 103 -14.5t77 -37.5q0 -116 -87.5 -185.5t-274.5 -69.5z" glyph-name="uniF6D4" horiz-adv-x="1053" unicode=""/>
</font>
</defs>
</svg>
