<?xml version="1.0" encoding="UTF-8"?>
<!DOCTYPE svg  PUBLIC '-//W3C//DTD SVG 1.1//EN'  'http://www.w3.org/Graphics/SVG/1.1/DTD/svg11.dtd'>
<svg version="1.1" xmlns="http://www.w3.org/2000/svg">
<defs>
<font id="PTAstraSerif-BoldItalic" horiz-adv-x="1024">
<font-face font-family="PT Astra Serif" font-style="italic" font-weight="700" ascent="1638" bbox="-161 -529 2352 1752.2" cap-height="1356" descent="-410" panose-1="2 10 7 3 4 5 5 2 2 4" slope="-16" underline-position="-319" underline-thickness="195" unicode-range="U+0020-F6D4" units-per-em="2048" x-height="915"/>
<missing-glyph/>
<glyph glyph-name="space" horiz-adv-x="512" unicode=" "/>
<glyph glyph-name="space" horiz-adv-x="512" unicode=" "/>
<glyph d="M345 422l-24 376l105 538q22 12 61.5 17t81.5 4.5t79.5 -6t56.5 -15.5l-105 -538l-170 -376h-85zM192 137q0 70 44 112.5t118 42.5t120.5 -42.5t46.5 -112.5q0 -69 -46.5 -110.5t-120.5 -41.5t-118 41.5t-44 110.5z" glyph-name="exclam" horiz-adv-x="797" unicode="!"/>
<glyph d="M814 1381q20 33 70 54t110 21q53 0 99 -20q47 -20 50 -55l-207 -467h-97zM366 1381q20 33 70 54t110 21q53 0 99 -20q47 -20 50 -55l-207 -467h-97z" glyph-name="quotedbl" horiz-adv-x="1137" unicode='"'/>
<glyph d="M599 426h-241l-73 -313h-137l73 313h-157l37 124h149l60 256h-149l37 124h143l76 313h135l-73 -313h240l75 313h136l-76 -313h153l-42 -124h-141l-61 -256h148l-43 -124h-134l-73 -313h-136zM388 550h240l60 256h-241z" glyph-name="numbersign" unicode="#"/>
<glyph d="M343 -24q-58 0 -111.5 10.5t-97 25.5t-75 31.5t-45.5 28.5q7 27 19.5 62t27 72t29.5 72t28 61h81l51 -198q6 -4 18.5 -10t29 -12t34.5 -10.5t36 -5.5l95 490q-3 2 -13.5 5t-44.5 20q-48 22 -92 53t-78 72.5t-54.5 94t-20.5 118.5q0 93 40 168.5t104.5 130t146 86 t164.5 34.5l19 96h135l-18 -94q37 -2 76.5 -9t76.5 -16.5t69 -21t55 -21.5q-6 -23 -18 -56.5t-26 -65.5t-27.5 -58.5t-22.5 -36.5h-80l-60 150q-14 4 -33.5 6.5t-34.5 2.5l-90 -465l68 -33q48 -23 93 -52.5t80.5 -69t57 -91t21.5 -118.5q0 -87 -35.5 -165t-99 -137 t-151 -95.5t-190.5 -41.5l-23 -118h-135zM694 360q0 63 -32 109.5t-92 70.5l-83 -427q99 25 153 88.5t54 158.5zM411 1019q0 -61 32.5 -105.5t86.5 -72.5l79 406q-45 -5 -82 -24t-62.5 -49t-39.5 -69.5t-14 -85.5z" glyph-name="dollar" unicode="$"/>
<glyph d="M1372 1384l93 -81l-1133 -1329l-91 84zM191 1050q0 67 19 126.5t55.5 104.5t90.5 71.5t124 26.5q71 0 125 -23t90.5 -66t55 -104t18.5 -136q0 -68 -19.5 -128t-57 -104.5t-91 -70.5t-120.5 -26q-64 0 -117 20t-91.5 61t-60 103t-21.5 145zM401 1050q0 -55 2.5 -99 t11 -74.5t24 -47t41.5 -16.5q50 0 65 57.5t15 179.5q0 60 -3 104.5t-12 73.5t-24.5 43t-40.5 14q-26 0 -41.5 -14t-23.5 -43t-11 -73.5t-3 -104.5zM939 306q0 67 19 126.5t55.5 104.5t90.5 71.5t124 26.5q71 0 125 -23t90.5 -66t55 -104t18.5 -136q0 -68 -19.5 -128 t-57 -104.5t-91 -70.5t-120.5 -26q-64 0 -117 20t-91.5 61t-60 103t-21.5 145zM1149 306q0 -55 2.5 -99t11 -74.5t24 -47t41.5 -16.5q50 0 65 57.5t15 179.5q0 60 -3 104.5t-12 73.5t-24.5 43t-40.5 14q-26 0 -41.5 -14t-23.5 -43t-11 -73.5t-3 -104.5z" glyph-name="percent" horiz-adv-x="1706" unicode="%"/>
<glyph d="M870 225q-52 52 -102.5 119.5t-94 137.5t-77.5 135.5t-52 112.5q-71 -71 -108 -133q-18 -31 -30 -61.5t-19 -58t-9.5 -50.5t-2.5 -39q0 -59 18 -108t51 -84t79.5 -54.5t103.5 -19.5q58 0 123.5 24t119.5 79zM646 1100q0 -27 6.5 -59t17.5 -63t25 -60t29 -50 q75 51 120 122t57 152q4 27 0.5 51t-15.5 42t-33 28t-52 10q-64 0 -103 -45q-27 -31 -39.5 -63t-12.5 -65zM1110 0q-17 12 -37.5 25.5t-42 30t-44 36.5t-42.5 45q-72 -61 -191 -111q-118 -50 -257 -50q-114 0 -194.5 29.5t-131.5 78t-74.5 110.5t-23.5 126q0 67 21 127 t55 112t78 96t90 79.5t90 62t79 44.5q-20 26 -35 57t-25 68q-6 22 -9 48.5t-3 49.5q0 58 26.5 114.5t76 101t121 72t161.5 27.5q139 0 215 -62q29 -24 43.5 -59t14.5 -77q0 -62 -26 -118.5t-69 -107t-98.5 -94.5t-114.5 -81q97 -182 290 -390q20 21 44.5 71t46 114t36.5 135 t16 136q-32 6 -52.5 18t-41.5 29l15 75h441l-15 -75q-60 -34 -136 -47q-23 -81 -55 -163t-69 -153.5t-75 -128t-73 -87.5q56 -61 116.5 -107t121.5 -85l90 -46l-15 -76h-338z" glyph-name="ampersand" horiz-adv-x="1593" unicode="&amp;"/>
<glyph d="M304 1381q20 33 70 54t110 21q53 0 99 -20q47 -20 50 -55l-207 -467h-97z" glyph-name="quotesingle" horiz-adv-x="569" unicode="'"/>
<glyph d="M424 -407q-24 20 -58.5 54.5t-72 82t-75 106.5t-67 128.5t-47.5 149.5t-18 169q0 128 26.5 241.5t73 213.5t110.5 188t140.5 165t162 143.5t175.5 125.5l45 -61q-116 -114 -203 -226.5t-146 -236.5t-88.5 -266t-29.5 -316q0 -95 11.5 -178t31 -156.5t46.5 -138.5t59 -123 z" glyph-name="parenleft" horiz-adv-x="682" unicode="("/>
<glyph d="M-160 -342q102 94 193.5 201t161.5 234t111 276.5t41 328.5q0 189 -41.5 339t-116.5 262l69 61q66 -53 128.5 -121t111.5 -153t79 -187.5t30 -225.5q0 -132 -31.5 -251t-85.5 -225t-125.5 -197.5t-151 -167.5t-163 -136t-160.5 -103z" glyph-name="parenright" horiz-adv-x="682" unicode=")"/>
<glyph d="M306 1156q-12 16 -5 48t24.5 63.5t42.5 55.5t49 26l176 -205q0 -28 -26 -42zM423 831q-22 0 -46 24t-43.5 56t-29.5 65t1 50l261 51q27 -16 27 -41zM758 765q-8 -15 -40 -24t-69 -10t-69.5 6.5t-43.5 23.5l84 254q27 16 52 0zM978 1026q12 -21 5 -54t-23 -63.5t-40.5 -53 t-47.5 -22.5l-170 200q0 24 22 40zM876 1347q22 2 45 -18t38 -50t22 -64t2 -57l-260 -58q-23 18 -23 42zM536 1416q9 18 39.5 27t67.5 9t69 -8.5t42 -27.5l-83 -254q-26 -16 -51 0z" glyph-name="asterisk" unicode="*"/>
<glyph d="M191 743h359v380h154v-380h358v-154h-358v-391h-154v391h-359v154z" glyph-name="plus" horiz-adv-x="1167" unicode="+"/>
<glyph d="M-35 -253q38 14 73.5 39t63.5 54t44.5 60.5t16.5 58.5q-21 35 -59 56.5t-79 34.5q-1 40 14.5 81.5t40 76t56 58.5t61.5 30q25 -2 55.5 -17t57 -40.5t44.5 -61t18 -79.5q0 -68 -26 -133.5t-74.5 -123.5t-119 -104.5t-159.5 -75.5z" glyph-name="comma" horiz-adv-x="512" unicode=","/>
<glyph d="M67 634h547v-175h-547v175z" glyph-name="hyphen" horiz-adv-x="682" unicode="-"/>
<glyph d="M67 634h547v-175h-547v175z" glyph-name="hyphen" horiz-adv-x="682" unicode="­"/>
<glyph d="M2 137q0 70 44 112.5t118 42.5t120.5 -42.5t46.5 -112.5q0 -69 -46.5 -110.5t-120.5 -41.5t-118 41.5t-44 110.5z" glyph-name="period" horiz-adv-x="512" unicode="."/>
<glyph d="M562 1386l117 -42l-672 -1605l-116 43z" glyph-name="slash" horiz-adv-x="569" unicode="/"/>
<glyph d="M76 430q0 187 37.5 347t103.5 285q39 72 85 131t100 100t117 63.5t135 22.5q104 0 174.5 -38t112.5 -109q36 -61 48 -141.5t12 -163.5q0 -84 -8 -169t-23.5 -166t-39.5 -155t-55 -136q-45 -89 -96 -150.5t-109 -100.5t-124 -56.5t-141 -17.5q-74 0 -137 30.5t-108 89.5 q-44 57 -64 142.5t-20 191.5zM337 288q0 -48 5.5 -86.5t17.5 -64.5t32 -40t49 -14q70 0 133.5 100t106.5 297q12 53 22.5 118t18.5 137t13 148t5 151q0 53 -4 97t-15 75.5t-30.5 49t-50.5 17.5q-33 0 -64.5 -18t-60 -57.5t-54.5 -101.5t-48 -149q-14 -56 -28 -128.5 t-24.5 -157.5t-17 -179.5t-6.5 -193.5z" glyph-name="zero" unicode="0"/>
<glyph d="M764 0h-670l16 83q53 22 105 38t106 28l173 889l29 115q-58 -18 -116 -24t-121 -4l4 72q54 14 113.5 32t124.5 41q66 23 126.5 50.5t118.5 58.5h66l-239 -1230q46 -12 91 -28t89 -38z" glyph-name="one" unicode="1"/>
<glyph d="M864 445q-3 -46 -8 -108t-11.5 -125t-13.5 -120t-14 -92h-817l24 124q36 33 85.5 76.5t105 95.5t114.5 110.5t115 122t105.5 130t87 134t59.5 134t22 129.5q0 36 -8.5 70t-27 60t-48 41.5t-71.5 15.5q-32 0 -54 -5t-48 -13l-130 -299h-66q-6 28 -14 67t-15 81.5t-12 84.5 t-6 77q97 72 208 107.5t226 35.5q89 0 150 -24t102 -63q44 -42 62 -95t18 -107q0 -68 -22 -134t-58.5 -128t-84 -119.5t-97.5 -106.5t-101 -95.5t-97.5 -87.5t-85.5 -73.5t-65 -53.5l-113 -67l-2 -8l121 12h283l136 216h66z" glyph-name="two" unicode="2"/>
<glyph d="M371 103q51 0 98 24.5t83 68t57.5 102t21.5 126.5q0 106 -45.5 155t-129.5 49h-113l15 76l333 381l75 68l1 7l-107 -12h-237l-114 -197h-65q-2 42 -1.5 97t2.5 111.5t7 108.5t12 88h770l-19 -96l-360 -408l-98 -85l-1 -4l68 13q63 -8 115.5 -33t90 -65.5t58.5 -95 t21 -120.5q0 -105 -45.5 -194t-123 -154t-180 -101.5t-216.5 -36.5q-59 0 -111 9.5t-95.5 26t-78 37.5t-59.5 44l110 201h57q9 -13 25 -35.5t33.5 -47.5t34 -50t28.5 -43q8 -2 28 -8.5t55 -6.5z" glyph-name="three" unicode="3"/>
<glyph d="M855 0h-598l16 83q52 17 98 28.5t89 18.5l43 219h-483l17 87l834 943h105l-176 -904h166l-24 -126h-166l-43 -219q37 -8 71.5 -19.5t66.5 -27.5zM592 815l46 135h-6l-100 -135l-250 -289l-85 -65l139 14h191z" glyph-name="four" unicode="4"/>
<glyph d="M971 1462h65q-5 -29 -16.5 -75.5t-26.5 -95t-31 -92t-28 -66.5h-448l-89 -277h161q90 0 156 -26t108.5 -71t63 -105t20.5 -127q0 -115 -44.5 -215.5t-123.5 -175t-187 -117.5t-235 -43q-88 0 -168 29.5t-136 84.5l119 192h55q11 -14 25 -35t28 -44.5t27 -46.5t24 -41 q5 -5 22 -8.5t32 -3.5q63 0 115.5 26t90 71.5t58.5 106t21 129.5q0 109 -60.5 162t-178.5 53l-168 -2l215 707h423z" glyph-name="five" unicode="5"/>
<glyph d="M952 525q0 -122 -41.5 -222.5t-113.5 -173.5t-168.5 -113t-207.5 -40q-92 0 -160 29.5t-112.5 81.5t-66.5 124t-22 158q0 129 35 247.5t98 223t150.5 194t193.5 160t226.5 120.5t249.5 76l11 -83q-110 -32 -208 -90t-177.5 -138.5t-137 -182t-87.5 -220.5q11 17 32.5 41 t54.5 45.5t78 37t103 15.5q60 0 109.5 -19.5t85.5 -56.5t55.5 -91t19.5 -123zM661 508q0 86 -22.5 129t-73.5 43q-29 0 -54.5 -11t-47 -27.5t-39.5 -36.5t-31 -38q-8 -21 -17.5 -57.5t-17.5 -77.5t-13.5 -81.5t-5.5 -70.5q0 -24 2 -56t11.5 -60.5t30.5 -48.5t60 -20 q48 0 82.5 29t58.5 73t39 96t23.5 98t11.5 78.5t3 38.5z" glyph-name="six" unicode="6"/>
<glyph d="M328 931h-67q-1 42 0.5 100t4.5 118.5t8.5 116t12.5 90.5h842l-18 -92q-68 -80 -127 -156t-109.5 -149.5t-94.5 -145.5t-82 -145q-87 -167 -150.5 -333.5t-115.5 -334.5h-275q63 142 133.5 274t151.5 261t170.5 255t189.5 256l90 93l-99 -10h-353z" glyph-name="seven" unicode="7"/>
<glyph d="M701 741q48 -32 87 -69.5t67 -80.5t43.5 -90t15.5 -98q0 -101 -42.5 -190.5t-128.5 -148.5q-64 -44 -150 -66t-198 -22q-71 0 -139.5 16.5t-122 53.5t-86 96t-32.5 143q0 75 30 137.5t81 111.5t119 85t144 58q-26 20 -55 51.5t-54.5 71.5t-42 87.5t-16.5 100.5 q0 84 29.5 156t87 124t144 81.5t200.5 29.5q82 0 145 -22t106 -60t64.5 -89.5t21.5 -110.5q0 -68 -26.5 -124.5t-70.5 -101.5t-101.5 -77.5t-119.5 -52.5zM446 618q-81 -65 -117.5 -148t-36.5 -172q0 -36 5.5 -72t21 -65t43.5 -47.5t72 -18.5q54 0 92 22.5t61 59t32 82 t7 92.5t-18 87t-41 73t-56.5 59.5t-64.5 47.5zM494 1050q0 -82 35 -149t103 -115q21 17 44.5 41.5t43 60t32.5 84.5t13 115q0 76 -31 124.5t-90 48.5q-42 0 -70.5 -17t-45.5 -45.5t-25 -66.5t-9 -81z" glyph-name="eight" unicode="8"/>
<glyph d="M142 837q0 65 15.5 130.5t45.5 126t73.5 112.5t99 90.5t122.5 60.5t145 22q181 0 277 -102q50 -53 75 -129.5t25 -170.5q0 -126 -32.5 -245t-92 -225t-142.5 -197t-184.5 -160t-218 -114t-242.5 -60l-28 84q118 29 212 81.5t169 127.5q75 76 125.5 168t88.5 204 q-17 -20 -43 -39.5t-59.5 -35.5t-74.5 -26t-89 -10q-73 0 -123.5 24.5t-82.5 68.5q-30 41 -45.5 97t-15.5 117zM437 839q0 -81 24.5 -126.5t81.5 -45.5q45 0 86.5 24t67.5 59q7 20 15.5 48.5t16 64.5t12.5 80t5 96q0 45 -6.5 85.5t-20.5 70.5t-37.5 47.5t-56.5 17.5 q-42 0 -76.5 -26t-59 -78.5t-38.5 -131.5t-14 -185z" glyph-name="nine" unicode="9"/>
<glyph d="M228 830q0 70 44 112.5t118 42.5t120.5 -42.5t46.5 -112.5q0 -69 -46.5 -110.5t-120.5 -41.5t-118 41.5t-44 110.5zM93 137q0 70 44 112.5t118 42.5t120.5 -42.5t46.5 -112.5q0 -69 -46.5 -110.5t-120.5 -41.5t-118 41.5t-44 110.5z" glyph-name="colon" horiz-adv-x="682" unicode=":"/>
<glyph d="M190 628v59l747 455l69 -125l-413 -248l-159 -66l157 -60l451 -266l-107 -177z" glyph-name="less" horiz-adv-x="1167" unicode="&lt;"/>
<glyph d="M178 909h871v-155h-871v155zM178 579h871v-154h-871v154z" glyph-name="equal" horiz-adv-x="1167" unicode="="/>
<glyph d="M1077 715v-61l-747 -454l-69 125l413 248l159 66l-157 60l-451 264l107 179z" glyph-name="greater" horiz-adv-x="1167" unicode="&gt;"/>
<glyph d="M378 970h-65q-4 15 -8 41t-7.5 57t-6.5 64t-4.5 62.5t-2 52.5t1.5 33q38 19 82.5 37t93.5 32t102 22t108 8q70 0 128.5 -16t103.5 -47q53 -37 82 -91.5t29 -117.5q0 -72 -22 -128t-59.5 -101.5t-88 -83.5t-107.5 -74q-46 -29 -92.5 -57t-86.5 -65t-68.5 -86t-37.5 -119 h-63q-1 7 -1.5 26t-1 42t-0.5 45.5v37.5q0 58 19.5 102t50.5 80t68.5 66t73.5 62q26 23 50 48t43 54.5t30 65t11 78.5q0 45 -13 75t-33.5 47t-46 24t-50.5 7q-35 0 -63 -9t-45 -19zM243 137q0 70 44 112.5t118 42.5t120.5 -42.5t46.5 -112.5q0 -69 -46.5 -110.5 t-120.5 -41.5t-118 41.5t-44 110.5z" glyph-name="question" unicode="?"/>
<glyph d="M1093 869q45 22 107.5 31t126.5 7l-91 -520q-23 -119 -21 -178q3 -59 57 -59q43 0 91.5 32.5t89.5 94.5t68.5 151.5t27.5 202.5q0 142 -45.5 250.5t-128.5 181.5t-201 110t-263 37q-163 0 -299.5 -55.5t-231.5 -159.5q-43 -47 -79 -107t-62 -129.5t-40.5 -147 t-14.5 -158.5q0 -165 53.5 -290t149.5 -209t228 -126.5t289 -42.5q27 0 59 3t65 10t65 16.5t61 23.5l29 -108q-66 -37 -144 -52t-174 -15q-111 0 -215 21.5t-195 65t-167 108.5t-130 151.5t-84 194.5t-30 237q0 136 31 255.5t88 218.5t137 176.5t177.5 131t210 81.5 t234.5 28q177 0 319 -46t241.5 -135t153 -220t53.5 -300q0 -132 -40 -243t-107.5 -191.5t-156.5 -126t-188 -45.5q-50 0 -89.5 11t-67.5 36t-42.5 66t-13.5 101q0 16 2 33.5t4 36.5h-7q-17 -51 -49.5 -102t-74.5 -91.5t-92.5 -65.5t-103.5 -25q-128 0 -192 82 q-65 83 -65 209q0 112 36 220t102 193q33 42 72 77.5t83.5 61t93.5 39.5t102 14q33 0 59.5 -3t49.5 -9.5t44.5 -16.5t44.5 -23zM1056 777q-20 14 -43 22t-54 8q-32 0 -61.5 -13t-56.5 -36t-50.5 -55t-43.5 -69q-20 -38 -35.5 -78t-26.5 -84q-22 -85 -22 -161 q0 -66 22 -101.5t77 -35.5q32 0 64.5 26.5t63.5 69t60 95t54 104.5z" glyph-name="at" horiz-adv-x="1704" unicode="@"/>
<glyph d="M814 438h-388l-169 -308q85 -12 157 -56l-14 -74h-474l14 74q36 19 72 33.5t71 22.5l738 1249h143l178 -1249q76 -17 129 -56l-14 -74h-601l14 74q41 17 86 32.5t86 23.5zM495 564h307l-33 369l-1 137h-4l-68 -140z" glyph-name="A" horiz-adv-x="1366" unicode="A"/>
<glyph d="M-25 0l14 74q42 21 86 36.5t84 19.5l213 1095q-38 9 -77 23t-71 34l15 74h312q37 0 73 1.5t72.5 4t75 4t81.5 1.5q45 0 96.5 -2.5t102 -12t97 -27t82 -47.5t57 -74.5t21.5 -106.5q0 -72 -30.5 -134t-81 -110.5t-115.5 -81.5t-134 -45l-1 -8q54 -10 106.5 -29t94 -51.5 t67.5 -80.5t26 -116q0 -56 -18.5 -109t-51.5 -100.5t-77.5 -86.5t-96.5 -67q-47 -26 -98.5 -43t-105.5 -27.5t-109.5 -14.5t-110.5 -4q-44 0 -95 1.5t-101 4t-95 4t-76 1.5h-231zM584 114q76 0 141 22t112.5 63t74.5 99t27 129q0 59 -23 97.5t-62.5 61t-92.5 31.5t-112 9 h-114l-97 -498q25 -6 56.5 -10t89.5 -4zM620 752q42 0 89.5 2t80.5 10q36 10 74.5 35t71 62.5t53.5 86t21 104.5q0 52 -16 88.5t-46 59t-72 32.5t-93 10q-35 0 -70 -2t-60 -6l-94 -482h61z" glyph-name="B" horiz-adv-x="1366" unicode="B"/>
<glyph d="M1138 407h79q0 -30 -3 -76.5t-8 -96.5t-11 -98.5t-12 -81.5q-50 -22 -106 -37t-114 -24t-115 -13t-109 -4q-141 0 -257 36t-199.5 108t-129 179.5t-45.5 250.5q0 141 38 257.5t103 209t152.5 160.5t187 113t205.5 67t209 22q64 0 126 -5.5t117 -15t100.5 -22t75.5 -25.5 q-5 -27 -18.5 -75t-30.5 -102t-35 -106.5t-33 -88.5h-82l-49 293q-8 4 -27 7.5t-42.5 6.5t-48.5 5t-45 2q-64 0 -131.5 -18t-132 -55.5t-122.5 -95t-101.5 -136t-69 -179.5t-25.5 -225q0 -99 22.5 -180t69 -139t118 -90t170.5 -32q27 0 54.5 3t52.5 8t44.5 10.5t29.5 10.5z " glyph-name="C" horiz-adv-x="1366" unicode="C"/>
<glyph d="M-25 0l14 74q37 19 79.5 33.5t89.5 22.5l213 1095q-43 11 -81 25t-66 32l15 74h225q32 0 85.5 2.5t112 5t113 5t89.5 2.5q145 0 252.5 -35t178.5 -103t106.5 -167t35.5 -228q0 -113 -23.5 -220t-72 -202t-121.5 -174.5t-172 -137t-224 -89.5t-277 -32q-26 0 -71.5 2.5 t-97 6t-102.5 6t-89 2.5h-212zM801 1245q-18 0 -38.5 -0.5l-41 -1t-38.5 -2t-30 -3.5l-218 -1122q9 -1 27.5 -2.5t39 -2.5t39.5 -1.5t29 -0.5q109 0 192 34.5t144 91.5t101.5 132t65 156.5t35 163t10.5 153.5q0 81 -13.5 154t-48.5 129t-96.5 89t-158.5 33z" glyph-name="D" horiz-adv-x="1479" unicode="D"/>
<glyph d="M1374 1356q-21 -88 -48.5 -180.5t-59.5 -174.5h-80l-44 228h-479l-92 -473h338l114 148h62q-5 -48 -12.5 -100.5t-18.5 -110.5q-23 -116 -52 -216h-62l-56 153h-338l-98 -504h484l151 246h79q1 -38 -1 -84t-6 -95.5t-10.5 -99t-15.5 -93.5h-1154l14 74q37 17 80 32.5 t90 23.5l213 1095q-38 9 -78.5 23t-69.5 34l15 74h1135z" glyph-name="E" horiz-adv-x="1366" unicode="E"/>
<glyph d="M445 130q84 -12 157 -56l-14 -74h-598l14 74q35 17 72 31.5t78 24.5l213 1095q-43 11 -73.5 26t-54.5 31l15 74h1166q-8 -39 -20 -85t-26.5 -93.5t-30.5 -93t-31 -83.5h-80l-45 228h-528l-99 -508h349l102 133h60q-3 -49 -9.5 -99.5t-17.5 -103.5q-11 -52 -23.5 -99.5 t-26.5 -92.5h-60l-49 136h-349z" glyph-name="F" horiz-adv-x="1366" unicode="F"/>
<glyph d="M1246 85q-44 -23 -101 -42.5t-121 -34.5t-131.5 -23.5t-131.5 -8.5q-161 0 -281.5 41.5t-201 116.5t-121 180.5t-40.5 233.5q0 90 19 173t52 156.5t78 136.5t97 114q63 61 137.5 108t156.5 78.5t169.5 48t176.5 16.5q52 0 112 -3t122.5 -10.5t123 -20.5t113.5 -34 q-7 -29 -20 -74.5t-29 -97.5t-34.5 -104.5t-35.5 -95.5h-80l-51 291q-38 11 -86.5 17t-112.5 6q-138 0 -247 -62t-187 -165q-32 -42 -59.5 -97.5t-48 -119t-32.5 -131.5t-12 -134q0 -88 17.5 -168t59 -140.5t111 -96.5t173.5 -36q26 0 57 3.5t62.5 10t60 16.5t50.5 22 l71 364q-51 4 -92.5 19.5t-76.5 36.5l15 74h529l-15 -74q-21 -17 -52 -31.5t-78 -24.5z" glyph-name="G" horiz-adv-x="1479" unicode="G"/>
<glyph d="M562 0h-587l14 74q37 17 83 32.5t87 23.5l213 1095q-45 9 -84 24t-64 33l15 74h587l-15 -74q-33 -20 -72 -35t-77 -22l-91 -468h535l91 468q-42 9 -72.5 24t-54.5 33l15 74h587l-15 -74q-37 -22 -82 -35t-88 -22l-213 -1095q44 -8 82.5 -23.5t65.5 -32.5l-14 -74h-587 l14 74q33 17 70.5 32.5t78.5 23.5l98 502h-535l-98 -502q38 -8 68 -21.5t59 -34.5z" glyph-name="H" horiz-adv-x="1593" unicode="H"/>
<glyph d="M595 -10h-604l14 74q86 42 168 56l213 1095q-38 7 -77.5 22t-68.5 35l15 74h604l-15 -74q-38 -22 -82.5 -36t-84.5 -21l-213 -1095q37 -8 76.5 -21.5t68.5 -34.5z" glyph-name="I" horiz-adv-x="797" unicode="I"/>
<glyph d="M407 1356h636l-14 -74q-17 -10 -39.5 -19t-47 -16.5t-49 -13t-43.5 -8.5l-192 -990q-16 -81 -40.5 -147t-58.5 -116q-39 -57 -91 -103t-111 -81.5t-122 -60t-126 -37.5l-26 51q64 42 110.5 92.5t81.5 120.5q24 48 48.5 113.5t41.5 155.5l195 1002q-19 3 -42.5 9t-46.5 14 t-43.5 16.5t-34.5 17.5z" glyph-name="J" unicode="J"/>
<glyph d="M959 1356h509l-15 -74q-37 -22 -82 -36t-82 -21l-413 -472q11 -23 31.5 -73t47 -113.5t56.5 -133.5t58.5 -132.5t54.5 -110.5t44 -68l82 -56l-13 -66h-326l-68 54q-34 76 -60.5 159t-49 162t-42 147t-39.5 113h-105l-98 -505q42 -8 74 -23.5t53 -32.5l-14 -74h-587l14 74 q43 19 86 33.5t84 22.5l213 1095q-44 7 -82.5 22t-65.5 35l15 74h587l-15 -74q-28 -16 -66 -31t-83 -26l-95 -491l128 27l374 464q-38 9 -69.5 25t-55.5 32z" glyph-name="K" horiz-adv-x="1366" unicode="K"/>
<glyph d="M239 1356h636l-15 -74q-46 -22 -97 -36t-101 -21l-214 -1099h418l198 347h80q-2 -44 -7.5 -105t-14 -126.5t-19 -129t-21.5 -112.5h-1107l14 74q50 22 92 36t78 20l213 1095q-91 16 -148 57z" glyph-name="L" horiz-adv-x="1251" unicode="L"/>
<glyph d="M1645 0h-580l14 74q43 19 82.5 32.5t83.5 23.5l158 809l45 207h-11l-112 -187l-490 -701h-79l-194 693l-44 206h-13l-42 -226l-154 -794q35 -7 76 -24.5t76 -38.5l-14 -74h-473l14 74l83 36q26 11 49.5 18t43.5 11l211 1086q-38 9 -78.5 22t-69.5 35l15 74h485l151 -573 l38 -166h2l113 170l399 569h481l-15 -74q-37 -20 -77.5 -34t-81.5 -23l-213 -1097q41 -8 75 -23.5t60 -30.5z" glyph-name="M" horiz-adv-x="1821" unicode="M"/>
<glyph d="M1098 1356h480l-15 -74q-42 -29 -90.5 -51.5t-90.5 -33.5l-238 -1221h-164l-461 989l-48 149h-6l-13 -155l-157 -808q38 -9 80 -32t71 -45l-14 -74h-478l14 74q40 22 85 42.5t92 34.5l206 1057q-35 16 -70.5 35t-61.5 41l14 72h419l368 -806l58 -166h7l23 166l126 647 q-45 15 -83.5 37.5t-67.5 47.5z" glyph-name="N" horiz-adv-x="1479" unicode="N"/>
<glyph d="M82 548q0 113 28 218.5t79 198t123.5 168.5t162.5 131t194.5 85t220.5 30q134 0 237 -42.5t173.5 -118.5t107 -180.5t36.5 -228.5q0 -173 -57 -325t-162.5 -265t-257 -178t-340.5 -65q-134 0 -235.5 42.5t-170.5 119t-104 181t-35 229.5zM407 533q0 -92 14 -170.5 t44.5 -136t78.5 -90.5t116 -33q75 0 138 28.5t114 79t89.5 120t65 151.5t39.5 173t13 185q0 90 -14 165.5t-45 130.5t-80 86t-119 31q-74 0 -137 -29.5t-113.5 -81t-88.5 -121t-63.5 -149.5t-38.5 -167t-13 -172z" glyph-name="O" horiz-adv-x="1479" unicode="O"/>
<glyph d="M450 130q51 -8 99.5 -22.5t84.5 -33.5l-14 -74h-645l14 74q42 21 85.5 34.5t84.5 21.5l213 1095q-44 9 -81.5 23t-66.5 34l15 74h244q97 0 188.5 7.5t164.5 7.5q92 0 172 -17t139.5 -55.5t94 -101.5t34.5 -155q0 -134 -51.5 -233.5t-137.5 -165.5t-197 -98.5t-230 -32.5 h-28t-39.5 1t-39.5 1.5t-28 2.5zM772 1245q-32 0 -59.5 -3.5t-47.5 -7.5l-115 -589q26 -7 44.5 -7.5t42.5 -0.5q61 0 119 22.5t103 70.5t72.5 123.5t27.5 182.5t-51.5 158t-135.5 51z" glyph-name="P" horiz-adv-x="1251" unicode="P"/>
<glyph d="M1332 -217q-42 -36 -88 -70.5t-95 -61t-100 -42.5t-104 -16q-45 0 -87.5 9t-85 23.5t-85.5 34t-88 40.5q-90 42 -190 79t-223 55l65 85q97 17 185 8t172 -29.5t167 -45.5t170 -40.5t180 -14t198 34.5zM85 548q0 113 28 218.5t79 198t123.5 168.5t162.5 131t194.5 85 t220.5 30q134 0 237 -42.5t173.5 -118.5t107 -180.5t36.5 -228.5q0 -173 -57 -325t-162.5 -265t-257 -178t-340.5 -65q-134 0 -235.5 42.5t-170.5 119t-104 181t-35 229.5zM410 533q0 -92 14 -170.5t44.5 -136t78.5 -90.5t116 -33q75 0 138 28.5t114 79t89.5 120t65 151.5 t39.5 173t13 185q0 90 -14 165.5t-45 130.5t-80 86t-119 31q-75 0 -137.5 -29.5t-113 -81t-88.5 -121t-63.5 -149.5t-38.5 -167t-13 -172z" glyph-name="Q" horiz-adv-x="1479" unicode="Q"/>
<glyph d="M450 130q44 -10 75 -25.5l61 -30.5l-14 -74h-597l14 74q48 22 88.5 35t81.5 21l213 1095q-92 22 -148 57l15 74h206q38 0 90 2.5t109.5 5t116 5t110.5 2.5q96 0 174.5 -20t135 -60.5t87 -101t30.5 -141.5q0 -82 -28.5 -150.5t-75 -122t-106 -92.5t-122.5 -62 q25 -67 48.5 -134t47.5 -130.5t51.5 -121.5t62.5 -107l81 -62l-13 -66h-313l-72 64q-12 22 -23.5 54t-21.5 66.5t-18.5 67.5t-13.5 56t-12.5 54.5t-16.5 68.5t-19 77t-19 79h-176zM787 1245q-31 0 -67 -3t-55 -8l-105 -541h114q50 0 107.5 18t100.5 54q54 45 82.5 110.5 t28.5 155.5q0 56 -15 96.5t-42 66.5t-65 38.5t-84 12.5z" glyph-name="R" horiz-adv-x="1366" unicode="R"/>
<glyph d="M241 161q8 -9 26 -19t41.5 -19t51 -14.5t54.5 -5.5t56 3t57 9.5t54 16.5t46 24q58 40 79.5 90t21.5 98q0 37 -14 67t-38 55.5t-55.5 47t-65.5 40.5q-11 6 -24 13.5t-27.5 16t-28 16.5t-25.5 14q-42 22 -81.5 53t-70 71.5t-49 90.5t-18.5 110q0 111 45 194t120.5 137.5 t175 81.5t209.5 27q121 0 221.5 -19t168.5 -49q-10 -39 -25 -89t-31.5 -99.5t-34 -93.5t-31.5 -72h-79l-38 265q-34 13 -76 22t-91 9q-44 0 -85.5 -12.5t-74.5 -37t-53 -62t-20 -88.5q0 -40 18 -74.5t47 -63.5t65.5 -54t73.5 -47q20 -12 40.5 -24t43.5 -26q42 -27 81 -59 t69 -71.5t48 -86.5t18 -104q0 -106 -44.5 -192t-127.5 -147t-200.5 -94.5t-263.5 -33.5q-61 0 -124 9.5t-118.5 23.5t-98 30t-60.5 29q12 45 28.5 96.5t35.5 102.5t38 97t36 81h79z" glyph-name="S" horiz-adv-x="1139" unicode="S"/>
<glyph d="M212 948q-3 26 -6 63t-4.5 87t0 114t9.5 144h1167q-47 -153 -89 -253.5t-70 -154.5h-82q-13 72 -23 142t-15 139h-184l-214 -1099q50 -10 96 -23.5t81 -32.5l-14 -74h-666l14 74q42 15 93.5 31.5t104.5 24.5l214 1099h-182q-38 -78 -74 -146.5t-74 -134.5h-82z" glyph-name="T" horiz-adv-x="1251" unicode="T"/>
<glyph d="M225 1356h597l-14 -74q-71 -40 -159 -57l-145 -745q-6 -31 -8.5 -58.5t-2.5 -51.5q0 -63 19 -106t53.5 -69.5t83 -38.5t107.5 -12q64 0 120 18t102 58.5t79.5 106.5t52.5 163l141 726q-44 9 -87.5 26.5t-69.5 39.5l14 74h481l-14 -74q-41 -25 -86.5 -41t-86.5 -25 l-142 -728q-24 -124 -75 -218.5t-126.5 -158t-174 -96t-218.5 -32.5q-94 0 -179.5 17t-150 57.5t-102.5 108.5t-37 170q0 31 4 64.5t11 70.5l147 754q-38 7 -77.5 21t-70.5 36z" glyph-name="U" horiz-adv-x="1479" unicode="U"/>
<glyph d="M1168 1225q-45 11 -83.5 26t-68.5 31l14 74h492l-14 -74q-26 -16 -66 -31t-84 -26l-635 -1225l-197 -24l-237 1249q-36 11 -72 25t-62 32l14 74h645l-14 -74q-37 -16 -80 -31t-90 -26l99 -743l17 -151h3l72 166z" glyph-name="V" horiz-adv-x="1366" unicode="V"/>
<glyph d="M1633 1225q-76 14 -152 57l14 74h489l-14 -74q-38 -22 -77 -35t-76 -22l-540 -1225l-207 -24l-59 928l-439 -904l-208 -24l-84 1249q-41 9 -72.5 23t-58.5 34l14 74h628l-14 -74q-37 -18 -81 -32t-91 -25l12 -683l-10 -180h4l77 190l411 804h115l63 -794l18 -200h5 l74 203z" glyph-name="W" horiz-adv-x="1821" unicode="W"/>
<glyph d="M970 1356h480l-15 -74q-32 -16 -66.5 -31t-75.5 -26l-436 -494l272 -601q43 -10 76 -24.5t62 -31.5l-14 -74h-628l14 74q35 17 71.5 31.5t76.5 24.5l-168 413l-334 -415q75 -12 132 -54l-14 -74h-495l14 74q71 39 142 56l492 542l-251 553q-34 11 -64 26t-58 31l15 74 h613l-15 -74q-24 -14 -61.5 -28t-88.5 -29l145 -375l300 375q-37 9 -72.5 25t-63.5 32z" glyph-name="X" horiz-adv-x="1366" unicode="X"/>
<glyph d="M949 1356h475l-14 -74q-33 -18 -72 -34t-77 -23l-469 -658l-85 -437q38 -4 72.5 -20.5t63.5 -35.5l-14 -74h-596l14 74q36 17 79.5 32.5t90.5 23.5l85 435l-203 660q-44 9 -80.5 24t-65.5 33l14 74h635l-14 -74q-30 -16 -67.5 -31t-87.5 -26l113 -498l333 498 q-43 11 -80.5 26t-63.5 31z" glyph-name="Y" horiz-adv-x="1251" unicode="Y"/>
<glyph d="M1062 408h82q-1 -40 -4 -91.5t-8.5 -106.5t-12.5 -109.5t-16 -100.5h-1119l24 126l970 1103h-507l-168 -276h-81q-2 43 0.5 97t8.5 109t13.5 106.5t15.5 90.5h1061l-25 -127l-966 -1103h557z" glyph-name="Z" horiz-adv-x="1251" unicode="Z"/>
<glyph d="M342 1356h453l-21 -107h-201l-308 -1588h201l-21 -106h-453z" glyph-name="bracketleft" horiz-adv-x="682" unicode="["/>
<glyph d="M726 -207l-111 -54l-776 1594l113 54z" glyph-name="backslash" horiz-adv-x="569" unicode="\"/>
<glyph d="M377 -445h-453l21 106h202l308 1588h-202l21 107h453z" glyph-name="bracketright" horiz-adv-x="682" unicode="]"/>
<glyph d="M634 1377h89l339 -536h-232l-154 261l-44 95l-56 -97l-177 -259h-135z" glyph-name="asciicircum" horiz-adv-x="1167" unicode="^"/>
<glyph d="M-119 -225h1061v-154h-1061v154z" glyph-name="underscore" unicode="_"/>
<glyph d="M668 1140l-96 -42l-306 281l11 56q10 8 32 15.5t49.5 13.5t58.5 10t58 6t48 1.5t30 -3.5z" glyph-name="grave" horiz-adv-x="682" unicode="`"/>
<glyph d="M371 122q32 0 66 31t66.5 77t60.5 100t48 102l66 356q-22 14 -40.5 20.5t-49.5 6.5q-48 0 -88.5 -24t-73 -65t-57 -94.5t-41 -113t-24.5 -121t-8 -117.5q0 -82 16.5 -120t58.5 -38zM584 286q-22 -57 -54.5 -112.5t-75.5 -99t-95.5 -70t-113.5 -26.5q-93 0 -149 68.5 t-56 203.5q0 83 17.5 165t50.5 156t80 137.5t106 110t128.5 72.5t147.5 26q47 0 80.5 -10.5t70.5 -27.5q47 18 101 27t129 9l-151 -791h126v-61q-18 -15 -47.5 -29t-65 -25t-72.5 -18t-68 -7q-63 0 -90 27t-27 56q0 32 9 85t26 134h-7z" glyph-name="a" unicode="a"/>
<glyph d="M249 1228l-119 24v57q34 13 84 24.5t102 20.5t99 15t76 8l38 -19l-143 -707h9q29 54 64.5 102.5t77.5 86t90 59.5t101 22q46 0 86.5 -17t70.5 -52t47 -90t17 -131q0 -132 -36 -250.5t-107 -208t-176 -142t-242 -52.5q-59 0 -113.5 7.5t-101.5 20.5t-85 30.5t-62 37.5z M596 777q-25 0 -50 -16.5t-48 -42t-44 -57t-38 -62t-29.5 -56.5t-18.5 -40l-78 -386q20 -18 50.5 -27t61.5 -9q62 0 115 44.5t92 119t61.5 170.5t22.5 198q0 75 -23 119.5t-74 44.5z" glyph-name="b" unicode="b"/>
<glyph d="M787 226q-30 -50 -71.5 -95t-93 -79t-111.5 -54t-127 -20q-79 0 -140.5 24t-103.5 68t-64 107.5t-22 141.5q0 63 13 126.5t36 123t56 112t74 93.5q73 73 169 110t212 37q33 0 71.5 -8.5t75.5 -26t67.5 -45t46.5 -64.5q2 -20 -12.5 -47.5t-40 -52.5t-60 -41.5t-71.5 -13.5 l-49 186q-13 5 -28 7.5t-27 2.5q-59 0 -113.5 -42.5t-93.5 -123.5q-28 -57 -47.5 -135.5t-19.5 -163.5q0 -112 44.5 -166.5t132.5 -54.5q36 0 69.5 11t65 30.5t62 46t59.5 58.5z" glyph-name="c" horiz-adv-x="909" unicode="c"/>
<glyph d="M364 122q21 0 44 14.5t45.5 39t44.5 56.5t42.5 66.5t37.5 69t30 64.5l65 354q-24 14 -49.5 20.5t-54.5 6.5q-59 0 -107 -38t-77 -103q-19 -42 -35.5 -95.5t-28.5 -111t-19 -115.5t-7 -110q0 -63 15.5 -90.5t53.5 -27.5zM579 286q-31 -71 -67.5 -128t-79.5 -97 t-92.5 -61.5t-105.5 -21.5q-46 0 -82 22t-61 60t-38 89.5t-13 111.5q0 69 11 137t32 130t50.5 117t66.5 97q36 41 73 73.5t78.5 54.5t89.5 33.5t106 11.5q39 0 73.5 -6t71.5 -22l67 341l-124 24v60q17 8 44.5 15.5t60 14t68.5 12.5t70.5 10.5t65 8t52.5 4.5l36 -19 l-237 -1234h130v-61q-18 -15 -47.5 -29t-65 -25.5t-72.5 -18t-70 -6.5q-64 0 -91 28q-26 29 -26 60t8.5 88t25.5 126h-8z" glyph-name="d" unicode="d"/>
<glyph d="M803 212q-32 -46 -76 -88t-97.5 -74.5t-114.5 -52t-128 -19.5q-160 0 -244 87t-84 248q0 76 19 150.5t53 140.5t80.5 121.5t101.5 94.5q140 101 315 101q51 0 102 -12.5t89 -44.5q26 -22 41.5 -53t15.5 -75q0 -62 -32.5 -112t-93.5 -90q-30 -20 -74.5 -36t-99.5 -28.5 t-118 -21t-131 -13.5q-5 -25 -7.5 -56t-2.5 -54q0 -44 10.5 -81t33 -64t57.5 -42.5t84 -15.5q34 0 69 11t68 30t63.5 43t56.5 51zM572 818q-45 0 -83.5 -27t-67.5 -67q-32 -46 -51.5 -99.5t-29.5 -97.5q33 1 68 5t67.5 11.5t60.5 18t49 24.5q42 28 64 64.5t22 81.5 q0 35 -24 60.5t-75 25.5z" glyph-name="e" horiz-adv-x="909" unicode="e"/>
<glyph d="M230 786h-127v70q36 19 76 34.5t76 24.5l18 88q23 112 63 184.5t95 114.5t123 58.5t147 16.5q28 0 58.5 -2.5t58.5 -7t53 -12t43 -17.5q3 -26 -3.5 -55.5t-19.5 -56.5t-31.5 -49t-39.5 -32l-130 137q-24 -6 -48.5 -17t-47 -38.5t-42.5 -78t-36 -134.5l-22 -115h199 q3 -22 -1 -55q-3 -33 -23 -58h-198l-111 -709q-19 -126 -75 -212q-55 -85 -123 -136q-66 -50 -135 -76q-34 -13 -62 -21t-50 -13l-20 61q22 11 54.5 35.5t65 67t60.5 106.5t42 154z" glyph-name="f" horiz-adv-x="682" unicode="f"/>
<glyph d="M538 921q51 0 93 -6.5t75 -17t57 -23.5t39 -25q20 16 49 33t60.5 32.5t63 28.5t55.5 21q9 -17 12 -43.5t0 -54t-12 -53.5t-23 -41l-159 19q10 -14 16 -37.5t6 -51.5q0 -65 -31 -123t-88.5 -102t-140 -70t-184.5 -26q-31 0 -49.5 1t-41.5 6q-9 -6 -21.5 -14t-23.5 -17.5 t-19 -21.5t-8 -26q0 -19 26 -32t68 -22.5t96.5 -18t111.5 -19.5q77 -13 145 -41q67 -27 111 -73q46 -45 46 -121q0 -55 -24.5 -103t-67 -88.5t-100 -72t-124.5 -54t-139.5 -34t-145.5 -11.5q-90 0 -158 17.5t-113.5 46.5t-68.5 67t-23 79q0 93 81 158q80 63 205 104 q-47 21 -75 48.5t-28 71.5q0 26 16 55t41.5 56t56.5 49.5t61 36.5q-27 6 -56.5 22t-54.5 40.5t-41 57t-16 71.5q0 70 30.5 129t88.5 102t140 67t186 24zM351 -278q48 0 94 11t82 33.5t58.5 57t22.5 80.5q0 44 -35 70t-89 42.5t-118 28t-122 25.5q-51 -38 -75.5 -90 t-24.5 -104q0 -72 55.5 -113t151.5 -41zM516 822q-44 0 -76 -18t-53.5 -49t-32 -72.5t-10.5 -87.5q0 -64 31 -89q32 -26 68 -26q43 0 75 17.5t53.5 47.5t32.5 70t11 85q0 54 -25 88t-74 34z" glyph-name="g" unicode="g"/>
<glyph d="M200 1252v57q26 10 68.5 22t92 22.5t102 17t98.5 6.5l38 -16l-157 -724h9q34 57 76 108.5t89 90.5t99 62t106 23q83 0 128 -48t45 -118q0 -48 -9 -104t-21 -108l-103 -419h133v-61q-36 -29 -105 -54q-68 -25 -157 -25q-60 0 -86.5 24t-26.5 59q0 32 7.5 66t16.5 79 l67 301q12 55 22 101t10 88q0 32 -13.5 53.5t-39.5 21.5q-42 0 -83.5 -29.5t-77.5 -71.5t-63.5 -86.5t-40.5 -74.5l-106 -515h-248l248 1228z" glyph-name="h" horiz-adv-x="1139" unicode="h"/>
<glyph d="M109 795v61q27 11 72 22.5t95.5 20.5t99.5 15.5t87 6.5l33 -22l-162 -775h126v-61q-23 -16 -54.5 -30.5t-67 -25.5t-71.5 -17t-68 -6q-69 0 -94.5 26t-25.5 57q0 36 5 70t15 75l122 558zM263 1286q0 68 46.5 106.5t119.5 38.5q74 0 120.5 -38.5t46.5 -106.5 q0 -66 -46.5 -105t-120.5 -39q-73 0 -119.5 39t-46.5 105z" glyph-name="i" horiz-adv-x="569" unicode="i"/>
<glyph d="M222 772l-106 23v61q27 12 68.5 24t89 21t96 14.5t91.5 5.5l36 -22l-165 -822q-27 -127 -81 -212t-117 -137t-128 -77t-115 -32l-29 55q22 12 50.5 35t57.5 66t57 109t48 159zM265 1286q0 68 46.5 106.5t119.5 38.5q74 0 120.5 -38.5t46.5 -106.5q0 -66 -46.5 -105 t-120.5 -39q-73 0 -119.5 39t-46.5 105z" glyph-name="j" horiz-adv-x="569" unicode="j"/>
<glyph d="M584 81q-25 43 -44.5 86t-35.5 85t-29.5 82t-27.5 78l-58 17l-81 -429h-252l244 1228l-121 24v60q25 12 66.5 23.5t90.5 20.5t102 15t103 6l38 -19l-173 -849h58q31 23 63.5 55t61 65t51 64t35.5 53q1 12 2 34t1 45t-1.5 43.5t-4.5 30.5q31 11 78 17.5t95 6.5t91 -6.5 t62 -17.5q-15 -39 -41 -78.5t-58.5 -76.5t-68 -71t-70 -63t-65.5 -52t-53 -38q12 -35 38 -87t58.5 -108.5t68 -110t67.5 -90.5h97v-61q-18 -15 -46 -29t-60 -25.5t-67 -18t-66 -6.5q-43 0 -80 20t-68 77z" glyph-name="k" unicode="k"/>
<glyph d="M284 1228l-122 24v60q25 11 68 22.5t93.5 21t103.5 15.5t98 6l36 -19l-241 -1234h128v-61q-18 -15 -48.5 -29t-67.5 -25t-76.5 -18t-75.5 -7q-30 0 -52 7t-36.5 19t-21 27t-6.5 30q0 36 5 69.5t14 75.5z" glyph-name="l" horiz-adv-x="569" unicode="l"/>
<glyph d="M1180 539q9 42 20 89.5t11 74.5q0 35 -12 54.5t-43 19.5q-30 0 -62.5 -22.5t-63 -59.5t-58 -83.5t-49.5 -95.5l-117 -516h-241l109 505q13 56 22 108.5t9 96.5q0 67 -50 67q-26 0 -58 -23.5t-64.5 -60t-61.5 -83.5t-44 -95l-105 -515h-252l161 772l-103 23v61 q29 14 71 27t88.5 20.5t95.5 12.5t90 5l38 -22l-70 -262h7q27 48 65.5 99.5t87.5 91.5t104.5 66.5t112.5 26.5q22 0 45.5 -7.5t44 -26.5t33 -51.5t12.5 -82.5q0 -25 -4 -57t-12 -59q30 55 72 107t89.5 91t100.5 62.5t110 23.5q68 0 111.5 -43.5t43.5 -118.5 q0 -57 -11 -109.5t-23 -110.5l-103 -415h126v-61q-18 -15 -49.5 -29t-67.5 -25t-73.5 -18t-70.5 -7q-64 0 -89.5 26t-25.5 58q0 52 26 144z" glyph-name="m" horiz-adv-x="1593" unicode="m"/>
<glyph d="M710 513q13 55 23 98t10 91q0 30 -13.5 52.5t-47.5 22.5t-71 -26.5t-72 -65t-65 -85t-47 -85.5l-108 -515h-249l155 772l-106 23l4 61q24 12 64 24t86.5 21t96 14.5t94.5 5.5l36 -22l-56 -262h10q31 59 74.5 111t92 89.5t102.5 60.5t110 23q76 0 119 -48.5t43 -129.5 q0 -41 -9 -94.5t-22 -105.5l-98 -419h129v-61q-18 -15 -48 -29t-65 -25t-72.5 -18t-72.5 -7q-60 0 -88 23.5t-28 53.5q0 38 9 81t18 83z" glyph-name="n" horiz-adv-x="1139" unicode="n"/>
<glyph d="M64 345q0 64 14.5 132t43.5 132t73.5 120.5t104.5 99t135 67.5t167 25q162 0 253.5 -88t91.5 -263q0 -119 -36 -226t-104.5 -188.5t-167 -129.5t-222.5 -48q-77 0 -141.5 22.5t-111.5 68.5t-73.5 115t-26.5 161zM571 818q-72 0 -120 -54q-48 -55 -77 -136t-42 -177 q-7 -48 -10 -91.5t-3 -84.5q0 -91 35.5 -142.5t96.5 -51.5q52 0 96 44.5t76.5 118.5t50.5 170.5t18 200.5q0 100 -32 151.5t-89 51.5z" glyph-name="o" unicode="o"/>
<glyph d="M227 -246q31 -6 64.5 -21t56.5 -31v-69h-370l-24 24l239 1113l-104 25v61q30 12 74 24t92.5 21t95.5 14.5t83 5.5l36 -22l-60 -248h8q28 57 64 106t79.5 85.5t93 57.5t105.5 21q91 0 151 -72t60 -202q0 -146 -41 -269t-112.5 -212t-169 -138.5t-211.5 -49.5 q-26 0 -46.5 2t-38.5 6.5t-34.5 11.5t-34.5 16zM621 777q-38 0 -73.5 -28t-66 -69.5t-55.5 -90t-41 -88.5l-79 -389q23 -16 45.5 -23.5t66.5 -7.5q41 0 79 22.5t70.5 61t59.5 91t45.5 112.5t29 125.5t10.5 129.5q0 75 -23 114.5t-68 39.5z" glyph-name="p" unicode="p"/>
<glyph d="M731 -244q28 -5 60.5 -19.5t58.5 -34.5v-69h-371l-17 15l139 618h-7q-24 -51 -57 -103.5t-76 -95t-96 -69.5t-116 -27q-94 0 -149.5 73.5t-55.5 214.5q0 130 35.5 248t107.5 207.5t182 142.5t259 53q55 0 107.5 -6.5t97.5 -15.5t79.5 -19.5t52.5 -19.5zM389 115 q23 0 46 14t44.5 37t42 53.5t39.5 64t35.5 68t30.5 65.5l72 371q-34 20 -96 20q-48 0 -89.5 -22t-75.5 -60.5t-60 -90t-43.5 -111t-26.5 -124t-9 -127.5q0 -158 90 -158z" glyph-name="q" unicode="q"/>
<glyph d="M582 739q-24 -5 -49 -27.5t-47 -52.5t-40.5 -63t-28.5 -60l-115 -536h-252l161 772l-103 23v61q31 14 71.5 25.5t86 19.5t93.5 13t94 7l36 -22l-56 -223h7q26 53 58.5 96t67.5 78q71 71 153 71q20 0 44 -5.5t41 -16.5q3 -47 -5 -91t-23.5 -81.5t-37 -64.5t-45.5 -39z" glyph-name="r" horiz-adv-x="797" unicode="r"/>
<glyph d="M413 208q0 39 -21.5 70t-54.5 59.5t-70.5 57.5t-70.5 63.5t-54.5 78.5t-21.5 102q0 69 30.5 119.5t73.5 84.5q47 37 114 57.5t147 20.5q29 0 64 -3t70.5 -9.5t69 -17t60.5 -26.5q2 -20 -4.5 -51.5t-20 -63t-34 -57.5t-47.5 -35l-113 160q-30 3 -58 -2.5t-49.5 -20 t-34.5 -37.5t-13 -56q0 -40 22 -71t55.5 -60t72 -58t72 -65t55.5 -82t22 -107q0 -68 -30.5 -120.5t-84.5 -88t-127.5 -54t-159.5 -18.5q-45 0 -87 7.5t-77 18.5t-63 25t-46 26q-1 29 7 60.5t22.5 60t34.5 50t42 29.5l135 -174q6 0 12.5 -0.5t13.5 -0.5q28 0 55 7t47 22.5 t32.5 40t12.5 58.5z" glyph-name="s" horiz-adv-x="797" unicode="s"/>
<glyph d="M44 856q34 21 68 36.5t73 24.5l34 157q12 10 39 20t60 19t66.5 16t59.5 11l38 -22l-52 -219h179q2 -11 1 -26t-4 -30.5t-8 -30.5t-12 -26h-176l-104 -466q-15 -68 -15 -109q0 -48 18.5 -68.5t47.5 -20.5q23 0 44 6.5t39 16t33 20t25 18.5l23 -46q-21 -24 -50.5 -51.5 t-67.5 -51.5t-84 -40t-100 -16q-94 0 -140.5 43.5t-46.5 118.5q0 42 7.5 88.5t14.5 78.5l105 479h-115v70z" glyph-name="t" horiz-adv-x="569" unicode="t"/>
<glyph d="M1003 124v-61q-18 -15 -48 -29t-65 -25t-73.5 -18t-76.5 -7q-65 0 -89 26t-24 55q0 32 7.5 89.5t28.5 133.5h-7q-24 -43 -60 -97t-84 -102t-111.5 -79.5t-138.5 -31.5q-74 0 -119.5 44.5t-45.5 125.5q0 39 11.5 113t28.5 161t38 179.5t37 170.5l-107 23v61q29 11 72 22 t90 19.5t95.5 15t87.5 8.5l41 -22q-29 -135 -59 -256t-55 -257q-9 -43 -19 -95t-10 -104q0 -32 17.5 -48.5t41.5 -16.5q46 0 90 35t81 84.5t64.5 102t40.5 85.5l93 470h243l-142 -775h126z" glyph-name="u" horiz-adv-x="1139" unicode="u"/>
<glyph d="M525 314q48 89 87.5 180t68.5 191q0 20 -4.5 51t-9 63.5t-10 61t-8.5 38.5q25 11 62 16.5t74 5.5t71 -5.5t53 -16.5q-27 -111 -76 -229t-112.5 -235t-137 -227.5t-150.5 -207.5l-165 -22l-124 794l-115 14v61q22 13 52.5 25.5t67.5 23t75.5 18t76.5 7.5q49 0 68.5 -26.5 t24.5 -65.5l59 -518l10 -120h4z" glyph-name="v" horiz-adv-x="909" unicode="v"/>
<glyph d="M998 313q41 81 79.5 173.5t65.5 186.5q-1 19 -5.5 52.5t-10.5 68.5t-12 64.5t-10 40.5q25 11 62.5 16.5t75.5 5.5q36 0 69.5 -5.5t53.5 -16.5q-27 -111 -72 -228t-101.5 -233t-121.5 -227.5t-134 -210.5l-185 -22l-59 459l-7 138h-6l-56 -140q-8 -23 -20.5 -52t-26 -59.5 t-27 -59t-25.5 -49.5q-32 -57 -61 -110.5t-60 -104.5l-192 -22l-51 794l-120 14v61q21 13 52.5 26t67 23.5t73 17.5t70.5 7q49 0 75.5 -24.5t30.5 -64.5l10 -514l-3 -129h3l50 131l231 543l143 36q18 -68 31.5 -139.5t24 -145.5t19.5 -148.5t18 -147.5l9 -127h3z" glyph-name="w" horiz-adv-x="1366" unicode="w"/>
<glyph d="M396 363l-98 -90q-21 -24 -37.5 -45.5t-27.5 -47.5q-1 -15 -0.5 -38.5t2 -48t4 -47t5.5 -34.5q-31 -12 -71 -17.5t-80 -5.5q-39 0 -73.5 5.5t-53.5 17.5q17 56 62 119q23 32 48.5 64t53.5 63t61 60.5t64.5 56t60 48.5t49.5 39l-110 298l-124 15v61q25 15 60 29t73 25.5 t76.5 18t69.5 6.5q46 0 70.5 -24t37.5 -64l81 -284q28 22 49 43t42 43q23 23 41.5 49.5t26.5 42.5q2 13 0.5 36.5t-4.5 49t-6.5 48t-5.5 34.5q66 22 146 22q36 0 70 -6t53 -16q-15 -55 -59 -119.5t-98 -125.5q-27 -30 -59.5 -59t-64.5 -53.5t-59.5 -45t-44.5 -33.5l118 -314 l124 -15v-61q-17 -12 -49.5 -25.5t-70.5 -25.5t-77.5 -20t-71.5 -8q-48 0 -74.5 23.5t-39.5 62.5z" glyph-name="x" unicode="x"/>
<glyph d="M167 772l-115 14v61q9 6 36 18.5t64 25t78.5 21.5t80.5 9q49 0 76 -23.5t36 -65.5l86 -531l9 -108h4l37 106q9 16 19 36.5t20 43.5t19.5 46.5t18.5 46.5q19 50 32.5 92.5t22.5 93.5q-1 19 -6.5 54.5t-13 72.5t-15 68.5t-11.5 42.5q26 10 63.5 15.5t75.5 5.5t70.5 -5.5 t51.5 -15.5q-23 -108 -58.5 -219t-84.5 -226q-48 -115 -108 -227.5t-123 -223.5q-53 -93 -105 -158t-104 -113q-104 -96 -237 -96q-38 0 -69.5 10t-57.5 26q-5 25 4 59t26.5 67t41 59.5t48.5 35.5l134 -95q14 10 32.5 25t39 39t40.5 58.5t36 82.5z" glyph-name="y" horiz-adv-x="909" unicode="y"/>
<glyph d="M276 239q45 -10 83.5 -22.5t74 -27t70 -32t72.5 -38.5l120 118l60 -25l-79 -253q-8 -28 -30 -45.5t-58 -17.5q-38 0 -83.5 23t-102 53t-125 58.5t-150.5 39.5l-84 -86q-13 0 -28.5 6.5t-28 18t-20.5 26t-6 30.5l551 623q-35 0 -68.5 1.5t-68.5 5.5t-73 9.5t-81 12.5 l-82 -129l-61 11l25 254q10 70 103 70q32 0 79 -7.5t108 -17t134 -18t158 -10.5l47 51q24 -1 52 -25q27 -23 30 -52z" glyph-name="z" horiz-adv-x="797" unicode="z"/>
<glyph d="M158 198q19 98 -10.5 154t-103.5 56l18 93q74 0 126 59t68 144l87 447q18 92 75.5 148.5t150.5 56.5h234l-21 -107h-67q-53 0 -82 -27t-41 -89l-83 -426q-13 -64 -42 -108.5t-66 -73t-76.5 -42.5t-75.5 -18l-2 -12q32 -4 67 -19.5t60.5 -46.5t37 -76t-0.5 -108l-83 -426 q-12 -60 6 -88t75 -28h65l-21 -106h-234q-88 0 -127 51.5t-20 151.5z" glyph-name="braceleft" horiz-adv-x="713" unicode="{"/>
<glyph d="M208 1356h135v-1608h-135v1608z" glyph-name="bar" horiz-adv-x="451" unicode="|"/>
<glyph d="M553 715q-19 -99 10.5 -155.5t103.5 -56.5l-18 -93q-74 0 -126 -59t-68 -144l-87 -447q-18 -93 -76 -149t-151 -56h-234l21 106h68q52 0 81 27t41 89l83 428q13 64 39 108.5t60 72.5t70.5 42.5t71.5 18.5l3 12q-33 3 -64 19t-53.5 47t-31.5 76.5t3 107.5l83 424 q11 60 -6.5 88t-73.5 28h-66l21 107h236q87 0 126 -51.5t20 -151.5z" glyph-name="braceright" horiz-adv-x="713" unicode="}"/>
<glyph d="M182 604q53 113 130 172q79 59 149 59q49 0 95 -20.5t91 -45.5t90.5 -45.5t93.5 -20.5q35 0 73 14.5t77 51.5l44 -58q-45 -94 -108.5 -139t-129.5 -45q-50 0 -97.5 20.5t-94.5 45t-93 45t-93 20.5q-42 0 -85.5 -23t-88.5 -83z" glyph-name="asciitilde" horiz-adv-x="1167" unicode="~"/>
<glyph d="M460.042 554.052l23.9971 -375.954l-104.987 -537.935q-21.9971 -11.999 -61.4922 -16.998t-81.4902 -4.49902t-79.4902 5.99902t-56.4932 15.498l104.987 537.935l169.979 375.954h84.9893zM613.023 839.017q0 -69.9912 -43.9951 -112.486 q-43.9941 -42.4951 -117.985 -42.4951t-120.485 42.4951t-46.4941 112.486q0 68.9912 46.4941 110.486t120.485 41.4951t117.985 -41.4951q43.9951 -41.4951 43.9951 -110.486z" glyph-name="exclamdown" horiz-adv-x="797" unicode="¡"/>
<glyph d="M874 152q-20 -33 -49 -61.5t-71 -51.5q-83 -48 -185 -55l-59 -302h-145l59 302q-220 24 -310 152q-31 45 -46.5 106.5t-15.5 128.5q0 121 37.5 221t109 174t175.5 121t238 63l55 285h145l-54 -279q84 -4 149.5 -21.5t110.5 -41.5q-11 -32 -24.5 -71t-29.5 -77.5 t-33.5 -74t-35.5 -59.5h-64l-24 221q-8 4 -17.5 9t-35.5 7l-29 1l-139 -719q12 -3 27 -3h29q66 0 117.5 18.5t90.5 45.5zM347 402q0 -39 7 -76t22.5 -68.5t39.5 -57t57 -41.5l131 675q-81 -27 -149 -110q-31 -38 -51.5 -83.5t-33 -90t-18 -84t-5.5 -64.5z" glyph-name="cent" unicode="¢"/>
<glyph d="M95 726h154q-23 51 -39 110t-16 121q0 101 40.5 179.5t111 132.5t164 82t200.5 28q59 0 107 -4t90.5 -12.5t81.5 -22.5t79 -35q-7 -31 -22.5 -77t-35 -95.5t-39.5 -96t-36 -79.5h-66l-26 269q-26 12 -57 19.5t-67 7.5q-47 0 -88.5 -16t-72 -47t-48.5 -76t-18 -103 q0 -36 5.5 -72t13 -72t16.5 -71.5t17 -69.5h242l-23 -118h-209q-17 -100 -61 -182t-131 -155l-74 -46l-2 -8l103 12h302l136 216h66q-2 -29 -4.5 -67t-6.5 -80t-8 -85t-9 -82.5t-10 -73.5t-9 -57h-846l20 105q16 9 43 26.5t58.5 44t63.5 61t58 77t43 93t17 108.5 q0 26 -3.5 51t-8.5 42h-219z" glyph-name="sterling" unicode="£"/>
<glyph d="M66 345l144 143l78 27q-25 33 -35.5 68.5t-10.5 86.5q0 89 46 153l-78 29l-142 144l151 150l141 -143l31 -77q31 21 65.5 32.5t85.5 11.5q100 -2 154 -42l32 75l139 139l151 -148l-143 -142l-74 -27q19 -33 29 -69.5t12 -86.5q0 -88 -41 -154l74 -27l141 -143l-150 -151 l-142 141l-28 75q-28 -17 -67.5 -28.5t-84.5 -11.5q-51 2 -89 12.5t-68 27.5l-27 -73l-144 -143zM542 512q69 0 117 44t48 114q0 69 -48 115t-117 46q-70 2 -117.5 -45t-47.5 -116q0 -70 47.5 -114t117.5 -44z" glyph-name="currency" unicode="¤"/>
<glyph d="M819 1356h396l-14 -74q-17 -8 -35 -16.5t-36 -16t-34.5 -14t-29.5 -10.5l-304 -563h206l-24 -126h-254l-21 -110h254l-25 -126h-254l-33 -170q36 -4 71 -20.5t64 -35.5l-14 -74h-596l14 74q37 17 79.5 32.5t89.5 23.5l33 170h-256l25 126h256l21 110h-256l24 126h203 l-116 563q-14 4 -31 11t-34 15.5t-32.5 16.5t-26.5 14l14 74h567l-14 -74q-33 -16 -64.5 -31t-69.5 -26l87 -525l261 525q-35 12 -61 28.5t-44 28.5z" glyph-name="yen" unicode="¥"/>
<glyph d="M158 368h135v-620h-135v620zM293 736h-135v620h135v-620z" glyph-name="brokenbar" horiz-adv-x="451" unicode="¦"/>
<glyph d="M540 93q0 34 -20.5 60.5t-53.5 48t-76 39.5t-88 36q-42 19 -81.5 41.5t-70.5 52.5t-50 69t-19 92q0 66 28 116t84 93q88 68 209 113q-31 19 -58 40.5t-47 48.5t-31.5 60t-11.5 74q0 46 11.5 82t31 63.5t45 48.5t53.5 38q113 70 277 70q106 0 186 -16t146 -36 q-19 -63 -43 -114t-57 -109h-65l-72 149q-22 9 -41 12t-51 3q-38 0 -66.5 -11.5t-47 -29.5t-28 -41t-9.5 -46q0 -35 21 -61.5t55 -49t77 -43t87 -42.5q43 -20 84 -44.5t73 -56.5t51.5 -71.5t19.5 -88.5q0 -58 -28.5 -107t-73.5 -89.5t-99.5 -72t-106.5 -54.5q32 -19 57 -42 t45 -49q14 -19 21 -44.5t7 -54.5q0 -75 -38 -138.5t-115 -112.5q-122 -78 -316 -78q-94 0 -183.5 19.5t-155.5 54.5q18 72 46 117q14 23 32 49t41 54h65l82 -162q19 -16 39.5 -18.5t43.5 -2.5q64 0 118 33q34 20 50.5 48t16.5 60zM718 605q0 38 -19 66.5t-50 51.5t-71 42 t-81 39q-27 -17 -53 -38.5t-46 -46t-32 -51t-12 -54.5q0 -38 20 -66t52 -50.5t73.5 -42t83.5 -39.5q25 18 49.5 40.5t43.5 47t30.5 50t11.5 51.5z" glyph-name="section" unicode="§"/>
<glyph d="M160 1287q0 61 38.5 98t102.5 37q62 0 102 -37t40 -98q0 -59 -40 -96t-102 -37q-64 0 -102.5 37t-38.5 96zM559 1287q0 61 39 98t101 37q64 0 103.5 -37t39.5 -98q0 -59 -39.5 -96t-103.5 -37q-62 0 -101 37t-39 96z" glyph-name="dieresis" horiz-adv-x="682" unicode="¨"/>
<glyph d="M79 562q0 160 56.5 287t152.5 214.5t219 133.5t257 46t257 -46t219 -133.5t153 -214.5t57 -287q0 -161 -57 -287.5t-153 -214t-219 -134t-257 -46.5q-140 0 -264.5 46.5t-218.5 134t-148 214t-54 287.5zM208 562q0 -130 44.5 -234.5t120.5 -177t176.5 -112.5t214.5 -40 q119 0 220.5 40t175.5 112.5t117 177t43 234.5q0 133 -46.5 237.5t-123 177.5t-177.5 110.5t-209 37.5q-122 0 -223.5 -39.5t-175 -112.5t-115.5 -177.5t-42 -233.5zM970 426h65q4 -16 9 -40t8 -53t4 -58t-1 -52q-33 -27 -101.5 -45.5t-148.5 -18.5q-95 0 -173.5 26 t-135.5 77.5t-89 127t-32 174.5q0 100 36 175.5t93 126t129.5 76.5t146.5 26q92 0 160 -16.5t109 -40.5q2 -18 0 -47t-6 -61t-9 -63t-10 -51h-67l-57 161q-14 10 -37 10.5t-47 0.5q-87 0 -133.5 -73t-46.5 -224q0 -65 11 -119.5t34 -94.5t60 -62t89 -22q31 0 54 4.5t31 12.5 z" glyph-name="copyright" horiz-adv-x="1530" unicode="©"/>
<glyph d="M215 1160q-6 10 -11 29t-8 40t-4.5 41.5t-0.5 35.5q65 33 138.5 49t151.5 16q54 0 90 -9.5t58 -27.5t31.5 -43t9.5 -56q0 -30 -4.5 -59.5t-11.5 -57.5t-14 -53.5t-12 -46.5q-10 -42 -18 -77.5t-14 -66.5l74 -20l-14 -68q-19 -10 -42 -19t-46.5 -16t-45.5 -12t-39 -7h-50 q-10 56 -1 122h-7q-12 -18 -30.5 -39.5t-43 -41t-55.5 -32.5t-69 -13q-34 0 -59.5 12.5t-42 33t-25 46.5t-8.5 53q0 69 29 117t78 76q39 23 88 32t121 9q13 0 28.5 -1t22.5 -1q5 16 12 43t7 53q0 31 -13 51.5t-47 20.5q-21 0 -38.5 -2t-30.5 -7l-65 -104h-69zM329 845 q13 0 27 8.5t27 21t24 28t19 30.5l19 100q-9 1 -28.5 2t-36.5 1q-29 0 -47 -10t-29 -28q-19 -32 -19 -88q0 -31 9.5 -48t34.5 -17z" glyph-name="ordfeminine" horiz-adv-x="545" unicode="ª"/>
<glyph d="M492 501l429 430l69 -70l-272 -346l146 -366l-96 -70zM74 501l548 432l62 -70l-347 -350l220 -365l-89 -72z" glyph-name="guillemotleft" unicode="«"/>
<glyph d="M200 776h841v-418h-155v244h-686v174z" glyph-name="logicalnot" horiz-adv-x="1241" unicode="¬"/>
<glyph d="M274 874q0 127 45 228t120 170.5t174 106.5t207 37q111 0 211 -37t174 -106.5t117.5 -170.5t43.5 -228q0 -129 -44.5 -229.5t-120 -170t-174 -106.5t-207.5 -37q-110 0 -210 37t-174.5 106.5t-118 170t-43.5 229.5zM394 874q0 -101 34 -181.5t92 -138t135.5 -87 t164.5 -29.5q91 0 169.5 29.5t136 86t89 137t31.5 183.5q0 100 -33.5 180.5t-91.5 136.5t-136 87t-165 31q-92 0 -169.5 -31t-135 -87t-89.5 -136.5t-32 -180.5zM760 680q25 -2 39 -6.5t27 -11.5v-63h-267v63q33 12 68 18v416q-21 2 -36.5 6.5t-31.5 15.5v59h101q35 0 83 4 t79 4q104 0 170.5 -37.5t66.5 -125.5q0 -59 -37 -97t-91 -55q17 -29 31.5 -52.5t30.5 -45.5t36 -45t47 -47l44 -24v-57h-124l-54 20q-48 59 -72.5 117t-45.5 114h-64v-170zM813 1105q-22 0 -31.5 -0.5t-21.5 -4.5v-176h57q46 0 71 23t23 75q-2 45 -28 64t-70 19z" glyph-name="registered" horiz-adv-x="1530" unicode="®"/>
<glyph d="M378 1199v135h569v-135h-569z" glyph-name="macron" unicode="¯"/>
<glyph d="M247 1105q0 61 22.5 111t60 86t89 56.5t107.5 20.5q57 0 108 -17.5t89 -51t60 -85.5t22 -120q0 -63 -22 -113.5t-60 -86t-89 -54t-108 -18.5q-56 0 -107.5 18.5t-89 54t-60 86t-22.5 113.5zM381 1105q0 -72 44.5 -113t100.5 -41q62 0 104 37.5t42 116.5q0 76 -42 115.5 t-104 39.5q-63 0 -104 -40.5t-41 -114.5z" glyph-name="degree" horiz-adv-x="819" unicode="°"/>
<glyph d="M127 976h358v380h154v-380h358v-155h-358v-256h-154v256h-358v155zM127 473h870v-155h-870v155z" glyph-name="plusminus" horiz-adv-x="1124" unicode="±"/>
<glyph d="M300 1220h-52q-5 27 -9 65t-6 77t-2.5 73t2.5 54q19 10 45 25t60.5 28.5t78 23t96.5 9.5q46 0 89 -9.5t76.5 -31t53.5 -56.5t20 -85q0 -72 -35.5 -139t-98.5 -128.5t-150 -117.5t-190 -105l-2 -11l61 13h187l81 130h61q-2 -32 -7.5 -74t-11.5 -83t-12 -76t-9 -53h-537 l19 98q91 63 166.5 124.5t129.5 123t84 122.5t30 122q0 43 -19 67t-54 24q-21 0 -32 -3.5t-27 -11.5z" glyph-name="twosuperior" horiz-adv-x="614" unicode="²"/>
<glyph d="M294 844q28 0 55 12t48 34.5t34 53.5t13 70q0 44 -27.5 70t-95.5 26h-46l13 67l174 167l98 81l1 4l-122 -8h-78l-98 -161h-60q-2 30 -1.5 72.5t3 85.5t5 80t5.5 57h537l-17 -88l-208 -194l-79 -61l-1 -2h19q40 0 77 -11t65 -33t44.5 -56t16.5 -79q0 -28 -7 -62t-24 -67.5 t-45.5 -65t-71 -55.5t-100.5 -38.5t-134 -14.5q-40 0 -77 7.5t-68.5 19t-55.5 25.5t-37 27l87 205h52q6 -11 13 -30.5t14 -41.5t14 -45t12 -42q11 -4 20 -6.5t33 -2.5z" glyph-name="threesuperior" horiz-adv-x="614" unicode="³"/>
<glyph d="M695 1478q16 4 51.5 3t73 -7t68.5 -16t37 -23l-9 -47l-416 -290l-80 43z" glyph-name="acute" horiz-adv-x="682" unicode="´"/>
<glyph d="M218 24l29 -292l-14 -71q-31 -7 -59.5 -9.5t-55.5 -3.5q-61 -1 -114 13l217 1111l-105 13l13 71q31 12 75 22t91 18t90 14.5t73 10.5h61q-25 -127 -49 -234t-42.5 -189.5t-29.5 -140t-11 -87.5q0 -76 22 -112t71 -36q56 0 108.5 47t100.5 131l91 472l-115 13l14 71 q28 12 70.5 21.5t88.5 18t90.5 15t77.5 10.5h61l-153 -794l116 -14l-13 -63q-27 -11 -67.5 -21.5t-83.5 -20t-85.5 -16t-74.5 -9.5h-62l28 203h-6q-28 -47 -55.5 -77t-62.5 -60q-40 -34 -87 -52.5t-91 -18.5q-51 0 -88 13t-57 33h-7z" glyph-name="mu" horiz-adv-x="1180" unicode="µ"/>
<glyph d="M819 183q0 -131 -19.5 -215t-57.5 -135t-93 -77.5t-127 -42.5q-39 -55 -96 -83.5t-117 -39.5l-31 63q42 18 80 44t65.5 69.5t43.5 111.5t16 168v554q-62 0 -123 19.5t-110.5 63t-80 114.5t-30.5 171q0 82 24 152.5t71 122.5t121 82.5t173 30.5h437v-83q-32 -16 -67 -27.5 t-79 -20.5v-1042zM560 -215q80 25 107.5 124.5t27.5 273.5v1053h-85v-1190q0 -77 -11 -144t-39 -117z" glyph-name="paragraph" unicode="¶"/>
<glyph d="M247 -131q117 -6 170.5 -42t40.5 -106q-11 -56 -52 -97t-99.5 -68t-128.5 -40t-139 -13l15 75q138 21 156 110q6 44 -25 63.5t-98 28.5l123 222h114z" glyph-name="cedilla" horiz-adv-x="682" unicode="¸"/>
<glyph d="M610 747h-470l11 58q7 4 24.5 13.5t38.5 20t41.5 19.5t32.5 12l83 426l24 87q-32 -7 -61.5 -11t-62.5 -4q-10 0 -16.5 0.5t-13.5 1.5l15 77q75 12 153 46t156 80h77l-137 -703q31 -10 57.5 -26t58.5 -39z" glyph-name="onesuperior" horiz-adv-x="614" unicode="¹"/>
<glyph d="M126 976q0 72 22 142.5t65.5 126.5t108.5 90.5t151 34.5q61 0 106.5 -17.5t76 -49.5t45.5 -77.5t15 -101.5q0 -78 -22.5 -150t-66 -126.5t-108.5 -87t-150 -32.5q-62 0 -107.5 20t-75.5 54.5t-45 79t-15 94.5zM332 944q0 -59 12 -91.5t46 -32.5q19 0 40.5 18.5t39.5 58.5 t29.5 103.5t11.5 152.5q0 63 -13 93t-48 30q-21 0 -42 -17.5t-38 -57t-27.5 -103t-10.5 -154.5z" glyph-name="ordmasculine" horiz-adv-x="614" unicode="º"/>
<glyph d="M78 79l-68 70l279 352l-141 360l96 70l269 -425zM378 78l-61 71l352 352l-213 362l88 70l387 -427z" glyph-name="guillemotright" unicode="»"/>
<glyph d="M1375 1384l93 -81l-1133 -1329l-91 84zM572 545h-481l11 58q7 4 25.5 13.5t41 20t44 19.5t33.5 12l83 426l24 87q-32 -7 -61.5 -11t-62.5 -4q-10 0 -16.5 0.5t-13.5 1.5l15 77q75 12 153 46t156 80h77l-137 -703q31 -10 59.5 -26t60.5 -39zM1385 0h-472l12 59 q13 7 32 15.5t40 16.5t42 14.5t38 9.5l20 105h-357l14 70l544 538h135l-95 -492h124l-23 -116h-124l-20 -105q17 -6 45 -19.5t57 -36.5zM1153 509l35 95h-6l-64 -85l-126 -142l-81 -55l107 14h102z" glyph-name="onequarter" horiz-adv-x="1536" unicode="¼"/>
<glyph d="M1314 1384l93 -81l-1133 -1329l-91 84zM542 545h-481l11 58q7 4 25.5 13.5t41 20t44 19.5t33.5 12l83 426l24 87q-32 -7 -61.5 -11t-62.5 -4q-10 0 -16.5 0.5t-13.5 1.5l15 77q75 12 153 46t156 80h77l-137 -703q31 -10 59.5 -26t60.5 -39zM1083 472h-52q-5 27 -9 65 t-6 77t-2.5 73t2.5 54q19 10 45 25t60.5 28.5t78 23t96.5 9.5q46 0 89 -9.5t76.5 -31t53.5 -56.5t20 -85q0 -72 -35.5 -139t-98.5 -128.5t-150 -117.5t-190 -105l-2 -11l61 13h187l81 130h61q-2 -32 -7.5 -74t-11.5 -83t-12 -76t-9 -53h-537l19 98q91 63 166.5 124.5 t129.5 123t84 122.5t30 122q0 43 -19 67t-54 24q-21 0 -32 -3.5t-27 -11.5z" glyph-name="onehalf" horiz-adv-x="1536" unicode="½"/>
<glyph d="M1369 1384l93 -81l-1133 -1329l-91 84zM313 643q28 0 55 12t48 34.5t34 53.5t13 70q0 44 -27.5 70t-95.5 26h-46l13 67l174 167l98 81l1 4l-122 -8h-78l-98 -161h-60q-2 30 -1.5 72.5t3 85.5t5 80t5.5 57h537l-17 -88l-208 -194l-79 -61l-1 -2h19q40 0 77 -11t65 -33 t44.5 -56t16.5 -79q0 -28 -7 -62t-24 -67.5t-45.5 -65t-71 -55.5t-100.5 -38.5t-134 -14.5q-40 0 -77 7.5t-68.5 19t-55.5 25.5t-37 27l87 205h52q6 -11 13 -30.5t14 -41.5t14 -45t12 -42q11 -4 20 -6.5t33 -2.5zM1355 0h-472l12 59q13 7 32 15.5t40 16.5t42 14.5t38 9.5 l20 105h-357l14 70l544 538h135l-95 -492h124l-23 -116h-124l-20 -105q17 -6 45 -19.5t57 -36.5zM1123 509l35 95h-6l-64 -85l-126 -142l-81 -55l107 14h102z" glyph-name="threequarters" horiz-adv-x="1536" unicode="¾"/>
<glyph d="M671.046 6.11816h64.9922q4 -14.998 7.99902 -40.9951q4 -25.9961 7.49902 -56.9932q3.5 -30.9961 6.49902 -63.9922q3 -32.9951 4.5 -62.4922q1.5 -29.4961 2 -52.4932q0.499023 -22.9971 -1.5 -32.9961q-37.9961 -18.998 -82.4902 -36.9951 q-44.4941 -17.998 -93.4883 -31.9961q-48.9941 -13.999 -101.988 -21.998q-52.9932 -7.99902 -107.986 -7.99902q-69.9912 0 -128.484 15.998t-103.487 46.9941q-52.9932 36.9961 -81.9902 91.4893q-28.9961 54.4932 -28.9961 117.485q0 71.9912 21.9971 127.984 t59.4932 101.488q37.4951 45.4941 87.9893 83.4893q50.4932 37.9951 107.486 73.9912q45.9941 28.9961 92.4893 56.9932q46.4941 27.9961 86.4893 64.9922q39.9951 36.9951 68.4912 85.9893q28.4971 48.9941 37.4961 118.985h62.9922q1 -6.99902 1.5 -25.9971 q0.499023 -18.9971 0.999023 -41.9941q0.5 -22.998 0.5 -45.4951v-37.4951q0 -57.9932 -19.4971 -101.987q-19.498 -43.9951 -50.4941 -79.9902q-30.9961 -35.9961 -68.4912 -65.9922q-37.4961 -29.9961 -73.4912 -61.9922q-25.9971 -22.9971 -49.9941 -47.9941 t-42.9951 -54.4941q-18.9971 -29.4961 -29.9961 -64.9912q-10.998 -35.4961 -10.998 -78.4912q0 -44.9941 12.998 -74.9902t33.4961 -46.9941q20.4971 -16.998 45.9941 -23.9971t50.4941 -6.99902q34.9951 0 62.9922 8.99805q27.9961 8.99902 44.9941 18.998z M806.029 839.017q0 -69.9912 -43.9941 -112.486q-43.9951 -42.4951 -117.985 -42.4951q-73.9912 0 -120.485 42.4951q-46.4951 42.4951 -46.4951 112.486q0 68.9912 46.4951 110.486q46.4941 41.4951 120.485 41.4951q73.9902 0 117.985 -41.4951 q43.9941 -41.4951 43.9941 -110.486z" glyph-name="questiondown" unicode="¿"/>
<glyph d="M814 438h-388l-169 -308q85 -12 157 -56l-14 -74h-474l14 74q36 19 72 33.5t71 22.5l738 1249h143l178 -1249q76 -17 129 -56l-14 -74h-601l14 74q41 17 86 32.5t86 23.5zM495 564h307l-33 369l-1 137h-4l-68 -140zM1021 1490l-73 -37l-421 185l8 39q5 10 25.5 20.5 t48.5 20t60.5 17t63 12t55.5 5.5t38 -3z" glyph-name="Agrave" horiz-adv-x="1366" unicode="À"/>
<glyph d="M814 438h-388l-169 -308q85 -12 157 -56l-14 -74h-474l14 74q36 19 72 33.5t71 22.5l738 1249h143l178 -1249q76 -17 129 -56l-14 -74h-601l14 74q41 17 86 32.5t86 23.5zM495 564h307l-33 369l-1 137h-4l-68 -140zM1142 1749q31 2 69.5 -4t74 -16.5t63.5 -24t37 -27.5 l-8 -39l-515 -185l-45 46z" glyph-name="Aacute" horiz-adv-x="1366" unicode="Á"/>
<glyph d="M814 438h-388l-169 -308q85 -12 157 -56l-14 -74h-474l14 74q36 19 72 33.5t71 22.5l738 1249h143l178 -1249q76 -17 129 -56l-14 -74h-601l14 74q41 17 86 32.5t86 23.5zM495 564h307l-33 369l-1 137h-4l-68 -140zM644 1449l-44 54l290 227q20 10 61 10q42 0 59 -10 l199 -221l-65 -58l-235 108z" glyph-name="Acircumflex" horiz-adv-x="1366" unicode="Â"/>
<glyph d="M814 438h-388l-169 -308q85 -12 157 -56l-14 -74h-474l14 74q36 19 72 33.5t71 22.5l738 1249h143l178 -1249q76 -17 129 -56l-14 -74h-601l14 74q41 17 86 32.5t86 23.5zM495 564h307l-33 369l-1 137h-4l-68 -140zM1259 1592q-62 -61 -116 -93.5t-124 -32.5 q-36 0 -68.5 11t-63.5 22.5t-60 22t-60 10.5q-26 0 -58.5 -10.5t-63.5 -37.5l-54 91q148 131 261 131q35 0 67.5 -9.5t61 -21t58 -21t59.5 -9.5q26 0 57 8.5t61 29.5z" glyph-name="Atilde" horiz-adv-x="1366" unicode="Ã"/>
<glyph d="M814 438h-388l-169 -308q85 -12 157 -56l-14 -74h-474l14 74q36 19 72 33.5t71 22.5l738 1249h143l178 -1249q76 -17 129 -56l-14 -74h-601l14 74q41 17 86 32.5t86 23.5zM495 564h307l-33 369l-1 137h-4l-68 -140zM508 1596q0 62 44.5 93t112.5 31q67 0 112 -31t45 -93 q0 -54 -45 -84.5t-112 -30.5q-68 0 -112.5 30.5t-44.5 84.5zM983 1596q0 62 45.5 93t113.5 31q67 0 111.5 -31t44.5 -93q0 -54 -44.5 -84.5t-111.5 -30.5q-68 0 -113.5 30.5t-45.5 84.5z" glyph-name="Adieresis" horiz-adv-x="1366" unicode="Ä"/>
<glyph d="M726 1526q0 80 69.5 127t188.5 47q51 0 95 -10.5t78 -31.5t53 -52.5t19 -73.5q0 -76 -69 -122q-50 -34 -123 -43l177 -1237q76 -17 129 -56l-14 -74h-601l14 74q41 17 86 32.5t86 23.5l-28 308h-388l-169 -308q85 -12 157 -56l-14 -74h-474l14 74q36 19 72 33.5t71 22.5 l733 1241q-58 11 -96 37q-66 44 -66 118zM567 564h307l-33 369l-1 137h-4l-68 -140zM887 1526q0 -33 29 -49.5t58 -16.5q44 0 69.5 16.5t25.5 47.5q0 45 -26 62.5t-63 17.5q-41 0 -67 -17.5t-26 -60.5z" glyph-name="Aring" horiz-adv-x="1366" unicode="Å"/>
<glyph d="M686 74q34 15 75 30.5t85 25.5l67 343h-368l-274 -343q38 -8 72.5 -22t65.5 -34l-14 -74h-469l14 74q35 19 72.5 33.5t74.5 22.5l910 1106q-27 9 -54 19.5t-49 26.5l15 74h1065q-20 -88 -47.5 -180.5t-59.5 -174.5h-82l-45 228h-390l-92 -473h266l115 148h60 q-5 -48 -12.5 -100.5t-18.5 -110.5q-23 -116 -52 -216h-60l-57 153h-266l-98 -504h405l152 246h81q0 -38 -2 -84t-6 -95.5t-10 -99t-15 -93.5h-1068zM646 599h291l72 366l30 133h-3l-90 -125z" glyph-name="AE" horiz-adv-x="1933" unicode="Æ"/>
<glyph d="M1138 407h79q0 -30 -3 -76.5t-8 -96.5t-11 -98.5t-12 -81.5q-50 -22 -106 -37t-114 -24t-115 -13t-109 -4h-4l-55 -89q115 -3 181 -45q26 -17 38.5 -42.5t12.5 -57.5q0 -38 -15 -69.5t-40.5 -58t-60.5 -47.5t-74 -38q-35 -15 -71.5 -26t-71.5 -18t-68 -10.5t-60 -3.5 l17 89q70 11 118 39.5t59 82.5q6 45 -21 70t-107 30l100 202q-116 14 -209.5 56.5t-160.5 113.5t-103 170t-36 226q0 141 38 257.5t103 209t152.5 160.5t187 113t205.5 67t209 22q64 0 126 -5.5t117 -15t100.5 -22t75.5 -25.5q-5 -27 -18.5 -75t-30.5 -102t-35 -106.5 t-33 -88.5h-82l-49 293q-8 4 -27 7.5t-42.5 6.5t-48.5 5t-45 2q-64 0 -131.5 -18t-132 -55.5t-122.5 -95t-101.5 -136t-69 -179.5t-25.5 -225q0 -99 22.5 -180t69 -139t118 -90t170.5 -32q27 0 54.5 3t52.5 8t44.5 10.5t29.5 10.5z" glyph-name="Ccedilla" horiz-adv-x="1366" unicode="Ç"/>
<glyph d="M1374 1356q-21 -88 -48.5 -180.5t-59.5 -174.5h-80l-44 228h-479l-92 -473h338l114 148h62q-5 -48 -12.5 -100.5t-18.5 -110.5q-23 -116 -52 -216h-62l-56 153h-338l-98 -504h484l151 246h79q1 -38 -1 -84t-6 -95.5t-10.5 -99t-15.5 -93.5h-1154l14 74q37 17 80 32.5 t90 23.5l213 1095q-38 9 -78.5 23t-69.5 34l15 74h1135zM996 1490l-73 -37l-421 185l8 39q5 10 25.5 20.5t48.5 20t60.5 17t63 12t55.5 5.5t38 -3z" glyph-name="Egrave" horiz-adv-x="1366" unicode="È"/>
<glyph d="M1374 1356q-21 -88 -48.5 -180.5t-59.5 -174.5h-80l-44 228h-479l-92 -473h338l114 148h62q-5 -48 -12.5 -100.5t-18.5 -110.5q-23 -116 -52 -216h-62l-56 153h-338l-98 -504h484l151 246h79q1 -38 -1 -84t-6 -95.5t-10.5 -99t-15.5 -93.5h-1154l14 74q37 17 80 32.5 t90 23.5l213 1095q-38 9 -78.5 23t-69.5 34l15 74h1135zM1042 1749q31 2 69.5 -4t74 -16.5t63.5 -24t37 -27.5l-8 -39l-515 -185l-45 46z" glyph-name="Eacute" horiz-adv-x="1366" unicode="É"/>
<glyph d="M1374 1356q-21 -88 -48.5 -180.5t-59.5 -174.5h-80l-44 228h-479l-92 -473h338l114 148h62q-5 -48 -12.5 -100.5t-18.5 -110.5q-23 -116 -52 -216h-62l-56 153h-338l-98 -504h484l151 246h79q1 -38 -1 -84t-6 -95.5t-10.5 -99t-15.5 -93.5h-1154l14 74q37 17 80 32.5 t90 23.5l213 1095q-38 9 -78.5 23t-69.5 34l15 74h1135zM610 1449l-44 54l290 227q20 10 61 10q42 0 59 -10l199 -221l-65 -58l-235 108z" glyph-name="Ecircumflex" horiz-adv-x="1366" unicode="Ê"/>
<glyph d="M1374 1356q-21 -88 -48.5 -180.5t-59.5 -174.5h-80l-44 228h-479l-92 -473h338l114 148h62q-5 -48 -12.5 -100.5t-18.5 -110.5q-23 -116 -52 -216h-62l-56 153h-338l-98 -504h484l151 246h79q1 -38 -1 -84t-6 -95.5t-10.5 -99t-15.5 -93.5h-1154l14 74q37 17 80 32.5 t90 23.5l213 1095q-38 9 -78.5 23t-69.5 34l15 74h1135zM454 1596q0 62 44.5 93t112.5 31q67 0 112 -31t45 -93q0 -54 -45 -84.5t-112 -30.5q-68 0 -112.5 30.5t-44.5 84.5zM929 1596q0 62 45.5 93t113.5 31q67 0 111.5 -31t44.5 -93q0 -54 -44.5 -84.5t-111.5 -30.5 q-68 0 -113.5 30.5t-45.5 84.5z" glyph-name="Edieresis" horiz-adv-x="1366" unicode="Ë"/>
<glyph d="M595 -10h-604l14 74q86 42 168 56l213 1095q-38 7 -77.5 22t-68.5 35l15 74h604l-15 -74q-38 -22 -82.5 -36t-84.5 -21l-213 -1095q37 -8 76.5 -21.5t68.5 -34.5zM749 1490l-73 -37l-421 185l8 39q5 10 25.5 20.5t48.5 20t60.5 17t63 12t55.5 5.5t38 -3z" glyph-name="Igrave" horiz-adv-x="797" unicode="Ì"/>
<glyph d="M595 -10h-604l14 74q86 42 168 56l213 1095q-38 7 -77.5 22t-68.5 35l15 74h604l-15 -74q-38 -22 -82.5 -36t-84.5 -21l-213 -1095q37 -8 76.5 -21.5t68.5 -34.5zM780 1749q31 2 69.5 -4t74 -16.5t63.5 -24t37 -27.5l-8 -39l-515 -185l-45 46z" glyph-name="Iacute" horiz-adv-x="797" unicode="Í"/>
<glyph d="M595 -10h-604l14 74q86 42 168 56l213 1095q-38 7 -77.5 22t-68.5 35l15 74h604l-15 -74q-38 -22 -82.5 -36t-84.5 -21l-213 -1095q37 -8 76.5 -21.5t68.5 -34.5zM326 1449l-44 54l290 227q20 10 61 10q42 0 59 -10l199 -221l-65 -58l-235 108z" glyph-name="Icircumflex" horiz-adv-x="797" unicode="Î"/>
<glyph d="M595 -10h-604l14 74q86 42 168 56l213 1095q-38 7 -77.5 22t-68.5 35l15 74h604l-15 -74q-38 -22 -82.5 -36t-84.5 -21l-213 -1095q37 -8 76.5 -21.5t68.5 -34.5zM194 1596q0 62 44.5 93t112.5 31q67 0 112 -31t45 -93q0 -54 -45 -84.5t-112 -30.5q-68 0 -112.5 30.5 t-44.5 84.5zM669 1596q0 62 45.5 93t113.5 31q67 0 111.5 -31t44.5 -93q0 -54 -44.5 -84.5t-111.5 -30.5q-68 0 -113.5 30.5t-45.5 84.5z" glyph-name="Idieresis" horiz-adv-x="797" unicode="Ï"/>
<glyph d="M-25 0l14 74q37 19 79.5 33.5t89.5 22.5l98 507h-163l23 117h163l92 471q-43 11 -81 25t-66 32l15 74h225q32 0 85.5 2.5t112 5t113 5t89.5 2.5q145 0 252.5 -35t178.5 -103t106.5 -167t35.5 -228q0 -113 -23.5 -220t-72 -202t-121.5 -174.5t-172 -137t-224 -89.5 t-277 -32q-26 0 -71.5 2.5t-97 6t-102.5 6t-89 2.5h-212zM801 1245q-18 0 -38.5 -0.5l-41 -1t-38.5 -2t-30 -3.5l-94 -484h296l-23 -117h-296l-101 -521q9 -1 27.5 -2.5t39 -2.5t39.5 -1.5t29 -0.5q109 0 192 34.5t144 91.5t101.5 132t65 156.5t35 163t10.5 153.5 q0 81 -13.5 154t-48.5 129t-96.5 89t-158.5 33z" glyph-name="Eth" horiz-adv-x="1479" unicode="Ð"/>
<glyph d="M1098 1356h480l-15 -74q-42 -29 -90.5 -51.5t-90.5 -33.5l-238 -1221h-164l-461 989l-48 149h-6l-13 -155l-157 -808q38 -9 80 -32t71 -45l-14 -74h-478l14 74q40 22 85 42.5t92 34.5l206 1057q-35 16 -70.5 35t-61.5 41l14 72h419l368 -806l58 -166h7l23 166l126 647 q-45 15 -83.5 37.5t-67.5 47.5zM1294 1592q-62 -61 -116 -93.5t-124 -32.5q-36 0 -68.5 11t-63.5 22.5t-60 22t-60 10.5q-26 0 -58.5 -10.5t-63.5 -37.5l-54 91q148 131 261 131q35 0 67.5 -9.5t61 -21t58 -21t59.5 -9.5q26 0 57 8.5t61 29.5z" glyph-name="Ntilde" horiz-adv-x="1479" unicode="Ñ"/>
<glyph d="M82 548q0 113 28 218.5t79 198t123.5 168.5t162.5 131t194.5 85t220.5 30q134 0 237 -42.5t173.5 -118.5t107 -180.5t36.5 -228.5q0 -173 -57 -325t-162.5 -265t-257 -178t-340.5 -65q-134 0 -235.5 42.5t-170.5 119t-104 181t-35 229.5zM407 533q0 -92 14 -170.5 t44.5 -136t78.5 -90.5t116 -33q75 0 138 28.5t114 79t89.5 120t65 151.5t39.5 173t13 185q0 90 -14 165.5t-45 130.5t-80 86t-119 31q-74 0 -137 -29.5t-113.5 -81t-88.5 -121t-63.5 -149.5t-38.5 -167t-13 -172zM1143 1490l-73 -37l-421 185l8 39q5 10 25.5 20.5t48.5 20 t60.5 17t63 12t55.5 5.5t38 -3z" glyph-name="Ograve" horiz-adv-x="1479" unicode="Ò"/>
<glyph d="M82 548q0 113 28 218.5t79 198t123.5 168.5t162.5 131t194.5 85t220.5 30q134 0 237 -42.5t173.5 -118.5t107 -180.5t36.5 -228.5q0 -173 -57 -325t-162.5 -265t-257 -178t-340.5 -65q-134 0 -235.5 42.5t-170.5 119t-104 181t-35 229.5zM407 533q0 -92 14 -170.5 t44.5 -136t78.5 -90.5t116 -33q75 0 138 28.5t114 79t89.5 120t65 151.5t39.5 173t13 185q0 90 -14 165.5t-45 130.5t-80 86t-119 31q-74 0 -137 -29.5t-113.5 -81t-88.5 -121t-63.5 -149.5t-38.5 -167t-13 -172zM1131 1749q31 2 69.5 -4t74 -16.5t63.5 -24t37 -27.5l-8 -39 l-515 -185l-45 46z" glyph-name="Oacute" horiz-adv-x="1479" unicode="Ó"/>
<glyph d="M82 548q0 113 28 218.5t79 198t123.5 168.5t162.5 131t194.5 85t220.5 30q134 0 237 -42.5t173.5 -118.5t107 -180.5t36.5 -228.5q0 -173 -57 -325t-162.5 -265t-257 -178t-340.5 -65q-134 0 -235.5 42.5t-170.5 119t-104 181t-35 229.5zM407 533q0 -92 14 -170.5 t44.5 -136t78.5 -90.5t116 -33q75 0 138 28.5t114 79t89.5 120t65 151.5t39.5 173t13 185q0 90 -14 165.5t-45 130.5t-80 86t-119 31q-74 0 -137 -29.5t-113.5 -81t-88.5 -121t-63.5 -149.5t-38.5 -167t-13 -172zM651 1449l-44 54l290 227q20 10 61 10q42 0 59 -10l199 -221 l-65 -58l-235 108z" glyph-name="Ocircumflex" horiz-adv-x="1479" unicode="Ô"/>
<glyph d="M82 548q0 113 28 218.5t79 198t123.5 168.5t162.5 131t194.5 85t220.5 30q134 0 237 -42.5t173.5 -118.5t107 -180.5t36.5 -228.5q0 -173 -57 -325t-162.5 -265t-257 -178t-340.5 -65q-134 0 -235.5 42.5t-170.5 119t-104 181t-35 229.5zM407 533q0 -92 14 -170.5 t44.5 -136t78.5 -90.5t116 -33q75 0 138 28.5t114 79t89.5 120t65 151.5t39.5 173t13 185q0 90 -14 165.5t-45 130.5t-80 86t-119 31q-74 0 -137 -29.5t-113.5 -81t-88.5 -121t-63.5 -149.5t-38.5 -167t-13 -172zM1290 1592q-62 -61 -116 -93.5t-124 -32.5q-36 0 -68.5 11 t-63.5 22.5t-60 22t-60 10.5q-26 0 -58.5 -10.5t-63.5 -37.5l-54 91q148 131 261 131q35 0 67.5 -9.5t61 -21t58 -21t59.5 -9.5q26 0 57 8.5t61 29.5z" glyph-name="Otilde" horiz-adv-x="1479" unicode="Õ"/>
<glyph d="M82 548q0 113 28 218.5t79 198t123.5 168.5t162.5 131t194.5 85t220.5 30q134 0 237 -42.5t173.5 -118.5t107 -180.5t36.5 -228.5q0 -173 -57 -325t-162.5 -265t-257 -178t-340.5 -65q-134 0 -235.5 42.5t-170.5 119t-104 181t-35 229.5zM407 533q0 -92 14 -170.5 t44.5 -136t78.5 -90.5t116 -33q75 0 138 28.5t114 79t89.5 120t65 151.5t39.5 173t13 185q0 90 -14 165.5t-45 130.5t-80 86t-119 31q-74 0 -137 -29.5t-113.5 -81t-88.5 -121t-63.5 -149.5t-38.5 -167t-13 -172zM565 1596q0 62 44.5 93t112.5 31q67 0 112 -31t45 -93 q0 -54 -45 -84.5t-112 -30.5q-68 0 -112.5 30.5t-44.5 84.5zM1040 1596q0 62 45.5 93t113.5 31q67 0 111.5 -31t44.5 -93q0 -54 -44.5 -84.5t-111.5 -30.5q-68 0 -113.5 30.5t-45.5 84.5z" glyph-name="Odieresis" horiz-adv-x="1479" unicode="Ö"/>
<glyph d="M218 412l252 255l-248 249l108 108l249 -248l255 252l108 -108l-252 -253l258 -259l-110 -110l-259 258l-253 -252z" glyph-name="multiply" horiz-adv-x="1167" unicode="×"/>
<glyph d="M82 548q0 113 28 218.5t79 198t123.5 168.5t162.5 131t194.5 85t220.5 30q84 0 154.5 -16.5t130.5 -48.5l94 115l108 -75l-95 -117q80 -77 121 -186t41 -242q0 -173 -57 -325t-162.5 -265t-257 -178t-340.5 -65q-98 0 -178 23t-143 65l-94 -113l-103 76l101 122 q-64 76 -96 177t-32 222zM1119 840q0 100 -18 181l-645 -776q30 -66 80 -104t124 -38q75 0 138 28.5t114 79t89.5 120t65 151.5t39.5 173t13 185zM407 533q0 -36 1.5 -70.5t6.5 -66.5l631 762q-31 45 -76.5 70t-108.5 25q-74 0 -137 -29.5t-113.5 -81t-88.5 -121 t-63.5 -149.5t-38.5 -167t-13 -172z" glyph-name="Oslash" horiz-adv-x="1479" unicode="Ø"/>
<glyph d="M225 1356h597l-14 -74q-71 -40 -159 -57l-145 -745q-6 -31 -8.5 -58.5t-2.5 -51.5q0 -63 19 -106t53.5 -69.5t83 -38.5t107.5 -12q64 0 120 18t102 58.5t79.5 106.5t52.5 163l141 726q-44 9 -87.5 26.5t-69.5 39.5l14 74h481l-14 -74q-41 -25 -86.5 -41t-86.5 -25 l-142 -728q-24 -124 -75 -218.5t-126.5 -158t-174 -96t-218.5 -32.5q-94 0 -179.5 17t-150 57.5t-102.5 108.5t-37 170q0 31 4 64.5t11 70.5l147 754q-38 7 -77.5 21t-70.5 36zM1101 1490l-73 -37l-421 185l8 39q5 10 25.5 20.5t48.5 20t60.5 17t63 12t55.5 5.5t38 -3z" glyph-name="Ugrave" horiz-adv-x="1479" unicode="Ù"/>
<glyph d="M225 1356h597l-14 -74q-71 -40 -159 -57l-145 -745q-6 -31 -8.5 -58.5t-2.5 -51.5q0 -63 19 -106t53.5 -69.5t83 -38.5t107.5 -12q64 0 120 18t102 58.5t79.5 106.5t52.5 163l141 726q-44 9 -87.5 26.5t-69.5 39.5l14 74h481l-14 -74q-41 -25 -86.5 -41t-86.5 -25 l-142 -728q-24 -124 -75 -218.5t-126.5 -158t-174 -96t-218.5 -32.5q-94 0 -179.5 17t-150 57.5t-102.5 108.5t-37 170q0 31 4 64.5t11 70.5l147 754q-38 7 -77.5 21t-70.5 36zM1183 1749q31 2 69.5 -4t74 -16.5t63.5 -24t37 -27.5l-8 -39l-515 -185l-45 46z" glyph-name="Uacute" horiz-adv-x="1479" unicode="Ú"/>
<glyph d="M225 1356h597l-14 -74q-71 -40 -159 -57l-145 -745q-6 -31 -8.5 -58.5t-2.5 -51.5q0 -63 19 -106t53.5 -69.5t83 -38.5t107.5 -12q64 0 120 18t102 58.5t79.5 106.5t52.5 163l141 726q-44 9 -87.5 26.5t-69.5 39.5l14 74h481l-14 -74q-41 -25 -86.5 -41t-86.5 -25 l-142 -728q-24 -124 -75 -218.5t-126.5 -158t-174 -96t-218.5 -32.5q-94 0 -179.5 17t-150 57.5t-102.5 108.5t-37 170q0 31 4 64.5t11 70.5l147 754q-38 7 -77.5 21t-70.5 36zM716 1449l-44 54l290 227q20 10 61 10q42 0 59 -10l199 -221l-65 -58l-235 108z" glyph-name="Ucircumflex" horiz-adv-x="1479" unicode="Û"/>
<glyph d="M225 1356h597l-14 -74q-71 -40 -159 -57l-145 -745q-6 -31 -8.5 -58.5t-2.5 -51.5q0 -63 19 -106t53.5 -69.5t83 -38.5t107.5 -12q64 0 120 18t102 58.5t79.5 106.5t52.5 163l141 726q-44 9 -87.5 26.5t-69.5 39.5l14 74h481l-14 -74q-41 -25 -86.5 -41t-86.5 -25 l-142 -728q-24 -124 -75 -218.5t-126.5 -158t-174 -96t-218.5 -32.5q-94 0 -179.5 17t-150 57.5t-102.5 108.5t-37 170q0 31 4 64.5t11 70.5l147 754q-38 7 -77.5 21t-70.5 36zM578 1596q0 62 44.5 93t112.5 31q67 0 112 -31t45 -93q0 -54 -45 -84.5t-112 -30.5 q-68 0 -112.5 30.5t-44.5 84.5zM1053 1596q0 62 45.5 93t113.5 31q67 0 111.5 -31t44.5 -93q0 -54 -44.5 -84.5t-111.5 -30.5q-68 0 -113.5 30.5t-45.5 84.5z" glyph-name="Udieresis" horiz-adv-x="1479" unicode="Ü"/>
<glyph d="M949 1356h475l-14 -74q-33 -18 -72 -34t-77 -23l-469 -658l-85 -437q38 -4 72.5 -20.5t63.5 -35.5l-14 -74h-596l14 74q36 17 79.5 32.5t90.5 23.5l85 435l-203 660q-44 9 -80.5 24t-65.5 33l14 74h635l-14 -74q-30 -16 -67.5 -31t-87.5 -26l113 -498l333 498 q-43 11 -80.5 26t-63.5 31zM1085 1749q31 2 69.5 -4t74 -16.5t63.5 -24t37 -27.5l-8 -39l-515 -185l-45 46z" glyph-name="Yacute" horiz-adv-x="1251" unicode="Ý"/>
<glyph d="M448 122q51 -6 98.5 -22.5t85.5 -35.5l-12 -64h-645l12 64q42 21 86 35t84 21l217 1116q-38 6 -77.5 21.5t-68.5 34.5l13 64h604l-13 -64q-39 -22 -83 -36t-85 -20l-17 -88q41 5 74 7.5t70 2.5q97 0 182.5 -14t149.5 -56q56 -37 92 -104.5t36 -158.5q0 -83 -24.5 -151.5 t-68.5 -123t-103.5 -95.5t-129 -68t-146.5 -40.5t-155 -13.5h-27.5t-39 1t-39.5 2t-28 3zM723 1033q-29 0 -54 -3.5t-47 -9.5l-107 -553q20 -4 42.5 -6t48.5 -2q60 0 118 21t103.5 64.5t73.5 110.5t28 159q0 110 -50 164.5t-156 54.5z" glyph-name="Thorn" horiz-adv-x="1251" unicode="Þ"/>
<glyph d="M546 696q0 69 20.5 125.5t55.5 100.5t82 76t100 52q5 30 8.5 52.5t3.5 45.5q0 57 -30 91.5t-82 34.5q-33 0 -66 -7.5t-62 -34.5t-52.5 -78.5t-38.5 -139.5l-155 -937q-11 -63 -30.5 -116t-45.5 -96t-57 -77t-64 -59q-69 -51 -136 -76t-112 -34l-20 61q22 11 54.5 35.5 t65 67t60.5 106.5t42 154l113 743h-127v70q36 19 76 34.5t76 24.5l17 88q22 112 74 184.5t120 114.5t145.5 58.5t151.5 16.5q87 0 147.5 -21t98.5 -55.5t55.5 -79t17.5 -92.5q0 -21 -3 -46.5t-8 -48.5q-44 -12 -91.5 -32t-87 -52.5t-65 -80t-25.5 -116.5q0 -33 7.5 -61.5 t20.5 -55t29 -52.5t34 -54q13 -21 28.5 -46t28.5 -55t21.5 -65.5t8.5 -77.5q0 -65 -25 -121t-70 -97.5t-107.5 -65.5t-138.5 -24t-126 18.5t-77 41.5q0 27 7 56t19.5 54.5t30.5 46t39 32.5l135 -146q9 6 21.5 18t24 30t19 42t7.5 54t-4.5 55t-13 49t-21.5 50t-30 59 q-15 29 -32 58t-30.5 60t-22.5 65t-9 75z" glyph-name="germandbls" unicode="ß"/>
<glyph d="M371 122q32 0 66 31t66.5 77t60.5 100t48 102l66 356q-22 14 -40.5 20.5t-49.5 6.5q-48 0 -88.5 -24t-73 -65t-57 -94.5t-41 -113t-24.5 -121t-8 -117.5q0 -82 16.5 -120t58.5 -38zM584 286q-22 -57 -54.5 -112.5t-75.5 -99t-95.5 -70t-113.5 -26.5q-93 0 -149 68.5 t-56 203.5q0 83 17.5 165t50.5 156t80 137.5t106 110t128.5 72.5t147.5 26q47 0 80.5 -10.5t70.5 -27.5q47 18 101 27t129 9l-151 -791h126v-61q-18 -15 -47.5 -29t-65 -25t-72.5 -18t-68 -7q-63 0 -90 27t-27 56q0 32 9 85t26 134h-7zM740 1140l-96 -42l-306 281l11 56 q10 8 32 15.5t49.5 13.5t58.5 10t58 6t48 1.5t30 -3.5z" glyph-name="agrave" unicode="à"/>
<glyph d="M371 122q32 0 66 31t66.5 77t60.5 100t48 102l66 356q-22 14 -40.5 20.5t-49.5 6.5q-48 0 -88.5 -24t-73 -65t-57 -94.5t-41 -113t-24.5 -121t-8 -117.5q0 -82 16.5 -120t58.5 -38zM584 286q-22 -57 -54.5 -112.5t-75.5 -99t-95.5 -70t-113.5 -26.5q-93 0 -149 68.5 t-56 203.5q0 83 17.5 165t50.5 156t80 137.5t106 110t128.5 72.5t147.5 26q47 0 80.5 -10.5t70.5 -27.5q47 18 101 27t129 9l-151 -791h126v-61q-18 -15 -47.5 -29t-65 -25t-72.5 -18t-68 -7q-63 0 -90 27t-27 56q0 32 9 85t26 134h-7zM778 1478q16 4 51.5 3t73 -7t68.5 -16 t37 -23l-9 -47l-416 -290l-80 43z" glyph-name="aacute" unicode="á"/>
<glyph d="M371 122q32 0 66 31t66.5 77t60.5 100t48 102l66 356q-22 14 -40.5 20.5t-49.5 6.5q-48 0 -88.5 -24t-73 -65t-57 -94.5t-41 -113t-24.5 -121t-8 -117.5q0 -82 16.5 -120t58.5 -38zM584 286q-22 -57 -54.5 -112.5t-75.5 -99t-95.5 -70t-113.5 -26.5q-93 0 -149 68.5 t-56 203.5q0 83 17.5 165t50.5 156t80 137.5t106 110t128.5 72.5t147.5 26q47 0 80.5 -10.5t70.5 -27.5q47 18 101 27t129 9l-151 -791h126v-61q-18 -15 -47.5 -29t-65 -25t-72.5 -18t-68 -7q-63 0 -90 27t-27 56q0 32 9 85t26 134h-7zM457 1118q-21 0 -45 18t-27 30 l308 311q17 10 50 10q35 0 51 -10l184 -309q-3 -5 -16 -13.5t-29 -16.5t-32 -14t-25 -6l-187 150z" glyph-name="acircumflex" unicode="â"/>
<glyph d="M371 122q32 0 66 31t66.5 77t60.5 100t48 102l66 356q-22 14 -40.5 20.5t-49.5 6.5q-48 0 -88.5 -24t-73 -65t-57 -94.5t-41 -113t-24.5 -121t-8 -117.5q0 -82 16.5 -120t58.5 -38zM584 286q-22 -57 -54.5 -112.5t-75.5 -99t-95.5 -70t-113.5 -26.5q-93 0 -149 68.5 t-56 203.5q0 83 17.5 165t50.5 156t80 137.5t106 110t128.5 72.5t147.5 26q47 0 80.5 -10.5t70.5 -27.5q47 18 101 27t129 9l-151 -791h126v-61q-18 -15 -47.5 -29t-65 -25t-72.5 -18t-68 -7q-63 0 -90 27t-27 56q0 32 9 85t26 134h-7zM1001 1292q-57 -67 -119 -96.5 t-107 -29.5q-35 0 -66 10.5t-60 22t-56.5 22.5t-57.5 11q-25 0 -51 -9t-58 -30l-53 82q71 72 136 101.5t109 29.5q35 0 65 -10t57.5 -21t55.5 -21t57 -10q25 0 50.5 5t55.5 24z" glyph-name="atilde" unicode="ã"/>
<glyph d="M371 122q32 0 66 31t66.5 77t60.5 100t48 102l66 356q-22 14 -40.5 20.5t-49.5 6.5q-48 0 -88.5 -24t-73 -65t-57 -94.5t-41 -113t-24.5 -121t-8 -117.5q0 -82 16.5 -120t58.5 -38zM584 286q-22 -57 -54.5 -112.5t-75.5 -99t-95.5 -70t-113.5 -26.5q-93 0 -149 68.5 t-56 203.5q0 83 17.5 165t50.5 156t80 137.5t106 110t128.5 72.5t147.5 26q47 0 80.5 -10.5t70.5 -27.5q47 18 101 27t129 9l-151 -791h126v-61q-18 -15 -47.5 -29t-65 -25t-72.5 -18t-68 -7q-63 0 -90 27t-27 56q0 32 9 85t26 134h-7zM333 1287q0 61 38.5 98t102.5 37 q62 0 102 -37t40 -98q0 -59 -40 -96t-102 -37q-64 0 -102.5 37t-38.5 96zM732 1287q0 61 39 98t101 37q64 0 103.5 -37t39.5 -98q0 -59 -39.5 -96t-103.5 -37q-62 0 -101 37t-39 96z" glyph-name="adieresis" unicode="ä"/>
<glyph d="M371 122q32 0 66 31t66.5 77t60.5 100t48 102l66 356q-22 14 -40.5 20.5t-49.5 6.5q-48 0 -88.5 -24t-73 -65t-57 -94.5t-41 -113t-24.5 -121t-8 -117.5q0 -82 16.5 -120t58.5 -38zM584 286q-22 -57 -54.5 -112.5t-75.5 -99t-95.5 -70t-113.5 -26.5q-93 0 -149 68.5 t-56 203.5q0 83 17.5 165t50.5 156t80 137.5t106 110t128.5 72.5t147.5 26q47 0 80.5 -10.5t70.5 -27.5q47 18 101 27t129 9l-151 -791h126v-61q-18 -15 -47.5 -29t-65 -25t-72.5 -18t-68 -7q-63 0 -90 27t-27 56q0 32 9 85t26 134h-7zM480 1285q0 80 59 137.5t170 57.5 q102 0 159.5 -52t57.5 -137q0 -81 -60 -135.5t-160 -54.5q-111 0 -168.5 51.5t-57.5 132.5zM625 1289q0 -44 21.5 -68t54.5 -24q79 0 79 86q0 52 -22 76.5t-55 24.5q-78 0 -78 -95z" glyph-name="aring" unicode="å"/>
<glyph d="M407 122q32 0 64 14.5t59.5 37.5t49 51.5t32.5 57.5q-2 33 0 71t5 68q-36 5 -71.5 5.5t-67 -4t-58.5 -13t-46 -21.5q-77 -51 -77 -147q0 -60 31 -90t79 -30zM645 176q-30 -49 -70.5 -86t-87.5 -62t-99.5 -37.5t-106.5 -12.5q-51 0 -96 14.5t-78.5 44t-53 72.5t-19.5 100 q0 146 123.5 222t355.5 76q27 0 60.5 -1t62.5 -3q13 49 22.5 94.5t9.5 80.5q1 73 -28.5 106.5t-90.5 33.5q-25 0 -54 -4.5t-54 -13.5l-102 -189h-79q-12 20 -23 44t-20 51t-14.5 56t-5.5 58q39 24 88 42.5t102 31.5t108.5 20t108.5 7q103 0 162 -25.5t85 -68.5q30 24 68 42 t80 29.5t86.5 17t88.5 5.5q41 0 85.5 -10t81 -32t60.5 -57.5t24 -85.5q0 -123 -121 -202q-30 -20 -77 -37t-104.5 -30t-122.5 -21.5t-132 -10.5q-4 -25 -6.5 -51t-2.5 -49q0 -55 13.5 -95t38 -66.5t58 -39t74.5 -12.5q71 0 142 32.5t125 86.5l43 -45q-82 -100 -186.5 -159 t-238.5 -59q-123 0 -191 50.5t-90 147.5h-2zM1133 818q-62 0 -106.5 -28.5t-74.5 -72t-47.5 -94.5t-24.5 -96q34 1 70.5 5t71 11.5t64.5 18t51 24.5q82 55 82 146q0 35 -20 60.5t-66 25.5z" glyph-name="ae" horiz-adv-x="1479" unicode="æ"/>
<glyph d="M787 226q-30 -50 -71.5 -95t-93 -79t-111.5 -54q-45 -15 -95 -19l-63 -101q97 -5 136 -37t40 -91q0 -37 -16.5 -67t-45.5 -53.5t-67 -40.5t-81 -28.5t-88.5 -17t-87.5 -5.5v70q31 6 60.5 15t52 22t36 30.5t13.5 41.5q-1 15 -5.5 28t-15 23t-28.5 17t-46 10l99 189 q-35 6 -66 18q-61 24 -103 68t-64 107.5t-22 141.5q0 63 13 126.5t36 123t56 112t74 93.5q73 73 169 110t212 37q33 0 71.5 -8.5t75.5 -26t67.5 -45t46.5 -64.5q2 -20 -12.5 -47.5t-40 -52.5t-60 -41.5t-71.5 -13.5l-49 186q-13 5 -28 7.5t-27 2.5q-59 0 -113.5 -42.5 t-93.5 -123.5q-28 -57 -47.5 -135.5t-19.5 -163.5q0 -112 44.5 -166.5t132.5 -54.5q36 0 69.5 11t65 30.5t62 46t59.5 58.5z" glyph-name="ccedilla" horiz-adv-x="909" unicode="ç"/>
<glyph d="M803 212q-32 -46 -76 -88t-97.5 -74.5t-114.5 -52t-128 -19.5q-160 0 -244 87t-84 248q0 76 19 150.5t53 140.5t80.5 121.5t101.5 94.5q140 101 315 101q51 0 102 -12.5t89 -44.5q26 -22 41.5 -53t15.5 -75q0 -62 -32.5 -112t-93.5 -90q-30 -20 -74.5 -36t-99.5 -28.5 t-118 -21t-131 -13.5q-5 -25 -7.5 -56t-2.5 -54q0 -44 10.5 -81t33 -64t57.5 -42.5t84 -15.5q34 0 69 11t68 30t63.5 43t56.5 51zM572 818q-45 0 -83.5 -27t-67.5 -67q-32 -46 -51.5 -99.5t-29.5 -97.5q33 1 68 5t67.5 11.5t60.5 18t49 24.5q42 28 64 64.5t22 81.5 q0 35 -24 60.5t-75 25.5zM761 1140l-96 -42l-306 281l11 56q10 8 32 15.5t49.5 13.5t58.5 10t58 6t48 1.5t30 -3.5z" glyph-name="egrave" horiz-adv-x="909" unicode="è"/>
<glyph d="M803 212q-32 -46 -76 -88t-97.5 -74.5t-114.5 -52t-128 -19.5q-160 0 -244 87t-84 248q0 76 19 150.5t53 140.5t80.5 121.5t101.5 94.5q140 101 315 101q51 0 102 -12.5t89 -44.5q26 -22 41.5 -53t15.5 -75q0 -62 -32.5 -112t-93.5 -90q-30 -20 -74.5 -36t-99.5 -28.5 t-118 -21t-131 -13.5q-5 -25 -7.5 -56t-2.5 -54q0 -44 10.5 -81t33 -64t57.5 -42.5t84 -15.5q34 0 69 11t68 30t63.5 43t56.5 51zM572 818q-45 0 -83.5 -27t-67.5 -67q-32 -46 -51.5 -99.5t-29.5 -97.5q33 1 68 5t67.5 11.5t60.5 18t49 24.5q42 28 64 64.5t22 81.5 q0 35 -24 60.5t-75 25.5zM775 1478q16 4 51.5 3t73 -7t68.5 -16t37 -23l-9 -47l-416 -290l-80 43z" glyph-name="eacute" horiz-adv-x="909" unicode="é"/>
<glyph d="M803 212q-32 -46 -76 -88t-97.5 -74.5t-114.5 -52t-128 -19.5q-160 0 -244 87t-84 248q0 76 19 150.5t53 140.5t80.5 121.5t101.5 94.5q140 101 315 101q51 0 102 -12.5t89 -44.5q26 -22 41.5 -53t15.5 -75q0 -62 -32.5 -112t-93.5 -90q-30 -20 -74.5 -36t-99.5 -28.5 t-118 -21t-131 -13.5q-5 -25 -7.5 -56t-2.5 -54q0 -44 10.5 -81t33 -64t57.5 -42.5t84 -15.5q34 0 69 11t68 30t63.5 43t56.5 51zM572 818q-45 0 -83.5 -27t-67.5 -67q-32 -46 -51.5 -99.5t-29.5 -97.5q33 1 68 5t67.5 11.5t60.5 18t49 24.5q42 28 64 64.5t22 81.5 q0 35 -24 60.5t-75 25.5zM394 1118q-21 0 -45 18t-27 30l308 311q17 10 50 10q35 0 51 -10l184 -309q-3 -5 -16 -13.5t-29 -16.5t-32 -14t-25 -6l-187 150z" glyph-name="ecircumflex" horiz-adv-x="909" unicode="ê"/>
<glyph d="M803 212q-32 -46 -76 -88t-97.5 -74.5t-114.5 -52t-128 -19.5q-160 0 -244 87t-84 248q0 76 19 150.5t53 140.5t80.5 121.5t101.5 94.5q140 101 315 101q51 0 102 -12.5t89 -44.5q26 -22 41.5 -53t15.5 -75q0 -62 -32.5 -112t-93.5 -90q-30 -20 -74.5 -36t-99.5 -28.5 t-118 -21t-131 -13.5q-5 -25 -7.5 -56t-2.5 -54q0 -44 10.5 -81t33 -64t57.5 -42.5t84 -15.5q34 0 69 11t68 30t63.5 43t56.5 51zM572 818q-45 0 -83.5 -27t-67.5 -67q-32 -46 -51.5 -99.5t-29.5 -97.5q33 1 68 5t67.5 11.5t60.5 18t49 24.5q42 28 64 64.5t22 81.5 q0 35 -24 60.5t-75 25.5zM300 1287q0 61 38.5 98t102.5 37q62 0 102 -37t40 -98q0 -59 -40 -96t-102 -37q-64 0 -102.5 37t-38.5 96zM699 1287q0 61 39 98t101 37q64 0 103.5 -37t39.5 -98q0 -59 -39.5 -96t-103.5 -37q-62 0 -101 37t-39 96z" glyph-name="edieresis" horiz-adv-x="909" unicode="ë"/>
<glyph d="M109 795v61q27 11 72 22.5t95.5 20.5t99.5 15.5t87 6.5l33 -22l-162 -775h126v-61q-23 -16 -54.5 -30.5t-67 -25.5t-71.5 -17t-68 -6q-69 0 -94.5 26t-25.5 57q0 36 5 70t15 75l122 558zM521 1140l-96 -42l-306 281l11 56q10 8 32 15.5t49.5 13.5t58.5 10t58 6t48 1.5 t30 -3.5z" glyph-name="igrave" horiz-adv-x="569" unicode="ì"/>
<glyph d="M109 795v61q27 11 72 22.5t95.5 20.5t99.5 15.5t87 6.5l33 -22l-162 -775h126v-61q-23 -16 -54.5 -30.5t-67 -25.5t-71.5 -17t-68 -6q-69 0 -94.5 26t-25.5 57q0 36 5 70t15 75l122 558zM452 1478q16 4 51.5 3t73 -7t68.5 -16t37 -23l-9 -47l-416 -290l-80 43z" glyph-name="iacute" horiz-adv-x="569" unicode="í"/>
<glyph d="M109 795v61q27 11 72 22.5t95.5 20.5t99.5 15.5t87 6.5l33 -22l-162 -775h126v-61q-23 -16 -54.5 -30.5t-67 -25.5t-71.5 -17t-68 -6q-69 0 -94.5 26t-25.5 57q0 36 5 70t15 75l122 558zM135 1118q-21 0 -45 18t-27 30l308 311q17 10 50 10q35 0 51 -10l184 -309 q-3 -5 -16 -13.5t-29 -16.5t-32 -14t-25 -6l-187 150z" glyph-name="icircumflex" horiz-adv-x="569" unicode="î"/>
<glyph d="M108 795v61q27 11 72 22.5t95.5 20.5t99.5 15.5t87 6.5l33 -22l-162 -775h126v-61q-23 -16 -54.5 -30.5t-67 -25.5t-71.5 -17t-68 -6q-69 0 -94.5 26t-25.5 57q0 36 5 70t15 75l122 558zM40 1287q0 61 38.5 98t102.5 37q62 0 102 -37t40 -98q0 -59 -40 -96t-102 -37 q-64 0 -102.5 37t-38.5 96zM439 1287q0 61 39 98t101 37q64 0 103.5 -37t39.5 -98q0 -59 -39.5 -96t-103.5 -37q-62 0 -101 37t-39 96z" glyph-name="idieresis" horiz-adv-x="569" unicode="ï"/>
<glyph d="M453 1119l169 72q-16 22 -36.5 43t-44 39t-49.5 31.5t-51 22.5v50h229q30 -11 69 -42t75 -69l171 72l41 -95l-149 -65q35 -61 59.5 -149.5t24.5 -197.5q0 -180 -42 -335.5t-119.5 -270.5t-187 -181t-243.5 -66q-67 0 -123 22t-96.5 64.5t-63 103.5t-22.5 139 q0 86 19.5 164.5t54 145.5t83 121t106.5 92.5t124 59t136 20.5q36 0 74 -7t57 -21q-1 60 -11.5 112.5t-34.5 101.5l-176 -74zM592 808q-49 0 -88.5 -23.5t-69.5 -63t-52 -92.5t-36 -112t-20.5 -121t-6.5 -119q0 -41 5 -76.5t17.5 -62t33.5 -42t54 -15.5q54 0 102.5 54.5 t86 149t61 221t27.5 269.5q-28 18 -56.5 25.5t-57.5 7.5z" glyph-name="eth" unicode="ð"/>
<glyph d="M710 513q13 55 23 98t10 91q0 30 -13.5 52.5t-47.5 22.5t-71 -26.5t-72 -65t-65 -85t-47 -85.5l-108 -515h-249l155 772l-106 23l4 61q24 12 64 24t86.5 21t96 14.5t94.5 5.5l36 -22l-56 -262h10q31 59 74.5 111t92 89.5t102.5 60.5t110 23q76 0 119 -48.5t43 -129.5 q0 -41 -9 -94.5t-22 -105.5l-98 -419h129v-61q-18 -15 -48 -29t-65 -25t-72.5 -18t-72.5 -7q-60 0 -88 23.5t-28 53.5q0 38 9 81t18 83zM984 1292q-57 -67 -119 -96.5t-107 -29.5q-35 0 -66 10.5t-60 22t-56.5 22.5t-57.5 11q-25 0 -51 -9t-58 -30l-53 82q71 72 136 101.5 t109 29.5q35 0 65 -10t57.5 -21t55.5 -21t57 -10q25 0 50.5 5t55.5 24z" glyph-name="ntilde" horiz-adv-x="1139" unicode="ñ"/>
<glyph d="M64 345q0 64 14.5 132t43.5 132t73.5 120.5t104.5 99t135 67.5t167 25q162 0 253.5 -88t91.5 -263q0 -119 -36 -226t-104.5 -188.5t-167 -129.5t-222.5 -48q-77 0 -141.5 22.5t-111.5 68.5t-73.5 115t-26.5 161zM571 818q-72 0 -120 -54q-48 -55 -77 -136t-42 -177 q-7 -48 -10 -91.5t-3 -84.5q0 -91 35.5 -142.5t96.5 -51.5q52 0 96 44.5t76.5 118.5t50.5 170.5t18 200.5q0 100 -32 151.5t-89 51.5zM758 1140l-96 -42l-306 281l11 56q10 8 32 15.5t49.5 13.5t58.5 10t58 6t48 1.5t30 -3.5z" glyph-name="ograve" unicode="ò"/>
<glyph d="M64 345q0 64 14.5 132t43.5 132t73.5 120.5t104.5 99t135 67.5t167 25q162 0 253.5 -88t91.5 -263q0 -119 -36 -226t-104.5 -188.5t-167 -129.5t-222.5 -48q-77 0 -141.5 22.5t-111.5 68.5t-73.5 115t-26.5 161zM571 818q-72 0 -120 -54q-48 -55 -77 -136t-42 -177 q-7 -48 -10 -91.5t-3 -84.5q0 -91 35.5 -142.5t96.5 -51.5q52 0 96 44.5t76.5 118.5t50.5 170.5t18 200.5q0 100 -32 151.5t-89 51.5zM739 1478q16 4 51.5 3t73 -7t68.5 -16t37 -23l-9 -47l-416 -290l-80 43z" glyph-name="oacute" unicode="ó"/>
<glyph d="M64 345q0 64 14.5 132t43.5 132t73.5 120.5t104.5 99t135 67.5t167 25q162 0 253.5 -88t91.5 -263q0 -119 -36 -226t-104.5 -188.5t-167 -129.5t-222.5 -48q-77 0 -141.5 22.5t-111.5 68.5t-73.5 115t-26.5 161zM571 818q-72 0 -120 -54q-48 -55 -77 -136t-42 -177 q-7 -48 -10 -91.5t-3 -84.5q0 -91 35.5 -142.5t96.5 -51.5q52 0 96 44.5t76.5 118.5t50.5 170.5t18 200.5q0 100 -32 151.5t-89 51.5zM413 1118q-21 0 -45 18t-27 30l308 311q17 10 50 10q35 0 51 -10l184 -309q-3 -5 -16 -13.5t-29 -16.5t-32 -14t-25 -6l-187 150z" glyph-name="ocircumflex" unicode="ô"/>
<glyph d="M64 345q0 64 14.5 132t43.5 132t73.5 120.5t104.5 99t135 67.5t167 25q162 0 253.5 -88t91.5 -263q0 -119 -36 -226t-104.5 -188.5t-167 -129.5t-222.5 -48q-77 0 -141.5 22.5t-111.5 68.5t-73.5 115t-26.5 161zM571 818q-72 0 -120 -54q-48 -55 -77 -136t-42 -177 q-7 -48 -10 -91.5t-3 -84.5q0 -91 35.5 -142.5t96.5 -51.5q52 0 96 44.5t76.5 118.5t50.5 170.5t18 200.5q0 100 -32 151.5t-89 51.5zM947 1292q-57 -67 -119 -96.5t-107 -29.5q-35 0 -66 10.5t-60 22t-56.5 22.5t-57.5 11q-25 0 -51 -9t-58 -30l-53 82q71 72 136 101.5 t109 29.5q35 0 65 -10t57.5 -21t55.5 -21t57 -10q25 0 50.5 5t55.5 24z" glyph-name="otilde" unicode="õ"/>
<glyph d="M64 345q0 64 14.5 132t43.5 132t73.5 120.5t104.5 99t135 67.5t167 25q162 0 253.5 -88t91.5 -263q0 -119 -36 -226t-104.5 -188.5t-167 -129.5t-222.5 -48q-77 0 -141.5 22.5t-111.5 68.5t-73.5 115t-26.5 161zM571 818q-72 0 -120 -54q-48 -55 -77 -136t-42 -177 q-7 -48 -10 -91.5t-3 -84.5q0 -91 35.5 -142.5t96.5 -51.5q52 0 96 44.5t76.5 118.5t50.5 170.5t18 200.5q0 100 -32 151.5t-89 51.5zM312 1287q0 61 38.5 98t102.5 37q62 0 102 -37t40 -98q0 -59 -40 -96t-102 -37q-64 0 -102.5 37t-38.5 96zM711 1287q0 61 39 98t101 37 q64 0 103.5 -37t39.5 -98q0 -59 -39.5 -96t-103.5 -37q-62 0 -101 37t-39 96z" glyph-name="odieresis" unicode="ö"/>
<glyph d="M127 748h870v-155h-870v155zM397 1038q0 69 45 112t118 43t120 -43t47 -112q0 -70 -47 -111.5t-120 -41.5t-118 41.5t-45 111.5zM397 300q0 70 45 112.5t118 42.5t120 -42.5t47 -112.5q0 -69 -47 -110.5t-120 -41.5t-118 41.5t-45 110.5z" glyph-name="divide" horiz-adv-x="1124" unicode="÷"/>
<glyph d="M64 345q0 64 14.5 132t43.5 132t73.5 120.5t104.5 99t135 67.5t167 25q136 0 222 -62l123 136l87 -74l-134 -147q23 -40 35 -91t12 -113q0 -119 -36 -226t-104.5 -188.5t-167 -129.5t-222.5 -48q-119 0 -204 53l-123 -135l-84 75l125 136q-32 45 -49.5 104t-17.5 134z M571 818q-38 0 -69 -16.5t-55 -43t-42 -60.5t-31 -70q-26 -74 -39.5 -154.5t-15.5 -165.5l364 399q-26 111 -112 111zM338 164q16 -40 45 -61.5t68 -21.5q48 0 89.5 38t73 102.5t51.5 150t25 180.5z" glyph-name="oslash" unicode="ø"/>
<glyph d="M1099 124v-61q-18 -15 -48 -29t-65 -25t-73.5 -18t-76.5 -7q-65 0 -89 26t-24 55q0 32 7.5 89.5t28.5 133.5h-7q-24 -43 -60 -97t-84 -102t-111.5 -79.5t-138.5 -31.5q-74 0 -119.5 44.5t-45.5 125.5q0 39 11.5 113t28.5 161t38 179.5t37 170.5l-107 23v61q29 11 72 22 t90 19.5t95.5 15t87.5 8.5l41 -22q-29 -135 -59 -256t-55 -257q-9 -43 -19 -95t-10 -104q0 -32 17.5 -48.5t41.5 -16.5q46 0 90 35t81 84.5t64.5 102t40.5 85.5l93 470h243l-142 -775h126zM802 1140l-96 -42l-306 281l11 56q10 8 32 15.5t49.5 13.5t58.5 10t58 6t48 1.5 t30 -3.5z" glyph-name="ugrave" horiz-adv-x="1139" unicode="ù"/>
<glyph d="M1099 124v-61q-18 -15 -48 -29t-65 -25t-73.5 -18t-76.5 -7q-65 0 -89 26t-24 55q0 32 7.5 89.5t28.5 133.5h-7q-24 -43 -60 -97t-84 -102t-111.5 -79.5t-138.5 -31.5q-74 0 -119.5 44.5t-45.5 125.5q0 39 11.5 113t28.5 161t38 179.5t37 170.5l-107 23v61q29 11 72 22 t90 19.5t95.5 15t87.5 8.5l41 -22q-29 -135 -59 -256t-55 -257q-9 -43 -19 -95t-10 -104q0 -32 17.5 -48.5t41.5 -16.5q46 0 90 35t81 84.5t64.5 102t40.5 85.5l93 470h243l-142 -775h126zM791 1478q16 4 51.5 3t73 -7t68.5 -16t37 -23l-9 -47l-416 -290l-80 43z" glyph-name="uacute" horiz-adv-x="1139" unicode="ú"/>
<glyph d="M1099 124v-61q-18 -15 -48 -29t-65 -25t-73.5 -18t-76.5 -7q-65 0 -89 26t-24 55q0 32 7.5 89.5t28.5 133.5h-7q-24 -43 -60 -97t-84 -102t-111.5 -79.5t-138.5 -31.5q-74 0 -119.5 44.5t-45.5 125.5q0 39 11.5 113t28.5 161t38 179.5t37 170.5l-107 23v61q29 11 72 22 t90 19.5t95.5 15t87.5 8.5l41 -22q-29 -135 -59 -256t-55 -257q-9 -43 -19 -95t-10 -104q0 -32 17.5 -48.5t41.5 -16.5q46 0 90 35t81 84.5t64.5 102t40.5 85.5l93 470h243l-142 -775h126zM450 1118q-21 0 -45 18t-27 30l308 311q17 10 50 10q35 0 51 -10l184 -309 q-3 -5 -16 -13.5t-29 -16.5t-32 -14t-25 -6l-187 150z" glyph-name="ucircumflex" horiz-adv-x="1139" unicode="û"/>
<glyph d="M1099 124v-61q-18 -15 -48 -29t-65 -25t-73.5 -18t-76.5 -7q-65 0 -89 26t-24 55q0 32 7.5 89.5t28.5 133.5h-7q-24 -43 -60 -97t-84 -102t-111.5 -79.5t-138.5 -31.5q-74 0 -119.5 44.5t-45.5 125.5q0 39 11.5 113t28.5 161t38 179.5t37 170.5l-107 23v61q29 11 72 22 t90 19.5t95.5 15t87.5 8.5l41 -22q-29 -135 -59 -256t-55 -257q-9 -43 -19 -95t-10 -104q0 -32 17.5 -48.5t41.5 -16.5q46 0 90 35t81 84.5t64.5 102t40.5 85.5l93 470h243l-142 -775h126zM412 1287q0 61 38.5 98t102.5 37q62 0 102 -37t40 -98q0 -59 -40 -96t-102 -37 q-64 0 -102.5 37t-38.5 96zM811 1287q0 61 39 98t101 37q64 0 103.5 -37t39.5 -98q0 -59 -39.5 -96t-103.5 -37q-62 0 -101 37t-39 96z" glyph-name="udieresis" horiz-adv-x="1139" unicode="ü"/>
<glyph d="M167 772l-115 14v61q9 6 36 18.5t64 25t78.5 21.5t80.5 9q49 0 76 -23.5t36 -65.5l86 -531l9 -108h4l37 106q9 16 19 36.5t20 43.5t19.5 46.5t18.5 46.5q19 50 32.5 92.5t22.5 93.5q-1 19 -6.5 54.5t-13 72.5t-15 68.5t-11.5 42.5q26 10 63.5 15.5t75.5 5.5t70.5 -5.5 t51.5 -15.5q-23 -108 -58.5 -219t-84.5 -226q-48 -115 -108 -227.5t-123 -223.5q-53 -93 -105 -158t-104 -113q-104 -96 -237 -96q-38 0 -69.5 10t-57.5 26q-5 25 4 59t26.5 67t41 59.5t48.5 35.5l134 -95q14 10 32.5 25t39 39t40.5 58.5t36 82.5zM672 1478q16 4 51.5 3 t73 -7t68.5 -16t37 -23l-9 -47l-416 -290l-80 43z" glyph-name="yacute" horiz-adv-x="909" unicode="ý"/>
<glyph d="M228 -239q31 -6 64.5 -21t56.5 -31v-69h-370l-24 24l327 1562l-104 24v62q28 12 73 24t93.5 21t96 14.5t82.5 5.5l36 -22l-149 -704h8q28 57 64 106t79.5 85.5t93 57.5t105.5 21q91 0 151 -72t60 -202q0 -146 -41 -269t-112.5 -212t-169 -138.5t-211.5 -49.5 q-26 0 -46.5 2t-38.5 6.5t-34.5 11.5t-34.5 16zM621 777q-38 0 -73.5 -28t-66 -69.5t-55.5 -90t-41 -88.5l-79 -389q23 -16 45.5 -23.5t66.5 -7.5q41 0 79 22.5t70.5 61t59.5 91t45.5 112.5t29 125.5t10.5 129.5q0 75 -23 114.5t-68 39.5z" glyph-name="thorn" unicode="þ"/>
<glyph d="M109 795v61q27 11 72 22.5t95.5 20.5t99.5 15.5t87 6.5l33 -22l-162 -775h126v-61q-23 -16 -54.5 -30.5t-67 -25.5t-71.5 -17t-68 -6q-69 0 -94.5 26t-25.5 57q0 36 5 70t15 75l122 558z" glyph-name="dotlessi" horiz-adv-x="569" unicode="ı"/>
<glyph d="M269 1118q-21 0 -45 18t-27 30l308 311q17 10 50 10q35 0 51 -10l184 -309q-3 -5 -16 -13.5t-29 -16.5t-32 -14t-25 -6l-187 150z" glyph-name="circumflex" horiz-adv-x="682" unicode="ˆ"/>
<glyph d="M321 1285q0 80 59 137.5t170 57.5q102 0 159.5 -52t57.5 -137q0 -81 -60 -135.5t-160 -54.5q-111 0 -168.5 51.5t-57.5 132.5zM466 1289q0 -44 21.5 -68t54.5 -24q79 0 79 86q0 52 -22 76.5t-55 24.5q-78 0 -78 -95z" glyph-name="ring" horiz-adv-x="682" unicode="˚"/>
<glyph d="M825 1292q-57 -67 -119 -96.5t-107 -29.5q-35 0 -66 10.5t-60 22t-56.5 22.5t-57.5 11q-25 0 -51 -9t-58 -30l-53 82q71 72 136 101.5t109 29.5q35 0 65 -10t57.5 -21t55.5 -21t57 -10q25 0 50.5 5t55.5 24z" glyph-name="tilde" horiz-adv-x="682" unicode="˜"/>
<glyph d="M406 1477q12 4 44.5 2.5t67.5 -7.5t63 -15t31 -20l-9 -47l-323 -292l-72 39zM786 1477q14 4 44.5 2t63.5 -9.5t61.5 -19t37.5 -26.5l-9 -44l-458 -282l-63 42z" glyph-name="hungarumlaut" horiz-adv-x="682" unicode="˝"/>
<glyph d="M1374 1356q-21 -88 -48.5 -180.5t-59.5 -174.5h-80l-44 228h-479l-92 -473h338l114 148h62q-5 -48 -12.5 -100.5t-18.5 -110.5q-23 -116 -52 -216h-62l-56 153h-338l-98 -504h484l151 246h79q1 -38 -1 -84t-6 -95.5t-10.5 -99t-15.5 -93.5h-1154l14 74q37 17 80 32.5 t90 23.5l213 1095q-38 9 -78.5 23t-69.5 34l15 74h1135zM466 1596q0 62 44.5 93t112.5 31q67 0 112 -31t45 -93q0 -54 -45 -84.5t-112 -30.5q-68 0 -112.5 30.5t-44.5 84.5zM941 1596q0 62 45.5 93t113.5 31q67 0 111.5 -31t44.5 -93q0 -54 -44.5 -84.5t-111.5 -30.5 q-68 0 -113.5 30.5t-45.5 84.5z" glyph-name="afii10023" horiz-adv-x="1366" unicode="Ё"/>
<glyph d="M1585 528q0 -150 -42 -252t-120 -166q-81 -66 -195 -93t-258 -23l4 87q75 10 131 35t94 68q45 51 66.5 125.5t21.5 180.5q0 99 -53 152q-55 57 -159 57q-64 0 -127.5 -17.5t-120.5 -47.5l-98 -504q31 -10 62.5 -25.5t53.5 -30.5l-14 -74h-605l14 74q42 15 94 31.5 t105 24.5l214 1099h-214l-179 -281h-79q1 40 3.5 91.5t7 106.5t10.5 109.5t14 100.5h1214q-10 -47 -24.5 -100t-30.5 -106t-32.5 -103t-31.5 -90h-82l-71 272h-215l-93 -479q86 44 172.5 64.5t179.5 20.5q73 0 146 -15t130 -56q48 -35 77.5 -93t29.5 -143z" glyph-name="afii10051" horiz-adv-x="1675" unicode="Ђ"/>
<glyph d="M449 130q47 -8 91.5 -23.5t83.5 -32.5l-14 -74h-635l14 74q48 21 89.5 35t79.5 21l213 1095q-37 9 -76 22t-71 35l15 74h1103q-9 -43 -21.5 -94t-27.5 -104.5t-32 -107t-34 -101.5h-80l-75 280h-409zM1006 1749q31 2 69.5 -4t74 -16.5t63.5 -24t37 -27.5l-8 -39 l-515 -185l-45 46z" glyph-name="afii10052" horiz-adv-x="1237" unicode="Ѓ"/>
<glyph d="M1112 407h79q1 -32 -1.5 -76t-7 -92.5t-11 -96.5t-14.5 -88q-33 -19 -86.5 -33.5t-115.5 -24.5t-125.5 -15t-115.5 -5q-148 0 -261.5 36.5t-192.5 112.5q-72 69 -112 170.5t-40 240.5q0 98 21.5 185.5t59 163.5t88 141t108.5 119q63 58 136 102t152 73t161 44t162 15 q127 0 230.5 -17.5t189.5 -50.5q-6 -27 -20.5 -75t-32 -102.5t-35 -107t-30.5 -87.5h-82l-49 293q-32 9 -66 15t-72 6q-53 0 -109 -10t-111 -33.5t-107.5 -62.5t-98 -96t-82 -134.5t-59.5 -178.5l594 31q2 -11 3 -26t1 -28q0 -26 -8 -66.5t-25 -81.5q-146 17 -292 25.5 t-298 13.5q-4 -20 -5.5 -43.5t-2.5 -44.5q-3 -91 16.5 -163.5t56.5 -123.5q93 -128 273 -128q27 0 54.5 2.5t52.5 6.5t46 10t36 13z" glyph-name="afii10053" horiz-adv-x="1346" unicode="Є"/>
<glyph d="M241 161q8 -9 26 -19t41.5 -19t51 -14.5t54.5 -5.5t56 3t57 9.5t54 16.5t46 24q58 40 79.5 90t21.5 98q0 37 -14 67t-38 55.5t-55.5 47t-65.5 40.5q-11 6 -24 13.5t-27.5 16t-28 16.5t-25.5 14q-42 22 -81.5 53t-70 71.5t-49 90.5t-18.5 110q0 111 45 194t120.5 137.5 t175 81.5t209.5 27q121 0 221.5 -19t168.5 -49q-10 -39 -25 -89t-31.5 -99.5t-34 -93.5t-31.5 -72h-79l-38 265q-34 13 -76 22t-91 9q-44 0 -85.5 -12.5t-74.5 -37t-53 -62t-20 -88.5q0 -40 18 -74.5t47 -63.5t65.5 -54t73.5 -47q20 -12 40.5 -24t43.5 -26q42 -27 81 -59 t69 -71.5t48 -86.5t18 -104q0 -106 -44.5 -192t-127.5 -147t-200.5 -94.5t-263.5 -33.5q-61 0 -124 9.5t-118.5 23.5t-98 30t-60.5 29q12 45 28.5 96.5t35.5 102.5t38 97t36 81h79z" glyph-name="afii10054" horiz-adv-x="1139" unicode="Ѕ"/>
<glyph d="M595 -10h-604l14 74q86 42 168 56l213 1095q-38 7 -77.5 22t-68.5 35l15 74h604l-15 -74q-38 -22 -82.5 -36t-84.5 -21l-213 -1095q37 -8 76.5 -21.5t68.5 -34.5z" glyph-name="afii10055" horiz-adv-x="797" unicode="І"/>
<glyph d="M595 -10h-604l14 74q86 42 168 56l213 1095q-38 7 -77.5 22t-68.5 35l15 74h604l-15 -74q-38 -22 -82.5 -36t-84.5 -21l-213 -1095q37 -8 76.5 -21.5t68.5 -34.5zM194 1596q0 62 44.5 93t112.5 31q67 0 112 -31t45 -93q0 -54 -45 -84.5t-112 -30.5q-68 0 -112.5 30.5 t-44.5 84.5zM669 1596q0 62 45.5 93t113.5 31q67 0 111.5 -31t44.5 -93q0 -54 -44.5 -84.5t-111.5 -30.5q-68 0 -113.5 30.5t-45.5 84.5z" glyph-name="afii10056" horiz-adv-x="797" unicode="Ї"/>
<glyph d="M407 1356h636l-14 -74q-17 -10 -39.5 -19t-47 -16.5t-49 -13t-43.5 -8.5l-192 -990q-16 -81 -40.5 -147t-58.5 -116q-39 -57 -91 -103t-111 -81.5t-122 -60t-126 -37.5l-26 51q64 42 110.5 92.5t81.5 120.5q24 48 48.5 113.5t41.5 155.5l195 1002q-19 3 -42.5 9t-46.5 14 t-43.5 16.5t-34.5 17.5z" glyph-name="afii10057" unicode="Ј"/>
<glyph d="M577 0l14 74q39 19 78 33.5t80 22.5l214 1099h-296q-13 -65 -27.5 -131.5t-29.5 -130t-30.5 -122t-29.5 -107.5q-19 -65 -41 -136.5t-48.5 -141.5t-56 -134.5t-63.5 -113.5q-28 -41 -61.5 -81t-71.5 -72.5t-81.5 -54.5t-91.5 -28q-18 14 -34 41.5t-27.5 64t-17.5 78.5 t-5 86l66 74l200 -56q34 45 72.5 125t78 197t77.5 271.5t71 349.5q-59 9 -108 30.5t-83 44.5l15 74h1109l-15 -74q-41 -20 -86.5 -34t-95.5 -23l-80 -414q21 3 39.5 5.5t39 4.5t44 3t54.5 1q93 0 171 -20.5t134.5 -63t88 -107.5t31.5 -154q0 -119 -47 -209.5t-128.5 -152 t-191 -93t-235.5 -31.5q-39 0 -73.5 1l-69 2t-72 2t-81.5 1h-299zM1246 699q-35 0 -61 -4.5t-37 -7.5l-109 -559q21 -4 46 -6t54 -2q90 0 150.5 30t97 79.5t51.5 114t15 132.5q0 111 -53.5 167t-153.5 56z" glyph-name="afii10058" horiz-adv-x="1860" unicode="Љ"/>
<glyph d="M744 0l14 74q38 21 72.5 34.5t76.5 21.5l103 526h-458l-103 -526q38 -8 68 -21.5t59 -34.5l-14 -74h-587l14 74q37 17 83 32.5t87 23.5l213 1095q-47 9 -85.5 24t-62.5 33l15 74h587l-15 -74q-33 -20 -72 -35t-77 -22l-86 -443h458l86 443q-37 9 -64.5 21.5t-62.5 35.5 l15 74h599l-15 -74q-41 -20 -87 -34t-94 -23l-86 -445q34 5 70 9.5t91 4.5q40 0 82 -4t83 -13.5t79 -25t68 -37.5q57 -42 92 -108t35 -154q0 -62 -17.5 -116.5t-46.5 -100.5t-67 -82.5t-80 -61.5q-87 -51 -193.5 -74t-227.5 -23q-35 0 -65 1l-60 2t-61.5 2t-70.5 1h-292z M1403 669q-26 0 -54 -4t-48 -9l-103 -528l24.5 -3.5t20 -2.5t19.5 -1.5t24 -0.5q79 0 139 24.5t100.5 69.5t60.5 108t20 140q0 106 -52 156.5t-151 50.5z" glyph-name="afii10059" horiz-adv-x="1999" unicode="Њ"/>
<glyph d="M833 745q30 16 68.5 32t83.5 28.5t95.5 20t104.5 7.5q78 0 142 -16t105.5 -57.5t56 -112t-6.5 -178.5l-66 -339q35 -6 69.5 -21.5t58.5 -34.5l-14 -74h-429l78 401q13 67 16.5 121.5t-10 93.5t-48 60t-97.5 21q-64 0 -119.5 -18.5t-110.5 -48.5l-97 -500q31 -10 59 -25.5 t50 -30.5l-14 -74h-599l14 74q42 15 94 31.5t105 24.5l214 1099h-198l-179 -281h-79q1 40 3.5 91.5t7 106.5t10.5 109.5t14 100.5h1190q-10 -47 -24.5 -100t-30.5 -106t-32.5 -103t-31.5 -90h-82l-71 272h-206z" glyph-name="afii10060" horiz-adv-x="1661" unicode="Ћ"/>
<glyph d="M972 1356h519l-15 -74q-37 -22 -82 -36t-82 -21l-417 -472q14 -27 34.5 -74.5t45.5 -106t53.5 -123.5t57.5 -126t58.5 -114t56.5 -87l82 -56l-13 -66h-336l-68 54q-12 30 -27.5 77t-33 102t-36.5 114.5t-37 114t-34.5 100t-30.5 73.5h-120l-98 -505q42 -8 74 -23.5 t53 -32.5l-14 -74h-587l14 74q43 19 86 33.5t84 22.5l213 1095q-44 7 -82.5 22t-65.5 35l15 74h587l-15 -74q-28 -16 -66 -31t-83 -26l-95 -491l157 27l364 464q-38 9 -72.5 25t-58.5 32zM1152 1749q31 2 69.5 -4t74 -16.5t63.5 -24t37 -27.5l-8 -39l-515 -185l-45 46z" glyph-name="afii10061" horiz-adv-x="1389" unicode="Ќ"/>
<glyph d="M1234 1225q-44 11 -76.5 25t-61.5 32l14 74h469l-14 -74q-25 -16 -63 -30t-86 -27l-605 -835q-18 -24 -39.5 -53t-46 -60t-51 -62t-52.5 -58q-33 -35 -70 -64.5t-78.5 -52t-87.5 -35.5t-97 -14q-11 16 -22 47.5t-19.5 67.5t-12.5 70.5t-2 56.5l69 77l209 -81q39 15 67 44 t49 64l-326 888q-35 11 -66 25t-57 32l14 74h604l-14 -74q-63 -34 -158 -57l155 -516l29 -98h4l70 97zM936 1445q-90 0 -159.5 16.5t-115.5 48.5t-64.5 80t-6.5 111q37 24 98 32q30 4 57 6.5t51 3.5l58 -35l-29 -151q25 -13 59.5 -18t69.5 -5q13 0 31 1t36.5 3t36.5 5t33 8 l31 157l73 35q17 2 39.5 0t49.5 -7t50 -13.5t42 -21.5q-24 -123 -142 -190q-117 -66 -298 -66z" glyph-name="afii10062" horiz-adv-x="1425" unicode="Ў"/>
<glyph d="M804 1282q-34 -20 -67.5 -34t-74.5 -23l-214 -1099h535l214 1099q-49 11 -76.5 26t-44.5 31l15 74h581l-15 -74q-48 -25 -89 -39t-81 -18l-213 -1095q41 -8 78.5 -21t69.5 -35l-14 -74h-571q-16 -48 -36.5 -96t-45.5 -99q-24 -52 -47.5 -100t-46.5 -93h-85 q-14 100 -21 197t-4 191h-576l14 74q42 21 85.5 34.5t84.5 21.5l213 1095q-51 9 -86.5 24t-61.5 33l15 74h580z" glyph-name="afii10145" horiz-adv-x="1593" unicode="Џ"/>
<glyph d="M814 438h-388l-169 -308q85 -12 157 -56l-14 -74h-474l14 74q36 19 72 33.5t71 22.5l738 1249h143l178 -1249q76 -17 129 -56l-14 -74h-601l14 74q41 17 86 32.5t86 23.5zM495 564h307l-33 369l-1 137h-4l-68 -140z" glyph-name="afii10017" horiz-adv-x="1366" unicode="А"/>
<glyph d="M372 1225q-88 16 -148 57l15 74h1050q-9 -45 -23.5 -99t-31 -108t-34 -105t-33.5 -91h-79l-66 276h-359l-86 -440q37 5 69.5 9t74.5 4q85 0 165 -11.5t146 -44.5q38 -19 70 -46.5t55.5 -63.5t36.5 -80.5t13 -97.5q0 -112 -51.5 -198.5t-138.5 -145.5t-202.5 -89.5 t-243.5 -30.5q-7 0 -28 0.5t-49.5 1t-62.5 1.5t-67.5 1.5t-62.5 1t-49 0.5h-277l14 74q42 21 84 35.5t86 20.5zM661 676q-25 0 -57 -4t-51 -8l-104 -536q17 -3 45 -5.5t77 -2.5q66 0 123 23.5t99.5 67.5t66.5 106.5t24 139.5q0 106 -57.5 162.5t-165.5 56.5z" glyph-name="afii10018" horiz-adv-x="1301" unicode="Б"/>
<glyph d="M-25 0l14 74q42 21 86 36.5t84 19.5l213 1095q-38 9 -77 23t-71 34l15 74h312q37 0 73 1.5t72.5 4t75 4t81.5 1.5q45 0 96.5 -2.5t102 -12t97 -27t82 -47.5t57 -74.5t21.5 -106.5q0 -72 -30.5 -134t-81 -110.5t-115.5 -81.5t-134 -45l-1 -8q54 -10 106.5 -29t94 -51.5 t67.5 -80.5t26 -116q0 -56 -18.5 -109t-51.5 -100.5t-77.5 -86.5t-96.5 -67q-47 -26 -98.5 -43t-105.5 -27.5t-109.5 -14.5t-110.5 -4q-44 0 -95 1.5t-101 4t-95 4t-76 1.5h-231zM584 114q76 0 141 22t112.5 63t74.5 99t27 129q0 59 -23 97.5t-62.5 61t-92.5 31.5t-112 9 h-114l-97 -498q25 -6 56.5 -10t89.5 -4zM620 752q42 0 89.5 2t80.5 10q36 10 74.5 35t71 62.5t53.5 86t21 104.5q0 52 -16 88.5t-46 59t-72 32.5t-93 10q-35 0 -70 -2t-60 -6l-94 -482h61z" glyph-name="afii10019" horiz-adv-x="1366" unicode="В"/>
<glyph d="M449 130q47 -8 91.5 -23.5t83.5 -32.5l-14 -74h-635l14 74q48 21 89.5 35t79.5 21l213 1095q-37 9 -76 22t-71 35l15 74h1103q-9 -43 -21.5 -94t-27.5 -104.5t-32 -107t-34 -101.5h-80l-75 280h-409z" glyph-name="afii10020" horiz-adv-x="1237" unicode="Г"/>
<glyph d="M1302 126q-9 -45 -23 -102t-32 -117t-39 -118t-42 -105h-75l-42 316h-886l-167 -316h-76q-2 48 0.5 108t7.5 121t12.5 117.5t15.5 95.5h158q72 82 140 201.5t127.5 262t107 300.5t78.5 317q-49 9 -99 28.5t-92 46.5l14 74h1104l-14 -74q-75 -37 -170 -57l-214 -1099h206z M806 126l215 1103h-302q-53 -224 -111.5 -402t-117 -314t-114 -231.5t-101.5 -155.5h531z" glyph-name="afii10021" horiz-adv-x="1399" unicode="Д"/>
<glyph d="M1374 1356q-21 -88 -48.5 -180.5t-59.5 -174.5h-80l-44 228h-479l-92 -473h338l114 148h62q-5 -48 -12.5 -100.5t-18.5 -110.5q-23 -116 -52 -216h-62l-56 153h-338l-98 -504h484l151 246h79q1 -38 -1 -84t-6 -95.5t-10.5 -99t-15.5 -93.5h-1154l14 74q37 17 80 32.5 t90 23.5l213 1095q-38 9 -78.5 23t-69.5 34l15 74h1135z" glyph-name="afii10022" horiz-adv-x="1366" unicode="Е"/>
<glyph d="M926 1225q-37 11 -65.5 26t-49.5 31l15 74h504l-15 -74q-43 -28 -125 -57l-96 -493l137 29l345 464q-37 11 -70 26t-61 31l15 74h514l-15 -74q-33 -16 -71 -31t-79 -26l-417 -473q28 -61 58.5 -139.5t66 -164t79 -172t98.5 -163.5l70 -47l-13 -66h-313l-70 66 q-17 39 -35 89.5t-35.5 106t-34 112t-32 107t-28.5 92t-23 66.5h-104l-99 -509q32 -10 59 -24.5t53 -31.5l-14 -74h-522l14 74q30 17 66 31.5t80 24.5l103 526l-117 -28q-51 -75 -91.5 -144.5t-80 -137.5t-83.5 -137.5t-103 -142.5l-96 -66h-323l13 66l89 46 q79 76 146.5 159t128 165t116 158t111.5 138l-237 493q-37 11 -67 26t-51 31l15 74h510l-15 -74q-27 -16 -64.5 -31t-79.5 -26l173 -475h124z" glyph-name="afii10024" horiz-adv-x="1880" unicode="Ж"/>
<glyph d="M361 -24q-55 0 -112.5 6t-111 16.5t-99.5 24.5t-76 29q8 31 23 75.5t33.5 92.5t40 95.5t41.5 85.5h81l23 -275q31 -11 71 -17t82 -6q64 0 118 27t93 73t60.5 107.5t21.5 129.5q0 102 -36 145t-122 43l-155 -26q-2 35 4.5 79.5t24.5 81.5h63q16 -1 36 -0.5t41 1.5t41 3 t35 4q24 12 52 41t51 69t38.5 88.5t15.5 99.5q0 39 -5.5 72.5t-21 58.5t-44 39t-73.5 14q-46 0 -81.5 -12.5t-50.5 -24.5l-143 -246h-82q-2 28 -1.5 66.5t3 82t7 89t11.5 87.5q42 22 93 38t102.5 26.5t101 15t88.5 4.5q85 0 158.5 -13t128 -44.5t85.5 -84.5t31 -132 q0 -68 -27.5 -128t-70 -109t-94 -85t-100.5 -57l-1 -7q44 -11 82 -32.5t66 -55.5t44 -80t16 -106q0 -45 -10 -91.5t-30 -91t-50.5 -85t-70.5 -74.5q-77 -64 -187 -95.5t-252 -31.5z" glyph-name="afii10025" horiz-adv-x="1042" unicode="З"/>
<glyph d="M557 0h-582l14 74q41 19 84.5 34.5t85.5 21.5l213 1095q-37 11 -76.5 23t-71.5 34l15 74h582l-15 -74q-31 -18 -71 -33t-84 -24l-143 -729l-38 -131l115 148l622 666l9 46q-86 22 -142 57l15 74h583l-15 -74q-37 -22 -81 -34t-89 -23l-213 -1095q44 -8 80 -22.5t68 -33.5 l-14 -74h-583l14 74q30 13 71 29.5t86 26.5l143 727l39 124l-107 -124l-633 -685l-8 -42q44 -10 79 -25.5t62 -30.5z" glyph-name="afii10026" horiz-adv-x="1593" unicode="И"/>
<glyph d="M557 0h-582l14 74q41 19 84.5 34.5t85.5 21.5l213 1095q-37 11 -76.5 23t-71.5 34l15 74h582l-15 -74q-31 -18 -71 -33t-84 -24l-143 -729l-38 -131l115 148l622 666l9 46q-86 22 -142 57l15 74h583l-15 -74q-37 -22 -81 -34t-89 -23l-213 -1095q44 -8 80 -22.5t68 -33.5 l-14 -74h-583l14 74q30 13 71 29.5t86 26.5l143 727l39 124l-107 -124l-633 -685l-8 -42q44 -10 79 -25.5t62 -30.5zM964 1445q-90 0 -159.5 16.5t-115.5 48.5t-64.5 80t-6.5 111q37 24 98 32q30 4 57 6.5t51 3.5l58 -35l-29 -151q25 -13 59.5 -18t69.5 -5q13 0 31 1t36.5 3 t36.5 5t33 8l31 157l73 35q17 2 39.5 0t49.5 -7t50 -13.5t42 -21.5q-24 -123 -142 -190q-117 -66 -298 -66z" glyph-name="afii10027" horiz-adv-x="1593" unicode="Й"/>
<glyph d="M972 1356h519l-15 -74q-37 -22 -82 -36t-82 -21l-417 -472q14 -27 34.5 -74.5t45.5 -106t53.5 -123.5t57.5 -126t58.5 -114t56.5 -87l82 -56l-13 -66h-336l-68 54q-12 30 -27.5 77t-33 102t-36.5 114.5t-37 114t-34.5 100t-30.5 73.5h-120l-98 -505q42 -8 74 -23.5 t53 -32.5l-14 -74h-587l14 74q43 19 86 33.5t84 22.5l213 1095q-44 7 -82.5 22t-65.5 35l15 74h587l-15 -74q-28 -16 -66 -31t-83 -26l-95 -491l157 27l364 464q-38 9 -72.5 25t-58.5 32z" glyph-name="afii10028" horiz-adv-x="1389" unicode="К"/>
<glyph d="M548 1207q-58 9 -107 30.5t-84 44.5l15 74h1109l-15 -74q-33 -18 -77.5 -33t-92.5 -24l-212 -1095q42 -8 79 -23.5t69 -32.5l-15 -74h-597l15 74q36 17 76.5 31.5t82.5 24.5l213 1099h-307q-32 -148 -64.5 -274t-58.5 -217q-20 -71 -44.5 -142.5t-53 -139.5t-60.5 -131.5 t-66 -117.5q-27 -43 -62.5 -83.5t-75.5 -72t-83 -52t-85 -23.5q-22 14 -39.5 47t-28.5 73t-16 80.5t-1 69.5l66 74l202 -56q36 54 75 130.5t79.5 188.5t82 265t81.5 359z" glyph-name="afii10029" horiz-adv-x="1405" unicode="Л"/>
<glyph d="M1645 0h-580l14 74q43 19 82.5 32.5t83.5 23.5l158 809l45 207h-11l-112 -187l-490 -701h-79l-194 693l-44 206h-13l-42 -226l-154 -794q35 -7 76 -24.5t76 -38.5l-14 -74h-473l14 74l83 36q26 11 49.5 18t43.5 11l211 1086q-38 9 -78.5 22t-69.5 35l15 74h485l151 -573 l38 -166h2l113 170l399 569h481l-15 -74q-37 -20 -77.5 -34t-81.5 -23l-213 -1097q41 -8 75 -23.5t60 -30.5z" glyph-name="afii10030" horiz-adv-x="1821" unicode="М"/>
<glyph d="M562 0h-587l14 74q37 17 83 32.5t87 23.5l213 1095q-45 9 -84 24t-64 33l15 74h587l-15 -74q-33 -20 -72 -35t-77 -22l-91 -468h535l91 468q-42 9 -72.5 24t-54.5 33l15 74h587l-15 -74q-37 -22 -82 -35t-88 -22l-213 -1095q44 -8 82.5 -23.5t65.5 -32.5l-14 -74h-587 l14 74q33 17 70.5 32.5t78.5 23.5l98 502h-535l-98 -502q38 -8 68 -21.5t59 -34.5z" glyph-name="afii10031" horiz-adv-x="1593" unicode="Н"/>
<glyph d="M82 548q0 113 28 218.5t79 198t123.5 168.5t162.5 131t194.5 85t220.5 30q134 0 237 -42.5t173.5 -118.5t107 -180.5t36.5 -228.5q0 -173 -57 -325t-162.5 -265t-257 -178t-340.5 -65q-134 0 -235.5 42.5t-170.5 119t-104 181t-35 229.5zM407 533q0 -92 14 -170.5 t44.5 -136t78.5 -90.5t116 -33q75 0 138 28.5t114 79t89.5 120t65 151.5t39.5 173t13 185q0 90 -14 165.5t-45 130.5t-80 86t-119 31q-74 0 -137 -29.5t-113.5 -81t-88.5 -121t-63.5 -149.5t-38.5 -167t-13 -172z" glyph-name="afii10032" horiz-adv-x="1479" unicode="О"/>
<glyph d="M555 0h-580l14 74q32 15 74 31.5t96 24.5l213 1095q-38 9 -76.5 22t-71.5 35l15 74h1433l-15 -74q-41 -23 -84 -35.5t-86 -21.5l-213 -1095q71 -8 148 -56l-14 -74h-581l14 74q23 15 56 29.5t87 26.5l214 1099h-535l-214 -1099q38 -10 66 -23.5t54 -32.5z" glyph-name="afii10033" horiz-adv-x="1593" unicode="П"/>
<glyph d="M450 130q51 -8 99.5 -22.5t84.5 -33.5l-14 -74h-645l14 74q42 21 85.5 34.5t84.5 21.5l213 1095q-44 9 -81.5 23t-66.5 34l15 74h244q97 0 188.5 7.5t164.5 7.5q92 0 172 -17t139.5 -55.5t94 -101.5t34.5 -155q0 -134 -51.5 -233.5t-137.5 -165.5t-197 -98.5t-230 -32.5 h-28t-39.5 1t-39.5 1.5t-28 2.5zM772 1245q-32 0 -59.5 -3.5t-47.5 -7.5l-115 -589q26 -7 44.5 -7.5t42.5 -0.5q61 0 119 22.5t103 70.5t72.5 123.5t27.5 182.5t-51.5 158t-135.5 51z" glyph-name="afii10034" horiz-adv-x="1251" unicode="Р"/>
<glyph d="M1138 407h79q0 -30 -3 -76.5t-8 -96.5t-11 -98.5t-12 -81.5q-50 -22 -106 -37t-114 -24t-115 -13t-109 -4q-141 0 -257 36t-199.5 108t-129 179.5t-45.5 250.5q0 141 38 257.5t103 209t152.5 160.5t187 113t205.5 67t209 22q64 0 126 -5.5t117 -15t100.5 -22t75.5 -25.5 q-5 -27 -18.5 -75t-30.5 -102t-35 -106.5t-33 -88.5h-82l-49 293q-8 4 -27 7.5t-42.5 6.5t-48.5 5t-45 2q-64 0 -131.5 -18t-132 -55.5t-122.5 -95t-101.5 -136t-69 -179.5t-25.5 -225q0 -99 22.5 -180t69 -139t118 -90t170.5 -32q27 0 54.5 3t52.5 8t44.5 10.5t29.5 10.5z " glyph-name="afii10035" horiz-adv-x="1366" unicode="С"/>
<glyph d="M212 948q-3 26 -6 63t-4.5 87t0 114t9.5 144h1167q-47 -153 -89 -253.5t-70 -154.5h-82q-13 72 -23 142t-15 139h-184l-214 -1099q50 -10 96 -23.5t81 -32.5l-14 -74h-666l14 74q42 15 93.5 31.5t104.5 24.5l214 1099h-182q-38 -78 -74 -146.5t-74 -134.5h-82z" glyph-name="afii10036" horiz-adv-x="1251" unicode="Т"/>
<glyph d="M1234 1225q-44 11 -76.5 25t-61.5 32l14 74h469l-14 -74q-25 -16 -63 -30t-86 -27l-605 -835q-18 -24 -39.5 -53t-46 -60t-51 -62t-52.5 -58q-33 -35 -70 -64.5t-78.5 -52t-87.5 -35.5t-97 -14q-11 16 -22 47.5t-19.5 67.5t-12.5 70.5t-2 56.5l69 77l209 -81q39 15 67 44 t49 64l-326 888q-35 11 -66 25t-57 32l14 74h604l-14 -74q-63 -34 -158 -57l155 -516l29 -98h4l70 97z" glyph-name="afii10037" horiz-adv-x="1425" unicode="У"/>
<glyph d="M765 1356h530l-14 -72q-25 -14 -57.5 -29t-80.5 -28l-16 -83q17 2 32.5 4t33.5 4t41.5 3t57.5 1q93 0 169.5 -24.5t130.5 -71.5t83.5 -116t29.5 -159q0 -94 -25.5 -173t-70 -142t-103.5 -110.5t-126.5 -78.5t-140 -47t-142.5 -16q-41 0 -82 3.5t-66 9.5l-20 -103 q37 -10 65.5 -25.5t51.5 -30.5l-14 -72h-530l14 72q29 15 67.5 30.5t79.5 23.5l20 101q-44 -4 -89 -6.5t-108 -2.5q-75 0 -144 21t-122 66t-85 115t-32 168q0 130 48 235.5t132.5 179t200.5 113.5t252 40q31 0 49.5 -0.5t31 -1t22 -1.5t23.5 -2l15 76q-43 11 -76 26t-50 31z M1204 1038q-25 0 -52 -2.5t-50 -7.5l-133 -686q18 -3 37.5 -4t50.5 -1q60 0 122 28.5t112 87t82 146.5t32 207q0 45 -10.5 86.5t-34.5 73.5t-62.5 52t-93.5 20zM616 337q22 0 46 2.5t46 7.5l134 687q-17 2 -39 3t-46 1q-89 0 -155 -38t-109.5 -100.5t-65.5 -142t-22 -162.5 q0 -128 56.5 -193t154.5 -65z" glyph-name="afii10038" horiz-adv-x="1741" unicode="Ф"/>
<glyph d="M970 1356h480l-15 -74q-32 -16 -66.5 -31t-75.5 -26l-436 -494l272 -601q43 -10 76 -24.5t62 -31.5l-14 -74h-628l14 74q35 17 71.5 31.5t76.5 24.5l-168 413l-334 -415q75 -12 132 -54l-14 -74h-495l14 74q71 39 142 56l492 542l-251 553q-34 11 -64 26t-58 31l15 74 h613l-15 -74q-24 -14 -61.5 -28t-88.5 -29l145 -375l300 375q-37 9 -72.5 25t-63.5 32z" glyph-name="afii10039" horiz-adv-x="1366" unicode="Х"/>
<glyph d="M-24 0l14 74q30 15 74 30.5t96 25.5l213 1095q-38 7 -76.5 21t-71.5 36l15 74h577l-15 -74q-26 -16 -60 -30t-79 -27l-214 -1099h507l214 1099q-34 9 -64 24t-54 33l15 74h578l-15 -74q-43 -23 -85 -35.5t-85 -21.5l-214 -1099h227q-11 -50 -26.5 -109.5t-33.5 -119.5 t-37.5 -115.5t-37.5 -97.5h-75l-44 316h-1243z" glyph-name="afii10040" horiz-adv-x="1593" unicode="Ц"/>
<glyph d="M1335 0h-597l14 74q50 21 97 36.5t93 19.5l89 457q-30 -15 -79 -30.5t-106 -28.5t-118 -21t-116 -8q-69 0 -130 13.5t-107.5 46t-74 86t-28.5 133.5q0 10 1.5 27.5t4 37.5t6 41.5t7.5 40.5l59 300q-35 7 -69 22t-60 35l14 74h548l-14 -74q-25 -16 -57.5 -31t-71.5 -26 l-49 -249q-4 -21 -7.5 -43t-6 -42t-4 -36.5t-1.5 -26.5q0 -48 10.5 -84t34.5 -60t63.5 -36.5t97.5 -12.5q27 0 63.5 6t75 15.5t74.5 21.5t62 25l102 522q-31 11 -59.5 25t-49.5 32l14 74h538l-14 -74q-29 -18 -64.5 -32t-74.5 -25l-213 -1095q38 -8 67 -24.5t50 -31.5z" glyph-name="afii10041" horiz-adv-x="1532" unicode="Ч"/>
<glyph d="M1048 1356h501l-15 -74q-23 -16 -51.5 -31t-63.5 -26l-214 -1099h482l214 1099q-53 15 -100 57l15 74h536l-15 -74q-67 -39 -146 -57l-213 -1095q38 -10 69 -24.5t55 -31.5l-14 -74h-2109l14 74q35 17 75 32.5t75 23.5l213 1095q-74 16 -128 57l15 74h534l-15 -74 q-17 -12 -48.5 -28t-66.5 -29l-214 -1099h482l214 1099q-62 22 -96 57z" glyph-name="afii10042" horiz-adv-x="2306" unicode="Ш"/>
<glyph d="M-25 0l14 74q32 15 69.5 31.5t80.5 24.5l213 1095q-35 7 -70 22t-58 35l15 74h534l-15 -74q-20 -16 -51.5 -31t-63.5 -26l-214 -1099h482l214 1099q-62 24 -96 57l15 74h502l-15 -74q-21 -16 -50.5 -31t-65.5 -26l-214 -1099h482l214 1099q-62 20 -100 57l15 74h536 l-15 -74q-30 -20 -66.5 -34t-79.5 -23l-214 -1099h217q-9 -45 -23.5 -103t-33 -118t-39 -118t-40.5 -103h-76l-43 316h-1960z" glyph-name="afii10043" horiz-adv-x="2306" unicode="Щ"/>
<glyph d="M1114 1356l-14 -74q-37 -20 -87.5 -33t-101.5 -24l-81 -414q47 8 98 11t95 3q88 0 169 -17.5t143 -58t98.5 -107t36.5 -165.5q0 -125 -47.5 -216t-132.5 -150t-203 -88t-259 -29q-9 0 -46.5 1t-84.5 2t-95 2t-78 1h-301l14 74q39 19 81 33.5t89 22.5l214 1099h-202 l-157 -281h-82q1 48 4.5 103.5t8 110t10.5 105t14 89.5h897zM921 699q-37 0 -65 -4t-50 -8l-108 -559q17 -4 45 -6t55 -2q78 0 143 22.5t111.5 67.5t72.5 113t26 160q0 107 -57 161.5t-173 54.5z" glyph-name="afii10044" horiz-adv-x="1557" unicode="Ъ"/>
<glyph d="M1800 0h-588l14 74q36 17 74.5 31.5t78.5 24.5l213 1095q-35 9 -71.5 22t-68.5 35l15 74h597l-15 -74q-73 -42 -166 -57l-213 -1095q47 -8 82 -24.5t62 -31.5zM-25 0l14 74q39 19 83.5 34.5t85.5 21.5l213 1095q-37 9 -76 22t-71 35l15 74h628l-15 -74q-38 -20 -89 -34 t-101 -23l-80 -414q31 5 77 9.5t101 4.5q27 0 66.5 -2.5t83.5 -11t90 -25.5t87 -45q58 -41 92 -107t34 -156q0 -107 -40 -195.5t-117.5 -153t-191.5 -100t-262 -35.5q-7 0 -28.5 0.5t-51.5 1t-65 1.5t-69.5 1.5t-65 1t-50.5 0.5h-297zM672 699q-35 0 -61 -3.5t-53 -8.5 l-109 -559q29 -4 55 -6t55 -2q102 0 167 33t101.5 85.5t50.5 119t14 134.5q0 106 -56.5 155.5t-163.5 51.5z" glyph-name="afii10045" horiz-adv-x="1985" unicode="Ы"/>
<glyph d="M-25 0l14 74q39 19 83.5 34.5t85.5 21.5l213 1095q-37 9 -76 22t-71 35l15 74h628l-15 -74q-38 -20 -89 -34t-101 -23l-80 -414q23 3 42 5.5t39 4.5t43 3t54 1q93 0 175.5 -18.5t143.5 -59.5t96.5 -108t35.5 -164q0 -118 -44.5 -208t-127.5 -150.5t-201 -91.5t-265 -31 q-11 0 -47.5 1t-82.5 2t-93 2t-78 1h-297zM668 699q-35 0 -60.5 -3.5t-50.5 -8.5l-108 -559q15 -2 24.5 -3.5t19 -2.5t22.5 -1.5t35 -0.5q97 0 162.5 29.5t105.5 79.5t57 115.5t17 137.5q0 113 -56 165t-168 52z" glyph-name="afii10046" horiz-adv-x="1298" unicode="Ь"/>
<glyph d="M407 587q0 6 -0.5 17.5t-0.5 19.5q0 37 8.5 78.5t31.5 83.5l539 -8q5 30 6.5 58t1.5 54q0 90 -24.5 157.5t-69.5 113.5t-109 69t-143 23q-26 0 -53.5 -4t-52.5 -10t-45 -12.5t-31 -10.5l-150 -251h-79q-1 21 1 61t6.5 87t12 95.5t16.5 86.5q33 17 86.5 32t113 26.5 t118 18.5t100.5 7q140 0 246 -29.5t187 -93.5q89 -70 137 -179.5t48 -255.5q0 -98 -24.5 -191t-64 -175.5t-90.5 -151t-104 -116.5q-72 -64 -146.5 -105t-151.5 -64.5t-156 -32.5t-159 -9q-56 0 -114 6t-111.5 16t-99.5 24t-77 30q6 32 19 79t29 98.5t33.5 103t32.5 92.5h81 l46 -303q28 -8 70.5 -13.5t82.5 -5.5q53 0 110 10.5t112.5 35t108 65.5t97.5 101.5t80.5 143.5t56.5 192z" glyph-name="afii10047" horiz-adv-x="1333" unicode="Э"/>
<glyph d="M572 0h-597l14 74q39 19 81 33.5t89 22.5l213 1095q-38 7 -76.5 21t-71.5 36l15 74h597l-15 -74q-27 -16 -64.5 -31t-94.5 -26l-91 -468h220q31 128 103 241t172 199q100 85 226 133.5t279 48.5q141 0 246 -44t174 -120.5t103 -181t34 -224.5q0 -110 -26.5 -215 t-76.5 -197.5t-123 -170t-165 -133t-202.5 -86.5t-236.5 -31q-139 0 -239.5 45t-166 121.5t-97 177.5t-31.5 213q0 31 2 53t4 46h-223l-98 -502q48 -10 80.5 -25.5t56.5 -30.5zM1073 525q0 -92 13 -169.5t44 -133.5t82.5 -87.5t128.5 -31.5q73 0 136 27.5t114 77t90.5 118 t66.5 150.5t41 174.5t14 189.5q0 90 -13.5 165.5t-45 130.5t-83.5 86t-129 31q-74 0 -136.5 -29.5t-113.5 -80.5t-90 -121t-65.5 -151t-40 -169.5t-13.5 -176.5z" glyph-name="afii10048" horiz-adv-x="2163" unicode="Ю"/>
<glyph d="M1487 1356l-15 -74q-28 -16 -73.5 -31t-96.5 -26l-213 -1095q50 -10 84.5 -25.5t63.5 -30.5l-14 -74h-601l14 74q37 17 77.5 31.5t84.5 24.5l83 426h-192q-32 -51 -70.5 -116t-81 -132.5t-87.5 -132t-89 -113.5l-92 -62h-335l13 66l94 47q25 16 60 53t83.5 95.5 t113.5 139.5t150 185q-30 9 -70 31t-76 59.5t-61.5 91t-25.5 124.5q0 60 16.5 115t47.5 103.5t74.5 89t97.5 70.5q88 50 204.5 71t268.5 21q19 0 50.5 -1t67.5 -2t73 -2t66 -1h306zM798 670q26 0 55.5 2t51.5 8l106 545q-8 2 -25 4t-37.5 3.5t-40 2.5t-31.5 1 q-71 0 -134.5 -21t-112 -64t-77 -107t-28.5 -149q0 -53 20 -98t60 -75q69 -52 193 -52z" glyph-name="afii10049" horiz-adv-x="1411" unicode="Я"/>
<glyph d="M371 122q32 0 66 31t66.5 77t60.5 100t48 102l66 356q-22 14 -40.5 20.5t-49.5 6.5q-48 0 -88.5 -24t-73 -65t-57 -94.5t-41 -113t-24.5 -121t-8 -117.5q0 -82 16.5 -120t58.5 -38zM584 286q-22 -57 -54.5 -112.5t-75.5 -99t-95.5 -70t-113.5 -26.5q-93 0 -149 68.5 t-56 203.5q0 83 17.5 165t50.5 156t80 137.5t106 110t128.5 72.5t147.5 26q47 0 80.5 -10.5t70.5 -27.5q47 18 101 27t129 9l-151 -791h126v-61q-18 -15 -47.5 -29t-65 -25t-72.5 -18t-68 -7q-63 0 -90 27t-27 56q0 32 9 85t26 134h-7z" glyph-name="afii10065" unicode="а"/>
<glyph d="M64 379q0 124 22 243t65 222.5t106 187.5t144 137q51 35 108.5 55.5t119 32t126 17t129.5 9.5l107 94h62q0 -30 -7.5 -65t-20.5 -69.5t-30.5 -66.5t-36.5 -55q-13 -15 -29.5 -24t-36.5 -14t-45 -7t-55 -4q-88 -7 -160 -19.5t-130 -34t-103.5 -55t-80.5 -83t-60.5 -118 t-43.5 -160.5h9q83 141 203 221q121 80 247 80q127 0 199 -83t72 -228q0 -77 -17.5 -152.5t-50 -143.5t-79.5 -126.5t-106 -101t-129 -66.5t-148 -24q-76 0 -140 23t-110.5 72t-73 125t-26.5 181zM369 597q-22 -45 -35.5 -121t-13.5 -176q0 -114 32 -166.5t86 -52.5 q48 0 92 39.5t78 107t54.5 158.5t20.5 193q0 97 -29 138.5t-84 41.5q-37 0 -69 -17t-57.5 -42t-44.5 -53t-30 -50z" glyph-name="afii10066" horiz-adv-x="1022" unicode="б"/>
<glyph d="M863 739q0 -40 -23 -81.5t-56 -67.5q-37 -29 -80 -51.5t-99 -40.5q60 -4 101 -21.5t66 -42.5t36 -55t11 -59q0 -59 -30.5 -119.5t-88.5 -110t-143 -81t-194 -31.5q-80 0 -139.5 23.5t-99 66t-59 101t-19.5 128.5q0 88 21 165.5t55.5 142.5t78.5 116.5t89 87.5 q68 54 153 83t185 29q52 0 96.5 -10t76.5 -35q28 -21 45 -56t17 -81zM558 290q0 74 -31 102q-15 14 -34 24.5t-51 17.5q-29 -6 -59.5 -9.5t-64.5 -5.5q-4 -20 -8.5 -56.5t-4.5 -96.5q0 -26 2.5 -58t13 -60t31.5 -47.5t58 -19.5q26 0 52.5 15t47.5 43t34.5 66t13.5 85z M551 818q-34 0 -63 -19.5t-55 -51.5q-16 -20 -32.5 -51t-31.5 -65.5t-25.5 -68.5t-14.5 -59q67 -3 120 15.5t89.5 51t55.5 75.5t19 89q0 16 -3 31t-10.5 27t-19 19t-29.5 7z" glyph-name="afii10067" horiz-adv-x="915" unicode="в"/>
<glyph d="M7 185q0 70 33.5 122.5t83.5 93.5t108 74.5t108 66.5t83.5 68t33.5 80q0 36 -26 61.5t-69 25.5q-31 0 -61.5 -11.5t-58.5 -28.5t-52.5 -36t-43.5 -35l-45 48q24 32 61.5 68.5t85.5 67t105 51t120 20.5q58 0 109.5 -14t80.5 -43q57 -56 57 -134q0 -51 -21 -95t-54.5 -81 t-74.5 -68t-80 -57t-78.5 -50.5t-71 -50.5t-51.5 -55.5t-20 -63.5q0 -40 30.5 -63.5t84.5 -23.5q35 0 68.5 10.5t64 27t57.5 36.5t49 38l41 -43q-31 -39 -73 -77t-94.5 -68t-115 -49t-135.5 -19q-50 0 -93.5 14.5t-76 41.5t-51 65.5t-18.5 85.5z" glyph-name="afii10068" horiz-adv-x="756" unicode="г"/>
<glyph d="M54 307q0 86 19.5 164.5t54 145.5t83 121t106.5 92.5t124 59t136 20.5q36 0 72 -7t55 -21q0 37 -4.5 79t-15 83.5t-28 79.5t-42 67.5t-58 47t-76.5 17.5q-63 0 -108 -17t-86 -41l-29 46q26 27 65 53t84 43q96 37 205 37q70 0 131.5 -32t108 -99t73.5 -170t27 -245 q0 -180 -42 -335.5t-119.5 -270.5t-187 -181t-243.5 -66q-67 0 -123 22t-96.5 64.5t-63 103.5t-22.5 139zM582 808q-49 0 -88.5 -23.5t-69.5 -63t-52 -92.5t-36 -112t-20.5 -121t-6.5 -119q0 -41 5 -76.5t17.5 -62t33.5 -42t54 -15.5q54 0 102.5 54.5t86 149t61 221 t27.5 269.5q-28 18 -56.5 25.5t-57.5 7.5z" glyph-name="afii10069" horiz-adv-x="1016" unicode="д"/>
<glyph d="M803 212q-32 -46 -76 -88t-97.5 -74.5t-114.5 -52t-128 -19.5q-160 0 -244 87t-84 248q0 76 19 150.5t53 140.5t80.5 121.5t101.5 94.5q140 101 315 101q51 0 102 -12.5t89 -44.5q26 -22 41.5 -53t15.5 -75q0 -62 -32.5 -112t-93.5 -90q-30 -20 -74.5 -36t-99.5 -28.5 t-118 -21t-131 -13.5q-5 -25 -7.5 -56t-2.5 -54q0 -44 10.5 -81t33 -64t57.5 -42.5t84 -15.5q34 0 69 11t68 30t63.5 43t56.5 51zM572 818q-45 0 -83.5 -27t-67.5 -67q-32 -46 -51.5 -99.5t-29.5 -97.5q33 1 68 5t67.5 11.5t60.5 18t49 24.5q42 28 64 64.5t22 81.5 q0 35 -24 60.5t-75 25.5z" glyph-name="afii10070" horiz-adv-x="909" unicode="е"/>
<glyph d="M106 685q11 19 27 41t35 43.5t39.5 41t39.5 33.5q27 20 52.5 32.5t50 20t49.5 10.5t52 3q51 0 94.5 -17t75 -47.5t49 -73.5t17.5 -94q0 -48 -4.5 -94t-12.5 -83h202l81 398h228l-82 -398h201q15 45 37.5 88t50 82t58 72.5t60.5 60.5q55 48 124.5 77t138.5 29 q50 0 90.5 -17t62.5 -33q2 -19 -3 -45.5t-17 -53.5t-31.5 -51t-46.5 -39l-97 124q-29 -2 -62 -29t-57 -66q-17 -27 -34 -66.5t-31.5 -90t-23.5 -112.5t-9 -134q0 -30 7 -59t22 -52.5t39 -38t59 -14.5q22 0 46.5 8t49 21.5t46.5 30.5t40 35l31 -42q-70 -97 -154 -147 t-172 -50q-62 0 -110 20.5t-82 57t-51.5 86.5t-17.5 109q0 44 5 81t12 65h-202l-82 -408h-227l83 408h-208q-14 -48 -35 -90.5t-45 -78.5t-49.5 -66t-47.5 -52q-28 -28 -62.5 -52t-72.5 -42t-78 -28t-78 -10q-55 0 -93 17.5t-67 37.5q-3 23 2 52t18 57t32.5 51t45.5 34 l93 -130q10 0 23.5 4t29.5 13.5t33.5 26.5t35.5 44q20 30 40 75.5t35.5 100t25 114t9.5 118.5q0 27 -5.5 55.5t-18.5 52t-35 39t-56 15.5q-31 0 -58.5 -12.5t-50.5 -30.5t-41 -36.5t-29 -30.5z" glyph-name="afii10072" horiz-adv-x="1950" unicode="ж"/>
<glyph d="M-36 74q0 24 11.5 54.5t29.5 59t41 51t46 31.5l113 -180q11 -4 26.5 -6.5t30.5 -2.5q39 0 74 13.5t61.5 40t42 65.5t15.5 90q0 30 -6 53.5t-21 41t-40.5 28t-64.5 13.5l-117 -32q-14 23 -14 60q0 36 14 61h119q49 15 77 36.5t47 49.5q37 56 37 109q0 108 -122 108 q-15 0 -30.5 -2.5t-33.5 -5.5q-14 -14 -29 -34t-32 -45t-31.5 -46.5t-27.5 -39.5q-14 5 -28 19t-25.5 34t-19 43.5t-7.5 47.5q0 12 1.5 25.5t6.5 24.5q34 25 122 52q36 11 89.5 20.5t119.5 9.5q53 0 107.5 -6.5t102.5 -30.5q43 -22 68.5 -59.5t25.5 -83.5q0 -81 -56.5 -146 t-184.5 -109q52 0 92 -15.5t67 -41t41 -57.5t14 -65q0 -60 -28 -119t-83 -105.5t-135.5 -75.5t-186.5 -29q-50 0 -99.5 7.5t-92.5 21t-76.5 30.5t-50.5 37z" glyph-name="afii10073" horiz-adv-x="799" unicode="з"/>
<glyph d="M1099 124v-61q-18 -15 -48 -29t-65 -25t-73.5 -18t-76.5 -7q-65 0 -89 26t-24 55q0 32 7.5 89.5t28.5 133.5h-7q-24 -43 -60 -97t-84 -102t-111.5 -79.5t-138.5 -31.5q-74 0 -119.5 44.5t-45.5 125.5q0 39 11.5 113t28.5 161t38 179.5t37 170.5l-107 23v61q29 11 72 22 t90 19.5t95.5 15t87.5 8.5l41 -22q-29 -135 -59 -256t-55 -257q-9 -43 -19 -95t-10 -104q0 -32 17.5 -48.5t41.5 -16.5q46 0 90 35t81 84.5t64.5 102t40.5 85.5l93 470h243l-142 -775h126z" glyph-name="afii10074" horiz-adv-x="1139" unicode="и"/>
<glyph d="M1099 124v-61q-18 -15 -48 -29t-65 -25t-73.5 -18t-76.5 -7q-65 0 -89 26t-24 55q0 32 7.5 89.5t28.5 133.5h-7q-24 -43 -60 -97t-84 -102t-111.5 -79.5t-138.5 -31.5q-74 0 -119.5 44.5t-45.5 125.5q0 39 11.5 113t28.5 161t38 179.5t37 170.5l-107 23v61q29 11 72 22 t90 19.5t95.5 15t87.5 8.5l41 -22q-29 -135 -59 -256t-55 -257q-9 -43 -19 -95t-10 -104q0 -32 17.5 -48.5t41.5 -16.5q46 0 90 35t81 84.5t64.5 102t40.5 85.5l93 470h243l-142 -775h126zM731 1137q-192 0 -265 69q-74 70 -51 186q32 24 86.5 36.5t111.5 15.5l61 -24 l-33 -173q43 -21 110 -21q19 0 48.5 3.5t59.5 11.5l34 179l70 24q53 -3 100.5 -14.5t69.5 -37.5q-11 -58 -40.5 -105t-78.5 -80.5t-119.5 -51.5t-163.5 -18z" glyph-name="afii10075" horiz-adv-x="1139" unicode="й"/>
<glyph d="M581 83q-15 33 -32.5 80t-34 94t-31 89t-22.5 66l-58 17l-83 -429h-252l151 772l-120 23v61q25 11 66 22.5t90 21t102.5 15.5t103.5 6l37 -20l-79 -392h57q32 24 66 55.5t64.5 64.5t54 64t35.5 53q2 13 2.5 34.5t0.5 44.5t-1.5 43t-3.5 31q31 11 78.5 17.5t96.5 6.5 q23 0 45.5 -1.5t42.5 -4.5t36.5 -7.5t26.5 -10.5q-24 -57 -71.5 -114.5t-102 -108.5t-106.5 -91.5t-85 -64.5q12 -34 36 -86.5t53.5 -109t61.5 -110.5t60 -90h98v-61q-19 -15 -46.5 -29t-60 -25t-67 -18t-66.5 -7q-43 0 -78 20.5t-65 78.5z" glyph-name="afii10076" horiz-adv-x="1038" unicode="к"/>
<glyph d="M678 796h-178q-23 -103 -48.5 -207.5t-56 -200t-67.5 -176t-82 -135.5q-98 -119 -254 -99q-19 18 -26 54t-2 78q4 32 16 63.5t31 53.5l158 -51q34 43 64.5 114.5t56 154t45.5 167.5t32 155q-18 5 -37 12t-37 15t-33.5 17t-25.5 18v70h711l-148 -775h131v-61 q-36 -29 -114 -54q-75 -25 -170 -25q-52 0 -77 25t-25 56q0 39 7.5 83.5t17.5 86.5z" glyph-name="afii10077" horiz-adv-x="1051" unicode="л"/>
<glyph d="M453 713q-13 -54 -28 -114t-32.5 -122t-38 -122.5t-42.5 -115t-47 -99.5t-51 -76q-42 -49 -104 -71.5t-128 -14.5q-16 20 -22.5 59.5t-1.5 81.5q4 29 14 54.5t28 45.5l146 -43q32 42 61 108.5t54.5 147t47.5 169.5t40 176q-15 6 -31.5 12.5t-32 14.5t-28.5 16.5t-20 17.5 v61h405l33 -470l7 -127h5l72 133l277 464h261l-153 -775h132v-61q-17 -15 -47.5 -29t-67.5 -25.5t-78 -18t-80 -6.5q-55 0 -82 22.5t-27 51.5q0 11 0.5 24t3.5 34.5t9.5 53.5t18.5 82l72 307q4 15 9.5 36.5t12 44t13 44t12.5 35.5h-6l-427 -719h-113l-29 594l-10 119h-7z " glyph-name="afii10078" horiz-adv-x="1403" unicode="м"/>
<glyph d="M1029 899l-155 -775h127v-61q-17 -15 -48.5 -29t-69.5 -25t-78.5 -18t-77.5 -7q-60 0 -84 25t-24 52q0 35 11.5 82.5t20.5 88.5l34 171h-284l-84 -403h-249l153 772l-104 23v61q25 12 68.5 24t93.5 21t99.5 14.5t87.5 5.5l36 -22l-81 -394h284l75 394h249z" glyph-name="afii10079" horiz-adv-x="1137" unicode="н"/>
<glyph d="M64 345q0 64 14.5 132t43.5 132t73.5 120.5t104.5 99t135 67.5t167 25q162 0 253.5 -88t91.5 -263q0 -119 -36 -226t-104.5 -188.5t-167 -129.5t-222.5 -48q-77 0 -141.5 22.5t-111.5 68.5t-73.5 115t-26.5 161zM571 818q-72 0 -120 -54q-48 -55 -77 -136t-42 -177 q-7 -48 -10 -91.5t-3 -84.5q0 -91 35.5 -142.5t96.5 -51.5q52 0 96 44.5t76.5 118.5t50.5 170.5t18 200.5q0 100 -32 151.5t-89 51.5z" glyph-name="afii10080" unicode="о"/>
<glyph d="M710 513q13 55 23 98t10 91q0 30 -13.5 52.5t-47.5 22.5t-71 -26.5t-72 -65t-65 -85t-47 -85.5l-108 -515h-249l155 772l-106 23l4 61q24 12 64 24t86.5 21t96 14.5t94.5 5.5l36 -22l-56 -262h10q31 59 74.5 111t92 89.5t102.5 60.5t110 23q76 0 119 -48.5t43 -129.5 q0 -41 -9 -94.5t-22 -105.5l-98 -419h129v-61q-18 -15 -48 -29t-65 -25t-72.5 -18t-72.5 -7q-60 0 -88 23.5t-28 53.5q0 38 9 81t18 83z" glyph-name="afii10081" horiz-adv-x="1139" unicode="п"/>
<glyph d="M227 -246q31 -6 64.5 -21t56.5 -31v-69h-370l-24 24l239 1113l-104 25v61q30 12 74 24t92.5 21t95.5 14.5t83 5.5l36 -22l-60 -248h8q28 57 64 106t79.5 85.5t93 57.5t105.5 21q91 0 151 -72t60 -202q0 -146 -41 -269t-112.5 -212t-169 -138.5t-211.5 -49.5 q-26 0 -46.5 2t-38.5 6.5t-34.5 11.5t-34.5 16zM621 777q-38 0 -73.5 -28t-66 -69.5t-55.5 -90t-41 -88.5l-79 -389q23 -16 45.5 -23.5t66.5 -7.5q41 0 79 22.5t70.5 61t59.5 91t45.5 112.5t29 125.5t10.5 129.5q0 75 -23 114.5t-68 39.5z" glyph-name="afii10082" unicode="р"/>
<glyph d="M787 226q-30 -50 -71.5 -95t-93 -79t-111.5 -54t-127 -20q-79 0 -140.5 24t-103.5 68t-64 107.5t-22 141.5q0 63 13 126.5t36 123t56 112t74 93.5q73 73 169 110t212 37q33 0 71.5 -8.5t75.5 -26t67.5 -45t46.5 -64.5q2 -20 -12.5 -47.5t-40 -52.5t-60 -41.5t-71.5 -13.5 l-49 186q-13 5 -28 7.5t-27 2.5q-59 0 -113.5 -42.5t-93.5 -123.5q-28 -57 -47.5 -135.5t-19.5 -163.5q0 -112 44.5 -166.5t132.5 -54.5q36 0 69.5 11t65 30.5t62 46t59.5 58.5z" glyph-name="afii10083" horiz-adv-x="909" unicode="с"/>
<glyph d="M1180 539q9 42 20 89.5t11 74.5q0 35 -12 54.5t-43 19.5q-30 0 -62.5 -22.5t-63 -59.5t-58 -83.5t-49.5 -95.5l-117 -516h-241l109 505q13 56 22 108.5t9 96.5q0 67 -50 67q-26 0 -58 -23.5t-64.5 -60t-61.5 -83.5t-44 -95l-105 -515h-252l161 772l-103 23v61 q29 14 71 27t88.5 20.5t95.5 12.5t90 5l38 -22l-70 -262h7q27 48 65.5 99.5t87.5 91.5t104.5 66.5t112.5 26.5q22 0 45.5 -7.5t44 -26.5t33 -51.5t12.5 -82.5q0 -25 -4 -57t-12 -59q30 55 72 107t89.5 91t100.5 62.5t110 23.5q68 0 111.5 -43.5t43.5 -118.5 q0 -57 -11 -109.5t-23 -110.5l-103 -415h126v-61q-18 -15 -49.5 -29t-67.5 -25t-73.5 -18t-70.5 -7q-64 0 -89.5 26t-25.5 58q0 52 26 144z" glyph-name="afii10084" horiz-adv-x="1593" unicode="т"/>
<glyph d="M167 772l-115 14v61q9 6 36 18.5t64 25t78.5 21.5t80.5 9q49 0 76 -23.5t36 -65.5l86 -531l9 -108h4l37 106q9 16 19 36.5t20 43.5t19.5 46.5t18.5 46.5q19 50 32.5 92.5t22.5 93.5q-1 19 -6.5 54.5t-13 72.5t-15 68.5t-11.5 42.5q26 10 63.5 15.5t75.5 5.5t70.5 -5.5 t51.5 -15.5q-23 -108 -58.5 -219t-84.5 -226q-48 -115 -108 -227.5t-123 -223.5q-53 -93 -105 -158t-104 -113q-104 -96 -237 -96q-38 0 -69.5 10t-57.5 26q-5 25 4 59t26.5 67t41 59.5t48.5 35.5l134 -95q14 10 32.5 25t39 39t40.5 58.5t36 82.5z" glyph-name="afii10085" horiz-adv-x="909" unicode="у"/>
<glyph d="M702 -237q30 -5 62.5 -21.5t57.5 -32.5v-69h-353l-14 18l93 439q-48 -59 -113 -90.5t-150 -31.5q-40 0 -79.5 17t-71 52.5t-51.5 91.5t-20 134q0 69 13.5 143.5t40.5 146.5t67.5 136.5t94.5 113.5t122.5 78t150.5 29q43 0 77 -10.5t65 -31.5l61 351l-120 26v60 q26 12 65.5 22.5t85 19t93.5 14.5t92 9l36 -19l-106 -548q59 61 118.5 86t131.5 25q42 0 84 -14t75.5 -45.5t54.5 -83.5t21 -127t-10.5 -145t-29.5 -133t-45.5 -117.5t-58.5 -97.5q-66 -89 -145.5 -134.5t-183.5 -45.5q-21 0 -45 4t-46 11.5t-40 17t-27 20.5zM1029 798 q-24 0 -45 -6.5t-40 -17t-34 -24t-27 -26.5l-110 -616q11 -8 34.5 -17.5t55.5 -9.5q58 0 109 42.5t92 140.5q33 80 51.5 185t18.5 222q0 63 -31.5 95t-73.5 32zM414 97q34 0 74 22t75 68l112 599q-11 9 -38 19t-56 10q-48 0 -88.5 -30t-75.5 -96q-21 -39 -40 -89.5 t-32.5 -108.5t-21.5 -121.5t-8 -129.5q0 -72 28.5 -107.5t70.5 -35.5z" glyph-name="afii10086" horiz-adv-x="1466" unicode="ф"/>
<glyph d="M396 363l-98 -90q-21 -24 -37.5 -45.5t-27.5 -47.5q-1 -15 -0.5 -38.5t2 -48t4 -47t5.5 -34.5q-31 -12 -71 -17.5t-80 -5.5q-39 0 -73.5 5.5t-53.5 17.5q17 56 62 119q23 32 48.5 64t53.5 63t61 60.5t64.5 56t60 48.5t49.5 39l-110 298l-124 15v61q25 15 60 29t73 25.5 t76.5 18t69.5 6.5q46 0 70.5 -24t37.5 -64l81 -284q28 22 49 43t42 43q23 23 41.5 49.5t26.5 42.5q2 13 0.5 36.5t-4.5 49t-6.5 48t-5.5 34.5q66 22 146 22q36 0 70 -6t53 -16q-15 -55 -59 -119.5t-98 -125.5q-27 -30 -59.5 -59t-64.5 -53.5t-59.5 -45t-44.5 -33.5l118 -314 l124 -15v-61q-17 -12 -49.5 -25.5t-70.5 -25.5t-77.5 -20t-71.5 -8q-48 0 -74.5 23.5t-39.5 62.5z" glyph-name="afii10087" unicode="х"/>
<glyph d="M720 -16q-58 0 -81 26t-23 55q0 32 7.5 89.5t28.5 133.5h-7q-24 -43 -60 -97t-84 -102t-111.5 -79.5t-138.5 -31.5q-74 0 -119.5 44.5t-45.5 125.5q0 39 11.5 113t28.5 161t38 179.5t37 170.5l-107 23v61q29 11 72 22t90 19.5t95.5 15t87.5 8.5l41 -22q-29 -135 -59 -256 t-55 -257q-9 -43 -19 -95t-10 -104q0 -32 17.5 -48.5t41.5 -16.5q46 0 90 35t81 84.5t64.5 102t40.5 85.5l93 470h243l-142 -775h139v-72q-24 -23 -32.5 -50t-9 -56.5t2.5 -62t1 -65.5q0 -48 -24.5 -81.5t-62.5 -56t-85 -34t-97 -15.5l-10 53q52 14 67 51.5t14 84.5 q0 36 8 63t24.5 51.5t40.5 48.5t57 51l-6 7q-27 -17 -76.5 -37t-96.5 -20z" glyph-name="afii10088" horiz-adv-x="1139" unicode="ц"/>
<glyph d="M933 124v-61q-19 -15 -48.5 -29t-64.5 -25t-74 -18t-76 -7q-65 0 -89 27t-24 57q0 18 3 40t8 48l70 279h-7q-28 -36 -67.5 -66.5t-83.5 -56.5q-87 -51 -189 -51q-75 0 -122 40.5t-47 119.5q0 36 4.5 71t13 75.5t20 90t25.5 114.5l-106 23v61q29 11 72 22t90 20t95 15 t88 8l40 -22q-36 -147 -63 -253t-27 -166q0 -75 74 -75q25 0 56.5 9.5t57.5 27.5q23 16 46 33.5t39 40.5l79 383h245l-165 -775h127z" glyph-name="afii10089" horiz-adv-x="1075" unicode="ч"/>
<glyph d="M654 115q0 38 6.5 78.5t22.5 94.5h-7q-23 -43 -59.5 -97t-85.5 -101.5t-111 -80t-137 -31.5q-37 0 -70.5 11.5t-59 33t-40.5 53t-15 72.5q0 26 5 68.5t14 94.5t21 111t25 119.5t26 119.5t24 111l-107 23v61q29 11 72 22t90 20t95 15t88 8l41 -22q-28 -133 -58 -259 t-56 -254q-8 -43 -18.5 -95t-10.5 -104q0 -32 17.5 -48.5t41.5 -16.5q29 0 59.5 17t60.5 44.5t57.5 61.5t50.5 68.5t40 65t25 50.5l95 470h243q-14 -68 -28.5 -131.5t-28.5 -124.5q-14 -64 -28 -126t-28 -131q-9 -43 -19 -95t-10 -104q0 -32 19 -48.5t44 -16.5q30 0 60.5 17 t59.5 44.5t55.5 61.5t49 68t39 64.5t26.5 51.5l93 470h243l-142 -775h125v-61q-17 -15 -46.5 -29t-65 -25.5t-75 -18t-75.5 -6.5q-63 0 -89 26q-25 25 -25 55q0 32 7.5 89.5t28.5 133.5h-7q-23 -48 -59.5 -102.5t-87.5 -101t-116.5 -77t-145.5 -29.5q-35 0 -64 10t-50 28 t-33 43.5t-12 55.5z" glyph-name="afii10090" horiz-adv-x="1706" unicode="ш"/>
<glyph d="M654 115q0 38 6.5 78.5t22.5 94.5h-7q-23 -43 -59.5 -97t-85.5 -101.5t-111 -80t-137 -31.5q-37 0 -70.5 11.5t-59 33t-40.5 53t-15 72.5q0 26 5 68.5t14 94.5t21 111t25 119.5t26 119.5t24 111l-107 23v61q29 11 72 22t90 20t95 15t88 8l41 -22q-28 -133 -58 -259 t-56 -254q-8 -43 -18.5 -95t-10.5 -104q0 -32 17.5 -48.5t41.5 -16.5q29 0 59.5 17t60.5 44.5t57.5 61.5t50.5 68.5t40 65t25 50.5l95 470h243q-14 -68 -28.5 -131.5t-28.5 -124.5q-14 -64 -28 -126t-28 -131q-9 -43 -19 -95t-10 -104q0 -32 19 -48.5t44 -16.5q30 0 60.5 17 t59.5 44.5t55.5 61.5t49 68t39 64.5t26.5 51.5l93 470h243l-142 -775h138v-72q-21 -23 -29.5 -50t-10 -57t1 -62t2.5 -65q0 -48 -24 -81.5t-62.5 -55.5t-86 -34t-94.5 -16l-14 53q53 14 68 52q15 37 15 84q0 34 8 62t24.5 53t40.5 48.5t57 50.5l-5 7q-14 -8 -33.5 -17.5 t-45.5 -19.5q-51 -20 -96 -20q-59 0 -82 26t-23 55q0 32 7.5 89.5t28.5 133.5h-7q-23 -48 -59.5 -102.5t-87.5 -101t-116.5 -77t-145.5 -29.5q-35 0 -64 10t-50 28t-33 43.5t-12 55.5z" glyph-name="afii10091" horiz-adv-x="1706" unicode="щ"/>
<glyph d="M461 470q66 54 145.5 85.5t166.5 31.5q36 0 70 -11.5t61 -36t43.5 -61.5t16.5 -88q0 -85 -43 -160t-113 -131t-159.5 -88.5t-183.5 -32.5q-50 0 -105.5 13t-102 43.5t-77.5 80t-31 122.5q0 60 28 127t75 133t109 126.5t130 106.5q-14 -2 -33.5 -4t-40.5 -3.5t-43 -2 t-40 0.5q-37 2 -65.5 6t-60.5 9l-83 -130l-61 10l43 237q10 70 103 70q34 0 77.5 -7.5t98 -17t120.5 -17.5t145 -9l94 49q23 -10 39 -37.5t13 -58.5q-48 -23 -97.5 -56.5t-95 -78.5t-84.5 -100t-66 -120h7zM433 378q-33 -98 -33 -175q0 -26 9 -48t24.5 -38.5t36 -26 t44.5 -9.5q37 0 72.5 20t63.5 54.5t44.5 81.5t16.5 101q0 27 -9.5 47t-24 32.5t-32.5 19t-36 6.5q-23 0 -47 -4.5t-47.5 -12.5t-44.5 -20.5t-37 -27.5z" glyph-name="afii10092" horiz-adv-x="1079" unicode="ъ"/>
<glyph d="M1321 899l-164 -775h126v-61q-24 -16 -55 -30.5t-66 -25.5t-71 -17t-69 -6q-68 0 -94 26t-26 57q0 36 5 70t14 75l149 687h251zM364 378q-16 -49 -25 -96t-9 -93q0 -51 25.5 -79.5t67.5 -28.5q39 0 72.5 24.5t58 64.5t39 91t14.5 104q0 48 -25 71.5t-58 23.5 q-24 0 -47 -7t-44 -19t-39 -26.5t-30 -29.5zM387 470q58 58 129.5 96t164.5 38q32 0 63 -10.5t55.5 -32.5t39.5 -55.5t15 -79.5q0 -85 -40.5 -165.5t-111 -143.5t-165.5 -101t-203 -38q-56 0 -102.5 12.5t-81 39t-53.5 68.5t-19 101q0 57 14 126t36.5 143.5t50 152 t54.5 151.5l-99 23v61q28 12 71.5 23t94 20t102 14.5t95.5 7.5l40 -22q-21 -57 -40.5 -107t-38.5 -100t-38.5 -104t-39.5 -118h7z" glyph-name="afii10093" horiz-adv-x="1421" unicode="ы"/>
<glyph d="M366 378q-16 -49 -25 -96t-9 -93q0 -51 25.5 -79.5t67.5 -28.5q39 0 73 24.5t60 64.5t41 91t15 104q0 48 -25 71.5t-58 23.5q-24 0 -48 -7t-46 -19t-40.5 -26.5t-30.5 -29.5zM389 470q24 24 57.5 48t72.5 43t83 31t91 12q32 0 63 -10.5t55.5 -32.5t39.5 -55.5t15 -79.5 q0 -85 -42 -165.5t-114.5 -143.5t-169 -101t-204.5 -38q-56 0 -102.5 12.5t-81 39t-53.5 68.5t-19 101q0 57 14 126t36.5 143.5t50 152t54.5 151.5l-99 23v61q28 12 71.5 23t94 20t102 14.5t95.5 7.5l40 -22q-21 -57 -40.5 -107t-38.5 -100t-38.5 -104t-39.5 -118h7z" glyph-name="afii10094" horiz-adv-x="936" unicode="ь"/>
<glyph d="M266 81q45 0 86.5 23t75.5 67t58 107t35 144l-298 -41q-7 11 -10.5 30t-3.5 39.5t3.5 39.5t10.5 30h302q0 9 1 18t1 18q0 124 -34.5 193t-105.5 69q-14 0 -26.5 -1.5t-31.5 -6.5q-14 -15 -30.5 -36.5t-34 -44.5t-34 -46t-30.5 -41q-14 5 -28.5 21.5t-25.5 39.5t-18 49.5 t-7 52.5q0 24 7 42q18 11 47 24t69.5 24t91 18.5t112.5 7.5q68 0 123 -15.5t102 -54.5q52 -44 82.5 -114.5t30.5 -156.5q0 -132 -41.5 -242.5t-112 -190.5t-163.5 -124.5t-197 -44.5q-100 0 -174 27t-116 69q0 27 11.5 57.5t29.5 58.5t41 49.5t46 30.5l103 -180 q14 -4 26.5 -6.5t26.5 -2.5z" glyph-name="afii10095" horiz-adv-x="850" unicode="э"/>
<glyph d="M554 345q0 15 1 29t3 29h-157l-84 -403h-249l153 772l-104 23v61q25 12 68.5 24t93.5 21t99.5 14.5t87.5 5.5l36 -22l-81 -394h153q20 80 58.5 154.5t98.5 133t142 93.5t188 35q162 0 254 -88t92 -263q0 -119 -36 -226t-103.5 -188.5t-162 -129.5t-213.5 -48 q-72 0 -134 23t-107 68.5t-71 114t-26 161.5zM1038 818q-61 0 -106 -54t-75 -135.5t-44.5 -177t-14.5 -176.5q0 -91 29 -142.5t79 -51.5q53 0 98 44t77.5 118.5t51 171t18.5 200.5q0 99 -28 151t-85 52z" glyph-name="afii10096" horiz-adv-x="1495" unicode="ю"/>
<glyph d="M690 802q-18 5 -42.5 8t-42.5 3q-41 0 -76 -19t-60.5 -52t-40.5 -76.5t-15 -92.5q0 -29 9 -53.5t28.5 -43t50.5 -29t74 -10.5h37zM307 383q-69 20 -111 74.5t-42 141.5q0 77 42 139.5t117 104.5q63 35 143.5 53.5t180.5 18.5q39 0 81.5 -2t83.5 -6.5t78.5 -12t66.5 -17.5 l-148 -753h128v-61q-18 -15 -49.5 -29t-70 -25t-80.5 -18t-80 -7q-29 0 -48.5 6.5t-31.5 17t-17.5 24t-5.5 26.5q0 32 7.5 72t16.5 82l29 146l-100 -15q-17 -27 -39 -63t-46.5 -74t-50 -74.5t-49.5 -66.5q-39 -47 -78 -64t-83 -17q-68 0 -120 26q-50 26 -71 51v63h93 q26 17 61 48.5t70.5 68t68.5 74.5t54 68z" glyph-name="afii10097" horiz-adv-x="1055" unicode="я"/>
<glyph d="M803 212q-32 -46 -76 -88t-97.5 -74.5t-114.5 -52t-128 -19.5q-160 0 -244 87t-84 248q0 76 19 150.5t53 140.5t80.5 121.5t101.5 94.5q140 101 315 101q51 0 102 -12.5t89 -44.5q26 -22 41.5 -53t15.5 -75q0 -62 -32.5 -112t-93.5 -90q-30 -20 -74.5 -36t-99.5 -28.5 t-118 -21t-131 -13.5q-5 -25 -7.5 -56t-2.5 -54q0 -44 10.5 -81t33 -64t57.5 -42.5t84 -15.5q34 0 69 11t68 30t63.5 43t56.5 51zM572 818q-45 0 -83.5 -27t-67.5 -67q-32 -46 -51.5 -99.5t-29.5 -97.5q33 1 68 5t67.5 11.5t60.5 18t49 24.5q42 28 64 64.5t22 81.5 q0 35 -24 60.5t-75 25.5zM300 1287q0 61 38.5 98t102.5 37q62 0 102 -37t40 -98q0 -59 -40 -96t-102 -37q-64 0 -102.5 37t-38.5 96zM699 1287q0 61 39 98t101 37q64 0 103.5 -37t39.5 -98q0 -59 -39.5 -96t-103.5 -37q-62 0 -101 37t-39 96z" glyph-name="afii10071" horiz-adv-x="909" unicode="ё"/>
<glyph d="M131 1079h136l30 149l-118 24v57q26 10 68.5 22t92 22.5t102 17t98.5 6.5l38 -16l-61 -282h274l-26 -110h-271l-72 -332h9q137 230 343 230q42 0 76.5 -12.5t59 -35t38 -54.5t13.5 -71q0 -20 -1 -37.5t-3 -32.5q-2 -14 -5 -34.5t-8 -46.5l-114 -543q-25 -98 -75.5 -167.5 t-111.5 -114.5t-124 -68.5t-113 -30.5l-29 55q22 12 51 37t58.5 64.5t54.5 95t39 129.5l110 513q9 43 14.5 71.5t5.5 57.5q0 38 -20.5 59.5t-47.5 21.5q-38 0 -75 -21.5t-69 -53t-56.5 -68t-37.5 -65.5l-106 -515h-248l196 969h-141z" glyph-name="afii10099" horiz-adv-x="1071" unicode="ђ"/>
<glyph d="M31 185q0 70 33.5 122.5t83.5 93.5t108 74.5t108 66.5t83.5 68t33.5 80q0 36 -26 61.5t-69 25.5q-31 0 -61.5 -11.5t-58.5 -28.5t-52.5 -36t-43.5 -35l-45 48q24 32 61.5 68.5t85.5 67t105 51t120 20.5q58 0 109.5 -14t80.5 -43q57 -56 57 -134q0 -51 -21 -95t-54.5 -81 t-74.5 -68t-80 -57t-78.5 -50.5t-71 -50.5t-51.5 -55.5t-20 -63.5q0 -40 30.5 -63.5t84.5 -23.5q35 0 68.5 10.5t64 27t57.5 36.5t49 38l41 -43q-31 -39 -73 -77t-94.5 -68t-115 -49t-135.5 -19q-50 0 -93.5 14.5t-76 41.5t-51 65.5t-18.5 85.5zM695 1478q16 4 51.5 3t73 -7 t68.5 -16t37 -23l-9 -47l-416 -290l-80 43z" glyph-name="afii10100" horiz-adv-x="805" unicode="ѓ"/>
<glyph d="M761 226q-29 -46 -72 -90.5t-96.5 -79.5t-115.5 -56.5t-128 -21.5q-71 0 -128 24t-96.5 67.5t-61 104.5t-21.5 135q0 140 47 253.5t124 193.5q38 39 81.5 69.5t90 51.5t94.5 32t94 11q96 0 164.5 -29.5t112.5 -105.5q2 -20 -9.5 -45.5t-35 -48.5t-56.5 -39.5t-74 -17.5 l-50 176q-11 5 -23 6.5t-21 1.5q-47 0 -87.5 -22t-74 -62t-59.5 -96.5t-42 -126.5l277 23q2 -3 3 -10.5t1 -15.5q0 -28 -7.5 -57.5t-24.5 -49.5l-264 4q-1 -13 -1.5 -25.5t-0.5 -25.5q0 -59 13 -101t36 -69t54.5 -39.5t69.5 -12.5q71 0 133 40t115 103z" glyph-name="afii10101" horiz-adv-x="850" unicode="є"/>
<glyph d="M413 208q0 39 -21.5 70t-54.5 59.5t-70.5 57.5t-70.5 63.5t-54.5 78.5t-21.5 102q0 69 30.5 119.5t73.5 84.5q47 37 114 57.5t147 20.5q29 0 64 -3t70.5 -9.5t69 -17t60.5 -26.5q2 -20 -4.5 -51.5t-20 -63t-34 -57.5t-47.5 -35l-113 160q-30 3 -58 -2.5t-49.5 -20 t-34.5 -37.5t-13 -56q0 -40 22 -71t55.5 -60t72 -58t72 -65t55.5 -82t22 -107q0 -68 -30.5 -120.5t-84.5 -88t-127.5 -54t-159.5 -18.5q-45 0 -87 7.5t-77 18.5t-63 25t-46 26q-1 29 7 60.5t22.5 60t34.5 50t42 29.5l135 -174q6 0 12.5 -0.5t13.5 -0.5q28 0 55 7t47 22.5 t32.5 40t12.5 58.5z" glyph-name="afii10102" horiz-adv-x="797" unicode="ѕ"/>
<glyph d="M109 795v61q27 11 72 22.5t95.5 20.5t99.5 15.5t87 6.5l33 -22l-162 -775h126v-61q-23 -16 -54.5 -30.5t-67 -25.5t-71.5 -17t-68 -6q-69 0 -94.5 26t-25.5 57q0 36 5 70t15 75l122 558zM263 1286q0 68 46.5 106.5t119.5 38.5q74 0 120.5 -38.5t46.5 -106.5 q0 -66 -46.5 -105t-120.5 -39q-73 0 -119.5 39t-46.5 105z" glyph-name="afii10103" horiz-adv-x="569" unicode="і"/>
<glyph d="M108 795v61q27 11 72 22.5t95.5 20.5t99.5 15.5t87 6.5l33 -22l-162 -775h126v-61q-23 -16 -54.5 -30.5t-67 -25.5t-71.5 -17t-68 -6q-69 0 -94.5 26t-25.5 57q0 36 5 70t15 75l122 558zM40 1287q0 61 38.5 98t102.5 37q62 0 102 -37t40 -98q0 -59 -40 -96t-102 -37 q-64 0 -102.5 37t-38.5 96zM439 1287q0 61 39 98t101 37q64 0 103.5 -37t39.5 -98q0 -59 -39.5 -96t-103.5 -37q-62 0 -101 37t-39 96z" glyph-name="afii10104" horiz-adv-x="569" unicode="ї"/>
<glyph d="M222 772l-106 23v61q27 12 68.5 24t89 21t96 14.5t91.5 5.5l36 -22l-165 -822q-27 -127 -81 -212t-117 -137t-128 -77t-115 -32l-29 55q22 12 50.5 35t57.5 66t57 109t48 159zM265 1286q0 68 46.5 106.5t119.5 38.5q74 0 120.5 -38.5t46.5 -106.5q0 -66 -46.5 -105 t-120.5 -39q-73 0 -119.5 39t-46.5 105z" glyph-name="afii10105" horiz-adv-x="569" unicode="ј"/>
<glyph d="M962 899q-16 -53 -30 -103t-27.5 -101t-26.5 -106t-26 -119h7q24 25 51 49t60 43t72 30.5t86 11.5q31 0 62 -10.5t55.5 -32.5t39.5 -55.5t15 -79.5q0 -85 -37.5 -165.5t-104 -143.5t-158 -101t-200.5 -38q-56 0 -100 12.5t-79 41.5q-32 27 -51.5 68.5t-19.5 98.5 q0 42 13.5 112.5t33 153.5t41 170t37.5 161h-184q-23 -103 -52 -211t-62 -206t-71 -177.5t-79 -124.5q-26 -29 -52 -49.5t-54.5 -33t-62 -17t-75.5 0.5q-15 15 -23 41.5t-7 59.5q0 39 11.5 79.5t37.5 68.5l156 -51q21 27 42 69t40.5 92t37 106t33 112.5t27.5 110.5t20 101 q-18 5 -37 12t-37 15t-33.5 17t-25.5 18v70h737zM835 378q-16 -49 -27 -96t-11 -93q0 -51 20.5 -79.5t62.5 -28.5q38 0 69.5 24.5t53.5 64.5t34 91t12 104q0 48 -20.5 71.5t-52.5 23.5q-21 0 -40.5 -7t-37.5 -19t-34 -26.5t-29 -29.5z" glyph-name="afii10106" horiz-adv-x="1350" unicode="љ"/>
<glyph d="M1026 899q-13 -49 -24.5 -98t-23.5 -101.5t-25 -109t-28 -120.5h7q46 52 123 93q39 20 76.5 30.5t85.5 10.5q31 0 61.5 -10.5t55.5 -32.5t40.5 -55.5t15.5 -79.5q0 -85 -39.5 -165.5t-108 -143.5t-161.5 -101t-201 -38q-114 0 -185 49q-72 49 -72 158q-1 17 3.5 47 t11.5 62.5t13.5 62t10.5 46.5h-261l-84 -403h-249l153 772l-104 23v61q25 12 68.5 23.5t93 21t99.5 15t88 5.5l36 -22l-81 -394h259l83 394h263zM910 378q-16 -49 -25.5 -96t-9.5 -93q0 -51 21.5 -79.5t60.5 -28.5t71.5 24.5t56.5 64.5t37.5 91t13.5 104q0 48 -21 71.5 t-53 23.5q-43 0 -87 -26q-42 -26 -65 -56z" glyph-name="afii10107" horiz-adv-x="1460" unicode="њ"/>
<glyph d="M151 1079h136l30 149l-118 24v57q26 10 68.5 22t92 22.5t102 17t98.5 6.5l38 -16l-61 -282h274l-26 -110h-271l-72 -332h9q69 117 153.5 173.5t193.5 56.5q83 0 132 -49q49 -48 49 -124q0 -36 -2.5 -72.5t-12.5 -78.5l-103 -419h133v-61q-36 -29 -105 -54 q-68 -25 -157 -25q-60 0 -86.5 24t-26.5 59q0 32 7.5 66t16.5 79l67 301q18 82 18 134q0 33 -18 54.5t-45 21.5q-41 0 -79 -21.5t-69.5 -53t-55.5 -68t-37 -65.5l-106 -515h-248l196 969h-141z" glyph-name="afii10108" horiz-adv-x="1139" unicode="ћ"/>
<glyph d="M581 83q-15 33 -32.5 80t-34 94t-31 89t-22.5 66l-58 17l-83 -429h-252l151 772l-120 23v61q25 11 66 22.5t90 21t102.5 15.5t103.5 6l37 -20l-79 -392h57q32 24 66 55.5t64.5 64.5t54 64t35.5 53q2 13 2.5 34.5t0.5 44.5t-1.5 43t-3.5 31q31 11 78.5 17.5t96.5 6.5 q23 0 45.5 -1.5t42.5 -4.5t36.5 -7.5t26.5 -10.5q-24 -57 -71.5 -114.5t-102 -108.5t-106.5 -91.5t-85 -64.5q12 -34 36 -86.5t53.5 -109t61.5 -110.5t60 -90h98v-61q-19 -15 -46.5 -29t-60 -25t-67 -18t-66.5 -7q-43 0 -78 20.5t-65 78.5zM797 1478q16 4 51.5 3t73 -7 t68.5 -16t37 -23l-9 -47l-416 -290l-80 43z" glyph-name="afii10109" horiz-adv-x="1038" unicode="ќ"/>
<glyph d="M167 772l-115 14v61q9 6 36 18.5t64 25t78.5 21.5t80.5 9q49 0 76 -23.5t36 -65.5l86 -531l9 -108h4l37 106q9 16 19 36.5t20 43.5t19.5 46.5t18.5 46.5q19 50 32.5 92.5t22.5 93.5q-1 19 -6.5 54.5t-13 72.5t-15 68.5t-11.5 42.5q26 10 63.5 15.5t75.5 5.5t70.5 -5.5 t51.5 -15.5q-23 -108 -58.5 -219t-84.5 -226q-48 -115 -108 -227.5t-123 -223.5q-53 -93 -105 -158t-104 -113q-104 -96 -237 -96q-38 0 -69.5 10t-57.5 26q-5 25 4 59t26.5 67t41 59.5t48.5 35.5l134 -95q14 10 32.5 25t39 39t40.5 58.5t36 82.5zM535 1137q-192 0 -265 69 q-74 70 -51 186q32 24 86.5 36.5t111.5 15.5l61 -24l-33 -173q43 -21 110 -21q19 0 48.5 3.5t59.5 11.5l34 179l70 24q53 -3 100.5 -14.5t69.5 -37.5q-11 -58 -40.5 -105t-78.5 -80.5t-119.5 -51.5t-163.5 -18z" glyph-name="afii10110" horiz-adv-x="909" unicode="ў"/>
<glyph d="M670 -11q-24 -27 -22 -53.5t13.5 -56.5t25 -62.5t13.5 -70.5q0 -36 -19 -65.5t-48.5 -52t-68 -37.5t-76.5 -20l-22 44q33 16 39 41.5t0.5 54t-16 60t-10.5 62.5q0 63 35.5 102.5t113.5 78.5zM1099 124v-61q-18 -15 -48 -29t-65 -25t-73.5 -18t-76.5 -7q-65 0 -89 26 t-24 55q0 32 7.5 89.5t28.5 133.5h-7q-24 -43 -60 -97t-84 -102t-111.5 -79.5t-138.5 -31.5q-74 0 -119.5 44.5t-45.5 125.5q0 39 11.5 113t28.5 161t38 179.5t37 170.5l-107 23v61q29 11 72 22t90 19.5t95.5 15t87.5 8.5l41 -22q-29 -135 -59 -256t-55 -257q-9 -43 -19 -95 t-10 -104q0 -32 17.5 -48.5t41.5 -16.5q46 0 90 35t81 84.5t64.5 102t40.5 85.5l93 470h243l-142 -775h126z" glyph-name="afii10193" horiz-adv-x="1139" unicode="џ"/>
<glyph d="M733 1081l-59 -303q25 5 65.5 9t87.5 4q83 0 147 -12t123 -44q33 -18 61.5 -46t48.5 -64.5t31.5 -80t11.5 -91.5q0 -113 -45.5 -197.5t-125.5 -143.5q-46 -34 -98 -56.5t-110.5 -36t-123 -19.5t-134.5 -6q-10 0 -38 1t-63.5 2t-72.5 2t-66 1h-299l14 74q39 19 82.5 34.5 t87.5 21.5l185 951h-129l-161 -290h-79q-1 40 1.5 91.5t7.5 107t12 110t15 99.5h356l15 81q-37 8 -76.5 21.5t-71.5 34.5l13 66h628l-13 -66q-37 -19 -88 -33.5t-102 -22.5l-15 -81h430q-10 -45 -23 -90t-29 -93t-30 -89t-28 -75h-82l-67 229h-194zM741 664q-27 0 -49 -2.5 t-42 -7.5l-102 -526q12 -2 31.5 -5t48.5 -3q54 0 108 19t97 60.5t69.5 107.5t26.5 160q0 41 -12.5 79.5t-37.5 65.5q-24 26 -63 39t-75 13z" glyph-name="afii10146" horiz-adv-x="1298" unicode="Ѣ"/>
<glyph d="M846 470q24 25 55 49t68 43t79 30.5t89 11.5q31 0 62 -10.5t55.5 -32.5t39.5 -55.5t15 -79.5q0 -85 -40 -165.5t-109.5 -143.5t-163.5 -101t-202 -38q-49 0 -93.5 11t-78.5 36t-54 65t-20 98q0 63 17.5 129t40.5 149q11 39 21.5 78t18.5 73.5t13 62t5 44.5q0 23 -7.5 38 t-33.5 15q-21 0 -52 -24t-63 -62t-60 -84.5t-44 -91.5l-105 -515h-252l161 772l-103 23v61q30 14 71.5 26t88 20.5t95 13.5t90.5 5l38 -22l-70 -262h7q27 49 63.5 99.5t80.5 91.5t96.5 67t112.5 26q21 0 45 -7t43.5 -24.5t32.5 -47t13 -75.5q0 -24 -8 -60t-19 -76.5t-24 -82 t-23 -78.5h8zM833 378q-16 -49 -29.5 -96.5t-13.5 -105.5q0 -42 20.5 -68.5t62.5 -26.5q37 0 70.5 24.5t59 64.5t40.5 91t15 104q0 48 -23.5 71.5t-56.5 23.5q-46 0 -83 -26t-62 -56z" glyph-name="afii10194" horiz-adv-x="1366" unicode="ѣ"/>
<glyph d="M82 548q0 113 28 218.5t79 198t123.5 168.5t162.5 131t194.5 85t220.5 30q134 0 237 -42.5t173.5 -118.5t107 -180.5t36.5 -228.5q0 -173 -57 -325t-162.5 -265t-257 -178t-340.5 -65q-134 0 -235.5 42.5t-170.5 119t-104 181t-35 229.5zM961 715q13 0 29 0.5t35.5 5 t42 14.5t48.5 28q2 20 2.5 38t0.5 39q0 90 -14 165.5t-45 130.5t-80 86t-119 31q-94 0 -168.5 -46t-130 -122.5t-91.5 -176t-52 -207.5q26 24 56.5 48t63 43.5t66 32t66.5 12.5q23 0 42 -6t36 -15t33 -20t33 -21q16 -10 33.5 -20.5t36.5 -19.5t38 -14.5t38 -5.5zM407 533 q0 -92 14 -170.5t44.5 -136t78.5 -90.5t116 -33q91 0 165 42.5t129.5 115.5t92.5 170t55 206q-59 -57 -119 -87.5t-106 -30.5t-85 21t-72 44q-20 14 -35.5 25.5t-30.5 20t-32 13t-39 4.5q-30 0 -76 -14t-99 -56q-1 -11 -1 -22v-22z" glyph-name="afii10147" horiz-adv-x="1479" unicode="Ѳ"/>
<glyph d="M64 345q0 64 14.5 132t43.5 132t73.5 120.5t104.5 99t135 67.5t167 25q162 0 253.5 -88t91.5 -263q0 -119 -36 -226t-104.5 -188.5t-167 -129.5t-222.5 -48q-77 0 -141.5 22.5t-111.5 68.5t-73.5 115t-26.5 161zM388 421q-30 0 -67 -26q-4 -32 -5 -61.5t-1 -58.5 q0 -91 37.5 -142.5t98.5 -51.5q38 0 72 24t63 66t51.5 100t36.5 126q-32 -26 -67 -39t-62 -13q-29 0 -49 12t-37 26t-33.5 26t-37.5 12zM571 818q-72 0 -120 -54q-45 -52 -70.5 -117.5t-41.5 -136.5q38 29 74.5 42t60.5 13q27 -1 47 -12t37 -24.5t34 -24.5t38 -11q10 0 27 3 t33 11q6 52 6 108q0 100 -34 151.5t-91 51.5z" glyph-name="afii10195" unicode="ѳ"/>
<glyph d="M1563 1379q27 -10 48 -41.5t35 -72.5t20.5 -85t4.5 -78l-72 -68l-197 54q-45 -36 -83 -91.5t-76 -111.5q-17 -26 -43.5 -71.5t-57 -100.5t-63 -114t-60.5 -111q-32 -59 -65.5 -123t-65.5 -130t-61 -131.5t-53 -127.5h-163l-298 1249q-37 11 -73 25t-62 32l14 74h645 l-14 -74q-36 -16 -79 -31t-91 -26l133 -724l13 -171h4l67 173q28 54 54.5 105.5t54 103.5t59.5 107t72 117q88 134 162 226t146 149q38 30 77 45t68 23z" glyph-name="afii10148" horiz-adv-x="1589" unicode="Ѵ"/>
<glyph d="M865 680q-35 -43 -71 -98.5t-71 -116.5t-69 -125t-65.5 -125t-59 -116.5t-50.5 -98.5l-202 -22l-134 794l-115 14v61q21 12 52 25.5t68 24t76 17.5t76 7q24 0 41 -7t27.5 -19.5t16 -29.5t8.5 -36l69 -518l10 -120h4l42 127q25 60 59 131t73.5 141.5t83.5 134.5t90 111 q42 43 88.5 63t80.5 20h12t9 -2q18 -11 33 -29.5t25 -42.5t15.5 -50.5t5.5 -51.5v-19t-3 -19l-66 -70l-159 45v0z" glyph-name="afii10196" horiz-adv-x="1096" unicode="ѵ"/>
<glyph d="M557 0h-582l14 74q41 19 84.5 34.5t85.5 21.5l213 1095q-37 11 -76.5 23t-71.5 34l15 74h582l-15 -74q-31 -18 -71 -33t-85 -24l-141 -719l-40 -141l118 148l618 666l9 46q-86 22 -142 57l15 74h582l-15 -74q-36 -22 -80 -34t-89 -23l-214 -1099h212l14 -26 q-10 -24 -28 -55.5t-41.5 -66.5t-52 -72t-59.5 -72t-63 -67t-63 -57h-105l122 290h-384l14 74q30 13 71 29.5t85 26.5l143 724l44 129l-112 -129l-630 -682l-8 -42q43 -10 78.5 -25.5t62.5 -30.5zM964 1435q-89 0 -158.5 16.5t-115 48.5t-64.5 80t-7 111q37 24 99 32 q30 4 57 6.5t50 3.5l58 -35l-29 -151q24 -13 59 -18t70 -5q13 0 31 1t36.5 3t37 5t33.5 8l30 157l73 35q19 2 41.5 0t48.5 -7q53 -10 91 -35q-24 -123 -142 -190q-117 -66 -299 -66z" glyph-name="uni048A" horiz-adv-x="1593" unicode="Ҋ"/>
<glyph d="M1005 124v-72q-24 -23 -32.5 -50t-9 -56.5t2.5 -62t1 -65.5q0 -48 -24.5 -81.5t-62.5 -56t-85 -34t-97 -15.5l-10 53q52 14 67 51.5t14 84.5q0 36 8 63t24.5 51.5t40.5 48.5t57 51l-6 7q-27 -17 -76.5 -37t-96.5 -20q-58 0 -81 26t-23 55q0 32 7.5 89.5t28.5 133.5h-7 q-24 -43 -60 -97t-84 -102t-111.5 -79.5t-138.5 -31.5q-74 0 -119.5 44.5t-45.5 125.5q0 39 11.5 113t28.5 161t38 179.5t37 170.5l-107 23v61q29 11 72 22t90 19.5t95.5 15t87.5 8.5l41 -22q-29 -135 -59 -256t-55 -257q-9 -43 -19 -95t-10 -104q0 -32 17.5 -48.5 t41.5 -16.5q46 0 90 35t81 84.5t64.5 102t40.5 85.5l93 470h243l-142 -775h139zM655 1000q-77 0 -130 20t-85 52t-45.5 72.5t-13.5 83.5q25 21 73.5 42t100.5 25l61 -24v-140q18 -9 35 -15t46 -6q66 0 128 41t93 119q22 -2 46 -12t35 -24q-11 -38 -37 -79.5t-68.5 -75.5 t-101.5 -56.5t-137 -22.5z" glyph-name="uni048B" horiz-adv-x="1139" unicode="ҋ"/>
<glyph d="M115 1094h239l25 131q-38 9 -77 22t-71 35l15 74h628l-15 -74q-37 -20 -88 -34t-102 -23l-25 -131h376l-24 -124h-376l-31 -159q44 7 88 10.5t95 3.5q81 0 160 -15t141 -53t100 -102t38 -161q0 -131 -52 -225t-142 -155.5t-209.5 -90.5t-254.5 -29q-9 0 -42 1t-74 2 t-84 2t-73 1h-298l14 74q39 19 83 34.5t87 21.5l164 840h-239zM676 699q-34 0 -62 -3.5t-49 -8.5l-109 -559q25 -5 40 -6.5t41 -1.5q75 0 139.5 21.5t112 67t75 115.5t27.5 166q0 51 -15.5 90t-43.5 65.5t-68 40t-88 13.5z" glyph-name="uni048C" horiz-adv-x="1298" unicode="Ҍ"/>
<glyph d="M471 901h285l-24 -110h-284q-12 -50 -24 -105q-11 -47 -22.5 -103.5t-20.5 -112.5h8q24 24 57.5 48t72.5 43t83 31t91 12q32 0 63 -10.5t55.5 -32.5t39.5 -55.5t15 -79.5q0 -85 -42 -165.5t-114.5 -143.5t-169 -101t-204.5 -38q-56 0 -102.5 12.5t-81 39t-53.5 68.5 t-19 101q0 35 9 102t29 155q14 58 27.5 118t24.5 108q13 56 26 109h-146l25 110h145l72 327l-122 24v60q25 11 68 22.5t93.5 21t103.5 15.5t98 6l36 -19zM366 378q-16 -49 -25 -96t-9 -93q0 -51 25.5 -79.5t67.5 -28.5q39 0 73 24.5t60 64.5t41 91t15 104q0 48 -25 71.5 t-58 23.5q-24 0 -48 -7t-46 -19t-40.5 -26.5t-30.5 -29.5z" glyph-name="uni048D" horiz-adv-x="936" unicode="ҍ"/>
<glyph d="M450 130q51 -8 99.5 -22.5t84.5 -33.5l-14 -74h-645l14 74q42 21 85.5 34.5t84.5 21.5l213 1095q-43 9 -81 23t-67 34l15 74h204q36 0 85 2.5t103.5 5t110 5t104.5 2.5q92 0 172.5 -18.5t140.5 -60.5t94.5 -109t34.5 -164q0 -94 -30 -169t-78.5 -132.5t-111 -98 t-127.5 -65.5l48 -122l-171 -83l-64 172q-30 -6 -60.5 -7.5t-63.5 -1.5q-38 0 -68 1.5t-37 3.5zM772 1245q-30 0 -57.5 -2.5t-49.5 -8.5l-115 -589q21 -5 44 -6.5t43 -1.5q22 0 54 3t55 9l-70 180l104 50l65 -178q23 16 45.5 44.5t40 68.5t28.5 89t11 106q0 46 -12 87.5 t-36 74t-61.5 52t-88.5 22.5z" glyph-name="uni048E" horiz-adv-x="1251" unicode="Ҏ"/>
<glyph d="M227 -246q31 -6 64.5 -21t56.5 -31v-69h-370l-24 24l239 1113l-104 25v61q30 12 74 24t92.5 21t95.5 14.5t83 5.5l36 -22l-60 -248h8q28 57 64 106t79.5 85.5t93 57.5t105.5 21q91 0 151 -72t60 -202q0 -184 -65 -332t-172 -232l101 -137l-126 -86l-114 152 q-78 -34 -158 -34q-26 0 -46.5 2t-38.5 6.5t-34.5 11.5t-34.5 16zM621 777q-38 0 -73.5 -28t-66 -69.5t-55.5 -90t-41 -88.5l-79 -389q23 -16 45.5 -23.5t66.5 -7.5q59 0 119 51l-105 141l84 65l86 -120q52 82 80 189q30 108 30 216q0 75 -23 114.5t-68 39.5z" glyph-name="uni048F" unicode="ҏ"/>
<glyph d="M444 130q47 -8 92 -23.5t83 -32.5l-14 -74h-635l14 74q48 22 90.5 35.5t79.5 20.5l213 1095q-38 9 -76.5 22t-71.5 35l15 74h659l153 290h81q-3 -46 -7.5 -104t-10.5 -116.5t-12.5 -110.5t-12.5 -86h-426z" glyph-name="afii10050" horiz-adv-x="963" unicode="Ґ"/>
<glyph d="M576 899l149 249h74q-2 -40 -5.5 -89.5t-10 -99t-14.5 -95.5t-15 -78h-292l-169 -786h-259l167 779q-30 5 -59.5 19.5t-49.5 30.5l1 70h483z" glyph-name="afii10098" horiz-adv-x="756" unicode="ґ"/>
<glyph d="M119 743h159l94 482q-38 9 -76.5 22t-71.5 35l15 74h1103q-18 -96 -47 -201.5t-65 -204.5h-80l-76 279h-410l-95 -486h261l-26 -135h-261l-93 -478q47 -8 91.5 -23.5t82.5 -32.5l-14 -74h-635l14 74q48 22 90.5 35.5t79.5 20.5l93 478h-159z" glyph-name="uni0492" horiz-adv-x="1237" unicode="Ғ"/>
<glyph d="M17 462h121l66 310q-15 3 -31 9t-31 14t-27.5 17t-19.5 17v70h691q-17 -77 -39 -152.5t-57 -152.5h-74l-35 202h-123l-72 -334h203l-24 -110h-201l-75 -352h-249l74 352h-123z" glyph-name="uni0493" horiz-adv-x="756" unicode="ғ"/>
<glyph d="M449 130q38 -10 71.5 -25.5t61.5 -30.5l-14 -74h-593l14 74q48 22 90.5 35.5t79.5 20.5l213 1095q-38 9 -76.5 22t-71.5 35l15 74h1132q-9 -47 -21.5 -98t-27 -103.5t-31 -104.5t-35.5 -101h-80l-75 280h-438l-104 -536q30 16 75 31.5t97.5 28t109.5 20t112 7.5 q46 0 92.5 -4.5t90 -15t82.5 -27.5t71 -41q54 -42 91.5 -111t37.5 -165q0 -139 -52.5 -252t-147 -193.5t-226 -125.5t-288.5 -48l4 87q84 18 158.5 54t131 96.5t89.5 147.5t33 206q0 63 -16.5 108.5t-48.5 77.5q-38 37 -94 54t-129 17q-64 0 -141.5 -18t-154.5 -50z" glyph-name="uni0494" horiz-adv-x="1522" unicode="Ҕ"/>
<glyph d="M918 899q-17 -77 -39.5 -152.5t-57.5 -152.5h-74l-53 202h-197l-101 -463q18 25 50.5 54t74 54t90 41t99.5 16q46 0 87.5 -18.5t72 -50t48.5 -74t18 -90.5q0 -55 -6.5 -104.5t-21.5 -97t-40.5 -95t-64.5 -99.5q-33 -45 -84 -87.5t-106.5 -76.5t-110 -57t-95.5 -29l-29 55 q26 13 58 37.5t64.5 58t62.5 75t51 88.5q44 98 57.5 172t13.5 125q0 25 -7 47.5t-19.5 39.5t-31.5 27t-43 10q-27 0 -54.5 -7.5t-53.5 -20.5t-50 -30.5t-45 -36.5l-54 -259h-259l164 770q-11 3 -26.5 9.5t-30.5 14.5t-28.5 17t-20.5 18v70h792z" glyph-name="uni0495" horiz-adv-x="1036" unicode="ҕ"/>
<glyph d="M950 1225q-37 11 -65.5 26t-49.5 31l15 74h504l-15 -74q-43 -28 -125 -57l-96 -493l133 29l339 464q-37 11 -70 26t-61 31l15 74h514l-15 -74q-33 -16 -71 -31t-79 -26l-411 -473q12 -28 26.5 -70.5t31.5 -94.5t36.5 -111t43 -119.5t50.5 -119.5t58 -111h129 q-11 -50 -26.5 -109.5t-33.5 -119.5t-38 -115.5t-40 -97.5h-75l-44 316h-110l-70 66q-11 28 -23.5 73.5t-26 99.5t-27 112.5t-27 112.5t-25.5 100t-21 75h-100l-99 -509q32 -10 59 -24.5t53 -31.5l-14 -74h-522l14 74q30 17 66 31.5t80 24.5l103 526l-113 -28 q-100 -143 -194.5 -285t-191.5 -277l-96 -66h-327l13 66l88 47q85 77 158.5 160t138.5 164.5t123.5 157t114.5 137.5l-251 493q-37 11 -67 26t-51 31l15 74h510l-15 -74q-27 -16 -64.5 -31t-79.5 -26l187 -475h120z" glyph-name="uni0496" horiz-adv-x="1880" unicode="Җ"/>
<glyph d="M106 685q11 19 27 41t35 43.5t39.5 41t39.5 33.5q27 20 52.5 32.5t50 20t49.5 10.5t52 3q51 0 94.5 -17t75 -47.5t49 -73.5t17.5 -94q0 -48 -4.5 -94t-12.5 -83h202l81 398h228l-82 -398h201q15 45 37.5 88t50 82t58 72.5t60.5 60.5q55 48 124.5 77t138.5 29 q50 0 90.5 -17t62.5 -33q2 -19 -3 -45.5t-17 -53.5t-31.5 -51t-46.5 -39l-97 124q-29 -2 -62 -29t-57 -66q-17 -27 -34 -66.5t-31.5 -90t-23.5 -112.5t-9 -134q0 -30 7 -59t22 -52.5t39 -38t59 -14.5q26 0 51.5 8.5t48.5 23.5q18 12 40 27.5t42 35.5l31 -42l-43 -54 q-20 -35 -26.5 -77.5t-6.5 -85t3.5 -82t3.5 -69.5q0 -48 -23.5 -82t-62 -56t-86.5 -33.5t-96 -15.5l-12 53q51 13 67 52q16 36 16 84q0 33 7 61t21.5 54.5t37 53.5t54.5 59l-5 7q-43 -30 -86 -48t-89 -18q-62 0 -110 20.5t-82 57t-51.5 86.5t-17.5 109q0 44 5 81t12 65h-202 l-82 -408h-227l83 408h-208q-14 -48 -35 -90.5t-45 -78.5t-49.5 -66t-47.5 -52q-28 -28 -62.5 -52t-72.5 -42t-78 -28t-78 -10q-55 0 -93 17.5t-67 37.5q-3 23 2 52t18 57t32.5 51t45.5 34l93 -130q10 0 23.5 4t29.5 13.5t33.5 26.5t35.5 44q20 30 40 75.5t35.5 100t25 114 t9.5 118.5q0 27 -5.5 55.5t-18.5 52t-35 39t-56 15.5q-31 0 -58.5 -12.5t-50.5 -30.5t-41 -36.5t-29 -30.5z" glyph-name="uni0497" horiz-adv-x="1950" unicode="җ"/>
<glyph d="M269 -388q-13 93 -16.5 186t-1.5 184q-43 4 -85 11.5t-79.5 16.5t-69.5 20t-55 22q8 31 23 75.5t33.5 92.5t40 95.5t41.5 85.5h81l23 -275q31 -11 71 -17t82 -6q64 0 118 27t93 73t60.5 107.5t21.5 129.5q0 102 -36 145t-122 43l-155 -26q-2 35 4.5 79.5t24.5 81.5h63 q16 -1 36 -0.5t41 1.5t41 3t35 4q24 12 52 41t51 69t38.5 88.5t15.5 99.5q0 39 -5.5 72.5t-21 58.5t-44 39t-73.5 14q-46 0 -81.5 -12.5t-50.5 -24.5l-143 -246h-82q-2 28 -1.5 66.5t3 82t7 89t11.5 87.5q42 22 93 38t102.5 26.5t101 15t88.5 4.5q85 0 158.5 -13t128 -44.5 t85.5 -84.5t31 -132q0 -68 -27.5 -128t-70 -109t-94 -85t-100.5 -57l-1 -7q44 -11 82 -32.5t66 -55.5t44 -80t16 -106q0 -45 -10 -91.5t-30 -91t-50.5 -85t-70.5 -74.5q-108 -90 -284 -116q-31 -92 -75 -189.5t-87 -185.5h-85z" glyph-name="uni0498" horiz-adv-x="1042" unicode="Ҙ"/>
<glyph d="M-36 74q0 24 11.5 54.5t29.5 59t41 51t46 31.5l113 -180q11 -4 26.5 -6.5t30.5 -2.5q39 0 74 13.5t61.5 40t42 65.5t15.5 90q0 30 -6 53.5t-21 41t-40.5 28t-64.5 13.5l-117 -32q-14 23 -14 60q0 36 14 61h119q49 15 77 36.5t47 49.5q37 56 37 109q0 108 -122 108 q-15 0 -30.5 -2.5t-33.5 -5.5q-14 -14 -29 -34t-32 -45t-31.5 -46.5t-27.5 -39.5q-14 5 -28 19t-25.5 34t-19 43.5t-7.5 47.5q0 12 1.5 25.5t6.5 24.5q34 25 122 52q36 11 89.5 20.5t119.5 9.5q53 0 107.5 -6.5t102.5 -30.5q43 -22 68.5 -59.5t25.5 -83.5q0 -81 -56.5 -146 t-184.5 -109q52 0 92 -15.5t67 -41t41 -57.5t14 -65q0 -60 -28 -119t-83 -105.5t-136 -75.5q-49 -17 -108 -24q-18 -27 -15 -52q4 -27 15.5 -55.5t24.5 -60.5t13 -69q0 -35 -18.5 -65t-48.5 -52.5t-68 -37.5t-77 -20l-21 44q32 17 38 41.5t0.5 53.5t-15.5 60.5t-11 62.5 q0 48 21 82t63 63q-39 2 -79 8q-49 7 -92 20.5t-76.5 30.5t-50.5 37z" glyph-name="uni0499" horiz-adv-x="799" unicode="ҙ"/>
<glyph d="M959 1356h509l-15 -74q-18 -11 -39.5 -20t-43.5 -16t-42.5 -12.5t-38.5 -8.5l-434 -466q31 -62 64 -141.5t69 -164.5t77 -170t89 -157h145q-11 -50 -27 -109.5t-34 -119.5t-37.5 -115.5t-37.5 -97.5h-75l-44 316h-124l-67 54q-37 71 -66.5 144t-55 146.5t-50 146.5 t-51.5 144h-83l-98 -505q41 -8 72.5 -23.5t54.5 -32.5l-14 -74h-587l14 74q43 19 86 33.5t84 22.5l213 1095q-44 7 -82.5 22t-65.5 35l15 74h587l-15 -74q-29 -16 -66.5 -31t-82.5 -26l-95 -491l119 27l378 464q-37 9 -66.5 25t-53.5 32z" glyph-name="uni049A" horiz-adv-x="1389" unicode="Қ"/>
<glyph d="M99 795v61q25 11 66 22.5t90 21t102.5 15.5t103.5 6l37 -20l-79 -392h57q32 24 66 55.5t64.5 64.5t54 64t35.5 53q2 13 2.5 34.5t0.5 44.5t-1.5 43t-3.5 31q31 11 78.5 17.5t96.5 6.5q23 0 45.5 -1.5t42.5 -4.5t36.5 -7.5t26.5 -10.5q-24 -57 -71.5 -114.5t-102 -108.5 t-106.5 -91.5t-85 -64.5q12 -34 34.5 -86.5t50 -109t58 -110.5t58.5 -90h122v-72q-22 -23 -30 -50t-9.5 -56.5t1 -61.5t1.5 -66q0 -48 -24 -82t-62 -56t-86 -33.5t-96 -15.5l-11 53q26 7 42 20.5t25 31t12 39t2 45.5q0 72 32 116q33 44 80 86l-6 5q-27 -18 -64 -30.5 t-73 -12.5h-5q-39 0 -72.5 20.5t-63.5 78.5q-8 18 -18 45t-21 58t-21.5 64.5t-20.5 64.5t-17.5 56t-11.5 41l-58 17l-83 -429h-252l151 772z" glyph-name="uni049B" horiz-adv-x="1038" unicode="қ"/>
<glyph d="M1003 1356h500l-15 -74q-37 -22 -82 -36t-82 -21l-341 -453q11 -30 26 -77.5t32 -104.5t36 -120.5t39 -125.5t41.5 -119.5t43.5 -102.5l82 -56l-13 -66h-304l-67 54q-26 84 -47 168.5t-37 161t-28 141.5t-21 112h-30l-55 -281h-124l55 281h-82l-99 -507q41 -8 73 -23.5 t53 -32.5l-14 -74h-573l14 74q43 19 81.5 33.5t78.5 22.5l213 1095q-44 7 -76.5 22t-61.5 35l15 74h573l-15 -74q-28 -16 -67 -31t-81 -26l-96 -493l84 9l56 287h124l-54 -276l58 7l303 466q-38 9 -72.5 25t-58.5 32z" glyph-name="uni049C" horiz-adv-x="1389" unicode="Ҝ"/>
<glyph d="M582 509h12q33 36 59 72t44.5 68t31 57.5t18.5 39.5q2 13 2.5 34.5t0.5 44.5t-1.5 43t-3.5 31q30 11 58 17.5t76 6.5t85 -6.5t56 -17.5q-24 -57 -61 -116.5t-78 -112.5t-79.5 -95.5t-65.5 -66.5q5 -13 14.5 -41t22 -64t27 -76t29.5 -78t30 -71t29 -54h96v-61 q-33 -24 -62.5 -39t-58 -24t-58 -12.5t-60.5 -3.5q-21 0 -39 8.5t-32 22t-25 31.5t-18 37q-7 22 -16.5 64.5t-19 89.5t-18 91.5t-13.5 71.5h-7l-40 -199h-106l46 221l-82 7l-83 -429h-252l151 772l-120 23v61q25 11 66 22.5t90 21t102.5 15.5t103.5 6l37 -20l-79 -392h85 l48 221h106z" glyph-name="uni049D" horiz-adv-x="1038" unicode="ҝ"/>
<glyph d="M137 1112h217l22 113q-44 7 -82 22t-65 35l15 74h586l-15 -74q-28 -16 -67 -31t-81 -26l-22 -113h176l-24 -122h-176l-50 -260l182 27l364 468q-38 9 -72 25t-59 32l15 74h500l-15 -74q-37 -22 -82 -36t-82 -21l-398 -449q21 -51 47 -129t58.5 -168t73.5 -183.5 t94 -173.5l82 -56l-13 -66h-327l-67 54q-27 73 -51.5 153.5t-46 158.5t-40 148t-33.5 121h-149l-98 -505q41 -8 73 -23.5t53 -32.5l-14 -74h-586l14 74q42 19 85.5 33.5t83.5 22.5l167 860h-217z" glyph-name="uni049E" horiz-adv-x="1389" unicode="Ҟ"/>
<glyph d="M142 1115h135l23 113l-121 24v60q25 12 66.5 23.5t90.5 20.5t102 15t103 6l38 -19l-50 -243h273l-26 -110h-269l-101 -496h58q31 23 63.5 55t61 65t51 64t35.5 53q1 12 2 34t1 45t-1.5 43.5t-4.5 30.5q31 11 78 17.5t95 6.5t91 -6.5t62 -17.5q-15 -39 -41 -78.5 t-58.5 -76.5t-68 -71t-70 -63t-65.5 -52t-53 -38q12 -35 38 -87t58.5 -108.5t68 -110t67.5 -90.5h97v-61q-18 -15 -46 -29t-60 -25.5t-67 -18t-66 -6.5q-43 0 -80 20t-68 77q-25 43 -44.5 86t-35.5 85t-29.5 82t-27.5 78l-58 17l-81 -429h-252l199 1005h-139z" glyph-name="uni049F" horiz-adv-x="1038" unicode="ҟ"/>
<glyph d="M1242 1356h500l-15 -74q-37 -22 -82 -36t-82 -21l-438 -449q30 -64 71 -145t89 -168t101 -175t106 -166l81 -56l-13 -66h-334l-69 54q-34 58 -69 129.5t-69 148t-64 154.5t-53 149h-136l-99 -505q41 -8 72.5 -23.5t54.5 -32.5l-14 -74h-587l14 74q43 19 86 33.5t84 22.5 l214 1099h-202l-156 -279h-81q-3 49 0 103.5t8.5 108.5t12.5 104.5t14 89.5h857l-15 -74q-29 -16 -66.5 -31t-82.5 -26l-95 -491l170 27l402 464q-36 9 -71 25t-59 32z" glyph-name="uni04A0" horiz-adv-x="1681" unicode="Ҡ"/>
<glyph d="M366 796h-121l-137 -230h-61q0 34 1.5 78t5 89.5t8.5 89t12 76.5h564l-79 -390h57q31 24 65 55.5t64.5 64.5t54.5 64t35 53q2 13 2.5 34.5t0.5 44.5t-1.5 43t-3.5 31q31 11 79 17.5t96 6.5t89.5 -6.5t61.5 -17.5q-15 -39 -42 -77.5t-60.5 -75t-70.5 -70.5t-72.5 -63.5 t-67 -53t-52.5 -39.5q13 -34 37 -86.5t53.5 -109t61 -110t60.5 -90.5h97v-61q-17 -15 -45 -29t-61 -25.5t-67.5 -18t-65.5 -6.5q-45 0 -79 20.5t-65 78.5q-33 84 -63 168.5t-57 160.5l-58 17l-83 -429h-251z" glyph-name="uni04A1" horiz-adv-x="1177" unicode="ҡ"/>
<glyph d="M558 0h-588l14 74q37 17 83 32.5t87 23.5l213 1095q-45 9 -84 24t-64 33l15 74h588l-15 -74q-34 -20 -73 -35t-77 -22l-91 -468h526l91 468q-42 9 -72.5 24t-54.5 33l15 74h587l-15 -74q-37 -22 -82 -35t-88 -22l-214 -1099h213q-12 -50 -27.5 -109.5t-33.5 -119.5 t-37.5 -115.5t-38.5 -97.5h-76l-43 316h-409l14 74q33 17 70.5 32.5t78.5 23.5l98 502h-526l-98 -502q38 -8 68.5 -21.5t59.5 -34.5z" glyph-name="uni04A2" horiz-adv-x="1593" unicode="Ң"/>
<glyph d="M718 -16q-27 0 -45.5 7t-30.5 18t-17.5 24.5t-5.5 27.5q0 18 3.5 39t8 43.5t10 45t10.5 43.5l34 171h-284l-84 -403h-249l153 772l-104 23v61q25 12 68.5 23.5t93 21t99.5 15t88 5.5l36 -22l-81 -394h284l75 394h249l-155 -775h139v-72q-24 -23 -32.5 -50t-9 -56.5 t2.5 -61.5t1 -66q0 -48 -24 -82t-62.5 -56t-86.5 -33.5t-96 -15.5l-10 53q51 13 67 52q15 39 14 84q0 35 8 62.5t24.5 52.5t40.5 48.5t57 50.5l-6 7q-14 -9 -35.5 -19t-46 -18.5t-51 -14t-50.5 -5.5z" glyph-name="uni04A3" horiz-adv-x="1137" unicode="ң"/>
<glyph d="M1268 130q47 -8 91.5 -23.5t83.5 -32.5l-14 -74h-615l14 74q21 10 39 17.5t36 13.5l36 12t38 13l98 502h-528l-98 -502q38 -8 68 -21.5t59 -34.5l-14 -74h-587l14 74q37 17 83 32.5t87 23.5l213 1095q-47 9 -85.5 24t-62.5 33l15 74h587l-15 -74q-33 -20 -72 -35t-77 -22 l-91 -468h528l91 468q-17 2 -35.5 7t-37.5 13t-32.5 17t-21.5 20l15 74h1066q-19 -96 -49 -202.5t-65 -205.5h-80l-72 281h-396z" glyph-name="uni04A4" horiz-adv-x="2038" unicode="Ҥ"/>
<glyph d="M1313 899q-10 -33 -24.5 -78.5t-31 -94t-34.5 -95t-35 -82.5h-75l-23 247h-136l-133 -672h127v-61q-17 -15 -48.5 -29t-69.5 -25.5t-79 -18t-77 -6.5q-30 0 -50.5 7t-33.5 18t-18.5 24.5t-5.5 27.5q0 18 3.5 39t8.5 43.5t10.5 45t9.5 43.5l34 171h-254l-84 -403h-249 l153 772l-104 23v61q25 12 68.5 23.5t93 21t99.5 15t88 5.5l36 -22l-81 -394h254l75 394h586z" glyph-name="uni04A5" horiz-adv-x="1288" unicode="ҥ"/>
<glyph d="M555 0h-580l14 74q32 15 73.5 31.5t95.5 24.5l213 1095q-37 9 -76 22t-71 35l15 74h1436l-15 -74q-41 -23 -84.5 -35.5t-85.5 -21.5l-103 -532q30 13 70.5 28.5t89 28.5t105 21.5t119.5 8.5q85 0 164 -18t139.5 -61t97 -116t36.5 -182q0 -18 -2 -48t-9.5 -68.5t-21.5 -83 t-38.5 -90.5t-61 -92t-87.5 -87q-78 -63 -183 -99t-246 -38l5 87q85 23 143.5 55t98.5 83q19 25 38 58t34 76.5t24 97.5t9 121q0 136 -64 203t-199 67q-79 0 -151.5 -20t-132.5 -48l-87 -447q35 -10 63.5 -24.5t55.5 -31.5l-14 -74h-552l14 74q23 15 55.5 29.5t86.5 26.5 l214 1099h-537l-214 -1099q37 -10 65.5 -23.5t54.5 -32.5z" glyph-name="uni04A6" horiz-adv-x="2312" unicode="Ҧ"/>
<glyph d="M601 0l109 513q13 55 23 98t10 91q0 30 -13.5 52.5t-47.5 22.5q-33 0 -70.5 -26t-73 -65t-65 -85t-46.5 -86l-108 -515h-249l155 772l-106 23l4 61q25 12 64.5 24t86 21t96 14.5t94.5 5.5l36 -22l-56 -262h10q32 60 74.5 111.5t91.5 89.5t103 60t110 23q76 0 119 -48.5 t43 -129.5q0 -42 -9 -95t-22 -105l-26 -104q20 27 49.5 56.5t67 53.5t83 39.5t96.5 15.5q61 0 106 -20.5t74.5 -55.5t44 -82.5t14.5 -101.5q0 -52 -9 -111.5t-26 -119.5t-41 -118.5t-54 -108.5q-32 -53 -77.5 -98t-99.5 -79.5t-113.5 -57.5t-119.5 -32l-28 55 q69 34 135.5 106t112.5 180q19 44 32 92.5t21 94.5t11.5 86t3.5 67t-6 55.5t-19.5 52t-36 38t-54.5 14.5q-54 0 -99 -28.5t-83 -66.5l-78 -365h-244z" glyph-name="uni04A7" horiz-adv-x="1564" unicode="ҧ"/>
<glyph d="M1407 137q-60 -84 -139.5 -122.5t-163.5 -38.5q-52 0 -110 16t-109 60q-30 -21 -67 -35.5t-75 -23.5t-74 -13t-65 -4q-135 0 -233 42.5t-161 116.5t-93.5 174.5t-30.5 216.5q0 114 25 222t70.5 202.5t107.5 173.5t136 135.5t157 88t170 31.5q84 0 127.5 -23t58.5 -72 l-25 -44q-23 9 -45 11t-37 2q-67 0 -125.5 -31t-107.5 -85t-88 -127.5t-65.5 -157t-40.5 -174t-14 -179.5q0 -88 16.5 -160.5t49.5 -125t82.5 -81.5t116.5 -29q35 0 71.5 2.5t65.5 12.5q-38 25 -70.5 66t-56.5 95.5t-38 123t-14 149.5q0 155 45.5 287t123 228.5t179.5 151 t215 54.5q73 0 132.5 -26.5t101.5 -78.5t65 -129t23 -178q0 -89 -20 -171.5t-53 -156t-76.5 -137t-90 -114.5t-93.5 -88t-87 -57q19 -14 48.5 -24t60.5 -10q29 0 53 4.5t46.5 13.5t45.5 23.5t49 35.5zM890 499q0 -98 17.5 -176.5t49.5 -119.5q47 37 96 108.5t88.5 168.5 t64.5 216t25 253q0 39 -4 74.5t-13.5 63t-25 43.5t-37.5 16q-45 0 -91.5 -38t-84 -117.5t-61.5 -201.5t-24 -290z" glyph-name="uni04A8" horiz-adv-x="1480" unicode="Ҩ"/>
<glyph d="M974 103q-12 -33 -32.5 -56.5t-45.5 -39t-53.5 -22.5t-55.5 -7h-27t-23 1t-22.5 3t-26.5 6q-29 7 -51.5 20t-35.5 23q-50 -28 -109.5 -40.5t-119.5 -12.5q-71 0 -125.5 17t-95 45.5t-68 66t-44 79.5t-23.5 86t-7 84q0 127 33.5 231.5t91.5 178.5t135.5 114.5t165.5 40.5 q36 0 63 -8.5t45.5 -22t28.5 -31.5t12 -36l-13 -12q-19 5 -38 6.5t-38 0.5q-56 -1 -100 -33t-75.5 -91.5t-48 -143.5t-16.5 -190q0 -52 12.5 -102t37.5 -89.5t62.5 -63.5t86.5 -24q26 0 39.5 2.5t27.5 7.5q-24 17 -47 43t-42 61.5t-30.5 81t-11.5 101.5q0 101 23.5 181.5 t67 137t106.5 86.5t141 30q65 0 112 -20t78 -57t45.5 -89t14.5 -116q0 -87 -26 -161.5t-65.5 -131.5t-85.5 -95t-86 -53q23 -9 46.5 -11.5t54.5 -1.5q42 2 79.5 15.5t66.5 36.5zM592 378q0 -37 3 -75t8.5 -71.5t11.5 -59t12 -35.5q22 16 47 53t46.5 93.5t36 131t14.5 164.5 q0 66 -12.5 98.5t-47.5 32.5q-62 0 -90.5 -85t-28.5 -247z" glyph-name="uni04A9" horiz-adv-x="1020" unicode="ҩ"/>
<glyph d="M1138 407h79q0 -30 -3 -76.5t-8 -96.5t-11 -98.5t-12 -81.5q-69 -30 -147 -47t-156 -24q-37 -101 -75 -193t-80 -178h-86q-14 94 -17 187.5t-1 183.5q-117 14 -211.5 56.5t-161.5 113t-103.5 170t-36.5 227.5q0 141 38 257.5t103 209t152.5 160.5t187 113t205.5 67 t209 22q64 0 126 -5.5t117 -15t100.5 -22t75.5 -25.5q-5 -27 -18.5 -75t-30.5 -102t-35 -106.5t-33 -88.5h-82l-49 293q-8 4 -27 7.5t-42.5 6.5t-48.5 5t-45 2q-64 0 -131.5 -18t-132 -55.5t-122.5 -95t-101.5 -136t-69 -179.5t-25.5 -225q0 -99 22.5 -180t69 -139t118 -90 t170.5 -32q27 0 54.5 3t52.5 8t44.5 10.5t29.5 10.5z" glyph-name="uni04AA" horiz-adv-x="1366" unicode="Ҫ"/>
<glyph d="M787 226q-27 -45 -63 -86t-80.5 -73.5t-96.5 -55t-109 -29.5q-13 -18 -15 -35.5t2 -35.5t12.5 -37t17 -39.5t15 -42.5t6.5 -46q0 -35 -19 -65t-49 -53t-68 -37.5t-77 -19.5l-21 44q33 16 39 41t0 54t-16.5 61t-10.5 62q0 45 19.5 80.5t65.5 66.5q-138 14 -211.5 103.5 t-73.5 235.5q0 63 13 126.5t36 123t56 112t74 93.5q73 73 169 110t212 37q33 0 71.5 -8.5t75.5 -26t67.5 -45t46.5 -64.5q2 -20 -12.5 -47.5t-40 -52.5t-60 -41.5t-71.5 -13.5l-49 186q-13 5 -28 7.5t-27 2.5q-59 0 -113.5 -42.5t-93.5 -123.5q-28 -57 -47.5 -135.5 t-19.5 -163.5q0 -112 44.5 -166.5t132.5 -54.5q36 0 69.5 11t65 30.5t62 46t59.5 58.5z" glyph-name="uni04AB" horiz-adv-x="909" unicode="ҫ"/>
<glyph d="M212 948q-3 26 -6 63t-4.5 87t0 114t9.5 144h1167q-47 -153 -89 -253.5t-70 -154.5h-82q-13 72 -23 142t-15 139h-184l-214 -1101h223q-12 -51 -28.5 -110.5t-34.5 -119t-37 -115t-36 -99.5h-76l-44 316h-470l14 74q42 15 93.5 31.5t104.5 24.5l214 1099h-182 q-38 -78 -74 -146.5t-74 -134.5h-82z" glyph-name="uni04AC" horiz-adv-x="1251" unicode="Ҭ"/>
<glyph d="M1468 52q-24 -23 -32 -50t-9 -56.5t2 -62t1 -65.5q0 -48 -24 -82t-62.5 -56t-86.5 -33.5t-96 -15.5l-10 53q27 7 43 20.5t24.5 31t11 39t2.5 45.5q0 35 8 62.5t24.5 52.5t40.5 48.5t57 50.5l-6 7q-14 -8 -31.5 -17.5t-40.5 -19.5q-45 -20 -95 -20q-32 0 -53 7t-34.5 19 t-19 27t-5.5 31q0 26 7.5 61.5t18.5 82.5l77 327l20 89q11 50 11 75q0 35 -12 54.5t-43 19.5t-63 -22.5t-62.5 -59.5t-58 -83.5t-49.5 -95.5l-117 -516h-241l109 505q13 57 22 108.5t9 96.5q0 67 -50 67q-25 -1 -58 -24t-65 -59.5t-60.5 -83.5t-44.5 -95l-105 -515h-252 l161 772l-103 23v61q30 14 71.5 26t88 20.5t95 13.5t90.5 5l38 -22l-70 -262h7q26 49 65.5 99.5t88 91.5t104 67t112.5 26q22 0 45.5 -7.5t43.5 -26.5t33 -51.5t13 -82.5q0 -25 -4 -57t-12 -59q30 56 71.5 107.5t89.5 90.5t101.5 62.5t109.5 23.5q34 0 62.5 -11.5t49 -32.5 t32 -51t11.5 -67q0 -57 -11 -109.5t-23 -110.5l-103 -415h141v-72z" glyph-name="uni04AD" horiz-adv-x="1593" unicode="ҭ"/>
<glyph d="M949 1356h475l-14 -74q-33 -18 -72 -34t-77 -23l-469 -658l-85 -437q38 -4 72.5 -20.5t63.5 -35.5l-14 -74h-596l14 74q36 17 79.5 32.5t90.5 23.5l85 435l-203 660q-44 9 -80.5 24t-65.5 33l14 74h635l-14 -74q-30 -16 -67.5 -31t-87.5 -26l113 -498l333 498 q-43 11 -80.5 26t-63.5 31z" glyph-name="uni04AE" horiz-adv-x="1251" unicode="Ү"/>
<glyph d="M160 772l-115 14v61q21 12 52 25.5t68 24t76 17.5t76 7q24 0 41 -7t27.5 -19.5t16 -29.5t8.5 -36l108 -582l10 -105h4l52 98q24 35 53.5 90t58 116.5t50.5 124.5t31 114q0 19 -5 50.5t-12 64.5t-14 60.5t-10 38.5q25 11 64.5 16.5t76.5 5.5q36 0 69.5 -5.5t52.5 -16.5 q-26 -126 -74 -250.5t-112 -251.5q-56 -109 -119 -210t-132 -187l-52 -246q31 -6 64.5 -21t56.5 -31v-69h-371l-23 24l81 343z" glyph-name="uni04AF" unicode="ү"/>
<glyph d="M949 1356h475l-14 -74q-33 -18 -72 -34t-77 -23l-469 -657h274l-25 -129h-274l-60 -309q38 -4 72.5 -20.5t63.5 -35.5l-14 -74h-596l14 74q36 17 79.5 32.5t90.5 23.5l60 309h-273l25 129h272l-202 657q-44 9 -80.5 24t-65.5 33l14 74h635l-14 -74q-30 -16 -67.5 -31 t-87.5 -26l113 -498l333 498q-43 11 -80.5 26t-63.5 31z" glyph-name="uni04B0" horiz-adv-x="1251" unicode="Ұ"/>
<glyph d="M101 0l26 110h178l-145 662l-115 14v61q21 12 52 25.5t68 24t76 17.5t76 7q24 0 41 -7t27.5 -19.5t16 -29.5t8.5 -36l101 -582l10 -95h4l52 88q24 35 55 90t60 116.5t52.5 124.5t32.5 114q0 19 -5 50.5t-12 64.5t-14 60.5t-10 38.5q25 11 64.5 16.5t76.5 5.5 q36 0 69.5 -5.5t52.5 -16.5q-26 -126 -74 -250.5t-112 -251.5q-39 -76 -86.5 -148.5t-93.5 -138.5h174l-26 -110h-219l-51 -246q31 -6 64.5 -21t56.5 -31v-69h-371l-23 24l80 343h-217z" glyph-name="uni04B1" unicode="ұ"/>
<glyph d="M611 74q36 17 72 31.5t77 24.5l-171 408l-303 -410q40 -6 72 -19.5t61 -34.5l-14 -74h-497l14 74q72 39 144 56l460 541l-250 554q-35 11 -64.5 26t-57.5 31l15 74h614l-15 -74q-26 -14 -63.5 -28t-86.5 -29l142 -357l286 357q-38 9 -73 25t-63 32l15 74h481l-15 -74 q-33 -16 -67.5 -31t-76.5 -26l-422 -490l281 -609h175q-11 -50 -27 -109.5t-34 -119.5t-37.5 -115.5t-38.5 -97.5h-76l-44 316h-427z" glyph-name="uni04B2" horiz-adv-x="1366" unicode="Ҳ"/>
<glyph d="M744 139l141 -15v-72q-24 -24 -31.5 -50.5t-8 -56t2 -61.5t-0.5 -66q0 -48 -23.5 -81.5t-61.5 -55.5t-86 -34t-96 -16l-11 53q26 7 42 20.5t25 31t12 39t2 45.5q0 35 8 62.5t24 52.5t40.5 48.5t57.5 50.5l-6 7q-14 -9 -35 -19t-45 -18.5t-48.5 -14t-46.5 -5.5 q-48 0 -74.5 23.5t-39.5 62.5l-89 293l-98 -90q-21 -24 -37.5 -45.5t-27.5 -47.5q-1 -15 -0.5 -38.5t2 -48t4 -47t5.5 -34.5q-31 -12 -71 -17.5t-80 -5.5q-39 0 -73.5 5.5t-53.5 17.5q17 56 62 119q23 32 48.5 64t53.5 63t61 60.5t64.5 56t60 48.5t49.5 39l-110 298l-124 15 v61q25 15 60 29t73 25.5t76.5 18t69.5 6.5q46 0 70.5 -24t37.5 -64l81 -284q28 22 49 43t42 43q23 23 41.5 49.5t26.5 42.5q2 13 0.5 36.5t-4.5 49t-6.5 48t-5.5 34.5q66 22 146 22q36 0 70 -6t53 -16q-15 -55 -59 -119.5t-98 -125.5q-27 -30 -59.5 -59t-64.5 -53.5 t-59.5 -45t-44.5 -33.5z" glyph-name="uni04B3" unicode="ҳ"/>
<glyph d="M40 0l14 74q42 15 94 31.5t105 24.5l216 1110h-100l-143 -292h-81q1 40 3.5 91.5t7 106.5t11 109.5t15.5 100.5h888q-9 -47 -23.5 -101.5t-31.5 -108.5t-34.5 -105.5t-32.5 -92.5h-81l-22 292h-92l-217 -1114h478l214 1099q-60 17 -93 57l15 74h548l-15 -74 q-42 -23 -84 -35.5t-86 -21.5l-214 -1099h199q-11 -50 -27 -109.5t-34 -119.5t-37.5 -115.5t-38.5 -97.5h-76l-44 316h-1201z" glyph-name="uni04B4" horiz-adv-x="1593" unicode="Ҵ"/>
<glyph d="M720 -16q-58 0 -81 26t-23 55q0 32 7.5 89.5t28.5 133.5h-7q-24 -43 -60 -97t-84 -102t-111.5 -79.5t-138.5 -31.5q-74 0 -119.5 44.5t-45.5 125.5q0 39 11.5 113t28.5 161t38 179.5t37 170.5l-107 23v61q29 11 72 22t90 19.5t95.5 15t87.5 8.5l41 -22q-29 -135 -59 -256 t-55 -257q-9 -43 -19 -95t-10 -104q0 -32 17.5 -48.5t41.5 -16.5q46 0 90 35t81 84.5t64.5 102t40.5 85.5l93 470h243l-142 -775h139v-72q-24 -23 -32.5 -50t-9 -56.5t2.5 -62t1 -65.5q0 -48 -24.5 -81.5t-62.5 -56t-85 -34t-97 -15.5l-10 53q52 14 67 51.5t14 84.5 q0 36 8 63t24.5 51.5t40.5 48.5t57 51l-6 7q-27 -17 -76.5 -37t-96.5 -20zM368 1199v135h569v-135h-569z" glyph-name="uni04B5" horiz-adv-x="1139" unicode="ҵ"/>
<glyph d="M719 74q50 21 96.5 36.5t92.5 19.5l89 457q-36 -20 -80.5 -36t-93 -27.5t-99 -18t-98.5 -6.5q-69 0 -135 13t-117.5 45t-83.5 85.5t-32 134.5q0 41 9 89l70 359q-35 7 -69 22t-60 35l14 74h548l-14 -74q-24 -16 -57 -31t-72 -26l-61 -312q-10 -49 -10 -92 q-1 -97 51.5 -141.5t158.5 -44.5q32 0 66 6t67 16t63.5 22t56.5 24l102 522q-31 11 -59.5 25t-49.5 32l14 74h538l-14 -74q-29 -18 -64 -32t-74 -25l-214 -1099h222q-12 -50 -27.5 -109.5t-34 -119.5t-38 -115.5t-38.5 -97.5h-76l-42 316h-459z" glyph-name="uni04B6" horiz-adv-x="1532" unicode="Ҷ"/>
<glyph d="M971 899l-165 -775h139v-72q-22 -23 -30.5 -50t-9.5 -56.5t1.5 -62t2.5 -65.5q0 -48 -23.5 -81.5t-62 -55.5t-86.5 -34t-96 -16l-12 53q51 13 67 52q16 36 16 84q0 35 8 62.5t23.5 52.5t40 48.5t57.5 50.5l-6 7q-14 -8 -32.5 -17.5t-43.5 -19.5q-51 -20 -98 -20 q-60 0 -82 27q-22 26 -22 57q0 20 2 42t9 46l70 279h-7q-28 -36 -67.5 -66.5t-83.5 -56.5q-87 -51 -189 -51q-75 0 -122 40.5t-47 119.5q0 36 4.5 71t13 75.5t20 90t25.5 114.5l-106 23v61q29 11 72 22t90 20t95 15t88 8l40 -22q-36 -147 -63 -253t-27 -166q0 -75 74 -75 q25 0 56.5 9.5t57.5 27.5q23 16 46 33.5t39 40.5l79 383h245z" glyph-name="uni04B7" horiz-adv-x="1075" unicode="ҷ"/>
<glyph d="M720 506q-29 -4 -58 -5.5t-58 -1.5q-67 0 -127.5 12t-106 42t-73 80t-28.5 126q0 23 3 49t8 55l70 362q-35 7 -69 22t-60 35l14 74h558l-14 -74q-24 -16 -62 -31t-77 -26l-57 -294q-6 -29 -10 -62.5t-4 -57.5q0 -86 41 -129.5t135 -46.5l56 285h123l-54 -275 q57 9 109.5 24t86.5 34l102 522q-29 11 -57.5 25t-51.5 32l14 74h538l-14 -74q-30 -18 -65 -32t-74 -25l-213 -1095q38 -8 67 -24.5t50 -31.5l-14 -74h-597l14 74q50 21 97 36.5t93 19.5l89 457q-33 -16 -84 -32.5t-113 -29.5l-52 -268h-123z" glyph-name="uni04B8" horiz-adv-x="1532" unicode="Ҹ"/>
<glyph d="M545 429q12 5 27 15.5t30 23t28 25.5t22 23l77 383h242l-141 -775h125v-61q-17 -15 -46.5 -29t-65 -25.5t-74.5 -18t-76 -6.5q-65 0 -89 27t-24 57q0 38 10 88l54 279h-8q-18 -26 -47.5 -56t-66.5 -53l-39 -187h-107l31 145q-17 -6 -31.5 -10t-30.5 -7t-34.5 -4.5 t-42.5 -1.5q-30 0 -58.5 11t-51 32t-36 53t-13.5 74q0 36 4.5 69.5t13 72t20 86.5t25.5 113l-106 23v61q29 11 71 22t88 20t93 15t87 8l40 -22q-18 -73 -34.5 -137t-28.5 -117t-19.5 -93.5t-7.5 -66.5q0 -41 21 -61t57 -17l57 260h106z" glyph-name="uni04B9" horiz-adv-x="1075" unicode="ҹ"/>
<glyph d="M239 1356h597l-15 -74q-49 -21 -96.5 -36.5t-93.5 -19.5l-89 -461q41 18 91.5 34.5t105.5 29.5t112 20.5t111 7.5q70 0 140 -12.5t126 -44.5t90.5 -86t34.5 -137q0 -9 -2 -27.5t-5 -39t-6 -39.5t-5 -30l-62 -310q36 -7 70 -22t59 -35l-14 -74h-548l14 74q25 16 58 31 t71 26l52 262q2 10 5 28t5.5 36.5t4.5 35.5t2 26q1 98 -60 150t-187 52q-57 0 -128.5 -17t-156.5 -55l-102 -518q32 -11 60 -25t49 -32l-14 -74h-538l14 74q29 18 65 32t74 25l213 1095q-38 8 -67 24.5t-50 31.5z" glyph-name="uni04BA" horiz-adv-x="1532" unicode="Һ"/>
<glyph d="M200 1252v57q26 10 68.5 22t92 22.5t102 17t98.5 6.5l38 -16l-157 -724h9q34 57 76 108.5t89 90.5t99 62t106 23q83 0 128 -48t45 -118q0 -48 -9 -104t-21 -108l-103 -419h133v-61q-36 -29 -105 -54q-68 -25 -157 -25q-60 0 -86.5 24t-26.5 59q0 32 7.5 66t16.5 79 l67 301q12 55 22 101t10 88q0 32 -13.5 53.5t-39.5 21.5q-42 0 -83.5 -29.5t-77.5 -71.5t-63.5 -86.5t-40.5 -74.5l-106 -515h-248l248 1228z" glyph-name="uni04BB" horiz-adv-x="1139" unicode="һ"/>
<glyph d="M1243 1379q111 0 208 -30.5t168.5 -90.5t113 -148.5t41.5 -203.5q0 -1 -0.5 -22.5t-5.5 -57.5t-17 -83.5t-35 -101.5h-1002q-20 -129 0 -222.5t73.5 -154t137 -90t190.5 -29.5q102 0 198.5 28t202.5 94l22 -63q-57 -64 -125.5 -107.5t-141 -70.5t-145 -38.5t-135.5 -11.5 q-143 0 -263 44t-201.5 128.5t-118 208.5t-12.5 284q-78 1 -138.5 21.5t-101.5 55t-62 80.5t-21 98q0 28 8.5 63t25.5 71t42 70t57 60q43 -5 99 -30q55 -25 92 -63l4 -56l-189 -137q6 -26 27 -46t50 -34t64 -21t70 -6q53 163 141 279.5t197.5 190t233.5 108t248 34.5z M1207 1253q-77 0 -148.5 -27.5t-132.5 -86t-109 -150.5t-78 -222h695q3 11 8.5 22t10.5 29t8.5 46t3.5 72q0 76 -20 135t-55 99.5t-82 61.5t-101 21z" glyph-name="uni04BC" horiz-adv-x="1788" unicode="Ҽ"/>
<glyph d="M1033 212q-38 -53 -86 -96t-103.5 -73.5t-117.5 -47.5t-129 -17q-83 0 -147 22.5t-108 69.5q-41 43 -62 104.5t-21 138.5q0 32 2.5 62.5t8.5 59.5q-40 2 -87.5 9t-82.5 24q-43 21 -63.5 57t-25.5 81q-2 24 0 51q5 63 40 118q38 57 84 92q21 1 47 -9.5t49 -28t40 -39 t20 -42.5l-1 -31l-171 -104q2 -23 14.5 -38.5t31.5 -27.5q10 -7 26.5 -10.5t34.5 -5.5t36.5 -3t32.5 -1q36 103 101.5 181t143.5 130q37 25 75 41t77 25.5t80.5 13t85.5 3.5q51 0 102 -12.5t89 -44.5q26 -22 41.5 -53t15.5 -75q0 -62 -32.5 -112t-93.5 -90q-30 -20 -79 -37 t-109.5 -30t-128.5 -21.5t-136 -10.5q-5 -25 -7.5 -56t-2.5 -54q0 -44 8 -81t28.5 -64t56.5 -42.5t92 -15.5q34 0 73.5 11t78.5 30t74 43t61 51zM800 818q-89 0 -164 -90q-15 -18 -30.5 -43.5t-28 -53.5t-22.5 -55t-15 -49q33 1 72.5 5t77.5 11.5t71 18t54 24.5 q42 28 64 64.5t22 81.5q0 35 -28 60.5t-73 25.5z" glyph-name="uni04BD" horiz-adv-x="1139" unicode="ҽ"/>
<glyph d="M1243 1379q111 0 208 -30.5t168.5 -90.5t113 -148.5t41.5 -203.5q0 -1 -0.5 -22.5t-5.5 -57.5t-17 -83.5t-35 -101.5h-1002q-20 -129 0 -222.5t73.5 -154t137 -90t190.5 -29.5q102 0 198.5 28t202.5 94l22 -63q-46 -52 -100 -90t-112 -65t-117 -43t-115 -23 q-29 -88 -72 -186t-88 -185h-85q-14 94 -16.5 191t-0.5 188q-111 22 -200.5 75t-148.5 135t-83 192.5t-4 247.5q-78 1 -138.5 21.5t-101.5 55t-62 80.5t-21 98q0 28 8.5 63t25.5 71t42 70t57 60q43 -5 99 -30q55 -25 92 -63l4 -56l-189 -137q6 -26 27 -46t50 -34t64 -21 t70 -6q53 163 141 279.5t197.5 190t233.5 108t248 34.5zM1207 1253q-77 0 -148.5 -27.5t-132.5 -86t-109 -150.5t-78 -222h695q3 11 8.5 22t10.5 29t8.5 46t3.5 72q0 76 -20 135t-55 99.5t-82 61.5t-101 21z" glyph-name="uni04BE" horiz-adv-x="1788" unicode="Ҿ"/>
<glyph d="M1033 212q-38 -53 -86 -96t-103.5 -73.5t-117.5 -47.5q-21 -5 -42 -9h3q-11 -12 -15.5 -26t-4.5 -26q0 -20 8.5 -42t18.5 -45t18.5 -48.5t8.5 -52.5q0 -35 -19 -65t-49 -53t-68 -37.5t-76 -19.5l-22 44q32 17 38 41.5t0.5 53.5t-15.5 60.5t-10 62.5q-2 48 22 84 q22 34 60 61q-74 2 -132 22q-64 23 -108 70q-41 43 -62 104.5t-21 138.5q0 32 2.5 62.5t8.5 59.5q-40 2 -87.5 9t-82.5 24q-43 21 -63.5 57t-25.5 81q-2 24 0 51q5 63 40 118q38 57 84 92q21 1 47 -9.5t49 -28t40 -39t20 -42.5l-1 -31l-171 -104q2 -23 14.5 -38.5 t31.5 -27.5q10 -7 26.5 -10.5t34.5 -5.5t36.5 -3t32.5 -1q36 103 101.5 181t143.5 130q37 25 75 41t77 25.5t80.5 13t85.5 3.5q51 0 102 -12.5t89 -44.5q26 -22 41.5 -53t15.5 -75q0 -62 -32.5 -112t-93.5 -90q-30 -20 -79 -37t-109.5 -30t-128.5 -21.5t-136 -10.5 q-5 -25 -7.5 -56t-2.5 -54q0 -44 8 -81t28.5 -64t56.5 -42.5t92 -15.5q34 0 73.5 11t78.5 30t74 43t61 51zM800 818q-89 0 -164 -90q-15 -18 -30.5 -43.5t-28 -53.5t-22.5 -55t-15 -49q33 1 72.5 5t77.5 11.5t71 18t54 24.5q42 28 64 64.5t22 81.5q0 35 -28 60.5t-73 25.5z " glyph-name="uni04BF" horiz-adv-x="1139" unicode="ҿ"/>
<glyph d="M595 -10h-604l14 74q86 42 168 56l213 1095q-38 7 -77.5 22t-68.5 35l15 74h604l-15 -74q-38 -22 -82.5 -36t-84.5 -21l-213 -1095q37 -8 76.5 -21.5t68.5 -34.5z" glyph-name="uni04C0" horiz-adv-x="797" unicode="Ӏ"/>
<glyph d="M978 74q0 60 -21.5 132.5t-57.5 147.5t-83.5 147.5t-99.5 133.5h-169l-98 -505q42 -8 74 -23.5t53 -32.5l-14 -74h-587l14 74q43 19 86 33.5t84 22.5l213 1095q-44 7 -82.5 22t-65.5 35l15 74h587l-15 -74q-28 -16 -66 -31t-83 -26l-95 -491l180 27l361 464q-38 9 -67 25 t-53 32l15 74h500l-15 -74q-37 -22 -82 -36t-82 -21l-402 -458q13 -14 44.5 -50t71 -87t82 -112.5t78 -127.5t58.5 -132t23 -125q0 -85 -26.5 -158.5t-73 -133.5t-109.5 -106t-136.5 -78t-153.5 -48.5t-160 -16.5l5 86q30 6 62.5 15.5t63.5 23t58 30t47 36.5q58 56 90 132.5 t32 158.5z" glyph-name="uni04C3" horiz-adv-x="1389" unicode="Ӄ"/>
<glyph d="M403 429l-83 -429h-252l151 772l-120 23v61q25 11 66 22.5t90 21t102.5 15.5t103.5 6l37 -20l-79 -392h57q32 24 66 55.5t64.5 64.5t54 64t35.5 53q2 13 2.5 34.5t0.5 44.5t-1.5 43t-3.5 31q31 11 78.5 17.5t96.5 6.5q23 0 45.5 -1.5t42.5 -4.5t36.5 -7.5t26.5 -10.5 q-15 -39 -42.5 -78t-62 -76t-73 -71.5t-75.5 -64.5t-70 -55t-56 -43q20 -14 48.5 -38.5t59 -58t60 -74.5t53 -86t38 -93t14.5 -96q0 -106 -42 -188.5t-114 -139.5t-167 -87.5t-201 -30.5l9 82q55 15 100.5 48t77 77.5t49 97.5t17.5 108q0 60 -17.5 118t-43.5 109t-56.5 92 t-57.5 68z" glyph-name="uni04C4" horiz-adv-x="1038" unicode="ӄ"/>
<glyph d="M549 1207q-59 9 -108 30.5t-84 44.5l15 74h1109l-15 -74q-32 -18 -76 -33t-94 -24l-213 -1097h204l12 -28q-14 -36 -46.5 -87.5t-75 -106.5t-91 -107t-93.5 -89h-105l122 290h-390l14 74q38 17 78 31.5t81 24.5l214 1099h-307q-32 -149 -63 -270.5t-60 -220.5 q-21 -70 -44.5 -142.5t-50 -141t-56.5 -130.5t-63 -112q-30 -44 -63.5 -84t-72 -71.5t-83 -53t-96.5 -27.5q-23 10 -41 40t-29.5 69t-15 82t1.5 79l66 74l209 -56q36 50 73.5 126.5t77 189t79.5 267t80 360.5z" glyph-name="uni04C5" horiz-adv-x="1405" unicode="Ӆ"/>
<glyph d="M616 -16q-26 0 -43.5 7t-28.5 18t-15.5 26t-4.5 30q0 39 8.5 83.5t16.5 86.5l111 561h-168q-13 -58 -29 -124.5t-35 -135t-40.5 -136.5t-45.5 -128.5t-50 -110.5t-54 -84q-51 -60 -108.5 -82.5t-135.5 -16.5q-19 18 -26 54t-2 78q4 32 16 63.5t31 53.5l148 -51 q34 43 64.5 114.5t56 154t45.5 167.5t32 155q-18 5 -37 12t-37 15t-33.5 17t-25.5 18v70h701l-148 -775h160l24 -33q-27 -92 -78.5 -170.5t-118 -138t-145.5 -98t-162 -51.5l-21 45q97 43 171 134q37 45 71.5 93t52.5 102h-5q-14 -9 -37 -16t-59 -7h-16z" glyph-name="uni04C6" horiz-adv-x="1051" unicode="ӆ"/>
<glyph d="M562 0h-587l14 74q37 17 83 32.5t87 23.5l213 1095q-45 9 -84 24t-64 33l15 74h587l-15 -74q-33 -20 -72 -35t-77 -22l-91 -468h535l91 468q-42 9 -72.5 24t-54.5 33l15 74h587l-15 -74q-37 -22 -82 -35t-88 -22l-238 -1225q-26 -131 -71.5 -211.5t-113.5 -124t-161 -58 t-213 -14.5l4 86q55 12 97.5 31.5t74 55t54 92t39.5 143.5l123 632h-535l-98 -502q38 -8 68 -21.5t59 -34.5z" glyph-name="uni04C7" horiz-adv-x="1593" unicode="Ӈ"/>
<glyph d="M685 403h-284l-84 -403h-249l153 772l-104 23v61q25 12 68.5 23.5t93 21t99.5 15t88 5.5l36 -22l-81 -394h284l75 394h249l-170 -883q-13 -67 -40 -120.5t-63.5 -96t-78.5 -74.5t-85 -54t-84.5 -34.5t-74.5 -17.5l-30 55q23 12 51.5 37t57 64.5t54 95t42.5 129.5z" glyph-name="uni04C8" horiz-adv-x="1137" unicode="ӈ"/>
<glyph d="M562 0h-587l14 74q37 17 83 32.5t87 23.5l213 1095q-46 9 -85 24t-63 33l15 74h587l-15 -74q-33 -20 -72 -35t-77 -22l-91 -468h531l91 468q-42 9 -72.5 24t-54.5 33l15 74h587l-15 -74q-37 -22 -82 -35t-88 -22l-213 -1097h213l14 -28q-15 -36 -47.5 -87.5t-75 -106.5 t-91 -107t-94.5 -89h-105l122 290h-389l14 74q33 17 70.5 32.5t78.5 23.5l98 502h-531l-98 -502q38 -8 68 -21.5t59 -34.5z" glyph-name="uni04C9" horiz-adv-x="1593" unicode="Ӊ"/>
<glyph d="M697 -16q-30 0 -49 7t-30 18t-15 24.5t-4 27.5q0 18 3.5 39t8.5 43.5t10.5 45t9.5 43.5l34 171h-274l-84 -403h-249l153 772l-104 23v61q25 12 68.5 23.5t93 21t99.5 15t88 5.5l36 -22l-81 -394h274l75 394h249l-155 -775h171l24 -33q-27 -92 -78.5 -170.5t-118 -138 t-145.5 -98t-162 -51.5l-21 45q97 43 171 134q37 45 67 93t48 102h-6q-14 -9 -41.5 -16t-55.5 -7h-10z" glyph-name="uni04CA" horiz-adv-x="1137" unicode="ӊ"/>
<glyph d="M954 126l90 461q-30 -15 -77.5 -30.5t-103.5 -28.5t-115.5 -21t-114.5 -8q-70 0 -135 14t-115.5 47.5t-80.5 88.5t-30 137q0 40 9 85l69 354q-35 7 -69 22t-60 35l14 74h548l-14 -74q-25 -16 -57.5 -31t-71.5 -26l-59 -304q-8 -42 -9 -78q-2 -49 9.5 -87.5t38 -65.5 t69.5 -41t105 -14q27 0 63.5 6t74 15.5t73 21.5t61.5 25l102 522q-31 11 -59.5 25t-49.5 32l14 74h538l-14 -74q-29 -18 -64.5 -32t-74.5 -25l-213 -1095q38 -8 67 -24.5t50 -31.5l-14 -74h-410l-167 -316h-76q-1 42 1.5 97.5t7 115.5t11.5 119.5t16 109.5h223z" glyph-name="uni04CB" horiz-adv-x="1532" unicode="Ӌ"/>
<glyph d="M572 -11q-23 -27 -21 -54t13.5 -56t25 -62t13.5 -71q0 -35 -19 -65t-49 -52.5t-68 -37.5t-76 -20l-22 44q33 17 39 41.5t0.5 53.5t-15.5 60.5t-11 62.5q0 31 9 56t27 46.5t46 40t67 38.5zM929 124v-61q-19 -15 -48.5 -29t-64.5 -25t-74 -18t-76 -7q-65 0 -89 27t-24 57 q0 18 3 40t8 48l70 279h-7q-56 -73 -142 -123q-87 -51 -188 -51q-75 0 -122 40.5t-47 119.5q0 36 4.5 71t13 75.5t20 90t25.5 114.5l-106 23v61q29 11 72 22t90 20t95 15t88 8l40 -22q-36 -147 -63 -253t-27 -166q0 -75 74 -75q50 0 104 33q53 32 85 78l79 383h245 l-165 -775h127z" glyph-name="uni04CC" horiz-adv-x="1075" unicode="ӌ"/>
<glyph d="M1041 0l14 74q43 19 82.5 32.5t83.5 23.5l158 809l45 197h-11l-108 -177l-484 -701h-79l-184 693l-44 196h-13l-42 -216l-154 -794q35 -7 76 -24.5t76 -38.5l-14 -74h-473l14 74l83 36q26 11 49.5 18t43.5 11l211 1086q-38 9 -78.5 22t-69.5 35l15 74h492l145 -573 l37 -150h2l101 154l391 569h481l-15 -74q-37 -20 -77.5 -34t-81.5 -23l-213 -1099h197l15 -26q-15 -36 -47.5 -87.5t-74.5 -106.5t-90.5 -107t-94.5 -89h-105l122 290h-381z" glyph-name="uni04CD" horiz-adv-x="1821" unicode="Ӎ"/>
<glyph d="M968 -16q-26 0 -43.5 7t-28.5 18t-15.5 26t-4.5 30q0 19 4 44t10 51t12.5 50.5t10.5 42.5l72 306q2 8 6.5 24t11 36.5t13.5 43.5l14 46h-6l-422 -709h-113l-19 594l-10 119h-7q-13 -54 -28 -114t-32.5 -122t-38 -122.5t-42.5 -115t-47 -99.5t-51 -76q-42 -49 -104 -71.5 t-128 -14.5q-16 20 -22.5 59.5t-1.5 81.5q4 29 14 54.5t28 45.5l146 -43q32 42 61 108.5t54.5 147t47.5 169.5t40 176q-15 6 -31.5 12.5t-32 14.5t-28.5 16.5t-20 17.5v61h405l27 -470l3 -127h5l67 133l279 464h261l-153 -775h160l24 -33q-27 -92 -78.5 -170.5t-118 -138 t-145.5 -98t-162 -51.5l-21 45q97 43 171 134q37 45 71.5 93t52.5 102h-5q-14 -9 -37 -16t-59 -7h-16z" glyph-name="uni04CE" horiz-adv-x="1403" unicode="ӎ"/>
<glyph d="M288 1228l-122 24v60q25 11 68 22.5t93.5 21t103.5 15.5t98 6l36 -19l-241 -1239q31 -6 64.5 -20.5t56.5 -30.5v-68h-370l-24 24z" glyph-name="uni04CF" horiz-adv-x="569" unicode="ӏ"/>
<glyph d="M814 438h-388l-169 -308q85 -12 157 -56l-14 -74h-474l14 74q36 19 72 33.5t71 22.5l738 1249h143l178 -1249q76 -17 129 -56l-14 -74h-601l14 74q41 17 86 32.5t86 23.5zM495 564h307l-33 369l-1 137h-4l-68 -140zM914 1445q-90 0 -159.5 16.5t-115.5 48.5t-64.5 80 t-6.5 111q37 24 98 32q30 4 57 6.5t51 3.5l58 -35l-29 -151q25 -13 59.5 -18t69.5 -5q13 0 31 1t36.5 3t36.5 5t33 8l31 157l73 35q17 2 39.5 0t49.5 -7t50 -13.5t42 -21.5q-24 -123 -142 -190q-117 -66 -298 -66z" glyph-name="uni04D0" horiz-adv-x="1366" unicode="Ӑ"/>
<glyph d="M371 122q32 0 66 31t66.5 77t60.5 100t48 102l66 356q-22 14 -40.5 20.5t-49.5 6.5q-48 0 -88.5 -24t-73 -65t-57 -94.5t-41 -113t-24.5 -121t-8 -117.5q0 -82 16.5 -120t58.5 -38zM584 286q-22 -57 -54.5 -112.5t-75.5 -99t-95.5 -70t-113.5 -26.5q-93 0 -149 68.5 t-56 203.5q0 83 17.5 165t50.5 156t80 137.5t106 110t128.5 72.5t147.5 26q47 0 80.5 -10.5t70.5 -27.5q47 18 101 27t129 9l-151 -791h126v-61q-18 -15 -47.5 -29t-65 -25t-72.5 -18t-68 -7q-63 0 -90 27t-27 56q0 32 9 85t26 134h-7zM701 1137q-192 0 -265 69 q-74 70 -51 186q32 24 86.5 36.5t111.5 15.5l61 -24l-33 -173q43 -21 110 -21q19 0 48.5 3.5t59.5 11.5l34 179l70 24q53 -3 100.5 -14.5t69.5 -37.5q-11 -58 -40.5 -105t-78.5 -80.5t-119.5 -51.5t-163.5 -18z" glyph-name="uni04D1" unicode="ӑ"/>
<glyph d="M814 438h-388l-169 -308q85 -12 157 -56l-14 -74h-474l14 74q36 19 72 33.5t71 22.5l738 1249h143l178 -1249q76 -17 129 -56l-14 -74h-601l14 74q41 17 86 32.5t86 23.5zM495 564h307l-33 369l-1 137h-4l-68 -140zM508 1596q0 62 44.5 93t112.5 31q67 0 112 -31t45 -93 q0 -54 -45 -84.5t-112 -30.5q-68 0 -112.5 30.5t-44.5 84.5zM983 1596q0 62 45.5 93t113.5 31q67 0 111.5 -31t44.5 -93q0 -54 -44.5 -84.5t-111.5 -30.5q-68 0 -113.5 30.5t-45.5 84.5z" glyph-name="uni04D2" horiz-adv-x="1366" unicode="Ӓ"/>
<glyph d="M371 122q32 0 66 31t66.5 77t60.5 100t48 102l66 356q-22 14 -40.5 20.5t-49.5 6.5q-48 0 -88.5 -24t-73 -65t-57 -94.5t-41 -113t-24.5 -121t-8 -117.5q0 -82 16.5 -120t58.5 -38zM584 286q-22 -57 -54.5 -112.5t-75.5 -99t-95.5 -70t-113.5 -26.5q-93 0 -149 68.5 t-56 203.5q0 83 17.5 165t50.5 156t80 137.5t106 110t128.5 72.5t147.5 26q47 0 80.5 -10.5t70.5 -27.5q47 18 101 27t129 9l-151 -791h126v-61q-18 -15 -47.5 -29t-65 -25t-72.5 -18t-68 -7q-63 0 -90 27t-27 56q0 32 9 85t26 134h-7zM356 1287q0 61 38.5 98t102.5 37 q62 0 102 -37t40 -98q0 -59 -40 -96t-102 -37q-64 0 -102.5 37t-38.5 96zM755 1287q0 61 39 98t101 37q64 0 103.5 -37t39.5 -98q0 -59 -39.5 -96t-103.5 -37q-62 0 -101 37t-39 96z" glyph-name="uni04D3" unicode="ӓ"/>
<glyph d="M686 74q34 15 75 30.5t85 25.5l67 343h-368l-274 -343q38 -8 72.5 -22t65.5 -34l-14 -74h-469l14 74q35 19 72.5 33.5t74.5 22.5l910 1106q-27 9 -54 19.5t-49 26.5l15 74h1065q-20 -88 -47.5 -180.5t-59.5 -174.5h-82l-45 228h-390l-92 -473h266l115 148h60 q-5 -48 -12.5 -100.5t-18.5 -110.5q-23 -116 -52 -216h-60l-57 153h-266l-98 -504h405l152 246h81q0 -38 -2 -84t-6 -95.5t-10 -99t-15 -93.5h-1068zM646 599h291l72 366l30 133h-3l-90 -125z" glyph-name="uni04D4" horiz-adv-x="1933" unicode="Ӕ"/>
<glyph d="M407 122q32 0 64 14.5t59.5 37.5t49 51.5t32.5 57.5q-2 33 0 71t5 68q-36 5 -71.5 5.5t-67 -4t-58.5 -13t-46 -21.5q-77 -51 -77 -147q0 -60 31 -90t79 -30zM645 176q-30 -49 -70.5 -86t-87.5 -62t-99.5 -37.5t-106.5 -12.5q-51 0 -96 14.5t-78.5 44t-53 72.5t-19.5 100 q0 146 123.5 222t355.5 76q27 0 60.5 -1t62.5 -3q13 49 22.5 94.5t9.5 80.5q1 73 -28.5 106.5t-90.5 33.5q-25 0 -54 -4.5t-54 -13.5l-102 -189h-79q-12 20 -23 44t-20 51t-14.5 56t-5.5 58q39 24 88 42.5t102 31.5t108.5 20t108.5 7q103 0 162 -25.5t85 -68.5q30 24 68 42 t80 29.5t86.5 17t88.5 5.5q41 0 85.5 -10t81 -32t60.5 -57.5t24 -85.5q0 -123 -121 -202q-30 -20 -77 -37t-104.5 -30t-122.5 -21.5t-132 -10.5q-4 -25 -6.5 -51t-2.5 -49q0 -55 13.5 -95t38 -66.5t58 -39t74.5 -12.5q71 0 142 32.5t125 86.5l43 -45q-82 -100 -186.5 -159 t-238.5 -59q-123 0 -191 50.5t-90 147.5h-2zM1133 818q-62 0 -106.5 -28.5t-74.5 -72t-47.5 -94.5t-24.5 -96q34 1 70.5 5t71 11.5t64.5 18t51 24.5q82 55 82 146q0 35 -20 60.5t-66 25.5z" glyph-name="uni04D5" horiz-adv-x="1479" unicode="ӕ"/>
<glyph d="M1374 1356q-21 -88 -48.5 -180.5t-59.5 -174.5h-80l-44 228h-479l-92 -473h338l114 148h62q-5 -48 -12.5 -100.5t-18.5 -110.5q-23 -116 -52 -216h-62l-56 153h-338l-98 -504h484l151 246h79q1 -38 -1 -84t-6 -95.5t-10.5 -99t-15.5 -93.5h-1154l14 74q37 17 80 32.5 t90 23.5l213 1095q-38 9 -78.5 23t-69.5 34l15 74h1135zM877 1445q-90 0 -159.5 16.5t-115.5 48.5t-64.5 80t-6.5 111q37 24 98 32q30 4 57 6.5t51 3.5l58 -35l-29 -151q25 -13 59.5 -18t69.5 -5q13 0 31 1t36.5 3t36.5 5t33 8l31 157l73 35q17 2 39.5 0t49.5 -7t50 -13.5 t42 -21.5q-24 -123 -142 -190q-117 -66 -298 -66z" glyph-name="uni04D6" horiz-adv-x="1366" unicode="Ӗ"/>
<glyph d="M803 212q-32 -46 -76 -88t-97.5 -74.5t-114.5 -52t-128 -19.5q-160 0 -244 87t-84 248q0 76 19 150.5t53 140.5t80.5 121.5t101.5 94.5q140 101 315 101q51 0 102 -12.5t89 -44.5q26 -22 41.5 -53t15.5 -75q0 -62 -32.5 -112t-93.5 -90q-30 -20 -74.5 -36t-99.5 -28.5 t-118 -21t-131 -13.5q-5 -25 -7.5 -56t-2.5 -54q0 -44 10.5 -81t33 -64t57.5 -42.5t84 -15.5q34 0 69 11t68 30t63.5 43t56.5 51zM572 818q-45 0 -83.5 -27t-67.5 -67q-32 -46 -51.5 -99.5t-29.5 -97.5q33 1 68 5t67.5 11.5t60.5 18t49 24.5q42 28 64 64.5t22 81.5 q0 35 -24 60.5t-75 25.5zM643 1137q-192 0 -265 69q-74 70 -51 186q32 24 86.5 36.5t111.5 15.5l61 -24l-33 -173q43 -21 110 -21q19 0 48.5 3.5t59.5 11.5l34 179l70 24q53 -3 100.5 -14.5t69.5 -37.5q-11 -58 -40.5 -105t-78.5 -80.5t-119.5 -51.5t-163.5 -18z" glyph-name="uni04D7" horiz-adv-x="909" unicode="ӗ"/>
<glyph d="M611 -24q-119 1 -216.5 36t-167 100t-107.5 157t-38 208q0 31 5 67.5t12 72t15.5 66t15.5 49.5h989q20 145 2 245t-68 161t-128 88t-177 27q-20 0 -47 -2t-54.5 -6t-54 -9t-46.5 -12l-166 -298h-82q0 44 2 95.5t6.5 101.5t10 94t12.5 73q54 22 119.5 38.5t133.5 28 t134 17t122 5.5q144 0 256.5 -37.5t190 -108t118.5 -172.5t41 -231q0 -128 -27.5 -241.5t-79 -209t-125 -171t-166 -127.5t-202.5 -79t-233 -26zM640 103q91 0 165 38t130.5 105t96 159.5t62.5 200.5h-673q-8 -26 -21 -79.5t-13 -124.5q0 -59 13 -113t43 -95t78.5 -66 t118.5 -25z" glyph-name="uni04D8" horiz-adv-x="1479" unicode="Ә"/>
<glyph d="M431 818q-14 0 -33 -3.5t-37 -11.5q-34 -36 -62 -80t-59 -86q-18 7 -35 28t-28.5 48.5t-15 59t6.5 58.5q17 13 47.5 28.5t73 29t96 23t116.5 9.5q76 0 139.5 -21.5t108.5 -63.5t70 -104.5t25 -144.5q0 -124 -38.5 -234.5t-109 -194t-169 -132t-218.5 -48.5 q-60 0 -113.5 13.5t-93.5 42.5t-63.5 73.5t-23.5 106.5q0 57 32 116.5t100 105.5t175.5 70.5t258.5 11.5q4 9 4 23.5v23.5q0 50 -7 96t-24.5 81t-47 55.5t-75.5 20.5zM350 81q30 0 64.5 20.5t63.5 62.5q60 86 91 262q-78 13 -138 -1.5t-100 -48.5t-60.5 -83t-20.5 -104 q0 -54 26 -81t74 -27z" glyph-name="afii10846" horiz-adv-x="909" unicode="ә"/>
<glyph d="M611 -24q-119 1 -216.5 36t-167 100t-107.5 157t-38 208q0 31 5 67.5t12 72t15.5 66t15.5 49.5h989q20 145 2 245t-68 161t-128 88t-177 27q-20 0 -47 -2t-54.5 -6t-54 -9t-46.5 -12l-166 -298h-82q0 44 2 95.5t6.5 101.5t10 94t12.5 73q54 22 119.5 38.5t133.5 28 t134 17t122 5.5q144 0 256.5 -37.5t190 -108t118.5 -172.5t41 -231q0 -128 -27.5 -241.5t-79 -209t-125 -171t-166 -127.5t-202.5 -79t-233 -26zM640 103q91 0 165 38t130.5 105t96 159.5t62.5 200.5h-673q-8 -26 -21 -79.5t-13 -124.5q0 -59 13 -113t43 -95t78.5 -66 t118.5 -25zM515 1596q0 62 44.5 93t112.5 31q67 0 112 -31t45 -93q0 -54 -45 -84.5t-112 -30.5q-68 0 -112.5 30.5t-44.5 84.5zM990 1596q0 62 45.5 93t113.5 31q67 0 111.5 -31t44.5 -93q0 -54 -44.5 -84.5t-111.5 -30.5q-68 0 -113.5 30.5t-45.5 84.5z" glyph-name="uni04DA" horiz-adv-x="1479" unicode="Ӛ"/>
<glyph d="M431 818q-14 0 -33 -3.5t-37 -11.5q-34 -36 -62 -80t-59 -86q-18 7 -35 28t-28.5 48.5t-15 59t6.5 58.5q17 13 47.5 28.5t73 29t96 23t116.5 9.5q76 0 139.5 -21.5t108.5 -63.5t70 -104.5t25 -144.5q0 -124 -38.5 -234.5t-109 -194t-169 -132t-218.5 -48.5 q-60 0 -113.5 13.5t-93.5 42.5t-63.5 73.5t-23.5 106.5q0 57 32 116.5t100 105.5t175.5 70.5t258.5 11.5q4 9 4 23.5v23.5q0 50 -7 96t-24.5 81t-47 55.5t-75.5 20.5zM350 81q30 0 64.5 20.5t63.5 62.5q60 86 91 262q-78 13 -138 -1.5t-100 -48.5t-60.5 -83t-20.5 -104 q0 -54 26 -81t74 -27zM186 1287q0 61 38.5 98t102.5 37q62 0 102 -37t40 -98q0 -59 -40 -96t-102 -37q-64 0 -102.5 37t-38.5 96zM585 1287q0 61 39 98t101 37q64 0 103.5 -37t39.5 -98q0 -59 -39.5 -96t-103.5 -37q-62 0 -101 37t-39 96z" glyph-name="uni04DB" horiz-adv-x="909" unicode="ӛ"/>
<glyph d="M926 1225q-37 11 -65.5 26t-49.5 31l15 74h504l-15 -74q-43 -28 -125 -57l-96 -493l137 29l345 464q-37 11 -70 26t-61 31l15 74h514l-15 -74q-33 -16 -71 -31t-79 -26l-417 -473q28 -61 58.5 -139.5t66 -164t79 -172t98.5 -163.5l70 -47l-13 -66h-313l-70 66 q-17 39 -35 89.5t-35.5 106t-34 112t-32 107t-28.5 92t-23 66.5h-104l-99 -509q32 -10 59 -24.5t53 -31.5l-14 -74h-522l14 74q30 17 66 31.5t80 24.5l103 526l-117 -28q-51 -75 -91.5 -144.5t-80 -137.5t-83.5 -137.5t-103 -142.5l-96 -66h-323l13 66l89 46 q79 76 146.5 159t128 165t116 158t111.5 138l-237 493q-37 11 -67 26t-51 31l15 74h510l-15 -74q-27 -16 -64.5 -31t-79.5 -26l173 -475h124zM715 1596q0 62 44.5 93t112.5 31q67 0 112 -31t45 -93q0 -54 -45 -84.5t-112 -30.5q-68 0 -112.5 30.5t-44.5 84.5zM1190 1596 q0 62 45.5 93t113.5 31q67 0 111.5 -31t44.5 -93q0 -54 -44.5 -84.5t-111.5 -30.5q-68 0 -113.5 30.5t-45.5 84.5z" glyph-name="uni04DC" horiz-adv-x="1880" unicode="Ӝ"/>
<glyph d="M106 685q11 19 27 41t35 43.5t39.5 41t39.5 33.5q27 20 52.5 32.5t50 20t49.5 10.5t52 3q51 0 94.5 -17t75 -47.5t49 -73.5t17.5 -94q0 -48 -4.5 -94t-12.5 -83h202l81 398h228l-82 -398h201q15 45 37.5 88t50 82t58 72.5t60.5 60.5q55 48 124.5 77t138.5 29 q50 0 90.5 -17t62.5 -33q2 -19 -3 -45.5t-17 -53.5t-31.5 -51t-46.5 -39l-97 124q-29 -2 -62 -29t-57 -66q-17 -27 -34 -66.5t-31.5 -90t-23.5 -112.5t-9 -134q0 -30 7 -59t22 -52.5t39 -38t59 -14.5q22 0 46.5 8t49 21.5t46.5 30.5t40 35l31 -42q-70 -97 -154 -147 t-172 -50q-62 0 -110 20.5t-82 57t-51.5 86.5t-17.5 109q0 44 5 81t12 65h-202l-82 -408h-227l83 408h-208q-14 -48 -35 -90.5t-45 -78.5t-49.5 -66t-47.5 -52q-28 -28 -62.5 -52t-72.5 -42t-78 -28t-78 -10q-55 0 -93 17.5t-67 37.5q-3 23 2 52t18 57t32.5 51t45.5 34 l93 -130q10 0 23.5 4t29.5 13.5t33.5 26.5t35.5 44q20 30 40 75.5t35.5 100t25 114t9.5 118.5q0 27 -5.5 55.5t-18.5 52t-35 39t-56 15.5q-31 0 -58.5 -12.5t-50.5 -30.5t-41 -36.5t-29 -30.5zM768 1287q0 61 38.5 98t102.5 37q62 0 102 -37t40 -98q0 -59 -40 -96t-102 -37 q-64 0 -102.5 37t-38.5 96zM1167 1287q0 61 39 98t101 37q64 0 103.5 -37t39.5 -98q0 -59 -39.5 -96t-103.5 -37q-62 0 -101 37t-39 96z" glyph-name="uni04DD" horiz-adv-x="1950" unicode="ӝ"/>
<glyph d="M361 -24q-55 0 -112.5 6t-111 16.5t-99.5 24.5t-76 29q8 31 23 75.5t33.5 92.5t40 95.5t41.5 85.5h81l23 -275q31 -11 71 -17t82 -6q64 0 118 27t93 73t60.5 107.5t21.5 129.5q0 102 -36 145t-122 43l-155 -26q-2 35 4.5 79.5t24.5 81.5h63q16 -1 36 -0.5t41 1.5t41 3 t35 4q24 12 52 41t51 69t38.5 88.5t15.5 99.5q0 39 -5.5 72.5t-21 58.5t-44 39t-73.5 14q-46 0 -81.5 -12.5t-50.5 -24.5l-143 -246h-82q-2 28 -1.5 66.5t3 82t7 89t11.5 87.5q42 22 93 38t102.5 26.5t101 15t88.5 4.5q85 0 158.5 -13t128 -44.5t85.5 -84.5t31 -132 q0 -68 -27.5 -128t-70 -109t-94 -85t-100.5 -57l-1 -7q44 -11 82 -32.5t66 -55.5t44 -80t16 -106q0 -45 -10 -91.5t-30 -91t-50.5 -85t-70.5 -74.5q-77 -64 -187 -95.5t-252 -31.5zM263 1596q0 62 44.5 93t112.5 31q67 0 112 -31t45 -93q0 -54 -45 -84.5t-112 -30.5 q-68 0 -112.5 30.5t-44.5 84.5zM738 1596q0 62 45.5 93t113.5 31q67 0 111.5 -31t44.5 -93q0 -54 -44.5 -84.5t-111.5 -30.5q-68 0 -113.5 30.5t-45.5 84.5z" glyph-name="uni04DE" horiz-adv-x="1042" unicode="Ӟ"/>
<glyph d="M-36 74q0 24 11.5 54.5t29.5 59t41 51t46 31.5l113 -180q11 -4 26.5 -6.5t30.5 -2.5q39 0 74 13.5t61.5 40t42 65.5t15.5 90q0 30 -6 53.5t-21 41t-40.5 28t-64.5 13.5l-117 -32q-14 23 -14 60q0 36 14 61h119q49 15 77 36.5t47 49.5q37 56 37 109q0 108 -122 108 q-15 0 -30.5 -2.5t-33.5 -5.5q-14 -14 -29 -34t-32 -45t-31.5 -46.5t-27.5 -39.5q-14 5 -28 19t-25.5 34t-19 43.5t-7.5 47.5q0 12 1.5 25.5t6.5 24.5q34 25 122 52q36 11 89.5 20.5t119.5 9.5q53 0 107.5 -6.5t102.5 -30.5q43 -22 68.5 -59.5t25.5 -83.5q0 -81 -56.5 -146 t-184.5 -109q52 0 92 -15.5t67 -41t41 -57.5t14 -65q0 -60 -28 -119t-83 -105.5t-135.5 -75.5t-186.5 -29q-50 0 -99.5 7.5t-92.5 21t-76.5 30.5t-50.5 37zM148 1287q0 61 38.5 98t102.5 37q62 0 102 -37t40 -98q0 -59 -40 -96t-102 -37q-64 0 -102.5 37t-38.5 96zM547 1287 q0 61 39 98t101 37q64 0 103.5 -37t39.5 -98q0 -59 -39.5 -96t-103.5 -37q-62 0 -101 37t-39 96z" glyph-name="uni04DF" horiz-adv-x="799" unicode="ӟ"/>
<glyph d="M672 767q56 1 118.5 -14t115 -50t87.5 -91.5t36 -138.5q0 -63 -15 -118.5t-40 -102.5t-58.5 -85t-70.5 -68q-88 -70 -194.5 -96.5t-234.5 -26.5q-55 0 -113.5 6t-112.5 16.5t-100 24.5t-76 29q6 30 21.5 75t35.5 94t42 97t41 83h79l26 -275q17 -8 50 -15.5t76 -7.5 q79 0 140.5 30t103.5 78t63.5 108.5t21.5 122.5q0 108 -49.5 154.5t-148.5 46.5l-132 -27q-5 35 0 74t28 81l120 2l291 334l77 70l1 8l-140 -15h-309l-118 -213h-66q-3 43 -2.5 97.5t3.5 110t8 106t12 85.5h852l-18 -96l-346 -399z" glyph-name="uni04E0" horiz-adv-x="1107" unicode="Ӡ"/>
<glyph d="M448 342q78 -2 134 -21t92 -53t53 -82.5t17 -109.5q0 -100 -43 -184t-117.5 -144.5t-174 -94.5t-213.5 -34q-55 0 -108.5 9.5t-100 26t-83 37.5t-57.5 45l85 169h52q13 -13 26 -30t26 -39q13 -23 23 -42t18 -35q17 -7 49 -15.5t63 -8.5q56 0 108 26.5t91.5 72.5 t63.5 106.5t24 128.5q0 81 -41 126t-119 49l-127 -24q-4 23 2 62q8 40 23 64h96l314 305l77 69l2 7l-99 -11h-304l-92 -181h-61q-4 38 -6.5 87.5t-2.5 100t3.5 97t10.5 78.5h779v-88l-380 -385z" glyph-name="uni04E1" horiz-adv-x="965" unicode="ӡ"/>
<glyph d="M557 0h-582l14 74q41 19 84.5 34.5t85.5 21.5l213 1095q-37 11 -76.5 23t-71.5 34l15 74h582l-15 -74q-31 -18 -71 -33t-84 -24l-143 -729l-38 -131l115 148l622 666l9 46q-86 22 -142 57l15 74h583l-15 -74q-37 -22 -81 -34t-89 -23l-213 -1095q44 -8 80 -22.5t68 -33.5 l-14 -74h-583l14 74q30 13 71 29.5t86 26.5l143 727l39 124l-107 -124l-633 -685l-8 -42q44 -10 79 -25.5t62 -30.5zM778 1518l26 136h627l-26 -136h-627z" glyph-name="uni04E2" horiz-adv-x="1593" unicode="Ӣ"/>
<glyph d="M1099 124v-61q-18 -15 -48 -29t-65 -25t-73.5 -18t-76.5 -7q-65 0 -89 26t-24 55q0 32 7.5 89.5t28.5 133.5h-7q-24 -43 -60 -97t-84 -102t-111.5 -79.5t-138.5 -31.5q-74 0 -119.5 44.5t-45.5 125.5q0 39 11.5 113t28.5 161t38 179.5t37 170.5l-107 23v61q29 11 72 22 t90 19.5t95.5 15t87.5 8.5l41 -22q-29 -135 -59 -256t-55 -257q-9 -43 -19 -95t-10 -104q0 -32 17.5 -48.5t41.5 -16.5q46 0 90 35t81 84.5t64.5 102t40.5 85.5l93 470h243l-142 -775h126zM419 1199v135h569v-135h-569z" glyph-name="uni04E3" horiz-adv-x="1139" unicode="ӣ"/>
<glyph d="M557 0h-582l14 74q41 19 84.5 34.5t85.5 21.5l213 1095q-37 11 -76.5 23t-71.5 34l15 74h582l-15 -74q-31 -18 -71 -33t-84 -24l-143 -729l-38 -131l115 148l622 666l9 46q-86 22 -142 57l15 74h583l-15 -74q-37 -22 -81 -34t-89 -23l-213 -1095q44 -8 80 -22.5t68 -33.5 l-14 -74h-583l14 74q30 13 71 29.5t86 26.5l143 727l39 124l-107 -124l-633 -685l-8 -42q44 -10 79 -25.5t62 -30.5zM572 1596q0 62 44.5 93t112.5 31q67 0 112 -31t45 -93q0 -54 -45 -84.5t-112 -30.5q-68 0 -112.5 30.5t-44.5 84.5zM1047 1596q0 62 45.5 93t113.5 31 q67 0 111.5 -31t44.5 -93q0 -54 -44.5 -84.5t-111.5 -30.5q-68 0 -113.5 30.5t-45.5 84.5z" glyph-name="uni04E4" horiz-adv-x="1593" unicode="Ӥ"/>
<glyph d="M1099 124v-61q-18 -15 -48 -29t-65 -25t-73.5 -18t-76.5 -7q-65 0 -89 26t-24 55q0 32 7.5 89.5t28.5 133.5h-7q-24 -43 -60 -97t-84 -102t-111.5 -79.5t-138.5 -31.5q-74 0 -119.5 44.5t-45.5 125.5q0 39 11.5 113t28.5 161t38 179.5t37 170.5l-107 23v61q29 11 72 22 t90 19.5t95.5 15t87.5 8.5l41 -22q-29 -135 -59 -256t-55 -257q-9 -43 -19 -95t-10 -104q0 -32 17.5 -48.5t41.5 -16.5q46 0 90 35t81 84.5t64.5 102t40.5 85.5l93 470h243l-142 -775h126zM412 1287q0 61 38.5 98t102.5 37q62 0 102 -37t40 -98q0 -59 -40 -96t-102 -37 q-64 0 -102.5 37t-38.5 96zM811 1287q0 61 39 98t101 37q64 0 103.5 -37t39.5 -98q0 -59 -39.5 -96t-103.5 -37q-62 0 -101 37t-39 96z" glyph-name="uni04E5" horiz-adv-x="1139" unicode="ӥ"/>
<glyph d="M82 548q0 113 28 218.5t79 198t123.5 168.5t162.5 131t194.5 85t220.5 30q134 0 237 -42.5t173.5 -118.5t107 -180.5t36.5 -228.5q0 -173 -57 -325t-162.5 -265t-257 -178t-340.5 -65q-134 0 -235.5 42.5t-170.5 119t-104 181t-35 229.5zM407 533q0 -92 14 -170.5 t44.5 -136t78.5 -90.5t116 -33q75 0 138 28.5t114 79t89.5 120t65 151.5t39.5 173t13 185q0 90 -14 165.5t-45 130.5t-80 86t-119 31q-74 0 -137 -29.5t-113.5 -81t-88.5 -121t-63.5 -149.5t-38.5 -167t-13 -172zM565 1596q0 62 44.5 93t112.5 31q67 0 112 -31t45 -93 q0 -54 -45 -84.5t-112 -30.5q-68 0 -112.5 30.5t-44.5 84.5zM1040 1596q0 62 45.5 93t113.5 31q67 0 111.5 -31t44.5 -93q0 -54 -44.5 -84.5t-111.5 -30.5q-68 0 -113.5 30.5t-45.5 84.5z" glyph-name="uni04E6" horiz-adv-x="1479" unicode="Ӧ"/>
<glyph d="M64 345q0 64 14.5 132t43.5 132t73.5 120.5t104.5 99t135 67.5t167 25q162 0 253.5 -88t91.5 -263q0 -119 -36 -226t-104.5 -188.5t-167 -129.5t-222.5 -48q-77 0 -141.5 22.5t-111.5 68.5t-73.5 115t-26.5 161zM571 818q-72 0 -120 -54q-48 -55 -77 -136t-42 -177 q-7 -48 -10 -91.5t-3 -84.5q0 -91 35.5 -142.5t96.5 -51.5q52 0 96 44.5t76.5 118.5t50.5 170.5t18 200.5q0 100 -32 151.5t-89 51.5zM312 1287q0 61 38.5 98t102.5 37q62 0 102 -37t40 -98q0 -59 -40 -96t-102 -37q-64 0 -102.5 37t-38.5 96zM711 1287q0 61 39 98t101 37 q64 0 103.5 -37t39.5 -98q0 -59 -39.5 -96t-103.5 -37q-62 0 -101 37t-39 96z" glyph-name="uni04E7" unicode="ӧ"/>
<glyph d="M82 548q0 113 28 218.5t79 198t123.5 168.5t162.5 131t194.5 85t220.5 30q134 0 237 -42.5t173.5 -118.5t107 -180.5t36.5 -228.5q0 -173 -57 -325t-162.5 -265t-257 -178t-340.5 -65q-134 0 -235.5 42.5t-170.5 119t-104 181t-35 229.5zM407 533q0 -92 14 -170.5 t44.5 -136t78.5 -90.5t116 -33q89 0 161.5 40t127.5 109.5t92.5 162.5t57.5 199h-689q-3 -41 -3 -81zM861 1253q-87 0 -158 -39.5t-125 -107t-91 -156.5t-57 -187h687q1 19 1.5 38t0.5 39q0 90 -14 165.5t-45 130.5t-80 86t-119 31z" glyph-name="uni04E8" horiz-adv-x="1479" unicode="Ө"/>
<glyph d="M64 345q0 64 14.5 132t43.5 132t73.5 120.5t104.5 99t135 67.5t167 25q162 0 253.5 -88t91.5 -263q0 -119 -36 -226t-104.5 -188.5t-167 -129.5t-222.5 -48q-77 0 -141.5 22.5t-111.5 68.5t-73.5 115t-26.5 161zM571 818q-72 0 -120 -54q-48 -55 -77 -136 q-11 -30 -19.5 -62t-14.5 -66h347q6 55 6 115q0 100 -32.5 151.5t-89.5 51.5zM451 81q37 0 70.5 23.5t62 64.5t50.5 98t36 123h-346q-3 -31 -4 -59.5t-1 -55.5q0 -91 35.5 -142.5t96.5 -51.5z" glyph-name="uni04E9" unicode="ө"/>
<glyph d="M82 548q0 113 28 218.5t79 198t123.5 168.5t162.5 131t194.5 85t220.5 30q134 0 237 -42.5t173.5 -118.5t107 -180.5t36.5 -228.5q0 -173 -57 -325t-162.5 -265t-257 -178t-340.5 -65q-134 0 -235.5 42.5t-170.5 119t-104 181t-35 229.5zM407 533q0 -92 14 -170.5 t44.5 -136t78.5 -90.5t116 -33q89 0 161.5 40t127.5 109.5t92.5 162.5t57.5 199h-689q-3 -41 -3 -81zM861 1253q-87 0 -158 -39.5t-125 -107t-91 -156.5t-57 -187h687q1 19 1.5 38t0.5 39q0 90 -14 165.5t-45 130.5t-80 86t-119 31zM565 1596q0 62 44.5 93t112.5 31 q67 0 112 -31t45 -93q0 -54 -45 -84.5t-112 -30.5q-68 0 -112.5 30.5t-44.5 84.5zM1040 1596q0 62 45.5 93t113.5 31q67 0 111.5 -31t44.5 -93q0 -54 -44.5 -84.5t-111.5 -30.5q-68 0 -113.5 30.5t-45.5 84.5z" glyph-name="uni04EA" horiz-adv-x="1479" unicode="Ӫ"/>
<glyph d="M64 345q0 64 14.5 132t43.5 132t73.5 120.5t104.5 99t135 67.5t167 25q162 0 253.5 -88t91.5 -263q0 -119 -36 -226t-104.5 -188.5t-167 -129.5t-222.5 -48q-77 0 -141.5 22.5t-111.5 68.5t-73.5 115t-26.5 161zM571 818q-72 0 -120 -54q-48 -55 -77 -136 q-11 -30 -19.5 -62t-14.5 -66h347q6 55 6 115q0 100 -32.5 151.5t-89.5 51.5zM451 81q37 0 70.5 23.5t62 64.5t50.5 98t36 123h-346q-3 -31 -4 -59.5t-1 -55.5q0 -91 35.5 -142.5t96.5 -51.5zM312 1287q0 61 38.5 98t102.5 37q62 0 102 -37t40 -98q0 -59 -40 -96t-102 -37 q-64 0 -102.5 37t-38.5 96zM711 1287q0 61 39 98t101 37q64 0 103.5 -37t39.5 -98q0 -59 -39.5 -96t-103.5 -37q-62 0 -101 37t-39 96z" glyph-name="uni04EB" unicode="ӫ"/>
</font>
</defs>
</svg>
